<svg width="44" height="44" viewBox="0 0 44 44" fill="none" xmlns="http://www.w3.org/2000/svg">
<path d="M6.4165 22.9167V35.75C6.4165 36.6043 6.4165 37.0315 6.55584 37.3688C6.7423 37.8172 7.099 38.1732 7.54767 38.3588C7.885 38.5 8.31217 38.5 9.1665 38.5C10.0208 38.5 10.448 38.5 10.7853 38.3607C11.2337 38.1742 11.5897 37.8175 11.7753 37.3688C11.9165 37.0315 11.9165 36.6043 11.9165 35.75V22.9167C11.9165 22.0623 11.9165 21.6352 11.7772 21.2978C11.5907 20.8495 11.234 20.4935 10.7853 20.3078C10.448 20.1667 10.0208 20.1667 9.1665 20.1667C8.31217 20.1667 7.885 20.1667 7.54767 20.306C7.09935 20.4925 6.74331 20.8492 6.55767 21.2978C6.4165 21.6352 6.4165 22.0623 6.4165 22.9167ZM19.2498 26.5833V35.75C19.2498 36.6025 19.2498 37.0297 19.3892 37.367C19.5752 37.816 19.932 38.1728 20.381 38.3588C20.7183 38.5 21.1455 38.5 21.9998 38.5C22.8542 38.5 23.2813 38.5 23.6187 38.3588C24.0666 38.1728 24.4226 37.8168 24.6087 37.3688C24.7498 37.0297 24.7498 36.6025 24.7498 35.75V26.5833C24.7498 25.729 24.7498 25.3018 24.6105 24.9645C24.424 24.5162 24.0673 24.1601 23.6187 23.9745C23.2813 23.8333 22.8542 23.8333 21.9998 23.8333C21.1455 23.8333 20.7183 23.8333 20.381 23.9727C19.9327 24.1591 19.5766 24.5158 19.391 24.9645C19.2498 25.3018 19.2498 25.729 19.2498 26.5833ZM32.0832 19.25V35.75C32.0832 36.6043 32.0832 37.0315 32.2225 37.3688C32.409 37.8172 32.7657 38.1732 33.2143 38.3588C33.5517 38.5 33.9788 38.5 34.8332 38.5C35.6875 38.5 36.1147 38.5 36.452 38.3607C36.9003 38.1742 37.2564 37.8175 37.442 37.3688C37.5832 37.0315 37.5832 36.6043 37.5832 35.75V19.25C37.5832 18.3957 37.5832 17.9685 37.4438 17.6312C37.2574 17.1828 36.9007 16.8268 36.452 16.6412C36.1147 16.5 35.6875 16.5 34.8332 16.5C33.9788 16.5 33.5517 16.5 33.2143 16.6393C32.766 16.8258 32.41 17.1825 32.2243 17.6312C32.0832 17.9685 32.0832 18.3957 32.0832 19.25Z" stroke="#1E7A7E" stroke-width="2.75" stroke-linecap="square" stroke-linejoin="round"/>
<path d="M11.812 12.672L19.3562 14.828M24.3887 14.2175L32.4462 9.61583M11.9165 11.9167C11.9165 12.646 11.6268 13.3455 11.111 13.8612C10.5953 14.3769 9.89585 14.6667 9.1665 14.6667C8.43716 14.6667 7.73769 14.3769 7.22196 13.8612C6.70624 13.3455 6.4165 12.646 6.4165 11.9167C6.4165 11.1873 6.70624 10.4878 7.22196 9.97212C7.73769 9.4564 8.43716 9.16667 9.1665 9.16667C9.89585 9.16667 10.5953 9.4564 11.111 9.97212C11.6268 10.4878 11.9165 11.1873 11.9165 11.9167ZM37.5832 8.25C37.5832 8.97935 37.2934 9.67882 36.7777 10.1945C36.262 10.7103 35.5625 11 34.8332 11C34.1038 11 33.4044 10.7103 32.8886 10.1945C32.3729 9.67882 32.0832 8.97935 32.0832 8.25C32.0832 7.52065 32.3729 6.82118 32.8886 6.30546C33.4044 5.78973 34.1038 5.5 34.8332 5.5C35.5625 5.5 36.262 5.78973 36.7777 6.30546C37.2934 6.82118 37.5832 7.52065 37.5832 8.25ZM24.7498 15.5833C24.7498 16.3127 24.4601 17.0122 23.9444 17.5279C23.4287 18.0436 22.7292 18.3333 21.9998 18.3333C21.2705 18.3333 20.571 18.0436 20.0553 17.5279C19.5396 17.0122 19.2498 16.3127 19.2498 15.5833C19.2498 14.854 19.5396 14.1545 20.0553 13.6388C20.571 13.1231 21.2705 12.8333 21.9998 12.8333C22.7292 12.8333 23.4287 13.1231 23.9444 13.6388C24.4601 14.1545 24.7498 14.854 24.7498 15.5833Z" stroke="#1E7A7E" stroke-width="2.75"/>
</svg>
