<svg width="22" height="28" viewBox="0 0 22 28" fill="none" xmlns="http://www.w3.org/2000/svg">
<path d="M19.6011 12.106H18.4894V10.9748C18.4894 10.8558 18.4894 10.7962 18.4309 10.6772C18.0798 7.93868 13.516 6.74805 9.24471 6.74805C4.97342 6.74805 0.351118 7.93868 0.0585289 10.6772C0.0585289 10.7367 0 10.8558 0 10.9748V23.4766C0 25.977 1.98938 28.0011 4.44682 28.0011H13.9841C16.4415 28.0011 18.4309 25.977 18.4894 23.4766V23.179H19.6011C20.9468 23.179 22 22.1074 22 20.7382V14.5468C22.0001 13.1775 20.9469 12.106 19.6011 12.106ZM13.9841 25.6198H4.50541C3.27668 25.6198 2.3405 24.6673 2.3405 23.4767V14.011C4.15434 14.904 6.72879 15.3208 9.24476 15.3208C11.7022 15.3208 14.3352 14.904 16.149 14.011V23.4767C16.149 24.6673 15.1543 25.6198 13.9841 25.6198ZM9.24476 12.9394C4.68094 12.9394 2.28202 11.5107 2.28202 11.0344C2.28202 10.5581 4.68094 9.12942 9.24476 9.12942C13.8086 9.12942 16.149 10.5582 16.2075 11.0344C16.2076 11.5106 13.8086 12.9394 9.24476 12.9394ZM19.7767 20.7382C19.7767 20.7977 19.7181 20.8572 19.6597 20.8572H18.4895V14.4277H19.6597C19.7182 14.4277 19.7767 14.4873 19.7767 14.5468V20.7382Z" fill="black"/>
<path d="M6.43732 4.129C6.49585 4.06945 6.49585 3.95041 6.55432 3.83136C6.67132 3.53372 6.78838 3.17652 6.84686 2.81933C6.90538 2.22399 6.72985 1.6287 6.43726 1.1524C6.0862 0.616611 5.38407 0.438014 4.85748 0.795209C4.33088 1.1524 4.15535 1.86679 4.50641 2.40258C4.56494 2.46213 4.56494 2.52163 4.56494 2.58118C4.56494 2.64073 4.50641 2.81933 4.44794 2.99792C4.27241 3.41467 4.0384 4.06951 4.27241 4.84345C4.44794 5.31969 4.799 5.79598 5.3256 6.09363C5.50113 6.21267 5.73519 6.27222 5.91072 6.27222C6.32031 6.27222 6.67138 6.03407 6.78838 5.67688C7.08092 5.14103 6.96391 4.4862 6.43732 4.129Z" fill="black"/>
<path d="M11.4104 3.65185C11.3519 3.65185 11.2934 3.5923 11.2349 3.5923C11.2349 3.47325 11.2934 3.4137 11.3519 3.29466C11.7029 2.40167 11.5274 1.50869 11.4104 0.913345C11.2934 0.318002 10.7083 -0.098687 10.0647 0.0203591C9.47955 0.139405 9.07001 0.734748 9.18702 1.38958C9.24555 1.74678 9.36255 2.16352 9.24555 2.40162C9.18702 2.46117 9.18702 2.52066 9.12854 2.58021C8.95301 2.87786 8.71895 3.2946 8.77748 3.88994C8.89448 5.08057 10.0062 5.61636 10.4158 5.79496C10.5913 5.85451 10.7083 5.91401 10.8839 5.91401C11.2935 5.91401 11.703 5.67586 11.9956 5.19962C12.2295 4.60433 11.9955 3.88994 11.4104 3.65185Z" fill="black"/>
</svg>
