<svg width="33" height="33" viewBox="0 0 33 33" fill="none" xmlns="http://www.w3.org/2000/svg">
<path d="M0 30.9375H33V33H0V30.9375ZM0 0V12.375C0.0103125 13.8848 0.827063 15.2006 2.04394 15.9122L2.0625 28.875H20.625V18.5625H26.8125V28.875H30.9375V15.9225C32.1729 15.2006 32.9897 13.8847 33 12.3771V0H0ZM8.25 4.125H12.375V12.375C12.375 12.922 12.1577 13.4466 11.7709 13.8334C11.3841 14.2202 10.8595 14.4375 10.3125 14.4375C9.76549 14.4375 9.24089 14.2202 8.85409 13.8334C8.4673 13.4466 8.25 12.922 8.25 12.375V4.125ZM4.125 14.4375C3.57799 14.4375 3.05339 14.2202 2.66659 13.8334C2.2798 13.4466 2.0625 12.922 2.0625 12.375V4.125H6.1875V12.375C6.1875 12.922 5.9702 13.4466 5.58341 13.8334C5.19661 14.2202 4.67201 14.4375 4.125 14.4375ZM16.5 24.75H6.1875V18.5625H16.5V24.75ZM18.5625 12.375C18.5625 12.922 18.3452 13.4466 17.9584 13.8334C17.5716 14.2202 17.047 14.4375 16.5 14.4375C15.953 14.4375 15.4284 14.2202 15.0416 13.8334C14.6548 13.4466 14.4375 12.922 14.4375 12.375V4.125H18.5625V12.375ZM24.75 12.375C24.75 12.922 24.5327 13.4466 24.1459 13.8334C23.7591 14.2202 23.2345 14.4375 22.6875 14.4375C22.1405 14.4375 21.6159 14.2202 21.2291 13.8334C20.8423 13.4466 20.625 12.922 20.625 12.375V4.125H24.75V12.375ZM30.9375 12.375C30.9375 12.922 30.7202 13.4466 30.3334 13.8334C29.9466 14.2202 29.422 14.4375 28.875 14.4375C28.328 14.4375 27.8034 14.2202 27.4166 13.8334C27.0298 13.4466 26.8125 12.922 26.8125 12.375V4.125H30.9375V12.375Z" fill="#1E7A7E"/>
</svg>
