<svg width="33" height="29" viewBox="0 0 33 29" fill="none" xmlns="http://www.w3.org/2000/svg">
<path d="M11.3437 0C14.1926 0 16.5 2.30742 16.5 5.15625V6.1875C16.5 6.75469 16.0359 7.21875 15.4687 7.21875C12.6199 7.21875 10.3125 4.91133 10.3125 2.0625V1.03125C10.3125 0.464062 10.7766 0 11.3437 0ZM3.60937 2.0625H6.70312C7.56035 2.0625 8.25 2.75215 8.25 3.60938C8.25 4.4666 7.56035 5.15625 6.70312 5.15625H3.60937C2.75215 5.15625 2.0625 4.4666 2.0625 3.60938C2.0625 2.75215 2.75215 2.0625 3.60937 2.0625ZM1.54687 6.70312H8.76562C9.62285 6.70312 10.3125 7.39277 10.3125 8.25C10.3125 9.10723 9.62285 9.79688 8.76562 9.79688H1.54687C0.689648 9.79688 0 9.10723 0 8.25C0 7.39277 0.689648 6.70312 1.54687 6.70312ZM2.0625 12.8906C2.0625 12.0334 2.75215 11.3438 3.60937 11.3438H6.70312C7.56035 11.3438 8.25 12.0334 8.25 12.8906C8.25 13.7479 7.56035 14.4375 6.70312 14.4375H3.60937C2.75215 14.4375 2.0625 13.7479 2.0625 12.8906ZM17.5312 1.03125C17.5312 0.464062 17.9953 0 18.5625 0C21.4113 0 23.7187 2.30742 23.7187 5.15625V6.1875C23.7187 6.75469 23.2547 7.21875 22.6875 7.21875C19.8387 7.21875 17.5312 4.91133 17.5312 2.0625V1.03125ZM25.7812 0C28.6301 0 30.9375 2.30742 30.9375 5.15625V6.1875C30.9375 6.75469 30.4734 7.21875 29.9062 7.21875C27.0574 7.21875 24.75 4.91133 24.75 2.0625V1.03125C24.75 0.464062 25.2141 0 25.7812 0ZM30.9375 10.3125V11.3438C30.9375 14.1926 28.6301 16.5 25.7812 16.5C25.2141 16.5 24.75 16.0359 24.75 15.4688V14.4375C24.75 11.5887 27.0574 9.28125 29.9062 9.28125C30.4734 9.28125 30.9375 9.74531 30.9375 10.3125ZM22.6875 9.28125C23.2547 9.28125 23.7187 9.74531 23.7187 10.3125V11.3438C23.7187 14.1926 21.4113 16.5 18.5625 16.5C17.9953 16.5 17.5312 16.0359 17.5312 15.4688V14.4375C17.5312 11.5887 19.8387 9.28125 22.6875 9.28125ZM16.5 10.3125V11.3438C16.5 14.1926 14.1926 16.5 11.3437 16.5C10.7766 16.5 10.3125 16.0359 10.3125 15.4688V14.4375C10.3125 11.5887 12.6199 9.28125 15.4687 9.28125C16.0359 9.28125 16.5 9.74531 16.5 10.3125ZM0.225586 20.3414C0.103125 19.3939 0.83789 18.5625 1.7918 18.5625H31.2082C32.1621 18.5625 32.8969 19.3939 32.7809 20.3414C32.3748 23.577 29.9191 26.1035 26.8125 26.6836V26.8125C26.8125 27.9533 25.8908 28.875 24.75 28.875H8.25C7.10918 28.875 6.1875 27.9533 6.1875 26.8125V26.6836C3.08086 26.1035 0.625195 23.577 0.225586 20.3414Z" fill="#1E7A7E"/>
</svg>
