<svg width="56" height="53" viewBox="0 0 56 53" fill="none" xmlns="http://www.w3.org/2000/svg">
<path d="M19.4444 4.67647H30.3333C30.7611 4.67647 31.1111 5.02721 31.1111 5.45588V9.35294H18.6667V5.45588C18.6667 5.02721 19.0167 4.67647 19.4444 4.67647ZM14 5.45588V9.35294H6.22222C2.79028 9.35294 0 12.1491 0 15.5882V24.9412H29.6528C32.9389 22.0281 37.2653 20.2647 42 20.2647C44.7806 20.2647 47.4056 20.8687 49.7778 21.9599V15.5882C49.7778 12.1491 46.9875 9.35294 43.5556 9.35294H35.7778V5.45588C35.7778 2.4454 33.3375 0 30.3333 0H19.4444C16.4403 0 14 2.4454 14 5.45588ZM21.7778 34.2941C20.0569 34.2941 18.6667 32.9009 18.6667 31.1765V29.6176H0V40.5294C0 43.9686 2.79028 46.7647 6.22222 46.7647H25.025C23.9361 44.3875 23.3333 41.757 23.3333 38.9706C23.3333 37.3533 23.5375 35.7847 23.9167 34.2941H21.7778ZM56 38.9706C56 31.2252 49.7292 24.9412 42 24.9412C34.2708 24.9412 28 31.2252 28 38.9706C28 46.716 34.2708 53 42 53C49.7292 53 56 46.716 56 38.9706ZM42 31.1765C42.8556 31.1765 43.5556 31.8779 43.5556 32.7353V37.4118H46.6667C47.5222 37.4118 48.2222 38.1132 48.2222 38.9706C48.2222 39.8279 47.5222 40.5294 46.6667 40.5294H42C41.1444 40.5294 40.4444 39.8279 40.4444 38.9706V32.7353C40.4444 31.8779 41.1444 31.1765 42 31.1765Z" fill="#1FB6B2"/>
</svg>
