<svg width="35" height="35" viewBox="0 0 35 35" fill="none" xmlns="http://www.w3.org/2000/svg">
<rect width="35" height="35" rx="10" fill="#179A96" fill-opacity="0.2"/>
<path d="M8 13.5823C9.10682 13.5823 10 14.4773 10 15.5754V27.0071C10 28.1053 9.10682 29.0002 8 29.0002C6.89317 29.0002 5.99996 28.1052 6 27.0071V15.5754C6 14.4773 6.89321 13.5823 8 13.5823Z" stroke="#179A96" stroke-width="2"/>
<path d="M17.5 9.79053C18.6068 9.79053 19.5 10.6855 19.5 11.7837V27.0063C19.5 28.1045 18.6068 28.9995 17.5 28.9995C16.3931 28.9995 15.5 28.1045 15.5 27.0063V11.7837C15.5 10.6855 16.3932 9.79056 17.5 9.79053Z" stroke="#179A96" stroke-width="2"/>
<path d="M27 6C28.1068 6 28.9999 6.89431 29 7.99219V27.0068C28.9999 28.105 28.1067 28.999 27 28.999C25.8933 28.999 25.0001 28.105 25 27.0068V7.99316C25 6.895 25.8932 6.00003 27 6Z" stroke="#179A96" stroke-width="2"/>
</svg>
