<svg width="78" height="75" viewBox="0 0 78 75" fill="none" xmlns="http://www.w3.org/2000/svg">
<g filter="url(#filter0_i_19_138)">
<rect width="77.7881" height="75" rx="37.5" fill="#D9D9D9" fill-opacity="0.15"/>
<circle cx="38.894" cy="37.5" r="21" stroke="#1FB6B2" stroke-width="3"/>
<mask id="path-3-inside-1_19_138" fill="white">
<path d="M27.4639 39.7656C27.7744 42.5702 29.1052 45.1627 31.2031 47.0498C33.301 48.9369 36.0194 49.9869 38.8411 49.9999C41.6629 50.0129 44.3909 48.988 46.506 47.1202C48.6211 45.2525 49.9757 42.6723 50.3121 39.8707L47.7522 39.5634C47.4913 41.7369 46.4404 43.7386 44.7994 45.1876C43.1585 46.6366 41.0421 47.4317 38.853 47.4217C36.6639 47.4116 34.5549 46.597 32.9274 45.133C31.2998 43.669 30.2674 41.6577 30.0265 39.4818L27.4639 39.7656Z"/>
</mask>
<path d="M27.4639 39.7656C27.7744 42.5702 29.1052 45.1627 31.2031 47.0498C33.301 48.9369 36.0194 49.9869 38.8411 49.9999C41.6629 50.0129 44.3909 48.988 46.506 47.1202C48.6211 45.2525 49.9757 42.6723 50.3121 39.8707L47.7522 39.5634C47.4913 41.7369 46.4404 43.7386 44.7994 45.1876C43.1585 46.6366 41.0421 47.4317 38.853 47.4217C36.6639 47.4116 34.5549 46.597 32.9274 45.133C31.2998 43.669 30.2674 41.6577 30.0265 39.4818L27.4639 39.7656Z" fill="#1FB6B2" stroke="#1FB6B2" stroke-width="2" mask="url(#path-3-inside-1_19_138)"/>
<circle cx="31.894" cy="30.5" r="1" fill="#1FB6B2" stroke="#1FB6B2"/>
<circle cx="45.894" cy="30.5" r="1" fill="#1FB6B2" stroke="#1FB6B2"/>
</g>
<defs>
<filter id="filter0_i_19_138" x="0" y="-3" width="77.7881" height="78" filterUnits="userSpaceOnUse" color-interpolation-filters="sRGB">
<feFlood flood-opacity="0" result="BackgroundImageFix"/>
<feBlend mode="normal" in="SourceGraphic" in2="BackgroundImageFix" result="shape"/>
<feColorMatrix in="SourceAlpha" type="matrix" values="0 0 0 0 0 0 0 0 0 0 0 0 0 0 0 0 0 0 127 0" result="hardAlpha"/>
<feOffset dy="-3"/>
<feGaussianBlur stdDeviation="2"/>
<feComposite in2="hardAlpha" operator="arithmetic" k2="-1" k3="1"/>
<feColorMatrix type="matrix" values="0 0 0 0 0 0 0 0 0 0 0 0 0 0 0 0 0 0 0.25 0"/>
<feBlend mode="normal" in2="shape" result="effect1_innerShadow_19_138"/>
</filter>
</defs>
</svg>
