<svg width="35" height="33" viewBox="0 0 35 33" fill="none" xmlns="http://www.w3.org/2000/svg">
<path d="M0 0H6.9475L7.74229 2.91667H34.106L28.7598 18.9583H11.3458L10.6167 21.875H32.0833V24.7917H6.88333L8.70042 17.516L4.71917 2.91667H0V0ZM11.3225 16.0417H26.6569L30.0606 5.83333H8.53854L11.3225 16.0417ZM5.83333 29.1667C5.83333 28.3931 6.14062 27.6513 6.6876 27.1043C7.23459 26.5573 7.97645 26.25 8.75 26.25C9.52355 26.25 10.2654 26.5573 10.8124 27.1043C11.3594 27.6513 11.6667 28.3931 11.6667 29.1667C11.6667 29.9402 11.3594 30.6821 10.8124 31.2291C10.2654 31.776 9.52355 32.0833 8.75 32.0833C7.97645 32.0833 7.23459 31.776 6.6876 31.2291C6.14062 30.6821 5.83333 29.9402 5.83333 29.1667ZM26.25 29.1667C26.25 28.3931 26.5573 27.6513 27.1043 27.1043C27.6512 26.5573 28.3931 26.25 29.1667 26.25C29.9402 26.25 30.6821 26.5573 31.2291 27.1043C31.776 27.6513 32.0833 28.3931 32.0833 29.1667C32.0833 29.9402 31.776 30.6821 31.2291 31.2291C30.6821 31.776 29.9402 32.0833 29.1667 32.0833C28.3931 32.0833 27.6512 31.776 27.1043 31.2291C26.5573 30.6821 26.25 29.9402 26.25 29.1667Z" fill="#1E7A7E"/>
</svg>
