<svg width="75" height="75" viewBox="0 0 75 75" fill="none" xmlns="http://www.w3.org/2000/svg">
<g filter="url(#filter0_i_19_117)">
<rect width="75" height="75" rx="37.5" fill="#D9D9D9" fill-opacity="0.15"/>
<path d="M38.2812 38.849C38.8957 38.2375 38.8978 37.2435 38.286 36.6292C37.6742 36.0149 36.6803 36.0128 36.066 36.6244L38.2812 38.849ZM28.5186 33.9043L29.6279 32.7937L29.6262 32.792L28.5186 33.9043ZM36.323 26.6043C37.0522 27.0731 38.0236 26.862 38.4922 26.1327C38.961 25.4034 38.7498 24.4322 38.0206 23.9634L36.323 26.6043ZM41.1315 46.5783L40.0222 47.6891C40.0464 47.7133 40.0714 47.7368 40.0973 47.7594L41.1315 46.5783ZM50.9965 36.8847C50.5249 36.1572 49.5529 35.9498 48.8254 36.4214C48.0979 36.8931 47.8904 37.8651 48.362 38.5924L50.9965 36.8847ZM42.0836 47.4122L43.1912 46.2997L43.1554 46.2644L43.1177 46.2313L42.0836 47.4122ZM25.1055 40.4663C25.7189 39.8535 25.7195 38.8597 25.1069 38.2462C24.4942 37.6328 23.5003 37.6322 22.8869 38.245L25.1055 40.4663ZM18.6676 40.4663C19.281 39.8535 19.2816 38.8597 18.669 38.2462C18.0563 37.6328 17.0624 37.6322 16.449 38.245L18.6676 40.4663ZM36.6746 52.1235C37.2881 51.5107 37.2887 50.5169 36.6759 49.9035C36.0632 49.29 35.0695 49.2894 34.456 49.9022L36.6746 52.1235ZM36.6746 58.5535C37.2881 57.9408 37.2887 56.9469 36.6759 56.3336C36.0632 55.7202 35.0695 55.7195 34.456 56.3322L36.6746 58.5535ZM34.6383 48.354C35.2514 47.741 35.2514 46.747 34.6383 46.134C34.0253 45.5209 33.0313 45.5209 32.4183 46.134L34.6383 48.354ZM28.0178 50.5343C27.4048 51.1474 27.4048 52.1413 28.0178 52.7544C28.6309 53.3674 29.6248 53.3674 30.2378 52.7544L28.0178 50.5343ZM28.8286 42.5514C29.4417 41.9383 29.4417 40.9446 28.8286 40.3315C28.2156 39.7185 27.2217 39.7185 26.6087 40.3315L28.8286 42.5514ZM22.1779 44.7622C21.5649 45.3752 21.5649 46.369 22.1779 46.9821C22.791 47.5951 23.7849 47.5951 24.3979 46.9821L22.1779 44.7622ZM27.9985 49.1822C28.6183 48.5761 28.6294 47.5823 28.0232 46.9624C27.417 46.3426 26.4232 46.3315 25.8034 46.9377L27.9985 49.1822ZM22.2252 50.4372C21.6054 51.0433 21.5943 52.0371 22.2005 52.657C22.8067 53.2768 23.8005 53.2879 24.4203 52.6817L22.2252 50.4372ZM54.2149 31.0032L43.5684 41.6049L45.7836 43.8296L56.4301 33.2278L54.2149 31.0032ZM35.7805 41.6049L33.2798 39.1146L31.0645 41.3393L33.5652 43.8296L35.7805 41.6049ZM33.2798 31.3785L43.9265 20.7768L41.711 18.5521L31.0645 29.1538L33.2798 31.3785ZM50.321 18.1397H51.3569V15.0002H50.321V18.1397ZM56.8602 23.6134V24.6448L59.9998 24.6449V23.6134H56.8602ZM51.3569 18.1397C53.0681 18.1397 54.1944 18.1431 55.0291 18.2548C55.8194 18.3606 56.1091 18.5371 56.2865 18.7138L58.5018 16.4891C57.6434 15.6343 56.5817 15.2951 55.4458 15.1431C54.3543 14.9969 52.9798 15.0002 51.3569 15.0002V18.1397ZM59.9998 23.6134C59.9998 21.9978 60.0031 20.6275 59.8562 19.5391C59.703 18.4048 59.3612 17.3449 58.5018 16.4891L56.2865 18.7138C56.463 18.8895 56.639 19.1754 56.7449 19.9592C56.8569 20.7887 56.8602 21.9087 56.8602 23.6134H59.9998ZM33.2798 39.1146C32.0695 37.9095 31.2761 37.1146 30.7658 36.4486C30.283 35.8186 30.2054 35.4927 30.2054 35.2465H27.0658C27.0658 36.4592 27.5776 37.4496 28.2737 38.358C28.9423 39.2308 29.9171 40.1967 31.0645 41.3393L33.2798 39.1146ZM33.5652 43.8296C34.7128 44.9721 35.6827 45.9429 36.5589 46.6085C37.4714 47.3017 38.4627 47.8086 39.6743 47.8086V44.6691C39.4211 44.6691 39.0906 44.5891 38.4581 44.1086C37.7891 43.6002 36.9909 42.8101 35.7805 41.6049L33.5652 43.8296ZM56.4301 33.2278C57.8722 31.7917 58.9237 30.7841 59.4755 29.4574L56.5768 28.2516C56.3211 28.8664 55.8393 29.3856 54.2149 31.0032L56.4301 33.2278ZM56.8602 24.6448C56.8602 26.9326 56.8322 27.6375 56.5768 28.2516L59.4755 29.4574C60.0278 28.1299 59.9998 26.6756 59.9998 24.6449L56.8602 24.6448ZM43.9265 20.7768C45.55 19.1599 46.0724 18.6789 46.6922 18.4233L45.495 15.5209C44.1649 16.0695 43.1539 17.1153 41.711 18.5521L43.9265 20.7768ZM50.321 15.0002C48.2804 15.0002 46.8242 14.9726 45.495 15.5209L46.6922 18.4233C47.3125 18.1673 48.025 18.1397 50.321 18.1397V15.0002ZM34.5301 42.5844L38.2812 38.849L36.066 36.6244L32.3149 40.3598L34.5301 42.5844ZM38.0206 23.9634L36.8749 23.2269L35.1773 25.8678L36.323 26.6043L38.0206 23.9634ZM36.8749 23.2269C35.7459 22.5012 34.825 21.9079 34.0303 21.4802C33.216 21.0419 32.4402 20.724 31.5762 20.5964L31.1178 23.7023C31.4853 23.7565 31.8998 23.8989 32.5425 24.2447C33.2049 24.6013 34.0077 25.116 35.1773 25.8678L36.8749 23.2269ZM23.5295 28.6367C24.5556 27.615 25.6519 26.5237 26.6362 25.6269C27.1279 25.1789 27.5729 24.7967 27.9523 24.5046C28.356 24.1938 28.5967 24.0551 28.6936 24.0149L27.4917 21.1146C26.9975 21.3194 26.4889 21.6691 26.0372 22.0169C25.5613 22.3832 25.0449 22.8295 24.5217 23.3062C23.476 24.259 22.328 25.4026 21.3142 26.4121L23.5295 28.6367ZM31.5762 20.5964C30.2012 20.3935 28.7887 20.5771 27.4917 21.1146L28.6936 24.0149C29.4813 23.6885 30.3208 23.5847 31.1178 23.7023L31.5762 20.5964ZM22.3164 31.2624L23.0059 31.5353L24.1612 28.616L23.4717 28.3432L22.3164 31.2624ZM25.6615 33.2747L27.4109 35.0167L29.6262 32.792L27.8768 31.05L25.6615 33.2747ZM23.0059 31.5353C23.1223 31.5813 23.1672 31.5991 23.2106 31.617L24.4053 28.7137C24.3378 28.6859 24.2701 28.6591 24.1612 28.616L23.0059 31.5353ZM27.8768 31.05C27.794 30.9675 27.7425 30.9162 27.6901 30.8654L25.5052 33.1199C25.5388 33.1525 25.573 33.1865 25.6615 33.2747L27.8768 31.05ZM23.2106 31.617C24.0647 31.9685 24.8435 32.4786 25.5052 33.1199L27.6901 30.8654C26.742 29.9466 25.6271 29.2165 24.4053 28.7137L23.2106 31.617ZM21.3142 26.4121C19.799 27.9209 20.335 30.4782 22.3164 31.2624L23.4717 28.3432C23.585 28.388 23.6232 28.5434 23.5295 28.6367L21.3142 26.4121ZM48.362 38.5924L49.1017 39.7335L51.7361 38.0256L50.9965 36.8847L48.362 38.5924ZM46.3215 51.3142L46.1685 51.4665L48.3838 53.6912L48.537 53.5388L46.3215 51.3142ZM49.1017 39.7335C49.8568 40.8981 50.3734 41.6972 50.7313 42.3565C51.0783 42.9959 51.2204 43.407 51.2744 43.7699L54.3796 43.3078C54.2511 42.4444 53.9309 41.6702 53.4905 40.8587C53.0608 40.0672 52.4647 39.1496 51.7361 38.0256L49.1017 39.7335ZM48.537 53.5388C49.5506 52.5294 50.699 51.386 51.656 50.3447C52.1346 49.8237 52.583 49.3095 52.9509 48.8354C53.3 48.3858 53.6519 47.8785 53.8582 47.385L50.9615 46.1742C50.922 46.2692 50.7832 46.508 50.4711 46.9101C50.1779 47.2878 49.794 47.7309 49.344 48.2205C48.4436 49.2006 47.3477 50.2924 46.3215 51.3142L48.537 53.5388ZM51.2744 43.7699C51.392 44.5598 51.2882 45.3924 50.9615 46.1742L53.8582 47.385C54.3991 46.0908 54.5841 44.6808 54.3796 43.3078L51.2744 43.7699ZM43.1177 46.2313L42.1656 45.3974L40.0973 47.7594L41.0494 48.593L43.1177 46.2313ZM46.6846 51.5883C46.2953 50.6134 46.0555 50.0048 45.7392 49.4288L42.9873 50.9401C43.1897 51.3087 43.3524 51.7091 43.7687 52.7521L46.6846 51.5883ZM40.976 48.5244C41.7728 49.3181 42.0779 49.6255 42.3379 49.9571L44.8078 48.0189C44.4022 47.502 43.9363 47.0417 43.1912 46.2997L40.976 48.5244ZM45.7392 49.4288C45.4676 48.9344 45.1561 48.4629 44.8078 48.0189L42.3379 49.9571C42.5809 50.2666 42.7979 50.5954 42.9873 50.9401L45.7392 49.4288ZM48.5698 29.1538C47.8011 29.9192 46.5522 29.9192 45.7836 29.1538L43.5684 31.3785C45.562 33.3637 48.7915 33.3637 50.7851 31.3785L48.5698 29.1538ZM45.7836 29.1538C45.0186 28.3921 45.0186 27.1598 45.7836 26.3981L43.5684 24.1734C41.571 26.1623 41.571 29.3896 43.5684 31.3785L45.7836 29.1538ZM45.7836 26.3981C46.5522 25.6327 47.8011 25.6327 48.5698 26.3981L50.7851 24.1734C48.7915 22.1882 45.562 22.1882 43.5684 24.1734L45.7836 26.3981ZM48.5698 26.3981C49.3348 27.1598 49.3348 28.3921 48.5698 29.1538L50.7851 31.3785C52.7822 29.3896 52.7822 26.1623 50.7851 24.1734L48.5698 26.3981ZM46.1685 51.4665C46.2529 51.3824 46.3659 51.3638 46.4442 51.3793C46.5229 51.3952 46.6336 51.4603 46.6846 51.5883L43.7687 52.7521C44.524 54.6444 46.9722 55.0967 48.3838 53.6912L46.1685 51.4665ZM43.5684 41.6049C42.6353 42.534 41.9406 43.2245 41.3454 43.7377C40.7478 44.2534 40.3625 44.4889 40.0774 44.5937L41.1614 47.5403C41.9745 47.241 42.6993 46.716 43.3961 46.1151C44.0954 45.5119 44.8798 44.7296 45.7836 43.8296L43.5684 41.6049ZM40.0774 44.5937C39.9303 44.6477 39.8039 44.6691 39.6743 44.6691V47.8086C40.1923 47.8086 40.6852 47.7152 41.1614 47.5403L40.0774 44.5937ZM42.2408 45.4678L41.7286 44.9562L39.51 47.1775L40.0222 47.6891L42.2408 45.4678ZM31.0645 29.1538C30.1823 30.0323 29.4134 30.7968 28.8153 31.4786C28.22 32.1572 27.6972 32.8589 27.3833 33.6387L30.2956 34.8112C30.4119 34.5224 30.6597 34.1368 31.1753 33.5491C31.688 32.9647 32.3704 32.284 33.2798 31.3785L31.0645 29.1538ZM27.3833 33.6387C27.1776 34.1494 27.0658 34.6816 27.0658 35.2465H30.2054C30.2054 35.1109 30.2294 34.9755 30.2956 34.8112L27.3833 33.6387ZM27.4092 35.0151L27.7302 35.3355L29.9488 33.1142L29.6279 32.7937L27.4092 35.0151ZM22.8869 38.245L19.3461 41.7813L21.5647 44.0027L25.1055 40.4663L22.8869 38.245ZM18.3457 40.7878L18.6676 40.4663L16.449 38.245L16.1271 38.5665L18.3457 40.7878ZM18.3457 41.7813C18.0708 41.5067 18.0708 41.0624 18.3457 40.7878L16.1271 38.5665C14.6243 40.0674 14.6243 42.5018 16.1271 44.0027L18.3457 41.7813ZM19.3461 41.7813C19.07 42.057 18.6217 42.057 18.3457 41.7813L16.1271 44.0027C17.6289 45.5027 20.0629 45.5027 21.5647 44.0027L19.3461 41.7813ZM34.456 49.9022L30.9151 53.4386L33.1338 55.6599L36.6746 52.1235L34.456 49.9022ZM36.3527 58.875L36.6746 58.5535L34.456 56.3322L34.1341 56.6536L36.3527 58.875ZM30.9151 58.875C32.4169 60.375 34.851 60.375 36.3527 58.875L34.1341 56.6536C33.858 56.9293 33.4097 56.9293 33.1338 56.6536L30.9151 58.875ZM30.9151 53.4386C29.4123 54.9397 29.4123 57.3741 30.9151 58.875L33.1338 56.6536C32.8588 56.379 32.8588 55.9347 33.1338 55.6599L30.9151 53.4386ZM32.4183 46.134L28.0178 50.5343L30.2378 52.7544L34.6383 48.354L32.4183 46.134ZM26.6087 40.3315L22.1779 44.7622L24.3979 46.9821L28.8286 42.5514L26.6087 40.3315ZM25.8034 46.9377L22.2252 50.4372L24.4203 52.6817L27.9985 49.1822L25.8034 46.9377Z" fill="#1FB6B2"/>
</g>
<defs>
<filter id="filter0_i_19_117" x="0" y="-3" width="75" height="78" filterUnits="userSpaceOnUse" color-interpolation-filters="sRGB">
<feFlood flood-opacity="0" result="BackgroundImageFix"/>
<feBlend mode="normal" in="SourceGraphic" in2="BackgroundImageFix" result="shape"/>
<feColorMatrix in="SourceAlpha" type="matrix" values="0 0 0 0 0 0 0 0 0 0 0 0 0 0 0 0 0 0 127 0" result="hardAlpha"/>
<feOffset dy="-3"/>
<feGaussianBlur stdDeviation="2"/>
<feComposite in2="hardAlpha" operator="arithmetic" k2="-1" k3="1"/>
<feColorMatrix type="matrix" values="0 0 0 0 0 0 0 0 0 0 0 0 0 0 0 0 0 0 0.25 0"/>
<feBlend mode="normal" in2="shape" result="effect1_innerShadow_19_117"/>
</filter>
</defs>
</svg>
