<svg width="88" height="88" viewBox="0 0 88 88" fill="none" xmlns="http://www.w3.org/2000/svg">
<path d="M84 36C83.8515 30.7557 83.3523 27.4122 81.671 24.559C79.2795 20.5009 74.973 18.2426 66.3594 13.7261L58.3532 9.52788C51.3253 5.84264 47.8114 4 44.0312 4C40.2511 4 36.7371 5.84264 29.7092 9.52788L21.703 13.7261C13.0896 18.2426 8.78289 20.5009 6.39147 24.559C4 28.617 4 33.6667 4 43.766V44.234C4 54.3332 4 59.3832 6.39147 63.4412C8.78289 67.4992 13.0896 69.7572 21.703 74.274L29.7092 78.472C36.7371 82.1572 40.2511 84 44.0312 84C47.8114 84 51.3253 82.1572 58.3532 78.472L66.3594 74.274C74.973 69.7572 79.2795 67.4992 81.671 63.4412C83.3523 60.5876 83.8515 57.2444 84 52" stroke="white" stroke-width="8" stroke-linecap="round"/>
<path d="M80.0594 26L64.0469 34M64.0469 34C64.0469 34 62.8271 34.6095 62.0453 35C55.0102 38.5148 44.0313 44 44.0313 44M64.0469 34V48M64.0469 34L26.0172 14M44.0313 44L8.00317 26M44.0313 44V82" stroke="white" stroke-width="8" stroke-linecap="round"/>
</svg>
