<svg width="28" height="28" viewBox="0 0 28 28" fill="none" xmlns="http://www.w3.org/2000/svg">
<path d="M10.093 21.814H17.907H10.093Z" fill="black"/>
<path d="M10.093 21.814H17.907" stroke="#1C274C" stroke-width="2" stroke-linecap="round" stroke-linejoin="round"/>
<path d="M4.88372 17.3652H5.86046C5.86046 16.977 5.63054 16.6255 5.27478 16.4701L4.88372 17.3652ZM23.1163 17.3652L22.7252 16.4701C22.3694 16.6255 22.1395 16.977 22.1395 17.3652H23.1163ZM18.8837 7.48837C18.8837 8.02781 19.321 8.46512 19.8605 8.46512C20.3999 8.46512 20.8372 8.02781 20.8372 7.48837H18.8837ZM7.16279 7.48837C7.16279 8.02781 7.6001 8.46512 8.13953 8.46512C8.67897 8.46512 9.11628 8.02781 9.11628 7.48837H7.16279ZM16.6047 26.0465C16.0652 26.0465 15.6279 26.4838 15.6279 27.0233C15.6279 27.5627 16.0652 28 16.6047 28V26.0465ZM11.3953 28C11.9348 28 12.3721 27.5627 12.3721 27.0233C12.3721 26.4838 11.9348 26.0465 11.3953 26.0465V28ZM7.48837 3.90698C3.35265 3.90698 0 7.25963 0 11.3953H1.95349C1.95349 8.33852 4.43154 5.86046 7.48837 5.86046V3.90698ZM20.5116 5.86046C23.5684 5.86046 26.0465 8.33852 26.0465 11.3953H28C28 7.25963 24.6473 3.90698 20.5116 3.90698V5.86046ZM10.093 26.0465C8.83757 26.0465 7.99423 26.0444 7.36516 25.9599C6.76419 25.879 6.50698 25.7394 6.33727 25.5697L4.95595 26.951C5.54912 27.5442 6.28728 27.786 7.10486 27.8959C7.89436 28.0021 8.89279 28 10.093 28V26.0465ZM3.90698 21.814C3.90698 23.0142 3.90491 24.0127 4.01104 24.8021C4.12097 25.6197 4.36278 26.3579 4.95595 26.951L6.33727 25.5697C6.16755 25.4 6.02792 25.1428 5.94712 24.5418C5.86253 23.9128 5.86046 23.0694 5.86046 21.814H3.90698ZM22.1395 21.814C22.1395 23.0694 22.1374 23.9128 22.0529 24.5418C21.9721 25.1428 21.8324 25.4 21.6628 25.5697L23.044 26.951C23.6372 26.3579 23.879 25.6197 23.989 24.8021C24.0951 24.0127 24.093 23.0142 24.093 21.814H22.1395ZM17.907 28C19.1072 28 20.1057 28.0021 20.8952 27.8959C21.7128 27.786 22.4509 27.5442 23.044 26.951L21.6628 25.5697C21.4931 25.7394 21.2359 25.879 20.6348 25.9599C20.0058 26.0444 19.1624 26.0465 17.907 26.0465V28ZM7.48837 5.86046C7.76668 5.86046 8.03959 5.88092 8.30584 5.92028L8.59148 3.98779C8.23097 3.93451 7.86258 3.90698 7.48837 3.90698V5.86046ZM14 0C10.991 0 8.43831 1.9432 7.52365 4.64034L9.37366 5.26772C10.0277 3.33919 11.8532 1.95349 14 1.95349V0ZM7.52365 4.64034C7.2894 5.3311 7.16279 6.07037 7.16279 6.83721H9.11628C9.11628 6.28652 9.20705 5.75904 9.37366 5.26772L7.52365 4.64034ZM20.5116 3.90698C20.1375 3.90698 19.769 3.93451 19.4086 3.98779L19.6942 5.92028C19.9604 5.88092 20.2333 5.86046 20.5116 5.86046V3.90698ZM14 1.95349C16.1468 1.95349 17.9724 3.33919 18.6264 5.26772L20.4763 4.64034C19.5617 1.9432 17.009 0 14 0V1.95349ZM18.6264 5.26772C18.7929 5.75904 18.8837 6.28652 18.8837 6.83721H20.8372C20.8372 6.07037 20.7106 5.3311 20.4763 4.64034L18.6264 5.26772ZM5.86046 21.814V17.3652H3.90698V21.814H5.86046ZM5.27478 16.4701C3.31792 15.6151 1.95349 13.6635 1.95349 11.3953H0C0 14.4675 1.84995 17.1055 4.49266 18.2602L5.27478 16.4701ZM22.1395 17.3652V21.814H24.093V17.3652H22.1395ZM26.0465 11.3953C26.0465 13.6635 24.6821 15.6151 22.7252 16.4701L23.5074 18.2602C26.15 17.1055 28 14.4675 28 11.3953H26.0465ZM18.8837 6.83721V7.48837H20.8372V6.83721H18.8837ZM7.16279 6.83721V7.48837H9.11628V6.83721H7.16279ZM17.907 26.0465H16.6047V28H17.907V26.0465ZM11.3953 26.0465H10.093V28H11.3953V26.0465Z" fill="black"/>
</svg>
