<svg width="30" height="30" viewBox="0 0 30 30" fill="none" xmlns="http://www.w3.org/2000/svg">
<path d="M2.55568 27.3171L10.3335 18.9028M27.4446 27.3171L19.6668 18.9028M1.04418 12.1714L12.2384 20.277C13.2363 20.9968 13.7353 21.3566 14.2746 21.4964C14.7511 21.62 15.2479 21.62 15.7245 21.4964C16.2639 21.3566 16.7629 20.9968 17.7608 20.277L28.955 12.1714M12.3527 2.18995L3.33056 8.31974C2.47978 8.89776 2.0544 9.18677 1.74586 9.57747C1.47278 9.92326 1.2673 10.3253 1.14185 10.7594C1.00012 11.2499 1.00012 11.7933 1.00012 12.8802V23.6148C1.00012 25.4998 1.00012 26.4424 1.33922 27.1623C1.63748 27.7956 2.11342 28.3105 2.69882 28.6331C3.36432 29 4.23552 29 5.9779 29H24.0223C25.7647 29 26.636 29 27.3015 28.6331C27.8868 28.3105 28.3628 27.7956 28.661 27.1623C29.0001 26.4424 29.0001 25.4998 29.0001 23.6148V12.8802C29.0001 11.7933 29.0001 11.2499 28.8584 10.7594C28.7329 10.3253 28.5275 9.92326 28.2544 9.57747C27.9459 9.18677 27.5205 8.89776 26.6697 8.31974L17.6475 2.18995C16.6873 1.53762 16.2072 1.21146 15.6922 1.08432C15.2366 0.971892 14.7637 0.971892 14.3081 1.08432C13.793 1.21146 13.313 1.53762 12.3527 2.18995Z" stroke="#179A96" stroke-width="2" stroke-linecap="round" stroke-linejoin="round"/>
</svg>
