<svg width="25" height="28" viewBox="0 0 25 28" fill="none" xmlns="http://www.w3.org/2000/svg">
<path d="M14.6654 0.00492103C14.4125 0.0508505 14.224 0.260813 14.204 0.512331L14.0975 1.77211H10.6367L10.5124 0.529828C10.4747 0.241129 10.2218 0.0289793 9.92673 0.0399149L5.75596 0.214884C5.59845 0.223632 5.45203 0.295807 5.34998 0.416098C5.25014 0.534203 5.20355 0.689488 5.22352 0.844773L5.34776 1.99957L1.53194 2.68195C1.23245 2.73444 1.02834 3.01439 1.0705 3.31184L2.09988 10.0831H0.573552C0.555804 10.0831 0.538056 10.0831 0.520308 10.0831C0.349484 10.0963 0.194189 10.1859 0.0987945 10.3259C0.00339897 10.4637 -0.0254413 10.6387 0.0233653 10.8005L4.79757 27.5976C4.86856 27.8381 5.09263 28.0022 5.34776 28H19.6526C19.9078 28.0022 20.1318 27.8381 20.2028 27.5976L24.977 10.8005C25.028 10.6299 24.9925 10.4462 24.8861 10.3062C24.7773 10.1641 24.6065 10.081 24.4268 10.0831H22.6698L23.6104 5.04403C23.6415 4.89093 23.6038 4.73127 23.5106 4.60442C23.4152 4.47757 23.271 4.39665 23.1135 4.37915L19.1912 3.95922L19.4574 1.07223C19.4796 0.774785 19.2599 0.514518 18.9605 0.477338L14.8252 0.00492103C14.7719 -0.00164034 14.7187 -0.00164034 14.6654 0.00492103ZM9.42979 1.17721L10.8851 14.9648C9.42092 14.6739 8.38932 14.009 7.63725 13.2676L6.53687 2.55947C6.53687 2.54853 6.53687 2.53541 6.53687 2.52448V2.48948C6.53909 2.41731 6.52578 2.34732 6.50138 2.27952L6.41264 1.31719L9.42979 1.17721ZM15.2689 1.19471L18.286 1.52715L17.1502 13.46C16.4225 14.1162 15.4685 14.6958 14.1508 14.9648L15.2689 1.19471ZM10.7609 2.89191H14.0088L13.0149 15.0873C12.8441 15.096 12.6799 15.1223 12.5002 15.1223C12.3405 15.1223 12.1918 15.1135 12.0387 15.1048L10.7609 2.89191ZM5.45424 3.11937L6.3239 11.4654C6.03771 10.9099 5.89794 10.5031 5.89794 10.5031C5.83361 10.2559 5.60732 10.0831 5.34776 10.0831H3.2535L2.27736 3.67927L5.45424 3.11937ZM19.0847 5.06153L22.3858 5.42896L21.5162 10.0831H19.6526C19.3931 10.0831 19.1668 10.2559 19.1024 10.5031C19.1024 10.5031 18.9227 11.1198 18.428 11.9203L19.0847 5.06153ZM1.31897 11.2029H4.9573C5.11481 11.6469 5.45646 12.5043 6.3239 13.53C6.39932 13.6197 6.49028 13.7028 6.57237 13.7925C6.57237 13.799 6.57237 13.8034 6.57237 13.81C6.62561 13.95 6.73432 14.0637 6.87408 14.1249C6.8763 14.1271 6.88961 14.1227 6.89183 14.1249C8.08316 15.2535 9.89789 16.2421 12.5002 16.2421C15.5573 16.2421 17.5295 14.886 18.6765 13.53C19.5439 12.5043 19.8856 11.6469 20.0431 11.2029H23.6814L19.2089 26.8802H5.79146L1.31897 11.2029Z" fill="black"/>
</svg>
