<svg width="35" height="30" viewBox="0 0 35 30" fill="none" xmlns="http://www.w3.org/2000/svg">
<path d="M28.7895 25.5C28.7895 27.433 27.2343 29 25.3158 29C23.3973 29 21.8421 27.433 21.8421 25.5M28.7895 25.5C28.7895 23.567 27.2343 22 25.3158 22C23.3973 22 21.8421 23.567 21.8421 25.5M28.7895 25.5H34M21.8421 25.5H20.1053M20.1053 25.5H11.4211M20.1053 25.5V6.6C20.1053 4.63982 20.1053 3.65972 19.7266 2.91104C19.3937 2.25246 18.8622 1.71703 18.2086 1.38148C17.4656 1 16.4928 1 14.5474 1H6.55789C4.61246 1 3.63972 1 2.89667 1.38148C2.24304 1.71703 1.71164 2.25246 1.37861 2.91104C1 3.65972 1 4.63982 1 6.6V22C1 23.933 2.55522 25.5 4.47368 25.5M20.1053 25.5V8H27.0526L32.2632 15M11.4211 25.5C11.4211 27.433 9.86583 29 7.94737 29C6.0289 29 4.47368 27.433 4.47368 25.5M11.4211 25.5C11.4211 23.567 9.86583 22 7.94737 22C6.0289 22 4.47368 23.567 4.47368 25.5M32.2632 15V25.5M32.2632 15H20.1053" stroke="black" stroke-width="2" stroke-linecap="round" stroke-linejoin="round"/>
</svg>
