<svg width="35" height="33" viewBox="0 0 35 33" fill="none" xmlns="http://www.w3.org/2000/svg">
<path d="M16.1366 2.67476C16.5685 1.7201 16.7846 1.24277 17.0854 1.09578C17.3466 0.968073 17.6534 0.968073 17.9146 1.09578C18.2154 1.24277 18.4315 1.7201 18.8635 2.67476L22.3043 10.2788C22.4322 10.561 22.496 10.7021 22.5949 10.8102C22.6822 10.9058 22.7891 10.9823 22.9084 11.0346C23.0433 11.0938 23.1993 11.11 23.5113 11.1424L31.9162 12.0163C32.9714 12.126 33.4989 12.1808 33.7338 12.4172C33.9378 12.6225 34.0326 12.9099 33.99 13.1942C33.9411 13.5214 33.547 13.8711 32.7588 14.5709L26.4804 20.1443C26.2475 20.3511 26.1309 20.4546 26.0572 20.5805C25.9919 20.6921 25.951 20.8158 25.9374 20.9437C25.9219 21.0884 25.9544 21.2394 26.0195 21.5418L27.7731 29.6858C27.9933 30.7083 28.1034 31.2195 27.9478 31.5125C27.8125 31.7672 27.5643 31.9448 27.2768 31.9928C26.9458 32.0479 26.4862 31.7869 25.567 31.2647L18.2458 27.1051C17.9742 26.9507 17.8383 26.8737 17.6939 26.8434C17.5661 26.8167 17.434 26.8167 17.3061 26.8434C17.1617 26.8737 17.0259 26.9507 16.7542 27.1051L9.43307 31.2647C8.51393 31.7869 8.05436 32.0479 7.72332 31.9928C7.43575 31.9448 7.1875 31.7672 7.05233 31.5125C6.89673 31.2195 7.0068 30.7083 7.22697 29.6858L8.98054 21.5418C9.04562 21.2394 9.07817 21.0884 9.06272 20.9437C9.04904 20.8158 9.00823 20.6921 8.94292 20.5805C8.86912 20.4546 8.75261 20.3511 8.5196 20.1443L2.24131 14.5709C1.4531 13.8711 1.05899 13.5214 1.00999 13.1942C0.967446 12.9099 1.06226 12.6225 1.26628 12.4172C1.50117 12.1808 2.02877 12.126 3.08398 12.0163L11.4889 11.1424C11.8008 11.11 11.9568 11.0938 12.0917 11.0346C12.211 10.9823 12.3178 10.9058 12.4053 10.8102C12.5041 10.7021 12.5679 10.561 12.6957 10.2788L16.1366 2.67476Z" stroke="#1E7A7E" stroke-width="2" stroke-linecap="round" stroke-linejoin="round"/>
</svg>
