<svg width="80" height="80" viewBox="0 0 80 80" fill="none" xmlns="http://www.w3.org/2000/svg">
<path fill-rule="evenodd" clip-rule="evenodd" d="M14.0181 19.1163C20.1279 11.5246 29.4966 6.66667 40 6.66667C41.6222 6.66667 43.2169 6.78253 44.7769 7.0064L47.6116 12.6752L36.7627 23.524L25.096 25.1907L19.3782 30.9085L14.0181 19.1163ZM9.78267 25.9091C7.78338 30.1892 6.66667 34.964 6.66667 40C6.66667 56.42 18.5392 70.0671 34.168 72.8249L35.9951 69.8644L25.8431 55.7644L32.7738 46.7804L29.4786 45.1329L17.5123 47.1271L15.1718 37.7653L9.78267 25.9091ZM22.0248 37.6898L22.4872 39.5396L30.521 38.2004L37.2116 41.5458L49.2551 39.8729L70.9084 52.5044C72.4724 48.6431 73.3333 44.4222 73.3333 40C73.3333 26.388 65.1742 14.6816 53.48 9.50471L55.7231 13.9916L39.9053 29.8094L28.2387 31.476L22.0248 37.6898ZM67.7951 58.4062C62.1218 66.9564 52.6084 72.7378 41.7151 73.2898L44.0049 69.58L34.1569 55.9022L40.3791 47.8364L47.888 46.7938L67.7951 58.4062ZM40 0C17.9086 0 0 17.9086 0 40C0 62.0916 17.9086 80 40 80C62.0916 80 80 62.0916 80 40C80 17.9086 62.0916 0 40 0Z" fill="white"/>
</svg>
