<svg width="20" height="20" viewBox="0 0 20 20" fill="none" xmlns="http://www.w3.org/2000/svg">
<path d="M5.08861 19.9988H0.993228C0.692777 19.9988 0.444721 19.8959 0.249059 19.6902C0.0525793 19.4837 -0.0276502 19.2318 0.00837115 18.9345C0.255609 16.5314 1.06895 14.5231 2.44841 12.9097C3.82786 11.2963 5.73126 10.2487 8.15861 9.76673V6.14506C7.40789 6.05921 6.61788 5.90572 5.78857 5.68461C4.95844 5.46349 4.17211 5.15652 3.42958 4.7637C2.68705 4.37168 2.03253 3.88693 1.46601 3.30944C0.899491 2.73195 0.506121 2.03944 0.2859 1.23193C0.182748 0.924148 0.233095 0.641882 0.436943 0.385129C0.640792 0.128376 0.908086 0 1.23883 0H18.7624C19.0923 0 19.3592 0.132426 19.5631 0.397279C19.7677 0.662131 19.8189 0.948042 19.7166 1.25501C19.48 2.06334 19.0784 2.75584 18.5119 3.33252C17.9454 3.9092 17.2941 4.39436 16.5581 4.788C15.8222 5.18163 15.0403 5.48455 14.2127 5.69676C13.385 5.90896 12.5946 6.0584 11.8414 6.14506V9.76552C14.2696 10.2491 16.173 11.2971 17.5516 12.9097C18.9302 14.5223 19.7436 16.5306 19.9916 18.9345C20.0276 19.2318 19.9474 19.4837 19.7509 19.6902C19.5553 19.8967 19.3072 20 19.0068 20H14.9126C14.7382 20 14.5921 19.9417 14.4742 19.8251C14.3563 19.7084 14.2978 19.5642 14.2986 19.3925C14.2994 19.2208 14.358 19.0763 14.4742 18.9588C14.5905 18.8414 14.7366 18.7835 14.9126 18.7851H18.8447C18.4288 15.9559 17.3694 13.923 15.6666 12.6862C13.9638 11.4494 12.0751 10.8318 10.0006 10.8334C7.92611 10.8351 6.03704 11.4522 4.33339 12.685C2.62974 13.9177 1.5708 15.9507 1.15655 18.7839H5.08861C5.2638 18.7839 5.40994 18.8418 5.52701 18.9576C5.64408 19.0734 5.70261 19.218 5.70261 19.3913C5.70261 19.5647 5.64408 19.7088 5.52701 19.8238C5.40994 19.9388 5.2638 19.9972 5.08861 19.9988ZM15.8127 3.75288C17.1005 2.91378 17.9224 2.06739 18.2786 1.2137H1.72389C2.06364 2.06739 2.88148 2.91378 4.17743 3.75288C5.47338 4.59199 7.41444 5.01154 10.0006 5.01154C12.5868 5.01154 14.5242 4.59239 15.8127 3.7541M10.0006 19.9988C9.4824 19.9988 9.04605 19.823 8.69156 19.4715C8.33626 19.1208 8.15861 18.6891 8.15861 18.1764C8.15861 17.9253 8.20569 17.6933 8.29983 17.4803C8.39316 17.2664 8.52865 17.0793 8.7063 16.919C8.87331 16.7537 9.13528 16.5719 9.49222 16.3735C9.84834 16.175 10.2659 15.9596 10.7448 15.7271L12.6482 14.9071C12.8619 14.8058 13.0501 14.8358 13.2131 14.997C13.3768 15.159 13.4075 15.3456 13.3052 15.557L12.475 17.4159C12.2409 17.8905 12.0235 18.3076 11.823 18.6672C11.6216 19.0285 11.4374 19.2917 11.2704 19.4569C11.1083 19.6327 10.9196 19.7667 10.7043 19.8591C10.4889 19.9514 10.2544 19.998 10.0006 19.9988Z" fill="black"/>
</svg>
