<svg width="20" height="17" viewBox="0 0 20 17" fill="none" xmlns="http://www.w3.org/2000/svg">
<path d="M2 0.5H18C18.8239 0.5 19.5 1.17614 19.5 2V11H0.5V2C0.5 1.17614 1.17614 0.5 2 0.5Z" stroke="black"/>
<path d="M18 2V9.5H2V2H18Z" stroke="black"/>
<path d="M19.5 12V15C19.5 15.8239 18.8239 16.5 18 16.5H2C1.17614 16.5 0.5 15.8239 0.5 15V12H19.5Z" stroke="black"/>
<mask id="path-4-inside-1_304_3378" fill="white">
<path d="M11.5 13.5H17.5V14.5H11.5V13.5ZM2.5 13.5H8.5V14.5H2.5V13.5Z"/>
</mask>
<path d="M11.5 13.5V12.5H10.5V13.5H11.5ZM17.5 13.5H18.5V12.5H17.5V13.5ZM17.5 14.5V15.5H18.5V14.5H17.5ZM11.5 14.5H10.5V15.5H11.5V14.5ZM2.5 13.5V12.5H1.5V13.5H2.5ZM8.5 13.5H9.5V12.5H8.5V13.5ZM8.5 14.5V15.5H9.5V14.5H8.5ZM2.5 14.5H1.5V15.5H2.5V14.5ZM11.5 13.5V14.5H17.5V13.5V12.5H11.5V13.5ZM17.5 13.5H16.5V14.5H17.5H18.5V13.5H17.5ZM17.5 14.5V13.5H11.5V14.5V15.5H17.5V14.5ZM11.5 14.5H12.5V13.5H11.5H10.5V14.5H11.5ZM2.5 13.5V14.5H8.5V13.5V12.5H2.5V13.5ZM8.5 13.5H7.5V14.5H8.5H9.5V13.5H8.5ZM8.5 14.5V13.5H2.5V14.5V15.5H8.5V14.5ZM2.5 14.5H3.5V13.5H2.5H1.5V14.5H2.5Z" fill="black" mask="url(#path-4-inside-1_304_3378)"/>
<mask id="path-6-inside-2_304_3378" fill="white">
<path d="M7 14C7 14.55 6.35 15 5.5 15C4.65 15 4 14.55 4 14H7Z"/>
</mask>
<path d="M7 14H8V13H7V14ZM4 14V13H3V14H4ZM7 14H6C6 13.8479 6.09174 13.8218 6.00961 13.8772C5.93097 13.9302 5.7581 14 5.5 14V15V16C6.0919 16 6.66903 15.8448 7.12789 15.5353C7.58326 15.2282 8 14.7021 8 14H7ZM5.5 15V14C5.2419 14 5.06903 13.9302 4.99039 13.8772C4.90826 13.8218 5 13.8479 5 14H4H3C3 14.7021 3.41674 15.2282 3.87211 15.5353C4.33097 15.8448 4.9081 16 5.5 16V15ZM4 14V15H7V14V13H4V14Z" fill="black" mask="url(#path-6-inside-2_304_3378)"/>
</svg>
