<svg width="20" height="20" viewBox="0 0 20 20" fill="none" xmlns="http://www.w3.org/2000/svg">
<path fill-rule="evenodd" clip-rule="evenodd" d="M18.1875 10.9602C18.023 10.473 17.75 10.0296 17.389 9.66375C17.028 9.29789 16.5886 9.01912 16.1041 8.84858C15.6611 8.69031 15.1897 8.62773 14.7208 8.66496C14.7208 8.59819 14.6624 3.75638 14.3457 3.12205C14.2843 2.97649 14.1885 2.84804 14.0666 2.74773C13.9446 2.64741 13.8002 2.57824 13.6457 2.54614C10.479 1.87007 9.08642 2.49606 7.08637 2.83827C6.128 2.99685 4.79463 3.23055 4.74463 4.17371C4.85019 5.00502 4.9113 5.83967 4.92797 6.67766C4.80838 9.56046 4.85289 12.4477 5.06131 15.3255C5.0246 16.1938 5.21415 17.0567 5.61132 17.8294C6.13634 18.5389 7.23637 18.2801 8.02806 18.23L10.4281 18.0715C10.5055 18.0715 10.5797 18.0407 10.6344 17.9859C10.6891 17.9311 10.7198 17.8568 10.7198 17.7793C10.7198 17.7019 10.6891 17.6276 10.6344 17.5728C10.5797 17.518 10.5055 17.4872 10.4281 17.4872L8.76142 17.5289C8.81975 15.9181 7.85306 15.434 6.38634 14.6744C6.32801 14.6744 6.08634 14.4574 6.003 14.5075C5.97092 14.475 5.93058 14.4519 5.88633 14.4407C5.79466 11.8867 5.88633 9.11567 5.88633 7.07078C5.88633 6.62007 7.10303 6.88715 8.0864 5.06678C8.42128 4.52028 8.55399 3.87338 8.46141 3.2389C9.28776 2.93822 10.1676 2.81315 11.0448 2.87165C11.1661 3.6828 11.5126 4.44346 12.0448 5.06678C12.5099 5.49803 13.0881 5.78756 13.7116 5.90143V6.49403C13.7116 6.7027 14.1199 8.08822 14.1949 8.94791C13.6116 9.74082 14.4116 11.9693 14.1949 13.9558C13.5281 13.1173 12.671 12.4506 11.6948 12.0111C10.5948 11.7356 9.46977 12.6287 10.3865 14.1812C11.2277 15.3105 12.1378 16.3868 13.1115 17.4037C13.3949 17.746 13.4199 17.8378 13.3782 18.6808C13.3899 18.9812 13.3482 19.2809 13.2532 19.5655C13.2346 19.594 13.2218 19.6259 13.2155 19.6593C13.2092 19.6928 13.2095 19.7272 13.2165 19.7605C13.2235 19.7938 13.2369 19.8254 13.2561 19.8536C13.2753 19.8817 13.2998 19.9058 13.3282 19.9244C13.3567 19.943 13.3885 19.9559 13.4219 19.9622C13.4553 19.9685 13.4896 19.9681 13.5229 19.9612C13.5562 19.9542 13.5878 19.9407 13.6159 19.9215C13.6439 19.9023 13.668 19.8778 13.6866 19.8493C13.9408 19.1037 14.0094 18.3072 13.8866 17.5289C13.6616 16.6943 10.2365 13.5143 10.9031 12.8966C11.5698 12.279 13.2199 14.2237 13.9366 15.0166C14.1157 15.1552 14.3366 15.2295 14.5616 15.2253C15.8783 15.025 14.7699 10.5262 14.9949 9.58307C15.6084 9.57987 16.2016 9.80267 16.6616 10.2091C17.2439 10.871 17.6435 11.6737 17.8209 12.5377C18.1003 13.5536 18.1261 14.6228 17.8959 15.651C17.8042 16.06 16.9958 17.1617 17.0625 17.5957C17.0992 18.3411 17.2025 19.0814 17.3708 19.8075C17.384 19.8437 17.4041 19.8769 17.43 19.9053C17.456 19.9337 17.4873 19.9567 17.5221 19.973C17.5569 19.9892 17.5946 19.9985 17.633 20.0002C17.6714 20.0019 17.7097 19.996 17.7458 19.9828C17.782 19.9697 17.8151 19.9495 17.8435 19.9235C17.8718 19.8975 17.8948 19.8662 17.911 19.8313C17.9273 19.7964 17.9365 19.7587 17.9382 19.7202C17.9399 19.6818 17.934 19.6434 17.9209 19.6072C17.8049 18.9205 17.7464 18.2254 17.7458 17.5289C17.8042 17.5289 17.8042 17.362 17.8709 17.2368C18.0209 16.9447 18.2542 16.5607 18.4125 16.2686C19.1626 14.9248 18.7959 12.279 18.1875 10.9602ZM6.66135 15.8596C7.66138 16.6943 7.93639 16.6943 8.11973 17.5289H8.00306C7.58638 17.5289 6.46968 17.7126 6.22801 17.362C5.95527 16.647 5.84979 15.879 5.91966 15.1168L6.66135 15.8596ZM7.49471 4.34898C7.13938 4.81758 6.7553 5.26359 6.34468 5.68442C5.69466 6.4523 5.878 6.10175 5.80299 5.32552C5.64466 3.93166 5.62799 4.0652 6.08634 3.88158C6.67575 3.683 7.27693 3.52132 7.88639 3.39748C7.82805 3.73969 7.69472 4.0652 7.49471 4.34898ZM12.8282 4.45749C12.7282 4.35733 11.0698 2.70472 11.8282 2.89669C12.3726 3.09534 12.9282 3.2567 13.4949 3.38079C13.6074 3.94334 13.6524 4.51842 13.6282 5.09182C13.3356 4.91902 13.0691 4.70544 12.8365 4.45749H12.8282Z" fill="black"/>
<path fill-rule="evenodd" clip-rule="evenodd" d="M19.996 3.40537C19.996 2.80442 19.996 0.901422 19.5126 0.542522C19.0293 0.183623 16.4459 0 13.5041 0C10.2874 0 6.59475 0.16693 4.78636 0.367246C3.798 0.50858 2.82019 0.70055 1.85294 0.943154C1.42793 1.04331 0.811245 0.943154 0.377899 1.40221C-0.0554472 1.86127 0.0528894 2.79608 0.061223 3.40537C0.061223 3.85608 -0.139616 5.23326 0.186227 5.57546C0.554571 5.84589 1.00292 5.98444 1.46126 5.96775C2.35508 6.1381 3.27444 6.12105 4.16135 5.91767C4.22765 5.89996 4.28422 5.85659 4.3186 5.79711C4.35298 5.73763 4.36237 5.66691 4.34468 5.6005C4.327 5.53409 4.2837 5.47744 4.22432 5.443C4.16493 5.40857 4.09431 5.39917 4.02801 5.41688C2.89916 5.59107 1.74514 5.4938 0.661241 5.1331C0.952916 1.06835 0.577905 2.05324 2.03628 1.7945C4.34468 1.33544 4.88637 1.21859 9.90318 1.06001C10.9032 1.06001 18.0793 0.80961 18.9876 1.21024C19.1535 1.93806 19.2343 2.6834 19.2293 3.43041C19.2293 3.52222 19.0793 4.15656 19.2293 4.26506C19.0126 4.31514 18.4626 4.26506 18.2376 4.34018C17.4659 4.44368 16.6909 4.50488 15.9125 4.5238C15.8352 4.5238 15.761 4.55458 15.7063 4.60936C15.6516 4.66415 15.6209 4.73845 15.6209 4.81593C15.6209 4.89341 15.6516 4.96771 15.7063 5.0225C15.761 5.07728 15.8352 5.10806 15.9125 5.10806C16.7198 5.12253 17.5254 5.08914 18.3293 5.0079C18.6043 5.0079 18.996 5.0079 19.3043 4.96617C20.2293 4.80758 19.946 4.17325 19.996 3.40537ZM8.79482 8.85647C8.87107 8.83987 8.93761 8.79361 8.97981 8.72787C9.02201 8.66213 9.0364 8.58229 9.01982 8.50592C9.00325 8.42955 8.95706 8.3629 8.89142 8.32064C8.82578 8.27838 8.74607 8.26396 8.66981 8.28056C8.2198 8.35568 7.90312 8.65615 7.83645 9.32387C7.54478 9.18198 6.76976 9.48246 6.77809 9.79963C6.78642 10.1168 7.56145 10.3755 7.90312 10.1335C7.98063 10.5041 8.1373 10.8538 8.36147 11.1601C8.4886 11.3074 8.66315 11.4055 8.8549 11.4375C9.04665 11.4695 9.24354 11.4334 9.4115 11.3354C10.1865 10.9181 10.2449 9.51584 10.6449 9.17364C10.8449 8.99002 10.9365 8.9149 11.1616 9.17364C11.5782 9.68277 11.4699 10.2003 11.3699 10.2336C11.3044 10.2548 11.2497 10.3005 11.2171 10.3612C11.1845 10.4218 11.1765 10.4928 11.1949 10.5592C11.3032 10.9181 11.9532 10.7678 12.0282 9.94152C12.2307 10.01 12.4518 9.99795 12.6456 9.90786C12.8395 9.81776 12.9914 9.6565 13.0699 9.45742C13.0161 9.36511 12.9433 9.28523 12.8565 9.22301C12.7697 9.16079 12.6707 9.11763 12.5661 9.09636C12.4615 9.07509 12.3535 9.07618 12.2494 9.09956C12.1452 9.12295 12.0471 9.1681 11.9616 9.23206C11.6616 8.23883 10.9115 7.95505 10.4032 8.17206C10.2709 8.24405 10.1454 8.32785 10.0282 8.42245C9.3865 8.88986 9.39483 9.70781 9.07816 10.2336C8.76148 10.7595 9.02816 10.676 8.79482 10.2754C8.56148 9.87474 8.32814 8.99002 8.79482 8.85647Z" fill="black"/>
</svg>
