<svg width="20" height="20" viewBox="0 0 20 20" fill="none" xmlns="http://www.w3.org/2000/svg">
<path fill-rule="evenodd" clip-rule="evenodd" d="M9.94893 4.87343e-07H10.0511C11.3233 -1.81173e-05 12.3487 -3.66808e-05 13.1552 0.108391C13.9925 0.220968 14.6974 0.461796 15.2574 1.02172C15.9457 1.71007 16.1586 2.62807 16.2337 3.76691C16.4616 3.78212 16.6756 3.80237 16.8761 3.82932C17.7134 3.9419 18.4183 4.18273 18.9783 4.74265C19.5382 5.30258 19.7791 6.00757 19.8916 6.84488C20 7.65137 20 8.67675 20 9.94893V10.0511C20 11.3233 20 12.3487 19.8916 13.1552C19.7791 13.9925 19.5382 14.6974 18.9783 15.2574C18.29 15.9457 17.3719 16.1586 16.2331 16.2337C16.2179 16.4616 16.1977 16.6756 16.1707 16.8761C16.0581 17.7134 15.8173 18.4183 15.2574 18.9783C14.6974 19.5382 13.9925 19.7791 13.1552 19.8916C12.3487 20 11.3233 20 10.0511 20H9.94893C8.67675 20 7.65137 20 6.84488 19.8916C6.00757 19.7791 5.30258 19.5382 4.74265 18.9783C4.18273 18.4183 3.9419 17.7134 3.82932 16.8761C3.80237 16.6756 3.78212 16.4616 3.7669 16.2337C2.62807 16.1586 1.71007 15.9457 1.02172 15.2574C0.461796 14.6974 0.220968 13.9925 0.108391 13.1552C-3.66808e-05 12.3487 -1.81173e-05 11.3233 4.87343e-07 10.0511V9.94893C-1.81173e-05 8.67675 -3.66808e-05 7.65137 0.108391 6.84488C0.220968 6.00757 0.461796 5.30258 1.02172 4.74265C1.58165 4.18273 2.28664 3.9419 3.12395 3.82932C3.32441 3.80237 3.53839 3.78212 3.76632 3.76691C3.84141 2.62807 4.0543 1.71007 4.74265 1.02172C5.30258 0.461796 6.00757 0.220968 6.84488 0.108391C7.65137 -3.66808e-05 8.67675 -1.81173e-05 9.94893 4.87343e-07ZM5.16943 3.72368C5.50145 3.72092 5.85407 3.72092 6.22802 3.72093H13.772C14.146 3.72092 14.4985 3.72092 14.8306 3.72368C14.7543 2.77404 14.5828 2.32048 14.2707 2.00838C14.0132 1.75093 13.6518 1.58307 12.9692 1.4913C12.2665 1.39683 11.3353 1.39535 10 1.39535C8.66475 1.39535 7.73346 1.39683 7.03081 1.4913C6.34822 1.58307 5.98676 1.75093 5.72931 2.00838C5.41721 2.32048 5.24567 2.77404 5.16943 3.72368ZM3.72367 14.8306C3.72092 14.4985 3.72092 14.146 3.72093 13.772V10.8729C3.57712 10.9312 3.43984 10.99 3.30902 11.0487C2.95752 11.2065 2.54461 11.0495 2.38679 10.698C2.22897 10.3464 2.38598 9.93358 2.73749 9.77572C4.33913 9.05656 6.72605 8.37209 10 8.37209C13.274 8.37209 15.6608 9.05656 17.2625 9.77572C17.614 9.93358 17.7711 10.3464 17.6132 10.698C17.4553 11.0495 17.0425 11.2065 16.691 11.0487C16.5602 10.99 16.4229 10.9312 16.2791 10.8729V13.772C16.2791 14.146 16.2791 14.4985 16.2764 14.8306C17.226 14.7543 17.6795 14.5828 17.9916 14.2707C18.2491 14.0132 18.4169 13.6518 18.5087 12.9692C18.6032 12.2665 18.6047 11.3353 18.6047 10C18.6047 8.66475 18.6032 7.73346 18.5087 7.03081C18.4169 6.34823 18.2491 5.98676 17.9916 5.72931C17.7341 5.47186 17.3727 5.304 16.6901 5.21223C15.9874 5.11776 15.0562 5.11628 13.7209 5.11628H6.27907C4.9438 5.11628 4.01253 5.11776 3.30988 5.21223C2.6273 5.304 2.26583 5.47186 2.00838 5.72931C1.75093 5.98676 1.58307 6.34823 1.4913 7.03081C1.39683 7.73346 1.39535 8.66475 1.39535 10C1.39535 11.3353 1.39683 12.2665 1.4913 12.9692C1.58307 13.6518 1.75093 14.0132 2.00838 14.2707C2.32048 14.5828 2.77404 14.7543 3.72367 14.8306ZM14.8837 10.397C13.6029 10.035 11.9851 9.76744 10 9.76744C8.01485 9.76744 6.39715 10.035 5.11628 10.397V13.7209C5.11628 15.0562 5.11776 15.9874 5.21223 16.6901C5.304 17.3727 5.47186 17.7341 5.72931 17.9916C5.98676 18.2491 6.34823 18.4169 7.03081 18.5087C7.73346 18.6032 8.66475 18.6047 10 18.6047C11.3353 18.6047 12.2665 18.6032 12.9692 18.5087C13.6518 18.4169 14.0132 18.2491 14.2707 17.9916C14.5282 17.7341 14.696 17.3727 14.7878 16.6901C14.8822 15.9874 14.8837 15.0562 14.8837 13.7209V10.397Z" fill="black"/>
</svg>
