<svg width="21" height="21" viewBox="0 0 21 21" fill="none" xmlns="http://www.w3.org/2000/svg">
<path d="M3.6206 13.9427H2.05326C1.64212 13.9427 1.24775 13.7805 0.956596 13.4916C0.665437 13.2026 0.501242 12.8106 0.5 12.4014V5.2552C0.501242 4.84599 0.665437 4.45395 0.956596 4.16503C1.24775 3.87611 1.64212 3.71387 2.05326 3.71387H18.9467C19.3579 3.71387 19.7522 3.87611 20.0434 4.16503C20.3346 4.45395 20.4988 4.84599 20.5 5.2552V12.4014C20.4988 12.8106 20.3346 13.2026 20.0434 13.4916C19.7522 13.7805 19.3579 13.9427 18.9467 13.9427H17.6234" stroke="black" stroke-linecap="round"/>
<path d="M3.62085 3.71345V0.5H17.6237V3.71345" stroke="black" stroke-linecap="round"/>
<path d="M17.6237 10.5098H3.62085V20.5004H17.6237V10.5098Z" stroke="black" stroke-linecap="round"/>
<path d="M5.63379 13.2695H15.2396" stroke="black" stroke-linecap="round"/>
<path d="M2.77588 10.5098H18.5478" stroke="black" stroke-linecap="round"/>
<path d="M5.69482 15.5068H15.3053" stroke="black" stroke-linecap="round"/>
<path d="M5.82153 17.8613H12.3443" stroke="black" stroke-linecap="round"/>
<path d="M17.4259 7.59959C17.8795 7.59959 18.2472 7.23364 18.2472 6.78222C18.2472 6.33079 17.8795 5.96484 17.4259 5.96484C16.9724 5.96484 16.6047 6.33079 16.6047 6.78222C16.6047 7.23364 16.9724 7.59959 17.4259 7.59959Z" stroke="black" stroke-linecap="round"/>
</svg>
