<svg width="70" height="70" viewBox="0 0 70 70" fill="none" xmlns="http://www.w3.org/2000/svg">
<rect x="1" y="1" width="68" height="68" rx="24" stroke="#1FB6B2" stroke-width="2"/>
<path d="M18 34.9955L20.5234 14.5151C20.7005 13.0779 21.9047 12 23.3391 12H38.2672C39.5953 12 40.6667 13.0869 40.6667 14.4343C40.6667 14.7217 40.6135 15.0182 40.5161 15.2876L36.4167 26.3722H48.7505C50.5391 26.3722 52 27.8453 52 29.6688C52 30.3335 51.8052 30.9803 51.4333 31.5282L34.4156 56.7694C33.8932 57.5419 33.0344 58 32.1224 58H31.8656C30.4755 58 29.3422 56.8502 29.3422 55.44C29.3422 55.2334 29.3687 55.0268 29.4219 54.8202L33.5833 37.8699H20.8333C19.2661 37.8699 18 36.5854 18 34.9955Z" fill="#1FB6B2"/>
</svg>
