<svg width="25" height="25" viewBox="0 0 25 25" fill="none" xmlns="http://www.w3.org/2000/svg">
<rect x="0.5" y="0.5" width="24" height="24" rx="12" stroke="#F5F5F5"/>
<path d="M12.5 9.52083C11.9108 9.52083 11.3348 9.69556 10.8449 10.0229C10.3549 10.3503 9.9731 10.8156 9.74761 11.3599C9.52212 11.9043 9.46313 12.5033 9.57808 13.0812C9.69303 13.6591 9.97677 14.1899 10.3934 14.6066C10.8101 15.0232 11.3409 15.307 11.9188 15.4219C12.4967 15.5369 13.0957 15.4779 13.6401 15.2524C14.1845 15.0269 14.6497 14.6451 14.9771 14.1551C15.3044 13.6652 15.4792 13.0892 15.4792 12.5C15.4783 11.7101 15.1641 10.9529 14.6056 10.3944C14.0471 9.83589 13.2899 9.52173 12.5 9.52083ZM12.5 14.9375C12.0179 14.9375 11.5466 14.7945 11.1458 14.5267C10.745 14.2589 10.4325 13.8782 10.248 13.4328C10.0636 12.9874 10.0153 12.4973 10.1093 12.0245C10.2034 11.5516 10.4355 11.1173 10.7764 10.7764C11.1173 10.4355 11.5516 10.2034 12.0245 10.1093C12.4973 10.0153 12.9874 10.0636 13.4328 10.248C13.8782 10.4325 14.2589 10.745 14.5267 11.1458C14.7945 11.5466 14.9375 12.0179 14.9375 12.5C14.9368 13.1462 14.6797 13.7658 14.2228 14.2228C13.7658 14.6797 13.1462 14.9368 12.5 14.9375ZM15.4792 6H9.52083C8.58737 6.00106 7.69245 6.37234 7.0324 7.0324C6.37234 7.69245 6.00106 8.58737 6 9.52083V15.4792C6.00106 16.4126 6.37234 17.3075 7.0324 17.9676C7.69245 18.6277 8.58737 18.9989 9.52083 19H15.4792C16.4126 18.9989 17.3075 18.6277 17.9676 17.9676C18.6277 17.3075 18.9989 16.4126 19 15.4792V9.52083C18.9989 8.58737 18.6277 7.69245 17.9676 7.0324C17.3075 6.37234 16.4126 6.00106 15.4792 6ZM18.4583 15.4792C18.4574 16.269 18.1433 17.0263 17.5848 17.5848C17.0263 18.1433 16.269 18.4574 15.4792 18.4583H9.52083C8.73098 18.4574 7.97374 18.1433 7.41523 17.5848C6.85672 17.0263 6.54256 16.269 6.54167 15.4792V9.52083C6.54256 8.73098 6.85672 7.97374 7.41523 7.41523C7.97374 6.85672 8.73098 6.54256 9.52083 6.54167H15.4792C16.269 6.54256 17.0263 6.85672 17.5848 7.41523C18.1433 7.97374 18.4574 8.73098 18.4583 9.52083V15.4792ZM16.5625 8.97917C16.5625 9.0863 16.5307 9.19102 16.4712 9.2801C16.4117 9.36918 16.3271 9.4386 16.2281 9.4796C16.1291 9.5206 16.0202 9.53133 15.9152 9.51043C15.8101 9.48953 15.7136 9.43794 15.6378 9.36218C15.5621 9.28643 15.5105 9.18991 15.4896 9.08484C15.4687 8.97977 15.4794 8.87086 15.5204 8.77188C15.5614 8.6729 15.6308 8.58831 15.7199 8.52879C15.809 8.46927 15.9137 8.4375 16.0208 8.4375C16.1644 8.43766 16.3021 8.49479 16.4037 8.59633C16.5052 8.69788 16.5623 8.83556 16.5625 8.97917Z" fill="#F5F5F5"/>
</svg>
