<svg width="70" height="70" viewBox="0 0 70 70" fill="none" xmlns="http://www.w3.org/2000/svg">
<rect x="1" y="1" width="68" height="68" rx="24" stroke="#1FB6B2" stroke-width="2"/>
<path d="M35 50.3333H35.0258M32.4167 19.6667H37.5833M27.7667 58H42.2333C45.1269 58 46.5739 58 47.679 57.4429C48.6511 56.953 49.4416 56.171 49.9368 55.2093C50.5 54.1161 50.5 52.6847 50.5 49.8222V20.1778C50.5 17.3153 50.5 15.884 49.9368 14.7907C49.4416 13.829 48.6511 13.0471 47.679 12.5571C46.5739 12 45.1269 12 42.2333 12H27.7667C24.8731 12 23.4263 12 22.3211 12.5571C21.3489 13.0471 20.5585 13.829 20.0631 14.7907C19.5 15.884 19.5 17.3153 19.5 20.1778V49.8222C19.5 52.6847 19.5 54.1161 20.0631 55.2093C20.5585 56.171 21.3489 56.953 22.3211 57.4429C23.4263 58 24.873 58 27.7667 58Z" stroke="#1FB6B2" stroke-width="3" stroke-linecap="round" stroke-linejoin="round"/>
</svg>
