<svg width="35" height="35" viewBox="0 0 35 35" fill="none" xmlns="http://www.w3.org/2000/svg">
<path d="M33.0667 13.8669C33.0072 11.7692 32.8076 10.4318 32.135 9.29048C31.1785 7.66726 29.4558 6.76395 26.0104 4.95733L22.8079 3.27805C19.9968 1.80395 18.5912 1.06689 17.0791 1.06689C15.5671 1.06689 14.1615 1.80395 11.3503 3.27805L8.14784 4.95733C4.70249 6.76395 2.97981 7.66726 2.02324 9.29048C1.06665 10.9137 1.06665 12.9336 1.06665 16.9733V17.1605C1.06665 21.2002 1.06665 23.2202 2.02324 24.8434C2.97981 26.4666 4.70249 27.3698 8.14784 29.1765L11.3503 30.8557C14.1615 32.3298 15.5671 33.0669 17.0791 33.0669C18.5912 33.0669 19.9968 32.3298 22.8079 30.8557L26.0104 29.1765C29.4558 27.3698 31.1785 26.4666 32.135 24.8434C32.8076 23.7019 33.0072 22.3647 33.0667 20.2669" stroke="#1E7A7E" stroke-width="2.13333" stroke-linecap="round"/>
<path d="M31.4907 9.86689L25.0857 13.0669M25.0857 13.0669C25.0857 13.0669 24.5978 13.3107 24.2851 13.4669C21.471 14.8728 17.0795 17.0669 17.0795 17.0669M25.0857 13.0669V18.6669M25.0857 13.0669L9.87383 5.06689M17.0795 17.0669L2.66821 9.86689M17.0795 17.0669V32.2669" stroke="#1E7A7E" stroke-width="2.13333" stroke-linecap="round"/>
</svg>
