<svg width="20" height="20" viewBox="0 0 20 20" fill="none" xmlns="http://www.w3.org/2000/svg">
<path d="M18.0245 2.79372C18.0245 2.54989 17.8586 2.35254 17.6541 2.35254H2.34547C2.14078 2.35254 1.9751 2.54989 1.9751 2.79372V13.0878C1.9751 13.3314 2.14078 13.529 2.34547 13.529H17.6541C17.8586 13.529 18.0245 13.3314 18.0245 13.0878V2.79372ZM2.71584 3.23489H17.2837V12.6467H2.71584V3.23489Z" fill="black"/>
<path d="M1.48148 15.8824H8.08938C8.01012 16.7647 7.71901 18.2353 7.08815 18.8235H4.44444C4.17185 18.8235 3.95062 19.0871 3.95062 19.4118C3.95062 19.7365 4.17185 20 4.44444 20H15.8025C16.0751 20 16.2963 19.7365 16.2963 19.4118C16.2963 19.0871 16.0751 18.8235 15.8025 18.8235H13.4002C12.7691 18.2353 12.4783 16.7647 12.3988 15.8824H18.5185C19.3356 15.8824 20 15.0556 20 14.0826V1.72971C20 0.756471 19.3356 0 18.5185 0H1.48148C0.664444 0 0 0.756471 0 1.72971V14.0826C0 15.0556 0.664444 15.8824 1.48148 15.8824ZM12.1099 18.8235H8.37827C8.89728 17.6471 9.04716 16.1765 9.08272 15.8824H11.4054C11.441 16.1765 11.5909 17.6471 12.1099 18.8235ZM19.0123 14.1176C19.0123 14.4424 18.7911 14.7059 18.5185 14.7059H1.48148C1.20889 14.7059 0.987654 14.4424 0.987654 14.1176V1.76471C0.987654 1.44 1.20889 1.17647 1.48148 1.17647H18.5185C18.7911 1.17647 19.0123 1.44 19.0123 1.76471V14.1176Z" fill="black"/>
</svg>
