<svg width="20" height="20" viewBox="0 0 20 20" fill="none" xmlns="http://www.w3.org/2000/svg">
<path d="M0.625 14.4444C0.97 14.4444 1.25 14.7556 1.25 15.1389V16.5278C1.25 17.0803 1.44754 17.6102 1.79917 18.0009C2.15081 18.3916 2.62772 18.6111 3.125 18.6111H4.375C4.54076 18.6111 4.69973 18.6843 4.81694 18.8145C4.93415 18.9447 5 19.1214 5 19.3056C5 19.4897 4.93415 19.6664 4.81694 19.7966C4.69973 19.9268 4.54076 20 4.375 20H3.125C2.2962 20 1.50134 19.6342 0.915291 18.983C0.32924 18.3318 0 17.4487 0 16.5278V15.1389C0 14.7556 0.28 14.4444 0.625 14.4444ZM19.375 14.4444C19.72 14.4444 20 14.7556 20 15.1389V16.5278C20 17.4487 19.6708 18.3318 19.0847 18.983C18.4987 19.6342 17.7038 20 16.875 20H15.625C15.4592 20 15.3003 19.9268 15.1831 19.7966C15.0658 19.6664 15 19.4897 15 19.3056C15 19.1214 15.0658 18.9447 15.1831 18.8145C15.3003 18.6843 15.4592 18.6111 15.625 18.6111H16.875C17.3723 18.6111 17.8492 18.3916 18.2008 18.0009C18.5525 17.6102 18.75 17.0803 18.75 16.5278V15.1389C18.75 14.7556 19.03 14.4444 19.375 14.4444ZM3.875 4.44444C4.22 4.44444 4.5 4.75556 4.5 5.13889V14.8611L4.4965 14.9322C4.48019 15.1027 4.40768 15.2605 4.29294 15.3752C4.17819 15.4898 4.02932 15.5533 3.875 15.5533C3.72068 15.5533 3.57181 15.4898 3.45706 15.3752C3.34232 15.2605 3.26981 15.1027 3.2535 14.9322L3.25 14.8611V5.13889C3.25 4.75556 3.53 4.44444 3.875 4.44444ZM7.875 4.44444C8.22 4.44444 8.5 4.75556 8.5 5.13889V14.8611L8.4965 14.9322C8.48019 15.1027 8.40768 15.2605 8.29294 15.3752C8.17819 15.4898 8.02932 15.5533 7.875 15.5533C7.72068 15.5533 7.57181 15.4898 7.45706 15.3752C7.34232 15.2605 7.26981 15.1027 7.2535 14.9322L7.25 14.8611V5.13889C7.25 4.75556 7.53 4.44444 7.875 4.44444ZM11.625 4.44444C11.97 4.44444 12.25 4.75556 12.25 5.13889V14.8611L12.2465 14.9322C12.2302 15.1027 12.1577 15.2605 12.0429 15.3752C11.9282 15.4898 11.7793 15.5533 11.625 15.5533C11.4707 15.5533 11.3218 15.4898 11.2071 15.3752C11.0923 15.2605 11.0198 15.1027 11.0035 14.9322L11 14.8611V5.13889C11 4.75556 11.28 4.44444 11.625 4.44444ZM15.625 4.44444C15.97 4.44444 16.25 4.75556 16.25 5.13889V14.8611L16.2465 14.9322C16.2302 15.1027 16.1577 15.2605 16.0429 15.3752C15.9282 15.4898 15.7793 15.5533 15.625 15.5533C15.4707 15.5533 15.3218 15.4898 15.2071 15.3752C15.0923 15.2605 15.0198 15.1027 15.0035 14.9322L15 14.8611V5.13889C15 4.75556 15.28 4.44444 15.625 4.44444ZM4.375 0C4.54076 0 4.69973 0.0731645 4.81694 0.203398C4.93415 0.333632 5 0.510266 5 0.694444C5 0.878623 4.93415 1.05526 4.81694 1.18549C4.69973 1.31572 4.54076 1.38889 4.375 1.38889H3.125C2.62772 1.38889 2.15081 1.60838 1.79917 1.99908C1.44754 2.38978 1.25 2.91969 1.25 3.47222V4.86111C1.25 5.04529 1.18415 5.22192 1.06694 5.35216C0.949731 5.48239 0.79076 5.55556 0.625 5.55556C0.45924 5.55556 0.300269 5.48239 0.183058 5.35216C0.065848 5.22192 0 5.04529 0 4.86111V3.47222C0 2.55133 0.32924 1.66816 0.915291 1.01699C1.50134 0.365822 2.2962 0 3.125 0H4.375ZM16.875 0C17.7038 0 18.4987 0.365822 19.0847 1.01699C19.6708 1.66816 20 2.55133 20 3.47222V4.86111C20 5.04529 19.9342 5.22192 19.8169 5.35216C19.6997 5.48239 19.5408 5.55556 19.375 5.55556C19.2092 5.55556 19.0503 5.48239 18.9331 5.35216C18.8158 5.22192 18.75 5.04529 18.75 4.86111V3.47222C18.75 2.91969 18.5525 2.38978 18.2008 1.99908C17.8492 1.60838 17.3723 1.38889 16.875 1.38889H15.625C15.4592 1.38889 15.3003 1.31572 15.1831 1.18549C15.0658 1.05526 15 0.878623 15 0.694444C15 0.510266 15.0658 0.333632 15.1831 0.203398C15.3003 0.0731645 15.4592 0 15.625 0H16.875Z" fill="black"/>
</svg>
