<svg width="22" height="22" viewBox="0 0 22 22" fill="none" xmlns="http://www.w3.org/2000/svg">
<path d="M18.0463 3.42608C18.9035 4.38787 19.5834 5.52968 20.0473 6.78632C20.5112 8.04296 20.75 9.38982 20.75 10.75C20.75 12.1102 20.5112 13.457 20.0473 14.7137C19.5834 15.9703 18.9035 17.1121 18.0463 18.0739M15.3274 6.4781C16.337 7.61114 16.9042 9.14777 16.9042 10.75C16.9042 12.3522 16.337 13.8889 15.3274 15.0219M5.36537 6.43437L10.2064 1.00243C10.314 0.881868 10.451 0.799785 10.6001 0.766544C10.7492 0.733302 10.9038 0.750394 11.0442 0.815659C11.1847 0.880925 11.3048 0.991437 11.3893 1.13324C11.4739 1.27504 11.5191 1.44177 11.5192 1.61237V19.8876C11.5191 20.0582 11.4739 20.225 11.3893 20.3668C11.3048 20.5086 11.1847 20.6191 11.0442 20.6843C10.9038 20.7496 10.7492 20.7667 10.6001 20.7335C10.451 20.7002 10.314 20.6181 10.2064 20.4976L5.36537 15.0656H3.06794C2.16538 15.0656 1.32026 14.4822 1.08026 13.5074C0.860159 12.6091 0.749072 11.6816 0.750006 10.75C0.750006 9.79481 0.864877 8.87069 1.08026 7.9926C1.32026 7.01669 2.16538 6.43437 3.06794 6.43437H5.36537Z" stroke="black" stroke-width="1.5" stroke-linecap="round" stroke-linejoin="round"/>
</svg>
