<svg width="20" height="20" viewBox="0 0 20 20" fill="none" xmlns="http://www.w3.org/2000/svg">
<path d="M19 18.5V19H15C14.7938 19 14.4855 18.8416 14.2656 18.5H19ZM4.89355 14.2969L3.63965 16.2666L1.44824 11.5254L3.44629 11.1592L4.89355 14.2969ZM15.0205 1.16309C15.2607 0.99209 15.5047 0.964678 15.7256 1.03906C15.9628 1.1191 16.2355 1.34064 16.4229 1.74414L17.8018 4.74121L17.8037 4.74707C18.2214 5.64102 17.9195 6.71323 17.3506 7.12891L15.3809 8.56641L14.6104 9.12891L15.1357 9.9248C15.3491 10.2482 15.5 10.716 15.5 11.249C15.5 12.2367 15.0254 12.9548 14.5156 13.2373L14 13.5225V13.5215L13.4824 13.2363C13.1478 13.052 12.8211 12.6719 12.6367 12.1279L12.2031 10.8496L11.1064 11.6367L9.22656 12.9873L9.22363 12.9893C9.00961 13.1442 8.80106 13.1608 8.6123 13.0977C8.41091 13.0302 8.16274 12.8437 7.98828 12.4678L6.48828 9.21777C6.10132 8.37068 6.40278 7.40373 6.88184 7.06934L6.88965 7.06348L6.89746 7.05859L15.0195 1.16211L15.0205 1.16309Z" stroke="black" stroke-width="2"/>
</svg>
