<svg width="20" height="20" viewBox="0 0 20 20" fill="none" xmlns="http://www.w3.org/2000/svg">
<path d="M17.4473 11.0039C17.5436 11.0041 17.6314 11.0083 17.71 11.0176L18.1572 11.0693L18.1641 11.1094L18.2432 11.1475L17.9482 11.1123C17.8788 11.1038 17.8143 11.1045 17.7852 11.1045H17.7695C17.3946 11.1164 17.0117 11.2539 16.707 11.5352L16.7051 11.5381C16.1045 12.1001 16.0325 13.031 16.5293 13.6758L16.6367 13.8008C17.2414 14.4383 18.2609 14.4657 18.9043 13.8633C19.3793 13.4185 19.518 12.7491 19.3154 12.1709C19.6666 12.9268 19.5116 13.8443 18.8662 14.4473L18.8652 14.4482C18.2901 14.9869 17.4864 15.1256 16.7949 14.873L16.5059 14.7676L16.2812 14.9775L11.9111 19.0742L10.6777 19.2852L10.7256 19.2266L10.6777 18.9951L10.6318 18.7773L10.9141 18.8291L11.4531 18.9268L11.502 18.3818L11.5703 17.6152L12.2705 17.6357L12.8008 17.6504L12.7852 17.1201L12.7715 16.6934L13.0625 16.7705L13.3301 16.8408L13.5312 16.6523L15.6758 14.6494L15.9736 14.3711L15.7607 14.0225C15.2821 13.2411 15.4016 12.2106 16.1055 11.5508C16.4863 11.1965 16.965 11.0146 17.4473 11.0039ZM13.1084 0.5L13.2734 0.514648C13.3209 0.52341 13.3617 0.535514 13.3975 0.549805L13.3984 0.550781C13.6218 0.639593 13.9292 0.920844 14.2979 1.7832V1.78418L16.2148 6.2373C15.9981 6.12467 15.7522 6.06058 15.4922 6.06055C14.6389 6.06055 13.9249 6.75109 13.9248 7.61035C13.9248 8.41502 14.5508 9.07107 15.3311 9.15137L5.3877 13.2979C4.62957 13.6144 4.21173 13.6515 3.96973 13.5996L4.28613 13.4688L8.14258 11.8643L8.61035 11.6699L8.40918 11.2051L5.44141 4.32129L5.24609 3.86816L4.79004 4.05762L0.938477 5.66211L0.603516 5.80078C0.735599 5.59597 1.0535 5.32998 1.80469 5.01953L1.80566 5.01855L11.8711 0.822266C12.2747 0.653546 12.5897 0.56159 12.833 0.522461L13.0527 0.5H13.1084ZM0.671875 6.32129L0.821289 6.66992L3.63477 13.2051L3.77246 13.5244C3.59141 13.4191 3.36372 13.178 3.09668 12.6328L2.95996 12.335L0.827148 7.3877C0.494037 6.61427 0.465939 6.20629 0.524414 5.97949L0.671875 6.32129ZM6.28223 10.7324L4.76758 11.3643L2.79688 6.79297L4.30859 6.16211L6.28223 10.7324ZM12.2549 1.67871L6.59277 4.03711L6.12598 4.23145L6.3252 4.69531L6.62402 5.39258L6.81934 5.84766L7.27637 5.65723L9.28906 4.81836L9.47656 5.25391L9.77539 5.95117L9.92285 6.2959L9.8125 6.34277L9.3457 6.53711L9.54492 7.00098L9.84375 7.69824L10.0391 8.15332L10.4951 7.96289L14.2705 6.39258L14.7373 6.19824L14.2393 5.03613L14.0439 4.58203L13.9941 4.60254L13.543 3.5498L13.3594 3.12207L13.4053 3.10352L13.2061 2.63965L12.9062 1.94336L12.7119 1.48828L12.2549 1.67871Z" stroke="black"/>
</svg>
