<svg width="15" height="20" viewBox="0 0 15 20" fill="none" xmlns="http://www.w3.org/2000/svg">
<g clip-path="url(#clip0_304_3374)">
<path d="M1.54286 20C1.13367 20 0.741234 19.8736 0.451892 19.6485C0.162551 19.4235 0 19.1183 0 18.8L0 4.71333C0 4.05083 0.691071 3.51333 1.54286 3.51333H3.37071C3.42929 3.51333 3.48321 3.52333 3.5325 3.54333L3.53036 3.5425V0.14C3.53036 0.0625 3.61071 0 3.71036 0H10.1604C10.26 0 10.3404 0.0625 10.3404 0.14V3.5225C10.3683 3.51674 10.3971 3.51393 10.4261 3.51417H12.0493C12.9011 3.51417 13.5921 4.05167 13.5921 4.71417V8.07333C13.6401 8.05417 13.6936 8.04471 13.7475 8.04583H14.5586C14.7579 8.04583 14.9196 8.17167 14.9196 8.32667V15.6367C14.9196 15.7111 14.8816 15.7826 14.8139 15.8352C14.7462 15.8879 14.6543 15.9175 14.5586 15.9175H13.7475C13.6928 15.9186 13.6385 15.9089 13.59 15.8892L13.5921 15.89V18.8C13.5921 19.1183 13.4296 19.4235 13.1403 19.6485C12.8509 19.8736 12.4585 20 12.0493 20H1.54286ZM9.39 17.3075V18.2525C9.39028 18.2898 9.40945 18.3255 9.44335 18.3518C9.47724 18.3782 9.52313 18.3931 9.57107 18.3933H11.0004C11.0483 18.3931 11.0942 18.3782 11.1281 18.3518C11.162 18.3255 11.1811 18.2898 11.1814 18.2525V17.3075C11.1809 17.2704 11.1616 17.2349 11.1277 17.2087C11.0938 17.1825 11.0481 17.1677 11.0004 17.1675H9.56893C9.52118 17.1677 9.47544 17.1825 9.44158 17.2087C9.40771 17.2349 9.38842 17.2704 9.38786 17.3075H9.39ZM6.00857 17.3075V18.2525C6.00885 18.2898 6.02802 18.3255 6.06192 18.3518C6.09581 18.3782 6.14171 18.3931 6.18964 18.3933H7.61786C7.66579 18.3931 7.71169 18.3782 7.74558 18.3518C7.77948 18.3255 7.79865 18.2898 7.79893 18.2525V17.3075C7.79837 17.2704 7.77908 17.2349 7.74521 17.2087C7.71134 17.1825 7.66561 17.1677 7.61786 17.1675H6.18857C6.14082 17.1677 6.09509 17.1825 6.06122 17.2087C6.02735 17.2349 6.00913 17.2704 6.00857 17.3075ZM2.62714 17.3075V18.2533C2.62714 18.3308 2.7075 18.3933 2.80714 18.3933H4.23643C4.28436 18.3931 4.33026 18.3782 4.36415 18.3518C4.39805 18.3255 4.41722 18.2898 4.4175 18.2525V17.3075C4.41694 17.2704 4.39765 17.2349 4.36378 17.2087C4.32991 17.1825 4.28418 17.1677 4.23643 17.1675H2.80714C2.75958 17.1679 2.71412 17.1828 2.68048 17.209C2.64684 17.2351 2.6277 17.2705 2.62714 17.3075ZM9.38893 15.165V16.11C9.38921 16.1473 9.40838 16.183 9.44227 16.2093C9.47617 16.2357 9.52206 16.2506 9.57 16.2508H10.9993C11.0472 16.2506 11.0931 16.2357 11.127 16.2093C11.1609 16.183 11.1801 16.1473 11.1804 16.11V15.1642C11.1798 15.1272 11.1607 15.0918 11.127 15.0657C11.0934 15.0395 11.0479 15.0246 11.0004 15.0242H9.56786C9.52029 15.0246 9.47483 15.0395 9.44119 15.0657C9.40756 15.0918 9.38841 15.1272 9.38786 15.1642L9.38893 15.165ZM6.0075 15.165V16.11C6.00778 16.1473 6.02695 16.183 6.06084 16.2093C6.09474 16.2357 6.14064 16.2506 6.18857 16.2508H7.61786C7.66579 16.2506 7.71169 16.2357 7.74558 16.2093C7.77948 16.183 7.79865 16.1473 7.79893 16.11V15.1642C7.79837 15.1272 7.77923 15.0918 7.74559 15.0657C7.71196 15.0395 7.66649 15.0246 7.61893 15.0242H6.1875C6.13993 15.0246 6.09447 15.0395 6.06084 15.0657C6.0272 15.0918 6.00806 15.128 6.0075 15.165ZM2.62607 15.165V16.1108C2.62607 16.1883 2.70643 16.2508 2.80607 16.2508H4.23536C4.28329 16.2506 4.32919 16.2357 4.36308 16.2093C4.39698 16.183 4.41615 16.1473 4.41643 16.11V15.1642C4.41587 15.1272 4.39673 15.0918 4.36309 15.0657C4.32946 15.0395 4.28399 15.0246 4.23643 15.0242H2.80607C2.75851 15.0246 2.71304 15.0395 2.67941 15.0657C2.64577 15.0918 2.62663 15.128 2.62607 15.165ZM9.38786 13.0217V13.9675C9.38786 14.045 9.46821 14.1075 9.56786 14.1075H10.9993C11.0469 14.1071 11.0923 14.0922 11.1259 14.066C11.1596 14.0399 11.1787 14.0045 11.1793 13.9675V13.0217C11.1787 12.9845 11.1594 12.949 11.1256 12.9229C11.0917 12.8967 11.046 12.8819 10.9982 12.8817H9.56893C9.52118 12.8819 9.47544 12.8967 9.44158 12.9229C9.40771 12.949 9.38842 12.9845 9.38786 13.0217ZM6.00643 13.0217V13.9675C6.00643 14.045 6.08679 14.1075 6.18643 14.1075H7.61786C7.66542 14.1071 7.71088 14.0922 7.74452 14.066C7.77816 14.0399 7.7973 14.0045 7.79786 13.9675V13.0217C7.7973 12.9845 7.77801 12.949 7.74414 12.9229C7.71027 12.8967 7.66454 12.8819 7.61679 12.8817H6.1875C6.13975 12.8819 6.09401 12.8967 6.06015 12.9229C6.02628 12.949 6.00699 12.9845 6.00643 13.0217ZM2.625 13.0217V13.9675C2.625 14.045 2.70536 14.1075 2.805 14.1075H4.23643C4.28399 14.1071 4.32946 14.0922 4.36309 14.066C4.39673 14.0399 4.41587 14.0045 4.41643 13.9675V13.0217C4.41587 12.9845 4.39658 12.949 4.36271 12.9229C4.32884 12.8967 4.28311 12.8819 4.23536 12.8817H2.80607C2.75851 12.8821 2.71304 12.897 2.67941 12.9232C2.64577 12.9493 2.62556 12.9847 2.625 13.0217ZM2.4 7.4275V11.5208C2.4 11.5983 2.48036 11.6608 2.58 11.6608H10.8964C10.944 11.6604 10.9895 11.6455 11.0231 11.6193C11.0567 11.5932 11.0759 11.5578 11.0764 11.5208V7.4275C11.0761 7.39022 11.057 7.35452 11.0231 7.32816C10.9892 7.30179 10.9433 7.28689 10.8954 7.28667H2.58107C2.53313 7.28689 2.48724 7.30179 2.45335 7.32816C2.41945 7.35452 2.40028 7.39022 2.4 7.4275ZM1.86 5.1925V6.18417C1.86 6.41667 2.10214 6.605 2.40107 6.605H11.4C11.5435 6.605 11.6811 6.56066 11.7826 6.48174C11.8841 6.40282 11.9411 6.29578 11.9411 6.18417V5.1925C11.9411 5.08089 11.8841 4.97385 11.7826 4.89493C11.6811 4.816 11.5435 4.77167 11.4 4.77167H10.3393V5.61333H10.8621V5.76167H2.94214V5.61333H3.28607C3.37301 5.61349 3.45869 5.59719 3.53571 5.56583L3.5325 5.56667V4.81833C3.45602 4.78753 3.37112 4.77152 3.285 4.77167H2.39893C2.25561 4.77189 2.11826 4.81632 2.01703 4.89522C1.91579 4.97412 1.86 5.08103 1.86 5.1925Z" fill="black"/>
</g>
<defs>
<clipPath id="clip0_304_3374">
<rect width="15" height="20" fill="white"/>
</clipPath>
</defs>
</svg>
