<svg width="28" height="28" viewBox="0 0 28 28" fill="none" xmlns="http://www.w3.org/2000/svg">
<path d="M9.625 23.1875H5.6875C5.446 23.1875 5.25 23.3831 5.25 23.625V25.8125C5.25 26.0544 5.446 26.25 5.6875 26.25H9.625C9.8665 26.25 10.0625 26.0544 10.0625 25.8125V23.625C10.0625 23.3831 9.8665 23.1875 9.625 23.1875ZM9.1875 25.375H6.125V24.0625H9.1875V25.375Z" fill="black"/>
<path d="M27.5625 16.625H22.456L15.3309 11.375H19.25C19.4915 11.375 19.6875 11.1794 19.6875 10.9375V4.15625V3.0625V0.4375C19.6875 0.195563 19.4915 0 19.25 0H8.3125C8.071 0 7.875 0.195563 7.875 0.4375V3.0625V4.15625V10.9375C7.875 11.1794 8.071 11.375 8.3125 11.375H10.0625H11.8125H12.6691L5.544 16.625H0.4375C0.196 16.625 0 16.8206 0 17.0625V19.6875V20.7812V27.5625C0 27.8044 0.196 28 0.4375 28H2.1875H3.9375H11.375C11.6165 28 11.8125 27.8044 11.8125 27.5625V20.7812V19.6875V17.0625C11.8125 16.8206 11.6165 16.625 11.375 16.625H7.01837L14 11.4809L20.9816 16.625H16.625C16.3835 16.625 16.1875 16.8206 16.1875 17.0625V19.6875V20.7812V27.5625C16.1875 27.8044 16.3835 28 16.625 28H18.375H20.125H27.5625C27.804 28 28 27.8044 28 27.5625V20.7812V19.6875V17.0625C28 16.8206 27.804 16.625 27.5625 16.625ZM10.9375 20.7812C10.9375 21.1431 10.6431 21.4375 10.2812 21.4375C9.91944 21.4375 9.625 21.1431 9.625 20.7812V20.125H10.9375V20.7812ZM0.875 20.125H2.1875V20.7812C2.1875 21.1431 1.89306 21.4375 1.53125 21.4375C1.16944 21.4375 0.875 21.1431 0.875 20.7812V20.125ZM3.0625 19.25V17.5H4.375V19.25H3.0625ZM3.0625 20.125H4.375V20.7812C4.375 21.1431 4.08056 21.4375 3.71875 21.4375C3.35694 21.4375 3.0625 21.1431 3.0625 20.7812V20.125ZM5.25 20.125H6.5625V20.7812C6.5625 21.1431 6.26806 21.4375 5.90625 21.4375C5.54444 21.4375 5.25 21.1431 5.25 20.7812V20.125ZM7.4375 20.125H8.75V20.7812C8.75 21.1431 8.45556 21.4375 8.09375 21.4375C7.73194 21.4375 7.4375 21.1431 7.4375 20.7812V20.125ZM7.4375 19.25V17.5H8.75V19.25H7.4375ZM6.5625 19.25H5.25V17.5H6.5625V19.25ZM0.875 17.5H2.1875V19.25H0.875V17.5ZM2.625 27.125V24.5C2.625 24.2585 2.82144 24.0625 3.0625 24.0625C3.30356 24.0625 3.5 24.2585 3.5 24.5V27.125H2.625ZM4.375 27.125V24.5C4.375 23.7764 3.78612 23.1875 3.0625 23.1875C2.33888 23.1875 1.75 23.7764 1.75 24.5V27.125H0.875V22.1589C1.0745 22.2543 1.29544 22.3125 1.53125 22.3125C1.96 22.3125 2.34675 22.1344 2.625 21.8496C2.90325 22.1344 3.29 22.3125 3.71875 22.3125C4.1475 22.3125 4.53425 22.1344 4.8125 21.8496C5.09075 22.1344 5.4775 22.3125 5.90625 22.3125C6.335 22.3125 6.72175 22.1344 7 21.8496C7.27825 22.1344 7.665 22.3125 8.09375 22.3125C8.5225 22.3125 8.90925 22.1344 9.1875 21.8496C9.46575 22.1344 9.8525 22.3125 10.2812 22.3125C10.5171 22.3125 10.738 22.2543 10.9375 22.1589V27.125H4.375ZM10.9375 19.25H9.625V17.5H10.9375V19.25ZM8.75 3.5H10.0625V4.15625C10.0625 4.51806 9.76806 4.8125 9.40625 4.8125C9.04444 4.8125 8.75 4.51806 8.75 4.15625V3.5ZM15.3125 2.625V0.875H16.625V2.625H15.3125ZM14.4375 2.625H13.125V0.875H14.4375V2.625ZM12.25 2.625H10.9375V0.875H12.25V2.625ZM10.9375 3.5H12.25V4.15625C12.25 4.51806 11.9556 4.8125 11.5938 4.8125C11.2319 4.8125 10.9375 4.51806 10.9375 4.15625V3.5ZM13.125 3.5H14.4375V4.15625C14.4375 4.51806 14.1431 4.8125 13.7812 4.8125C13.4194 4.8125 13.125 4.51806 13.125 4.15625V3.5ZM15.3125 3.5H16.625V4.15625C16.625 4.51806 16.3306 4.8125 15.9688 4.8125C15.6069 4.8125 15.3125 4.51806 15.3125 4.15625V3.5ZM17.5 3.5H18.8125V4.15625C18.8125 4.51806 18.5181 4.8125 18.1562 4.8125C17.7944 4.8125 17.5 4.51806 17.5 4.15625V3.5ZM18.8125 2.625H17.5V0.875H18.8125V2.625ZM8.75 0.875H10.0625V2.625H8.75V0.875ZM8.75 5.53394C8.9495 5.62931 9.17044 5.6875 9.40625 5.6875C9.835 5.6875 10.2218 5.50944 10.5 5.22463C10.7782 5.50944 11.165 5.6875 11.5938 5.6875C12.0225 5.6875 12.4093 5.50944 12.6875 5.22463C12.9657 5.50944 13.3525 5.6875 13.7812 5.6875C14.21 5.6875 14.5968 5.50944 14.875 5.22463C15.1532 5.50944 15.54 5.6875 15.9688 5.6875C16.3975 5.6875 16.7843 5.50944 17.0625 5.22463C17.3407 5.50944 17.7275 5.6875 18.1562 5.6875C18.3921 5.6875 18.613 5.62931 18.8125 5.53394V10.5H12.25V7.875C12.25 7.15137 11.6611 6.5625 10.9375 6.5625C10.2139 6.5625 9.625 7.15137 9.625 7.875V10.5H8.75V5.53394ZM10.5 10.5V7.875C10.5 7.6335 10.6964 7.4375 10.9375 7.4375C11.1786 7.4375 11.375 7.6335 11.375 7.875V10.5H10.5ZM27.125 19.25H25.8125V17.5H27.125V19.25ZM27.125 20.7812C27.125 21.1431 26.8306 21.4375 26.4688 21.4375C26.1069 21.4375 25.8125 21.1431 25.8125 20.7812V20.125H27.125V20.7812ZM17.0625 20.125H18.375V20.7812C18.375 21.1431 18.0806 21.4375 17.7188 21.4375C17.3569 21.4375 17.0625 21.1431 17.0625 20.7812V20.125ZM22.75 17.5V19.25H21.4375V17.5H22.75ZM23.625 19.25V17.5H24.9375V19.25H23.625ZM20.5625 19.25H19.25V17.5H20.5625V19.25ZM19.25 20.125H20.5625V20.7812C20.5625 21.1431 20.2681 21.4375 19.9062 21.4375C19.5444 21.4375 19.25 21.1431 19.25 20.7812V20.125ZM21.4375 20.125H22.75V20.7812C22.75 21.1431 22.4556 21.4375 22.0938 21.4375C21.7319 21.4375 21.4375 21.1431 21.4375 20.7812V20.125ZM23.625 20.125H24.9375V20.7812C24.9375 21.1431 24.6431 21.4375 24.2812 21.4375C23.9194 21.4375 23.625 21.1431 23.625 20.7812V20.125ZM17.0625 17.5H18.375V19.25H17.0625V17.5ZM18.8125 27.125V24.5C18.8125 24.2585 19.0089 24.0625 19.25 24.0625C19.4911 24.0625 19.6875 24.2585 19.6875 24.5V27.125H18.8125ZM20.5625 27.125V24.5C20.5625 23.7764 19.9736 23.1875 19.25 23.1875C18.5264 23.1875 17.9375 23.7764 17.9375 24.5V27.125H17.0625V22.1589C17.262 22.2543 17.4829 22.3125 17.7188 22.3125C18.1475 22.3125 18.5343 22.1344 18.8125 21.8496C19.0907 22.1344 19.4775 22.3125 19.9062 22.3125C20.335 22.3125 20.7218 22.1344 21 21.8496C21.2782 22.1344 21.665 22.3125 22.0938 22.3125C22.5225 22.3125 22.9093 22.1344 23.1875 21.8496C23.4657 22.1344 23.8525 22.3125 24.2812 22.3125C24.71 22.3125 25.0968 22.1344 25.375 21.8496C25.6532 22.1344 26.04 22.3125 26.4688 22.3125C26.7046 22.3125 26.9255 22.2543 27.125 22.1589V27.125H20.5625Z" fill="black"/>
<path d="M25.8125 23.1875H21.875C21.6335 23.1875 21.4375 23.3831 21.4375 23.625V25.8125C21.4375 26.0544 21.6335 26.25 21.875 26.25H25.8125C26.054 26.25 26.25 26.0544 26.25 25.8125V23.625C26.25 23.3831 26.054 23.1875 25.8125 23.1875ZM25.375 25.375H22.3125V24.0625H25.375V25.375Z" fill="black"/>
<path d="M13.5625 9.625H17.5C17.7415 9.625 17.9375 9.42944 17.9375 9.1875V7C17.9375 6.75806 17.7415 6.5625 17.5 6.5625H13.5625C13.321 6.5625 13.125 6.75806 13.125 7V9.1875C13.125 9.42944 13.321 9.625 13.5625 9.625ZM14 7.4375H17.0625V8.75H14V7.4375Z" fill="black"/>
</svg>
