<svg width="25" height="25" viewBox="0 0 25 25" fill="none" xmlns="http://www.w3.org/2000/svg">
<rect x="0.5" y="0.5" width="24" height="24" rx="12" stroke="#F5F5F5"/>
<path d="M8.91049 19H6.21473V10.3208H8.91049V19ZM7.56116 9.13683C6.69933 9.13683 6 8.42299 6 7.56116C6 7.14621 6.1654 6.75156 6.45848 6.45848C6.75156 6.1654 7.14911 6 7.56116 6C7.97321 6 8.37076 6.1654 8.66384 6.45848C8.95692 6.75156 9.12232 7.14911 9.12232 7.56116C9.12232 8.42299 8.42299 9.13683 7.56116 9.13683ZM18.9971 19H16.3071V14.775C16.3071 13.7681 16.2868 12.4768 14.9056 12.4768C13.504 12.4768 13.2893 13.5708 13.2893 14.7025V19H10.5964V10.3208H13.1819V11.5047H13.2196C13.5795 10.8228 14.4587 10.1031 15.7703 10.1031C18.498 10.1031 19 11.8993 19 14.2324V19H18.9971Z" fill="#F5F5F5"/>
</svg>
