<svg width="37" height="29" viewBox="0 0 37 29" fill="none" xmlns="http://www.w3.org/2000/svg">
<path d="M2.625 13.125H18.375V15.75H2.625V13.125ZM0 6.5625H13.125V9.1875H0V6.5625Z" fill="#1E7A7E"/>
<path d="M36.6438 13.9204L32.7063 4.73287C32.6053 4.49673 32.4371 4.29546 32.2227 4.15406C32.0082 4.01266 31.757 3.93736 31.5001 3.9375H27.5626V1.3125C27.5626 0.964403 27.4244 0.630564 27.1782 0.384423C26.9321 0.138281 26.5982 0 26.2501 0H5.25013V2.625H24.9376V19.1047C24.3396 19.452 23.8162 19.9143 23.3976 20.4648C22.9791 21.0154 22.6737 21.6433 22.499 22.3125H14.2513C13.9318 21.0753 13.1721 19.997 12.1145 19.2798C11.0569 18.5627 9.77408 18.2558 8.50645 18.4168C7.23882 18.5779 6.07342 19.1957 5.22871 20.1544C4.384 21.1132 3.91797 22.3472 3.91797 23.625C3.91797 24.9028 4.384 26.1368 5.22871 27.0956C6.07342 28.0543 7.23882 28.6721 8.50645 28.8332C9.77408 28.9942 11.0569 28.6873 12.1145 27.9702C13.1721 27.253 13.9318 26.1747 14.2513 24.9375H22.499C22.7845 26.0639 23.4375 27.063 24.3546 27.7767C25.2717 28.4903 26.4006 28.8778 27.5626 28.8778C28.7247 28.8778 29.8536 28.4903 30.7707 27.7767C31.6878 27.063 32.3407 26.0639 32.6263 24.9375H35.4376C35.7857 24.9375 36.1196 24.7992 36.3657 24.5531C36.6119 24.3069 36.7501 23.9731 36.7501 23.625V14.4375C36.7502 14.2597 36.714 14.0837 36.6438 13.9204ZM9.18763 26.25C8.66846 26.25 8.16094 26.096 7.72926 25.8076C7.29758 25.5192 6.96113 25.1092 6.76245 24.6295C6.56377 24.1499 6.51179 23.6221 6.61307 23.1129C6.71436 22.6037 6.96437 22.136 7.33148 21.7688C7.69859 21.4017 8.16632 21.1517 8.67552 21.0504C9.18472 20.9492 9.71252 21.0011 10.1922 21.1998C10.6718 21.3985 11.0818 21.7349 11.3702 22.1666C11.6587 22.5983 11.8126 23.1058 11.8126 23.625C11.8119 24.321 11.5352 24.9883 11.043 25.4804C10.5509 25.9725 9.88361 26.2493 9.18763 26.25ZM27.5626 6.5625H30.6339L33.4479 13.125H27.5626V6.5625ZM27.5626 26.25C27.0435 26.25 26.5359 26.096 26.1043 25.8076C25.6726 25.5192 25.3361 25.1092 25.1375 24.6295C24.9388 24.1499 24.8868 23.6221 24.9881 23.1129C25.0894 22.6037 25.3394 22.136 25.7065 21.7688C26.0736 21.4017 26.5413 21.1517 27.0505 21.0504C27.5597 20.9492 28.0875 21.0011 28.5672 21.1998C29.0468 21.3985 29.4568 21.7349 29.7452 22.1666C30.0337 22.5983 30.1876 23.1058 30.1876 23.625C30.1869 24.321 29.9102 24.9883 29.418 25.4804C28.9259 25.9725 28.2586 26.2493 27.5626 26.25ZM34.1251 22.3125H32.6263C32.3371 21.1883 31.6831 20.1917 30.7668 19.4792C29.8504 18.7666 28.7235 18.3782 27.5626 18.375V15.75H34.1251V22.3125Z" fill="#1E7A7E"/>
</svg>
