<?xml version="1.0" encoding="UTF-8"?>
<svg version="1.1" xmlns="http://www.w3.org/2000/svg" width="300" height="184">
<path d="M0 0 C0.61875 0.33 1.2375 0.66 1.875 1 C3.91018344 2.14193235 3.91018344 2.14193235 6 2 C6.804375 1.62875 7.60875 1.2575 8.4375 0.875 C9.283125 0.58625 10.12875 0.2975 11 0 C11.99 0.66 12.98 1.32 14 2 C14 2.66 14 3.32 14 4 C14.66 4 15.32 4 16 4 C16.33 3.01 16.66 2.02 17 1 C18.75 0 18.75 0 21 0 C21.721875 0.804375 22.44375 1.60875 23.1875 2.4375 C26.29734659 5.27091579 26.68528309 5.31520557 30.625 5.1875 C31.75808594 5.08501953 31.75808594 5.08501953 32.9140625 4.98046875 C35 5 35 5 38 7 C38 7.99 38 8.98 38 10 C38.87079225 9.99861731 38.87079225 9.99861731 39.75917625 9.99720669 C53.87160952 9.97514166 67.98404021 9.95858365 82.09648705 9.94818783 C88.92110182 9.94302712 95.7457051 9.93598871 102.5703125 9.92456055 C109.15143433 9.91354535 115.73254731 9.90772223 122.31367874 9.90512276 C124.82958795 9.9032693 127.34549647 9.89965019 129.8614006 9.89426994 C133.37424913 9.88705378 136.88704765 9.88600931 140.39990234 9.88647461 C141.44934525 9.88287933 142.49878815 9.87928406 143.58003235 9.87557983 C144.53358109 9.8769545 145.48712982 9.87832916 146.46957397 9.87974548 C147.71675988 9.87836279 147.71675988 9.87836279 148.98914146 9.87695217 C151 10 151 10 153 11 C152.67 11.99 152.34 12.98 152 14 C114.38 14 76.76 14 38 14 C37.67 15.32 37.34 16.64 37 18 C35.375 19.3125 35.375 19.3125 33 20 C31.865625 19.773125 30.73125 19.54625 29.5625 19.3125 C25.82493078 18.56379947 25.82493078 18.56379947 23.0625 21.4375 C22.381875 22.283125 21.70125 23.12875 21 24 C20.401875 23.67 19.80375 23.34 19.1875 23 C16.94613529 21.79212012 16.94613529 21.79212012 14 22 C13.34 22.66 12.68 23.32 12 24 C8.98694043 23.61121812 7.60314689 22.73543126 5 21 C4.566875 21.495 4.13375 21.99 3.6875 22.5 C2 24 2 24 -1 24 C-1 23.34 -1 22.68 -1 22 C-1.99 21.67 -2.98 21.34 -4 21 C-4 20.34 -4 19.68 -4 19 C-7.63 19 -11.26 19 -15 19 C-15.99 17.02 -15.99 17.02 -17 15 C-54.95 15 -92.9 15 -132 15 C-132.33 13.68 -132.66 12.36 -133 11 C-127.03643811 9.95946818 -121.24452549 9.86461115 -115.19946289 9.88647461 C-114.13530151 9.88632858 -113.07114014 9.88618256 -111.97473145 9.8860321 C-108.47401863 9.88672612 -104.97335971 9.89449455 -101.47265625 9.90234375 C-99.03885426 9.90420975 -96.60505189 9.90563279 -94.17124939 9.90663147 C-87.77785193 9.91044234 -81.38447732 9.92026041 -74.99108887 9.93133545 C-68.46216135 9.94158033 -61.93323012 9.94613568 -55.40429688 9.95117188 C-42.60285485 9.96188397 -29.80142864 9.97874991 -17 10 C-17 8.35 -17 6.7 -17 5 C-16.34773438 5.04640625 -15.69546875 5.0928125 -15.0234375 5.140625 C-8.90899792 5.39313873 -5.70171033 4.97837028 -1 1 C-0.67 0.67 -0.34 0.34 0 0 Z M-1 6 C-0.67 6.99 -0.34 7.98 0 9 C0.66 8.67 1.32 8.34 2 8 C2 7.34 2 6.68 2 6 C1.01 6 0.02 6 -1 6 Z M20 6 C20 6.99 20 7.98 20 9 C20.66 9 21.32 9 22 9 C21.67 8.01 21.34 7.02 21 6 C20.67 6 20.34 6 20 6 Z M5 11 C4.67 11.66 4.34 12.32 4 13 C4.66 13 5.32 13 6 13 C5.67 12.34 5.34 11.68 5 11 Z M-1 15 C-1 15.99 -1 16.98 -1 18 C-0.01 17.67 0.98 17.34 2 17 C1.67 16.34 1.34 15.68 1 15 C0.34 15 -0.32 15 -1 15 Z M10 16 C10.33 16.99 10.66 17.98 11 19 C11 18.01 11 17.02 11 16 C10.67 16 10.34 16 10 16 Z " fill="#171718" transform="translate(140,105)"/>
<path d="M0 0 C0.87890625 2.53125 0.87890625 2.53125 1 5 C-0.4375 6.8125 -0.4375 6.8125 -2 8 C-6.75 6.125 -6.75 6.125 -9 5 C-13.38731188 4.47421213 -16.93357517 4.47813253 -20.9375 6.4375 C-23.82027081 10.01912434 -24.80339776 13.42080605 -25 18 C-23.74802045 21.59944122 -22.45688016 22.69187152 -19.3125 24.8125 C-14.36758216 26.58520639 -10.05800004 26.68600001 -5 25 C-5 23.35 -5 21.7 -5 20 C-6.65 20 -8.3 20 -10 20 C-10.66 18.02 -11.32 16.04 -12 14 C-11 13 -11 13 -8.05859375 12.90234375 C-6.86363281 12.91394531 -5.66867188 12.92554687 -4.4375 12.9375 C-2.64119141 12.95103516 -2.64119141 12.95103516 -0.80859375 12.96484375 C0.11824219 12.97644531 1.04507813 12.98804687 2 13 C2.22354607 14.89409978 2.42819951 16.7904348 2.625 18.6875 C2.74101563 19.74324219 2.85703125 20.79898438 2.9765625 21.88671875 C3.00151176 25.2008115 2.55650491 27.09418726 1 30 C-4.84138696 34.57152023 -9.64279737 35.7089668 -17 35 C-23.56789856 33.65936153 -27.27787875 30.47298749 -31 25 C-33.72043651 20.42472041 -33.75678438 15.1713599 -33 10 C-30.71263225 4.1181972 -26.56810955 -0.09760732 -21 -3 C-13.80773138 -5.17020098 -6.28870556 -4.2045177 0 0 Z " fill="#1C1B1B" transform="translate(57,14)"/>
<path d="M0 0 C2.5 0.125 2.5 0.125 3.5 1.125 C3.9638066 5.11602718 4.20468177 9.11710968 4.5 13.125 C10.11 13.455 15.72 13.785 21.5 14.125 C21.5 9.835 21.5 5.545 21.5 1.125 C25.5 0.125 25.5 0.125 28.5 1.125 C28.5 13.005 28.5 24.885 28.5 37.125 C23.5 38.125 23.5 38.125 21.5 37.125 C21.5 32.175 21.5 27.225 21.5 22.125 C15.89 22.125 10.28 22.125 4.5 22.125 C4.17 27.075 3.84 32.025 3.5 37.125 C1.19 37.125 -1.12 37.125 -3.5 37.125 C-3.5246501 32.01636104 -3.54283607 26.90775641 -3.55493164 21.79907227 C-3.55997204 20.05980832 -3.5668043 18.32054864 -3.57543945 16.58129883 C-3.58751792 14.08674063 -3.59323108 11.59223827 -3.59765625 9.09765625 C-3.60281754 8.31536148 -3.60797882 7.53306671 -3.61329651 6.72706604 C-3.61349226 4.85932886 -3.56199694 2.99170796 -3.5 1.125 C-2.5 0.125 -2.5 0.125 0 0 Z " fill="#1D1C1D" transform="translate(75.5,50.875)"/>
<path d="M0 0 C3.45831586 -0.02894547 6.91660072 -0.04678 10.375 -0.0625 C11.35984375 -0.07087891 12.3446875 -0.07925781 13.359375 -0.08789062 C14.77089844 -0.09272461 14.77089844 -0.09272461 16.2109375 -0.09765625 C17.51490479 -0.10551147 17.51490479 -0.10551147 18.84521484 -0.11352539 C21 0 21 0 23 1 C23 1.66 23 2.32 23 3 C23.66 3 24.32 3 25 3 C26.04776522 7.50539046 25.87183886 9.8158896 24 14 C24 15.32 24 16.64 24 18 C25.32 18.66 26.64 19.32 28 20 C28.042721 21.66611905 28.04063832 23.33382885 28 25 C27 26 27 26 23.6875 26.1875 C18.44481054 25.92092257 18.44481054 25.92092257 16 24 C15.525625 22.989375 15.05125 21.97875 14.5625 20.9375 C13.30607568 17.75579109 13.30607568 17.75579109 10.3125 17.125 C9.549375 17.08375 8.78625 17.0425 8 17 C8.020625 18.299375 8.04125 19.59875 8.0625 20.9375 C8.08399454 22.29165633 8.07148199 23.64756083 8 25 C7 26 7 26 3.9375 26.0625 C2.968125 26.041875 1.99875 26.02125 1 26 C-0.30475618 23.39048764 -0.11301572 21.47298715 -0.09765625 18.5546875 C-0.09443359 17.47832031 -0.09121094 16.40195312 -0.08789062 15.29296875 C-0.07951172 14.16503906 -0.07113281 13.03710938 -0.0625 11.875 C-0.05798828 10.73933594 -0.05347656 9.60367187 -0.04882812 8.43359375 C-0.03701615 5.62234362 -0.02054507 2.8111977 0 0 Z M8 7 C8 7.66 8 8.32 8 9 C10.97 9 13.94 9 17 9 C17 8.34 17 7.68 17 7 C14.03 7 11.06 7 8 7 Z " fill="#1C1B1B" transform="translate(129,22)"/>
<path d="M0 0 C4.98735327 0.57546384 6.70151748 3.54986552 9.82421875 7.23046875 C10.35660156 7.85566406 10.88898438 8.48085938 11.4375 9.125 C12.17033203 10.01445312 12.17033203 10.01445312 12.91796875 10.921875 C14.2079691 12.50279183 14.2079691 12.50279183 16.25 13.375 C16.23839844 12.59253906 16.22679687 11.81007813 16.21484375 11.00390625 C16.20582031 9.99199219 16.19679688 8.98007812 16.1875 7.9375 C16.17589844 6.92816406 16.16429687 5.91882813 16.15234375 4.87890625 C16.25 2.375 16.25 2.375 17.25 1.375 C19.56 1.375 21.87 1.375 24.25 1.375 C24.25 9.625 24.25 17.875 24.25 26.375 C19.25 28.375 19.25 28.375 16.25 27.375 C14.62468352 25.57564272 13.06921756 23.71227432 11.5625 21.8125 C10.75425781 20.80058594 9.94601563 19.78867187 9.11328125 18.74609375 C8.49839844 17.96363281 7.88351563 17.18117188 7.25 16.375 C7.18941406 17.08527344 7.12882813 17.79554687 7.06640625 18.52734375 C6.98261719 19.44644531 6.89882812 20.36554687 6.8125 21.3125 C6.73128906 22.22902344 6.65007812 23.14554688 6.56640625 24.08984375 C6.25 26.375 6.25 26.375 5.25 27.375 C2.25 27.5 2.25 27.5 -0.75 27.375 C-2.34776224 25.77723776 -1.95233252 24.03621702 -2.03125 21.82421875 C-2.06863281 20.89802734 -2.10601562 19.97183594 -2.14453125 19.01757812 C-2.17933594 18.04240234 -2.21414062 17.06722656 -2.25 16.0625 C-2.3190948 14.14959771 -2.39187466 12.23682415 -2.46875 10.32421875 C-2.51418945 9.04550903 -2.51418945 9.04550903 -2.56054688 7.7409668 C-2.6819804 5.37251444 -2.6819804 5.37251444 -3.33007812 3.12817383 C-3.46865234 2.54962646 -3.60722656 1.9710791 -3.75 1.375 C-2.75 0.375 -2.75 0.375 0 0 Z " fill="#1B1A1B" transform="translate(240.75,20.625)"/>
<path d="M0 0 C3.5 1.8125 3.5 1.8125 6 4 C6.52980469 4.45117188 7.05960938 4.90234375 7.60546875 5.3671875 C10.18511847 8.38761771 9.98683936 12.16367342 10 16 C9.30327433 20.02552611 8.11810215 22.1528067 5.125 24.8125 C0.95522388 27.73134328 0.95522388 27.73134328 -2 28 C-3.0725 28.103125 -4.145 28.20625 -5.25 28.3125 C-10.73868359 27.8551097 -15.137769 25.98237494 -18.9375 21.9375 C-21.15357495 17.89642215 -21.38531178 14.54667902 -21 10 C-16.38270419 0.94299669 -9.68175154 -1.4551442 0 0 Z M-12 10 C-13.29921346 11.10254126 -13.29921346 11.10254126 -13.4375 13.8125 C-13.31176219 17.22660615 -13.31176219 17.22660615 -10.375 19.4375 C-7.14699985 21.20646345 -7.14699985 21.20646345 -3.875 21.0625 C-0.19713235 19.70328804 1.15542664 18.45857504 3 15 C2.75 11.75 2.75 11.75 1 9 C-4.19254633 6.0708713 -7.18829441 6.83440422 -12 10 Z " fill="#1B1B1B" transform="translate(113,21)"/>
<path d="M0 0 C3.46409843 2.68644368 6.71096288 5.78529996 7.30078125 10.3046875 C7.34071155 19.06273282 7.34071155 19.06273282 4 23 C-0.35117502 26.93009356 -4.17175698 27.22217456 -9.9609375 27.16796875 C-12.83192521 26.93146976 -15.33827847 26.06468861 -18 25 C-18 24.34 -18 23.68 -18 23 C-18.99 22.67 -19.98 22.34 -21 22 C-23.86594771 17.69628588 -23.51678161 12.97402296 -23 8 C-21.28192304 3.75002016 -19.08343928 1.9919216 -15 0 C-10.04811852 -1.59395327 -5.02435926 -1.10327177 0 0 Z M-15 10 C-16.10682786 13.5798425 -16.10682786 13.5798425 -15 17 C-14.34 17 -13.68 17 -13 17 C-13 17.66 -13 18.32 -13 19 C-9.32009358 19.94626165 -6.64834225 20.15210808 -3 19 C-1 18 -1 18 0 16 C-0.19137484 10.95434998 -0.19137484 10.95434998 -3 7 C-5.10417968 6.64360439 -5.10417968 6.64360439 -7.4375 6.6875 C-8.21996094 6.67074219 -9.00242187 6.65398437 -9.80859375 6.63671875 C-12.50808519 7.08422803 -13.35079718 7.85552575 -15 10 Z " fill="#1D1C1D" transform="translate(133,62)"/>
<path d="M0 0 C-0.57344937 2.86724686 -0.8614515 3.8614515 -3 6 C-5.49609375 5.94140625 -5.49609375 5.94140625 -8.4375 5.5625 C-12.77579489 5.00931927 -12.77579489 5.00931927 -17 6 C-17.80688405 9.94476647 -18.00000429 11.99998285 -17 16 C-14.36 16.66 -11.72 17.32 -9 18 C-9 16.35 -9 14.7 -9 13 C-9.66 13 -10.32 13 -11 13 C-11 11.35 -11 9.7 -11 8 C-7.37 8 -3.74 8 0 8 C0.19448477 10.12437212 0.38038289 12.24953191 0.5625 14.375 C0.66691406 15.55835937 0.77132812 16.74171875 0.87890625 17.9609375 C1 21 1 21 0 23 C-8.28747481 25.98349093 -14.10860538 25.32269247 -22 22 C-22 21.34 -22 20.68 -22 20 C-22.66 20 -23.32 20 -24 20 C-26.36433368 15.4191035 -26.58661574 11.04122901 -26 6 C-24.25696268 1.7800149 -22.09293569 -0.05098301 -18 -2 C-11.37084418 -3.91896616 -5.96612153 -3.49236382 0 0 Z " fill="#1B1A1B" transform="translate(187,24)"/>
<path d="M0 0 C0 0.99 0 1.98 0 3 C-0.66 3 -1.32 3 -2 3 C-2.33 3.99 -2.66 4.98 -3 6 C-5.97 5.67 -8.94 5.34 -12 5 C-12.33 5.66 -12.66 6.32 -13 7 C-11.783125 6.95875 -10.56625 6.9175 -9.3125 6.875 C-5.7701155 6.89380912 -3.08610076 7.09387894 0 9 C1.94070481 12.08748493 2.00133221 13.96136584 1.875 17.625 C1 21 1 21 -0.875 22.875 C-5.51692492 25.33248967 -9.85601941 25.63679502 -15 25 C-17.89321877 23.90668796 -20.31106843 22.56446928 -23 21 C-22.67 19.02 -22.34 17.04 -22 15 C-18.28400809 14.79913557 -17.22791555 14.8480563 -14 17 C-11.66800612 17.07905064 -9.33167378 17.08798769 -7 17 C-6.67 16.34 -6.34 15.68 -6 15 C-6.89203125 14.92523438 -7.7840625 14.85046875 -8.703125 14.7734375 C-17.9895679 13.73024678 -17.9895679 13.73024678 -20.7890625 11.70703125 C-22.51599893 9.29056264 -23.00752032 7.31585327 -22.9375 4.375 C-21.898957 1.7440244 -21.00654771 0.00654771 -19 -2 C-13.22341507 -4.27562436 -5.29496626 -2.99599707 0 0 Z " fill="#1C1B1B" transform="translate(199,64)"/>
<path d="M0 0 C0 2.64 0 5.28 0 8 C-4.62 8 -9.24 8 -14 8 C-14 8.66 -14 9.32 -14 10 C-13.28972656 9.98839844 -12.57945313 9.97679687 -11.84765625 9.96484375 C-10.92855469 9.95582031 -10.00945312 9.94679688 -9.0625 9.9375 C-8.14597656 9.92589844 -7.22945312 9.91429687 -6.28515625 9.90234375 C-4 10 -4 10 -3 11 C-2.95919217 12.99958364 -2.95745644 15.00045254 -3 17 C-6.63 17.33 -10.26 17.66 -14 18 C-14 18.66 -14 19.32 -14 20 C-9.05 20 -4.1 20 1 20 C1 22.31 1 24.62 1 27 C-6.26 27 -13.52 27 -21 27 C-22.32411006 24.35177988 -22.01892401 22.51061806 -21.87890625 19.5546875 C-21.83056641 18.47832031 -21.78222656 17.40195312 -21.73242188 16.29296875 C-21.64831055 14.60107422 -21.64831055 14.60107422 -21.5625 12.875 C-21.51029297 11.73933594 -21.45808594 10.60367187 -21.40429688 9.43359375 C-21.27435544 6.62213369 -21.13938086 3.81100535 -21 1 C-17.87504511 0.83248032 -14.75002908 0.66612942 -11.625 0.5 C-10.73554687 0.45230469 -9.84609375 0.40460937 -8.9296875 0.35546875 C-7.65351562 0.28779297 -7.65351562 0.28779297 -6.3515625 0.21875 C-5.56604004 0.17685547 -4.78051758 0.13496094 -3.97119141 0.09179688 C-2.64854076 0.03020205 -1.32408408 0 0 0 Z " fill="#1D1C1D" transform="translate(87,21)"/>
<path d="M0 0 C6.93 0 13.86 0 21 0 C21 2.31 21 4.62 21 7 C16.38 7 11.76 7 7 7 C7 7.66 7 8.32 7 9 C7.71027344 8.98839844 8.42054688 8.97679688 9.15234375 8.96484375 C10.07144531 8.95582031 10.99054688 8.94679688 11.9375 8.9375 C12.85402344 8.92589844 13.77054688 8.91429688 14.71484375 8.90234375 C17 9 17 9 18 10 C18.04080783 11.99958364 18.04254356 14.00045254 18 16 C15.29889598 17.35055201 12.99210994 17 10 17 C9.34 17.33 8.68 17.66 8 18 C9.39025391 18.09087891 9.39025391 18.09087891 10.80859375 18.18359375 C12.00613281 18.26738281 13.20367187 18.35117188 14.4375 18.4375 C15.63246094 18.51871094 16.82742187 18.59992188 18.05859375 18.68359375 C21 19 21 19 22 20 C22.04080783 21.99958364 22.04254356 24.00045254 22 26 C19.09330538 26.85305168 16.68951127 27.07289715 13.671875 26.87890625 C12.9509668 26.83580322 12.23005859 26.7927002 11.48730469 26.74829102 C10.13233887 26.65632446 10.13233887 26.65632446 8.75 26.5625 C4.41875 26.2840625 4.41875 26.2840625 0 26 C0 17.42 0 8.84 0 0 Z " fill="#1D1C1D" transform="translate(207,62)"/>
<path d="M0 0 C1.134375 0.020625 2.26875 0.04125 3.4375 0.0625 C16.4375 22.44959677 16.4375 22.44959677 16.4375 27.0625 C14.1275 27.3925 11.8175 27.7225 9.4375 28.0625 C8.7775 27.0725 8.1175 26.0825 7.4375 25.0625 C5.37076515 24.62254738 5.37076515 24.62254738 3.0625 24.75 C2.29164063 24.75386719 1.52078125 24.75773437 0.7265625 24.76171875 C-1.59216537 24.939538 -1.59216537 24.939538 -3.5859375 26.07421875 C-5.85388716 27.20819358 -7.29902828 27.27128239 -9.8125 27.1875 C-11.05 27.14625 -12.2875 27.105 -13.5625 27.0625 C-12.92504236 21.12470009 -9.53885866 16.29046279 -6.625 11.21289062 C-6.22023437 10.48134766 -5.81546875 9.74980469 -5.3984375 8.99609375 C-5.02251465 8.33665771 -4.6465918 7.67722168 -4.25927734 6.99780273 C-3.40447664 4.62358927 -3.84302408 3.42926407 -4.5625 1.0625 C-3.5625 0.0625 -3.5625 0.0625 0 0 Z M0.4375 13.0625 C0.1075 14.3825 -0.2225 15.7025 -0.5625 17.0625 C0.7575 16.7325 2.0775 16.4025 3.4375 16.0625 C3.1075 15.0725 2.7775 14.0825 2.4375 13.0625 C1.7775 13.0625 1.1175 13.0625 0.4375 13.0625 Z " fill="#1D1B1C" transform="translate(218.5625,20.9375)"/>
<path d="M0 0 C1.98 0 3.96 0 6 0 C6.33 5.94 6.66 11.88 7 18 C11.15062297 19.34088357 11.15062297 19.34088357 16 18 C16.33 12.06 16.66 6.12 17 0 C19.31 0 21.62 0 24 0 C24.14575327 3.39537852 24.23421542 6.78994902 24.3125 10.1875 C24.35439453 11.14720703 24.39628906 12.10691406 24.43945312 13.09570312 C24.56319748 20.24812665 24.56319748 20.24812665 21.66796875 24.11328125 C17.00451566 27.41115511 12.5421611 27.66983073 7 27 C4.15540612 25.98332108 2.4739064 24.8554298 0 23 C-1.00390514 20.23258501 -1.12827146 17.63308131 -1.1328125 14.70703125 C-1.13410156 13.91232422 -1.13539063 13.11761719 -1.13671875 12.29882812 C-1.13285156 11.47833984 -1.12898437 10.65785156 -1.125 9.8125 C-1.12886719 8.98041016 -1.13273438 8.14832031 -1.13671875 7.29101562 C-1.12667092 1.12667092 -1.12667092 1.12667092 0 0 Z " fill="#1C1B1C" transform="translate(146,62)"/>
<path d="M0 0 C2.5 1.25 2.5 1.25 4.5 4.25 C6.60935089 4.53856847 6.60935089 4.53856847 8.9375 4.3125 C12.62193891 4.07577328 13.2487642 4.08250947 16.5 6.25 C16.17 7.57 15.84 8.89 15.5 10.25 C12.53 10.25 9.56 10.25 6.5 10.25 C6.5 10.91 6.5 11.57 6.5 12.25 C9.47 12.25 12.44 12.25 15.5 12.25 C15.995 14.23 15.995 14.23 16.5 16.25 C15.3359375 18.0390625 15.3359375 18.0390625 13.5 19.25 C11.4140625 19.1484375 11.4140625 19.1484375 9.125 18.625 C6.76734538 18.18728473 6.76734538 18.18728473 4.5 18.25 C1.41201326 20.50057567 1.41201326 20.50057567 -0.5 23.25 C-1.098125 22.92 -1.69625 22.59 -2.3125 22.25 C-4.55386471 21.04212012 -4.55386471 21.04212012 -7.5 21.25 C-8.16 21.91 -8.82 22.57 -9.5 23.25 C-12.51305957 22.86121812 -13.89685311 21.98543126 -16.5 20.25 C-16.933125 20.745 -17.36625 21.24 -17.8125 21.75 C-19.5 23.25 -19.5 23.25 -22.5 23.25 C-22.5 22.59 -22.5 21.93 -22.5 21.25 C-21.51 20.92 -20.52 20.59 -19.5 20.25 C-19.17 19.59 -18.84 18.93 -18.5 18.25 C-16.85 18.25 -15.2 18.25 -13.5 18.25 C-13.5 17.26 -13.5 16.27 -13.5 15.25 C-12.18 14.59 -10.86 13.93 -9.5 13.25 C-9.17 14.9 -8.84 16.55 -8.5 18.25 C-9.82 18.58 -11.14 18.91 -12.5 19.25 C-12.5 19.91 -12.5 20.57 -12.5 21.25 C-9.23539027 19.44587357 -7.61070205 18.41605307 -5.5 15.25 C-4.51 14.92 -3.52 14.59 -2.5 14.25 C-1.76676204 12.23491642 -1.76676204 12.23491642 -1.5 10.25 C-2.16 10.25 -2.82 10.25 -3.5 10.25 C-3.83 11.57 -4.16 12.89 -4.5 14.25 C-5.49 14.25 -6.48 14.25 -7.5 14.25 C-8.3125 12.0625 -8.3125 12.0625 -8.5 9.25 C-6.125 6.5625 -6.125 6.5625 -3.5 4.25 C-3.17 3.59 -2.84 2.93 -2.5 2.25 C-3.49 2.58 -4.48 2.91 -5.5 3.25 C-5.17 2.26 -4.84 1.27 -4.5 0.25 C-2.5 -0.75 -2.5 -0.75 0 0 Z M-1.5 5.25 C-1.5 6.24 -1.5 7.23 -1.5 8.25 C-0.84 8.25 -0.18 8.25 0.5 8.25 C0.17 7.26 -0.16 6.27 -0.5 5.25 C-0.83 5.25 -1.16 5.25 -1.5 5.25 Z M-11.5 15.25 C-11.17 16.24 -10.84 17.23 -10.5 18.25 C-10.5 17.26 -10.5 16.27 -10.5 15.25 C-10.83 15.25 -11.16 15.25 -11.5 15.25 Z " fill="#0C0B0D" transform="translate(161.5,105.75)"/>
<path d="M0 0 C1.98 0 3.96 0 6 0 C6 0.66 6 1.32 6 2 C7.65 1.67 9.3 1.34 11 1 C10.1875 3.9375 10.1875 3.9375 9 7 C8.01 7.33 7.02 7.66 6 8 C6 9.65 6 11.3 6 13 C6.99 12.67 7.98 12.34 9 12 C9.33 11.01 9.66 10.02 10 9 C10.66 9 11.32 9 12 9 C11.67 10.65 11.34 12.3 11 14 C10.01 14.33 9.02 14.66 8 15 C7.01 16.2684375 7.01 16.2684375 6 17.5625 C5.34 18.366875 4.68 19.17125 4 20 C3.01 20 2.02 20 1 20 C1 19.34 1 18.68 1 18 C1.99 17.67 2.98 17.34 4 17 C3.67 15.68 3.34 14.36 3 13 C2.01 13.33 1.02 13.66 0 14 C0 14.99 0 15.98 0 17 C-1.65 17 -3.3 17 -5 17 C-5.33 17.99 -5.66 18.98 -6 20 C-6.99 20 -7.98 20 -9 20 C-9.66 18.68 -10.32 17.36 -11 16 C-9.68 15.34 -8.36 14.68 -7 14 C-7.33 13.01 -7.66 12.02 -8 11 C-8.66 11 -9.32 11 -10 11 C-10 10.34 -10 9.68 -10 9 C-8.35 8.67 -6.7 8.34 -5 8 C-5 8.99 -5 9.98 -5 11 C-3.02463255 10.65213292 -3.02463255 10.65213292 -1 10 C-0.67 9.34 -0.34 8.68 0 8 C0.66 7.855625 1.32 7.71125 2 7.5625 C2.99 7.2840625 2.99 7.2840625 4 7 C4.33 6.01 4.66 5.02 5 4 C3.35 4 1.7 4 0 4 C0 4.99 0 5.98 0 7 C-1.32 7.33 -2.64 7.66 -4 8 C-4.33 6.35 -4.66 4.7 -5 3 C-4.360625 2.87625 -3.72125 2.7525 -3.0625 2.625 C-2.381875 2.41875 -1.70125 2.2125 -1 2 C-0.67 1.34 -0.34 0.68 0 0 Z " fill="#18181A" transform="translate(148,107)"/>
<path d="M0 0 C6.66666667 0 13.33333333 0 20 0 C21.16078534 4.25621291 21.05165303 7.71249148 20 12 C18.25 13.5625 18.25 13.5625 16 14 C13.25 13.125 13.25 13.125 11 12 C11 9.03 11 6.06 11 3 C9.35 3.33 7.7 3.66 6 4 C6.33 6.64 6.66 9.28 7 12 C5.35 12.66 3.7 13.32 2 14 C2 11.03 2 8.06 2 5 C1.01 4.67 0.02 4.34 -1 4 C-0.67 2.68 -0.34 1.36 0 0 Z M15 2 C15 3.65 15 5.3 15 7 C15.33 7 15.66 7 16 7 C16 5.35 16 3.7 16 2 C15.67 2 15.34 2 15 2 Z " fill="#171718" transform="translate(204,149)"/>
<path d="M0 0 C3 0.3125 3 0.3125 6 1 C7.30475618 3.60951236 7.11301572 5.52701285 7.09765625 8.4453125 C7.09443359 9.52167969 7.09121094 10.59804688 7.08789062 11.70703125 C7.07951172 12.83496094 7.07113281 13.96289062 7.0625 15.125 C7.05798828 16.26066406 7.05347656 17.39632812 7.04882812 18.56640625 C7.03701615 21.37765638 7.02054507 24.1888023 7 27 C4.36 27 1.72 27 -1 27 C-1.02886537 22.68751391 -1.04675255 18.37505238 -1.0625 14.0625 C-1.07087891 12.83080078 -1.07925781 11.59910156 -1.08789062 10.33007812 C-1.09111328 9.16025391 -1.09433594 7.99042969 -1.09765625 6.78515625 C-1.10289307 5.70113525 -1.10812988 4.61711426 -1.11352539 3.50024414 C-1 1 -1 1 0 0 Z " fill="#1A1A1A" transform="translate(195,21)"/>
<path d="M0 0 C0.61875 0.33 1.2375 0.66 1.875 1 C3.91018344 2.14193235 3.91018344 2.14193235 6 2 C6.825 1.649375 7.65 1.29875 8.5 0.9375 C9.7375 0.4734375 9.7375 0.4734375 11 0 C11.66 0.33 12.32 0.66 13 1 C13 1.66 13 2.32 13 3 C10.525 2.505 10.525 2.505 8 2 C7.67 2.99 7.34 3.98 7 5 C6.01 5.33 5.02 5.66 4 6 C4 7.32 4 8.64 4 10 C5.32 9.67 6.64 9.34 8 9 C8 8.01 8 7.02 8 6 C9.65 6 11.3 6 13 6 C12.67 7.32 12.34 8.64 12 10 C10.68 10 9.36 10 8 10 C7.67 10.99 7.34 11.98 7 13 C6.01 13 5.02 13 4 13 C3.67 12.01 3.34 11.02 3 10 C1.35 10.33 -0.3 10.66 -2 11 C-2 11.66 -2 12.32 -2 13 C-1.34 13 -0.68 13 0 13 C-0.5259375 14.3921875 -0.5259375 14.3921875 -1.0625 15.8125 C-2.32382628 18.9802953 -2.32382628 18.9802953 -1 22 C-1.99 21.67 -2.98 21.34 -4 21 C-4 20.34 -4 19.68 -4 19 C-7.63 19 -11.26 19 -15 19 C-15.66 17.68 -16.32 16.36 -17 15 C-17.99 15 -18.98 15 -20 15 C-20 14.34 -20 13.68 -20 13 C-17.03 13 -14.06 13 -11 13 C-11 13.66 -11 14.32 -11 15 C-8.69 15.33 -6.38 15.66 -4 16 C-4.350625 15.236875 -4.70125 14.47375 -5.0625 13.6875 C-6 11 -6 11 -5 8 C-3.0625 7.25 -3.0625 7.25 -1 7 C-0.34 7.33 0.32 7.66 1 8 C1.33 7.34 1.66 6.68 2 6 C1.34 5.67 0.68 5.34 0 5 C0.33 4.34 0.66 3.68 1 3 C0.67 2.01 0.34 1.02 0 0 Z M-10 16 C-9 18 -9 18 -9 18 Z " fill="#0C0C0E" transform="translate(140,105)"/>
<path d="M0 0 C7.26 0 14.52 0 22 0 C21.01 4.29 20.02 8.58 19 13 C17.35 13 15.7 13 14 13 C12.80712589 9.12315913 12 6.08378077 12 2 C10.35 2.66 8.7 3.32 7 4 C7 6.97 7 9.94 7 13 C5.68 13 4.36 13 3 13 C2.8046875 10.94921875 2.609375 8.8984375 2.4140625 6.84765625 C2.27742188 6.23792969 2.14078125 5.62820312 2 5 C1.34 4.67 0.68 4.34 0 4 C0 2.68 0 1.36 0 0 Z " fill="#181819" transform="translate(112,149)"/>
<path d="M0 0 C1.32 0.33 2.64 0.66 4 1 C4 2.32 4 3.64 4 5 C4.66 5 5.32 5 6 5 C6.33 8.96 6.66 12.92 7 17 C4 19 4 19 0.8125 18.625 C-0.115625 18.41875 -1.04375 18.2125 -2 18 C-3.04350941 11.04746138 -3.46505172 6.2370931 0 0 Z " fill="#131314" transform="translate(241,144)"/>
<path d="M0 0 C6.125 -0.4375 6.125 -0.4375 9 1 C9.05422947 2.4370809 9.09289723 3.87475462 9.125 5.3125 C9.14820313 6.11300781 9.17140625 6.91351563 9.1953125 7.73828125 C9 10 9 10 7 13 C0.875 13.4375 0.875 13.4375 -2 12 C-2.05422947 10.5629191 -2.09289723 9.12524538 -2.125 7.6875 C-2.14820313 6.88699219 -2.17140625 6.08648437 -2.1953125 5.26171875 C-2 3 -2 3 0 0 Z " fill="#121212" transform="translate(157,149)"/>
<path d="M0 0 C3.375 -0.125 3.375 -0.125 7 0 C9 2 9 2 9.1953125 4.6015625 C9.17210937 5.59929687 9.14890625 6.59703125 9.125 7.625 C9.10695312 8.62789062 9.08890625 9.63078125 9.0703125 10.6640625 C9.03550781 11.82035156 9.03550781 11.82035156 9 13 C6.04335481 14.4783226 3.25770263 14.06032783 0 14 C-0.19456705 12.04235617 -0.38044247 10.08384679 -0.5625 8.125 C-0.66691406 7.03445312 -0.77132812 5.94390625 -0.87890625 4.8203125 C-1 2 -1 2 0 0 Z " fill="#131314" transform="translate(193,149)"/>
<path d="M0 0 C2.97 0 5.94 0 9 0 C9 4.29 9 8.58 9 13 C6 14 6 14 0 13 C0 8.71 0 4.42 0 0 Z " fill="#1B1A1B" transform="translate(101,149)"/>
<path d="M0 0 C2.05078125 0.03255208 4.1015625 0.06510417 6.15234375 0.09765625 C7.13482571 4.15039433 7.31252257 7.93300699 7.15234375 12.09765625 C6.15234375 13.09765625 6.15234375 13.09765625 2.58984375 13.16015625 C1.45546875 13.13953125 0.32109375 13.11890625 -0.84765625 13.09765625 C-1.50765625 11.77765625 -2.16765625 10.45765625 -2.84765625 9.09765625 C-2.18765625 9.09765625 -1.52765625 9.09765625 -0.84765625 9.09765625 C-1.50765625 8.10765625 -2.16765625 7.11765625 -2.84765625 6.09765625 C-3.03515625 3.47265625 -3.03515625 3.47265625 -2.84765625 1.09765625 C-1.84765625 0.09765625 -1.84765625 0.09765625 0 0 Z " fill="#19191A" transform="translate(55.84765625,148.90234375)"/>
<path d="M0 0 C2.97 0 5.94 0 9 0 C8.979375 1.216875 8.95875 2.43375 8.9375 3.6875 C8.93175884 6.91977322 9.21233685 9.84934741 10 13 C6.30581799 14.231394 3.7943739 13.64432764 0 13 C0 8.71 0 4.42 0 0 Z " fill="#121214" transform="translate(77,149)"/>
<path d="M0 0 C2.05078125 0.03255208 4.1015625 0.06510417 6.15234375 0.09765625 C6.15234375 4.38765625 6.15234375 8.67765625 6.15234375 13.09765625 C0.15234375 14.09765625 0.15234375 14.09765625 -1.70703125 12.98046875 C-3.20307325 10.51097476 -3.18135375 8.8434804 -3.09765625 5.97265625 C-3.0821875 5.08320313 -3.06671875 4.19375 -3.05078125 3.27734375 C-2.79864778 0.57175762 -2.72404707 0.14397712 0 0 Z " fill="#131314" transform="translate(137.84765625,148.90234375)"/>
<path d="M0 0 C3.63 0 7.26 0 11 0 C11 2.79784711 10.62804225 4.9790678 10 7.6875 C9.814375 8.49574219 9.62875 9.30398437 9.4375 10.13671875 C9.2209375 11.05904297 9.2209375 11.05904297 9 12 C7.35 12.33 5.7 12.66 4 13 C1.20975948 8.81463922 0.89845406 4.94149735 0 0 Z " fill="#161617" transform="translate(226,149)"/>
<path d="M0 0 C1.65 0.33 3.3 0.66 5 1 C6.27798935 5.71258572 7 9.04265048 7 14 C3.7 13.67 0.4 13.34 -3 13 C-2.45144652 8.428721 -1.58255197 4.32564205 0 0 Z " fill="#19191A" transform="translate(92,149)"/>
<path d="M0 0 C1.65 0.33 3.3 0.66 5 1 C5.66 4.96 6.32 8.92 7 13 C3.7 13 0.4 13 -3 13 C-2.52060632 8.28596212 -2.03165952 4.33420699 0 0 Z " fill="#141313" transform="translate(68,149)"/>
<path d="M0 0 C1.37478516 0.01740234 1.37478516 0.01740234 2.77734375 0.03515625 C3.69644531 0.04417969 4.61554688 0.05320313 5.5625 0.0625 C6.27277344 0.07410156 6.98304688 0.08570313 7.71484375 0.09765625 C7.05846475 4.58291273 6.01410166 8.76679654 4.71484375 13.09765625 C3.06484375 13.09765625 1.41484375 13.09765625 -0.28515625 13.09765625 C-0.81303267 11.12035644 -1.33228528 9.14075233 -1.84765625 7.16015625 C-2.28271484 5.50693359 -2.28271484 5.50693359 -2.7265625 3.8203125 C-2.91089844 2.92183594 -3.09523437 2.02335938 -3.28515625 1.09765625 C-2.28515625 0.09765625 -2.28515625 0.09765625 0 0 Z " fill="#141415" transform="translate(176.28515625,148.90234375)"/>
<path d="M0 0 C1.98 0 3.96 0 6 0 C5.67 2.97 5.34 5.94 5 9 C6.32 9 7.64 9 9 9 C9 10.65 9 12.3 9 14 C6.36 13.67 3.72 13.34 1 13 C0.67 8.71 0.34 4.42 0 0 Z " fill="#151517" transform="translate(145,149)"/>
<path d="M0 0 C1.66666667 1.66666667 3.33333333 3.33333333 5 5 C5.598125 5.556875 6.19625 6.11375 6.8125 6.6875 C8 8 8 8 8 10 C9.32 10.66 10.64 11.32 12 12 C12 12.66 12 13.32 12 14 C12.66 14 13.32 14 14 14 C14 14.66 14 15.32 14 16 C13.01 16 12.02 16 11 16 C8.73828125 13.59375 8.73828125 13.59375 6.3125 10.5 C5.10013672 8.96859375 5.10013672 8.96859375 3.86328125 7.40625 C3.24839844 6.6121875 2.63351563 5.818125 2 5 C1.67 8.3 1.34 11.6 1 15 C-0.32 15.33 -1.64 15.66 -3 16 C-2.67 15.34 -2.34 14.68 -2 14 C-1.68416554 10.62671248 -1.48866238 7.25265635 -1.28125 3.87109375 C-1 1 -1 1 0 0 Z " fill="#131112" transform="translate(246,32)"/>
<path d="M0 0 C1.31677734 0.00966797 1.31677734 0.00966797 2.66015625 0.01953125 C4.9375 0.1875 4.9375 0.1875 6.9375 1.1875 C6.6075 2.1775 6.2775 3.1675 5.9375 4.1875 C5.6075 3.8575 5.2775 3.5275 4.9375 3.1875 C3.08462498 3.11523498 1.22916122 3.1036878 -0.625 3.125 C-1.63691406 3.13402344 -2.64882812 3.14304687 -3.69140625 3.15234375 C-4.47386719 3.16394531 -5.25632812 3.17554687 -6.0625 3.1875 C-6.3925 6.1575 -6.7225 9.1275 -7.0625 12.1875 C-6.4025 12.1875 -5.7425 12.1875 -5.0625 12.1875 C-5.3925 13.1775 -5.7225 14.1675 -6.0625 15.1875 C-6.7225 15.1875 -7.3825 15.1875 -8.0625 15.1875 C-10.25613575 7.99724949 -10.25613575 7.99724949 -9.375 4.3125 C-6.90495656 0.31338205 -4.38986499 -0.07111711 0 0 Z " fill="#141314" transform="translate(125.0625,66.8125)"/>
<path d="M0 0 C1.65 0 3.3 0 5 0 C5 4.29 5 8.58 5 13 C3.35 13 1.7 13 0 13 C0 8.71 0 4.42 0 0 Z " fill="#171719" transform="translate(186,149)"/>
<path d="M0 0 C0.33 0.99 0.66 1.98 1 3 C0.071875 3.185625 0.071875 3.185625 -0.875 3.375 C-3.19120832 3.87197356 -3.19120832 3.87197356 -5 6 C-8.125 6.125 -8.125 6.125 -11 6 C-11.33 4.35 -11.66 2.7 -12 1 C-10.95199219 1.01740234 -10.95199219 1.01740234 -9.8828125 1.03515625 C-8.97273438 1.04417969 -8.06265625 1.05320312 -7.125 1.0625 C-5.76761719 1.07990234 -5.76761719 1.07990234 -4.3828125 1.09765625 C-1.9831415 1.16249257 -1.9831415 1.16249257 0 0 Z " fill="#141415" transform="translate(135,109)"/>
<path d="M0 0 C0.33 0 0.66 0 1 0 C1 1.65 1 3.3 1 5 C-3.62 5 -8.24 5 -13 5 C-12.01 6.32 -11.02 7.64 -10 9 C-10.99 9.33 -11.98 9.66 -13 10 C-13.66 9.67 -14.32 9.34 -15 9 C-14.67 7.02 -14.34 5.04 -14 3 C-9.71 3 -5.42 3 -1 3 C-0.67 2.01 -0.34 1.02 0 0 Z " fill="#151414" transform="translate(227,64)"/>
<path d="M0 0 C1.79244141 0.01740234 1.79244141 0.01740234 3.62109375 0.03515625 C5.41740234 0.04869141 5.41740234 0.04869141 7.25 0.0625 C8.17683594 0.07410156 9.10367188 0.08570312 10.05859375 0.09765625 C9.72859375 1.08765625 9.39859375 2.07765625 9.05859375 3.09765625 C5.75859375 2.76765625 2.45859375 2.43765625 -0.94140625 2.09765625 C0.04859375 3.08765625 1.03859375 4.07765625 2.05859375 5.09765625 C2.38859375 5.75765625 2.71859375 6.41765625 3.05859375 7.09765625 C1.40859375 7.09765625 -0.24140625 7.09765625 -1.94140625 7.09765625 C-2.60140625 5.11765625 -3.26140625 3.13765625 -3.94140625 1.09765625 C-2.94140625 0.09765625 -2.94140625 0.09765625 0 0 Z " fill="#1A191C" transform="translate(48.94140625,26.90234375)"/>
<path d="M0 0 C0.66 0 1.32 0 2 0 C2 4.29 2 8.58 2 13 C-1 14 -1 14 -3.1875 13.0625 C-3.785625 12.711875 -4.38375 12.36125 -5 12 C-4.360625 11.566875 -3.72125 11.13375 -3.0625 10.6875 C-0.73253997 9.08760823 -0.73253997 9.08760823 0 6 C-0.99 6.33 -1.98 6.66 -3 7 C-3 6.01 -3 5.02 -3 4 C-2.01 4 -1.02 4 0 4 C0 2.68 0 1.36 0 0 Z " fill="#111012" transform="translate(108,149)"/>
<path d="M0 0 C2.29633824 3.44450737 2.54016485 5.93812283 3 10 C-1.455 10.495 -1.455 10.495 -6 11 C-4.55662437 7.11398869 -2.98188088 2.98188088 0 0 Z M-1 4 C-1.33 5.32 -1.66 6.64 -2 8 C-0.68 7.67 0.64 7.34 2 7 C1.67 6.01 1.34 5.02 1 4 C0.34 4 -0.32 4 -1 4 Z " fill="#141212" transform="translate(220,30)"/>
<path d="M0 0 C1.65 0 3.3 0 5 0 C5 3.3 5 6.6 5 10 C4.34 9.67 3.68 9.34 3 9 C3 7.35 3 5.7 3 4 C2.01 4 1.02 4 0 4 C-0.33 5.65 -0.66 7.3 -1 9 C-2.1875 7.3125 -2.1875 7.3125 -3 5 C-1.9375 2.25 -1.9375 2.25 0 0 Z " fill="#1B1B1B" transform="translate(159,149)"/>
<path d="M0 0 C2.64 0 5.28 0 8 0 C8 1.32 8 2.64 8 4 C6.68 4 5.36 4 4 4 C3.67 5.32 3.34 6.64 3 8 C2.34 8 1.68 8 1 8 C1 6.35 1 4.7 1 3 C0.34 3 -0.32 3 -1 3 C-0.67 2.01 -0.34 1.02 0 0 Z " fill="#1B191C" transform="translate(136,149)"/>
<path d="M0 0 C0.99 0 1.98 0 3 0 C3.98248196 4.05273808 4.16017882 7.83535074 4 12 C3 13 3 13 0.4375 13.0625 C-0.366875 13.041875 -1.17125 13.02125 -2 13 C-1.2884375 12.38125 -1.2884375 12.38125 -0.5625 11.75 C1.16266518 9.817815 1.56584875 8.51807725 2 6 C0.68 5.67 -0.64 5.34 -2 5 C-1.34 4.34 -0.68 3.68 0 3 C0 2.01 0 1.02 0 0 Z " fill="#121212" transform="translate(59,149)"/>
<path d="M0 0 C1.134375 0.020625 2.26875 0.04125 3.4375 0.0625 C3.4375 1.3825 3.4375 2.7025 3.4375 4.0625 C3.1075 3.4025 2.7775 2.7425 2.4375 2.0625 C1.4475 2.0625 0.4575 2.0625 -0.5625 2.0625 C-0.81 3.320625 -1.0575 4.57875 -1.3125 5.875 C-2.05087994 8.89807727 -2.35632006 9.8684483 -4.6875 12.0625 C-5.30625 12.3925 -5.925 12.7225 -6.5625 13.0625 C-5.5625 10.0625 -4.5625 7.0625 -3.5625 4.0625 C-3.8925 3.0725 -4.2225 2.0825 -4.5625 1.0625 C-3.5625 0.0625 -3.5625 0.0625 0 0 Z " fill="#0F0F0F" transform="translate(218.5625,20.9375)"/>
<path d="M0 0 C0.66 0 1.32 0 2 0 C2 0.66 2 1.32 2 2 C3.98 2 5.96 2 8 2 C7.67 3.65 7.34 5.3 7 7 C5.125 7.625 5.125 7.625 3 8 C2.34 7.34 1.68 6.68 1 6 C1 5.01 1 4.02 1 3 C0.34 3 -0.32 3 -1 3 C-0.67 2.01 -0.34 1.02 0 0 Z " fill="#101011" transform="translate(156,121)"/>
<path d="M0 0 C0.66 0 1.32 0 2 0 C2 2.64 2 5.28 2 8 C-2.62 8 -7.24 8 -12 8 C-12.33 7.34 -12.66 6.68 -13 6 C-8.71 6 -4.42 6 0 6 C0 4.02 0 2.04 0 0 Z " fill="#141314" transform="translate(85,21)"/>
<path d="M0 0 C0.33 0.99 0.66 1.98 1 3 C2.65 3 4.3 3 6 3 C6 3.99 6 4.98 6 6 C5.01 6.33 4.02 6.66 3 7 C3 6.01 3 5.02 3 4 C2.34 4 1.68 4 1 4 C0.67 5.32 0.34 6.64 0 8 C-0.99 8 -1.98 8 -3 8 C-3.33 6.35 -3.66 4.7 -4 3 C-2.68 2.01 -1.36 1.02 0 0 Z " fill="#0E0E10" transform="translate(157,112)"/>
<path d="M0 0 C0.66 0.33 1.32 0.66 2 1 C3.33350067 5.44500224 4.29175731 9.3318831 4 14 C1.69 13.67 -0.62 13.34 -3 13 C-2.67 12.01 -2.34 11.02 -2 10 C-0.68 10 0.64 10 2 10 C1.505 8.9171875 1.505 8.9171875 1 7.8125 C-0.00603529 4.98302573 -0.16977402 2.97104534 0 0 Z " fill="#111012" transform="translate(95,149)"/>
<path d="M0 0 C1.32 0 2.64 0 4 0 C4 2.31 4 4.62 4 7 C4.66 7 5.32 7 6 7 C6 8.65 6 10.3 6 12 C5.34 12 4.68 12 4 12 C3.54625 10.9275 3.0925 9.855 2.625 8.75 C1.49911463 6.11937683 0.32079794 3.53999604 -1 1 C-0.67 0.67 -0.34 0.34 0 0 Z " fill="#1A1A1B" transform="translate(174,149)"/>
<path d="M0 0 C0.33 0 0.66 0 1 0 C1.66 5.94 2.32 11.88 3 18 C3.99 18.33 4.98 18.66 6 19 C5.67 19.99 5.34 20.98 5 22 C1.21452145 19.55775578 1.21452145 19.55775578 0.375 17.375 C-0.15773218 14.00102956 -0.10433615 10.65481917 -0.0625 7.25 C-0.05798828 6.55261719 -0.05347656 5.85523437 -0.04882812 5.13671875 C-0.0371002 3.42444197 -0.01916653 1.71220967 0 0 Z " fill="#141213" transform="translate(145,66)"/>
<path d="M0 0 C1.98 0 3.96 0 6 0 C6 1.32 6 2.64 6 4 C2.77208445 6.1519437 1.71599191 6.20086443 -2 6 C-1.34 4.02 -0.68 2.04 0 0 Z " fill="#212020" transform="translate(122,61)"/>
<path d="M0 0 C1.32 0.33 2.64 0.66 4 1 C3.52691406 1.39960937 3.05382812 1.79921875 2.56640625 2.2109375 C0.68070426 4.36468192 0.40698578 5.82631778 -0.0625 8.625 C-0.47265625 11.0390625 -0.47265625 11.0390625 -1 13 C-1.99 13.495 -1.99 13.495 -3 14 C-3.32374517 8.49633208 -3.53286034 4.56327794 0 0 Z " fill="#131313" transform="translate(113,65)"/>
<path d="M0 0 C1.17949219 0.01804687 2.35898438 0.03609375 3.57421875 0.0546875 C4.92966797 0.08949219 4.92966797 0.08949219 6.3125 0.125 C6.6425 1.115 6.9725 2.105 7.3125 3.125 C1.7025 2.795 -3.9075 2.465 -9.6875 2.125 C-6.05554504 -0.29630331 -4.30400652 -0.08522785 0 0 Z " fill="#111011" transform="translate(221.6875,80.875)"/>
<path d="M0 0 C0.99 0 1.98 0 3 0 C5 3 5 3 5 7 C3.68 6.34 2.36 5.68 1 5 C0.67 5.66 0.34 6.32 0 7 C-0.66 6.67 -1.32 6.34 -2 6 C-1.34 4.02 -0.68 2.04 0 0 Z " fill="#1C1B1D" transform="translate(80,154)"/>
<path d="M0 0 C2.31 0 4.62 0 7 0 C6.4409112 3.24271506 5.5867822 4.93057424 3 7 C2.34 7 1.68 7 1 7 C0.67 4.69 0.34 2.38 0 0 Z " fill="#1C1C1C" transform="translate(193,149)"/>
<path d="M0 0 C0.66 0 1.32 0 2 0 C2.33 0.99 2.66 1.98 3 3 C-0.28804981 5.91227269 -2.59885603 7.49701212 -7 8 C-7 7.34 -7 6.68 -7 6 C-5.68 6 -4.36 6 -3 6 C-2.814375 5.071875 -2.814375 5.071875 -2.625 4.125 C-2 2 -2 2 0 0 Z " fill="#1B1B1D" transform="translate(139,106)"/>
<path d="M0 0 C0.99 0 1.98 0 3 0 C3.33 2.64 3.66 5.28 4 8 C3.01 8.66 2.02 9.32 1 10 C0.34 9.34 -0.32 8.68 -1 8 C-0.649375 7.236875 -0.29875 6.47375 0.0625 5.6875 C1.32360884 2.95240621 1.32360884 2.95240621 0 0 Z " fill="#0D0B10" transform="translate(244,153)"/>
<path d="M0 0 C0.66 0 1.32 0 2 0 C2.33 2.64 2.66 5.28 3 8 C0.03 7.505 0.03 7.505 -3 7 C-2.38722388 4.03824877 -1.74627478 2.61941217 0 0 Z " fill="#1E1D1D" transform="translate(70,152)"/>
<path d="M0 0 C2.17141522 1.73713218 2.94072585 2.57096806 3.328125 5.375 C3.30234375 6.24125 3.2765625 7.1075 3.25 8 C3.23453125 8.86625 3.2190625 9.7325 3.203125 10.625 C3 13 3 13 2 16 C1.01 15.67 0.02 15.34 -1 15 C-0.67 14.46375 -0.34 13.9275 0 13.375 C1.87180309 8.92946765 1.07867137 4.58435331 0 0 Z " fill="#121212" transform="translate(137,67)"/>
<path d="M0 0 C0 0.66 0 1.32 0 2 C-1.2065625 2.61875 -1.2065625 2.61875 -2.4375 3.25 C-5.32499092 4.80803511 -5.32499092 4.80803511 -5.8125 8.1875 C-5.9053125 9.5796875 -5.9053125 9.5796875 -6 11 C-6.66 10.67 -7.32 10.34 -8 10 C-8.32899743 6.38102827 -8.44576634 4.60496861 -6.25 1.625 C-4 0 -4 0 0 0 Z " fill="#151515" transform="translate(106,27)"/>
<path d="M0 0 C0.8353125 0.556875 0.8353125 0.556875 1.6875 1.125 C1.0275 1.125 0.3675 1.125 -0.3125 1.125 C-0.3125 1.785 -0.3125 2.445 -0.3125 3.125 C-2.95988916 4.5856285 -4.20698334 5.125 -7.3125 5.125 C-7.3125 3.805 -7.3125 2.485 -7.3125 1.125 C-2.88173077 -1.09038462 -2.88173077 -1.09038462 0 0 Z " fill="#231F20" transform="translate(222.3125,39.875)"/>
<path d="M0 0 C0.66 0 1.32 0 2 0 C2 3.3 2 6.6 2 10 C1.01 9.67 0.02 9.34 -1 9 C-0.67 8.01 -0.34 7.02 0 6 C-0.99 6.33 -1.98 6.66 -3 7 C-3.33 6.01 -3.66 5.02 -4 4 C-2.68 4.33 -1.36 4.66 0 5 C0 3.35 0 1.7 0 0 Z " fill="#181116" transform="translate(257,29)"/>
<path d="M0 0 C1.65 0 3.3 0 5 0 C4.67 1.32 4.34 2.64 4 4 C2.68 4 1.36 4 0 4 C-0.33 4.99 -0.66 5.98 -1 7 C-1.66 6.01 -2.32 5.02 -3 4 C-2.01 3.67 -1.02 3.34 0 3 C0 2.01 0 1.02 0 0 Z " fill="#08080A" transform="translate(148,111)"/>
<path d="M0 0 C0.33 0.66 0.66 1.32 1 2 C-0.11375 1.95875 -1.2275 1.9175 -2.375 1.875 C-6.04366025 1.58878141 -6.04366025 1.58878141 -8 4 C-8.66 2.68 -9.32 1.36 -10 0 C-6.26840331 -1.24386556 -3.81984796 -0.77811718 0 0 Z " fill="#141315" transform="translate(193,67)"/>
<path d="M0 0 C3.36591427 2.72478774 4.44226276 6.06856792 6 10 C5.01 10.495 5.01 10.495 4 11 C3.67 9.68 3.34 8.36 3 7 C2.34 7 1.68 7 1 7 C0.34 5.02 -0.32 3.04 -1 1 C-0.67 0.67 -0.34 0.34 0 0 Z " fill="#141213" transform="translate(225,29)"/>
<path d="M0 0 C0.33 0.66 0.66 1.32 1 2 C3.02463255 2.65213292 3.02463255 2.65213292 5 3 C4.34 4.65 3.68 6.3 3 8 C2.01 8 1.02 8 0 8 C0 5.36 0 2.72 0 0 Z " fill="#1A1A1C" transform="translate(241,153)"/>
<path d="M0 0 C0.33 0.99 0.66 1.98 1 3 C0.071875 3.185625 0.071875 3.185625 -0.875 3.375 C-3.19120832 3.87197356 -3.19120832 3.87197356 -5 6 C-5.99 6 -6.98 6 -8 6 C-7.375 4.125 -7.375 4.125 -6 2 C-2.875 0.75 -2.875 0.75 0 0 Z " fill="#0B0B0D" transform="translate(135,109)"/>
<path d="M0 0 C0.33 0.99 0.66 1.98 1 3 C-0.74310252 5.11007147 -1.86337925 5.95559826 -4.5 6.8125 C-7 7 -7 7 -10 5 C-8.906875 4.731875 -7.81375 4.46375 -6.6875 4.1875 C-3.38307337 3.12336261 -2.05039578 2.65345336 0 0 Z " fill="#151314" transform="translate(133,77)"/>
<path d="M0 0 C0.99 0.33 1.98 0.66 3 1 C0.28817788 3.60334924 -0.89133813 3.99456691 -4.75 4.1875 C-5.8225 4.125625 -6.895 4.06375 -8 4 C-8 3.34 -8 2.68 -8 2 C-6.865625 1.855625 -5.73125 1.71125 -4.5625 1.5625 C-1.19222799 1.38828522 -1.19222799 1.38828522 0 0 Z " fill="#141213" transform="translate(50,39)"/>
<path d="M0 0 C1.65 0 3.3 0 5 0 C5 0.66 5 1.32 5 2 C3.68 2.33 2.36 2.66 1 3 C0.67 4.32 0.34 5.64 0 7 C-1.125 2.25 -1.125 2.25 0 0 Z " fill="#0D0D0D" transform="translate(177,79)"/>
<path d="M0 0 C1.9375 0.3125 1.9375 0.3125 4 1 C4.33 1.99 4.66 2.98 5 4 C5.66 4 6.32 4 7 4 C7 4.66 7 5.32 7 6 C5.35 6 3.7 6 2 6 C1.34 4.02 0.68 2.04 0 0 Z " fill="#0F0E0F" transform="translate(45,28)"/>
<path d="M0 0 C4 4.5 4 4.5 4 9 C3.34 9 2.68 9 2 9 C0.66666667 6.33333333 -0.66666667 3.66666667 -2 1 C-1.34 0.67 -0.68 0.34 0 0 Z " fill="#121111" transform="translate(143,37)"/>
<path d="M0 0 C2.66666667 2.66666667 5.33333333 5.33333333 8 8 C5.36 7.34 2.72 6.68 0 6 C0 4.02 0 2.04 0 0 Z " fill="#131313" transform="translate(32,33)"/>
<path d="M0 0 C0.33 0 0.66 0 1 0 C0.8125 3.3125 0.8125 3.3125 0 7 C-2.5625 8.9375 -2.5625 8.9375 -5 10 C-3.33333333 6.66666667 -1.66666667 3.33333333 0 0 Z " fill="#131313" transform="translate(169,78)"/>
<path d="M0 0 C0.33 0.99 0.66 1.98 1 3 C-0.65 4.65 -2.3 6.3 -4 8 C-2.25 2.25 -2.25 2.25 0 0 Z " fill="#161616" transform="translate(216,26)"/>
</svg>
