<?xml version="1.0" encoding="UTF-8"?>
<svg version="1.1" xmlns="http://www.w3.org/2000/svg" width="300" height="300">
<path d="M0 0 C99 0 198 0 300 0 C300 99 300 198 300 300 C201 300 102 300 0 300 C0 201 0 102 0 0 Z " fill="#FDFDFD" transform="translate(0,0)"/>
<path d="M0 0 C-0.82772964 12.69185443 -9.2672977 22.92363482 -18.4375 31.0625 C-23.17201405 34.87641409 -28.03183789 37.91188731 -33.4375 40.6875 C-34.11159912 41.0388501 -34.78569824 41.3902002 -35.48022461 41.75219727 C-38.29357778 43.11615139 -40.5775624 43.9969696 -43.72265625 44.01953125 C-50.14032645 41.14644047 -54.03540959 32.03235683 -57 26 C-58.68084083 21.4314119 -59.87289287 16.73244983 -61 12 C-63.33395021 16.66790043 -62.50106312 22.84784334 -61.3515625 27.78515625 C-59.23705022 34.06543846 -56.11987563 39.16939945 -52.1953125 44.4921875 C-51 47 -51 47 -51.60546875 49.65234375 C-52.99757626 51.99591969 -53.97897148 53.14201757 -56.1875 54.6875 C-56.89261719 55.18378906 -57.59773438 55.68007812 -58.32421875 56.19140625 C-59.20722656 56.78824219 -60.09023437 57.38507813 -61 58 C-61.56541504 58.38913574 -62.13083008 58.77827148 -62.71337891 59.17919922 C-64.63686022 60.50256642 -66.56697857 61.81561124 -68.5 63.125 C-69.11641357 63.54483154 -69.73282715 63.96466309 -70.36791992 64.3972168 C-74.65817719 67.26134976 -79.12521514 70.24343554 -84 72 C-84.99 71.505 -84.99 71.505 -86 71 C-85.09507813 70.05640625 -85.09507813 70.05640625 -84.171875 69.09375 C-79.39836584 63.98147567 -75.74437972 59.44332629 -73 53 C-82.83983994 52.36517162 -90.44767342 55.12817177 -98.1328125 61.31640625 C-114.38927708 75.97443184 -120.57795519 94.81643589 -122 116 C-128.45067471 109.54932529 -128.01406381 95.26482811 -128.125 86.5625 C-127.75785595 60.34841491 -117.54597683 37.9574737 -99.4375 19.1875 C-73.90535218 -5.40768827 -32.89522712 -14.39166186 0 0 Z " fill="#EC1C25" transform="translate(138,84)"/>
<path d="M0 0 C3.5625 0.3125 3.5625 0.3125 5.5625 1.375 C7.23074091 4.60721676 6.44479255 6.85895487 5.5625 10.3125 C3.74840369 12.64496202 1.57076944 14.37458963 -0.75 16.1875 C-1.37938477 16.7021582 -2.00876953 17.21681641 -2.65722656 17.74707031 C-7.54983606 21.71385134 -12.57649689 25.5084898 -17.6484375 29.2421875 C-21.08971103 31.79663424 -24.42261219 34.46961926 -27.7578125 37.16015625 C-30.88368745 39.67088088 -34.03310987 42.15026355 -37.1875 44.625 C-37.78320801 45.09236572 -38.37891602 45.55973145 -38.99267578 46.04125977 C-40.20859286 46.99503856 -41.42457623 47.94873286 -42.640625 48.90234375 C-44.36582115 50.25624768 -46.08948248 51.61207499 -47.8125 52.96875 C-54.48779355 58.22393321 -61.17634035 63.46213451 -67.875 68.6875 C-68.62040039 69.27055908 -69.36580078 69.85361816 -70.13378906 70.4543457 C-74.49573919 73.85214228 -78.91528585 77.13086317 -83.4375 80.3125 C-82.7053125 79.88582031 -81.973125 79.45914063 -81.21875 79.01953125 C-73.40238856 74.50651304 -65.50627725 70.15982907 -57.5625 65.875 C-50.32172493 61.96847835 -43.10236128 58.03541896 -35.94580078 53.97680664 C-31.50392548 51.46312182 -27.04353473 48.98405277 -22.57421875 46.51953125 C-21.95643051 46.17878571 -21.33864227 45.83804016 -20.70213318 45.48696899 C-17.50629484 43.72531615 -14.30855324 41.9672214 -11.1081543 40.21386719 C-5.78331735 37.29261415 -0.46932333 34.36731955 4.7421875 31.24609375 C5.46986328 30.81490234 6.19753906 30.38371094 6.94726562 29.93945312 C8.21876753 29.17954669 9.48160779 28.40482607 10.73242188 27.61132812 C13.89544527 25.73131305 15.62314194 25.31506322 19.3515625 25.47265625 C22.5625 26.3125 22.5625 26.3125 24.5625 28.3125 C25 31.1875 25 31.1875 24.5625 34.3125 C21.37509606 37.25865466 18.08100679 39.21294919 14.16796875 41.046875 C13.13841064 41.53430176 12.10885254 42.02172852 11.0480957 42.52392578 C9.95972412 43.03165527 8.87135254 43.53938477 7.75 44.0625 C5.47605034 45.13693756 3.2026116 46.21245711 0.9296875 47.2890625 C-0.17020508 47.80887695 -1.27009766 48.32869141 -2.40332031 48.86425781 C-6.17439545 50.66422705 -9.90326541 52.53826176 -13.625 54.4375 C-19.81503226 57.57961509 -26.10790773 60.46324197 -32.4375 63.3125 C-41.56151341 67.41998367 -50.52759549 71.76242421 -59.4375 76.3125 C-74.62871883 84.06096787 -74.62871883 84.06096787 -81.25 86.75 C-94.41992759 92.14014772 -106.2171666 97.30974112 -116.83886719 106.93408203 C-120.62096109 110.19518499 -124.72133534 113.07358776 -128.74487305 116.02661133 C-133.14364815 119.27633227 -137.33288659 122.69821505 -141.4375 126.3125 C-142.0975 125.9825 -142.7575 125.6525 -143.4375 125.3125 C-142.79518433 124.71562378 -142.79518433 124.71562378 -142.13989258 124.10668945 C-140.17569579 122.28042411 -138.21283995 120.45272353 -136.25 118.625 C-135.57646484 117.99916016 -134.90292969 117.37332031 -134.20898438 116.72851562 C-133.54833984 116.11298828 -132.88769531 115.49746094 -132.20703125 114.86328125 C-131.60479736 114.30294189 -131.00256348 113.74260254 -130.38208008 113.1652832 C-128.02646617 110.92086965 -125.73116649 108.62001504 -123.4375 106.3125 C-124.30552246 106.74183838 -125.17354492 107.17117676 -126.06787109 107.61352539 C-129.28060022 109.19999742 -132.49836242 110.77601463 -135.71777344 112.34887695 C-137.11208027 113.03189229 -138.50499418 113.71775866 -139.89648438 114.40649414 C-141.89356387 115.39436573 -143.89538178 116.37197122 -145.8984375 117.34765625 C-146.52245453 117.65905045 -147.14647156 117.97044464 -147.78939819 118.29127502 C-149.31074287 119.02610639 -150.8718245 119.67757717 -152.4375 120.3125 C-153.0975 119.9825 -153.7575 119.6525 -154.4375 119.3125 C-151.04519223 117.36878171 -147.64833551 115.43315903 -144.25 113.5 C-142.69551147 112.61356812 -142.69551147 112.61356812 -141.10961914 111.70922852 C-135.1499817 108.33407917 -129.14559415 105.12553948 -123.01611328 102.07128906 C-114.00262713 97.56204641 -106.50887003 92.64683398 -99.15234375 85.74609375 C-96.90666005 83.73305642 -95.19822405 82.43135459 -92.4375 81.3125 C-92.4375 80.6525 -92.4375 79.9925 -92.4375 79.3125 C-91.1796875 78.0078125 -91.1796875 78.0078125 -89.3125 76.4375 C-88.5803125 75.81359375 -87.848125 75.1896875 -87.09375 74.546875 C-86.2171875 73.80953125 -85.340625 73.0721875 -84.4375 72.3125 C-82.2250137 70.44235493 -80.01732133 68.56667492 -77.8125 66.6875 C-77.2151001 66.17872314 -76.6177002 65.66994629 -76.00219727 65.14575195 C-71.03639111 60.88812439 -66.25583155 56.45411623 -61.4934082 51.97167969 C-57.0924824 47.85494537 -52.52154906 44.05591628 -47.81640625 40.2890625 C-45.72321614 38.54989305 -43.82573998 36.76769885 -41.9375 34.8125 C-39.24782435 32.02744578 -36.39781728 29.60751384 -33.375 27.1875 C-28.17996416 23.0085731 -23.30616608 18.55588703 -18.44604492 13.99438477 C-14.66113454 10.44224611 -10.82934877 6.96419623 -6.890625 3.58203125 C-3.11467765 0.28315251 -3.11467765 0.28315251 0 0 Z " fill="#0E0E0E" transform="translate(211.4375,54.6875)"/>
<path d="M0 0 C1.0199707 0.07250977 1.0199707 0.07250977 2.06054688 0.14648438 C7.0385721 0.5385721 7.0385721 0.5385721 8.1875 1.6875 C9.61578582 2.05833283 11.05571123 2.38493214 12.5 2.6875 C15.41150191 3.30348718 18.30451446 3.94861126 21.1875 4.6875 C20.50717213 11.89897541 20.50717213 11.89897541 17.1875 14.6875 C15.69104199 17.05032843 15.16464875 18.26302065 15.31640625 21.08203125 C15.04528586 26.56194936 9.834386 30.13126827 6.05859375 33.69921875 C1.0616971 38.00280656 -4.28968805 41.23908258 -10.125 44.25 C-10.8068335 44.60900391 -11.48866699 44.96800781 -12.19116211 45.33789062 C-15.03790635 46.74147667 -17.34768758 47.68284523 -20.54296875 47.71484375 C-23.65415941 46.30650787 -24.88217786 44.48489774 -26.8125 41.6875 C-27.44671875 40.79933594 -28.0809375 39.91117188 -28.734375 38.99609375 C-33.39190453 31.68138391 -34.77642298 26.31690571 -33.8125 17.6875 C-34.4725 17.6875 -35.1325 17.6875 -35.8125 17.6875 C-35.8125 17.0275 -35.8125 16.3675 -35.8125 15.6875 C-34.1625 15.3575 -32.5125 15.0275 -30.8125 14.6875 C-30.8125 12.3775 -30.8125 10.0675 -30.8125 7.6875 C-31.92625 8.203125 -33.04 8.71875 -34.1875 9.25 C-35.38375 9.724375 -36.58 10.19875 -37.8125 10.6875 C-38.4725 10.3575 -39.1325 10.0275 -39.8125 9.6875 C-39.1525 8.3675 -38.4925 7.0475 -37.8125 5.6875 C-36.8225 5.6875 -35.8325 5.6875 -34.8125 5.6875 C-34.8125 5.0275 -34.8125 4.3675 -34.8125 3.6875 C-27.52678571 0.25892857 -27.52678571 0.25892857 -22.8125 0.6875 C-22.8125 1.3475 -22.8125 2.0075 -22.8125 2.6875 C-22.1525 3.0175 -21.4925 3.3475 -20.8125 3.6875 C-21.8025 5.1725 -21.8025 5.1725 -22.8125 6.6875 C-23.04564275 9.79607 -22.80778744 11.70163769 -21.8125 14.6875 C-19.7758602 15.49504878 -19.7758602 15.49504878 -17.375 15.875 C-16.17037109 16.11283203 -16.17037109 16.11283203 -14.94140625 16.35546875 C-12.84225544 16.73886678 -12.84225544 16.73886678 -10.8125 16.6875 C-9.45204573 10.4182186 -9.45204573 10.4182186 -11.75 4.6875 C-12.7709375 3.6975 -12.7709375 3.6975 -13.8125 2.6875 C-13.8125 2.3575 -13.8125 2.0275 -13.8125 1.6875 C-8.95335611 -0.28487411 -5.20329569 -0.42382094 0 0 Z " fill="#EC1B24" transform="translate(114.8125,80.3125)"/>
<path d="M0 0 C1.9375 2.25 1.9375 2.25 2.4375 5.25 C1.90390635 8.45156191 1.11372614 9.89242168 -1.0625 12.25 C-0.4025 12.25 0.2575 12.25 0.9375 12.25 C2.58173879 15.53847757 2.70825772 18.72280366 1.9375 22.25 C0.07408117 25.11124955 -2.00041506 26.76239136 -5.0625 28.25 C-10.06407229 29.25963416 -13.74907711 29.05413647 -18.125 26.375 C-22.37930173 21.70899165 -21.2534193 16.26395779 -21.0625 10.25 C-20.81737921 7.22825229 -20.46337427 4.25655702 -20.0625 1.25 C-21.0525 1.58 -22.0425 1.91 -23.0625 2.25 C-23.02125 3.36375 -22.98 4.4775 -22.9375 5.625 C-23.0625 9.25 -23.0625 9.25 -25.0625 11.25 C-28.5 11.625 -28.5 11.625 -32.0625 11.25 C-34.67571414 9.05827201 -35.00359015 7.60345908 -35.5625 4.25 C-35.0625 1.25 -35.0625 1.25 -32.8125 -1.0625 C-23.881675 -6.54277898 -8.91306606 -5.09318061 0 0 Z " fill="#0E0E0E" transform="translate(97.0625,206.75)"/>
<path d="M0 0 C0.33 0 0.66 0 1 0 C1.09796875 0.81082031 1.1959375 1.62164062 1.296875 2.45703125 C3.00386324 15.09757348 5.92245823 26.61591957 16.34765625 34.85546875 C19.52284725 37.02905478 22.33954699 38.779849 26 40 C24.97407374 43.07777878 24.24530756 43.84450474 22 46 C21.34 46.99 20.68 47.98 20 49 C15.95838045 47.65515286 13.61321846 45.9494838 10.6875 42.875 C9.99011719 42.15054688 9.29273438 41.42609375 8.57421875 40.6796875 C7.79498047 39.84824219 7.79498047 39.84824219 7 39 C7.61234585 42.33803163 8.80597932 44.39130166 10.875 47.0625 C11.64457031 48.06990234 11.64457031 48.06990234 12.4296875 49.09765625 C13.89978213 51.02227025 13.89978213 51.02227025 15.68359375 52.296875 C17.82334607 55.06521925 17.28135539 57.77742067 17.1875 61.1875 C17.16042969 62.45980469 17.13335937 63.73210937 17.10546875 65.04296875 C17.07066406 66.01878906 17.03585938 66.99460937 17 68 C4.93359623 58.64238075 -1.71323267 45.95579214 -4 31 C-4.75746577 20.37217265 -3.78678688 10.00793675 0 0 Z " fill="#E52028" transform="translate(22,173)"/>
<path d="M0 0 C2 1.0625 2 1.0625 3 3 C2.95685075 6.26757535 2.86042776 8.89371085 0.79443359 11.55004883 C-0.84418183 13.09182986 -2.53944458 14.48994619 -4.3125 15.875 C-4.94188477 16.3896582 -5.57126953 16.90431641 -6.21972656 17.43457031 C-11.11233606 21.40135134 -16.13899689 25.1959898 -21.2109375 28.9296875 C-24.65221103 31.48413424 -27.98511219 34.15711926 -31.3203125 36.84765625 C-34.44618858 39.35838179 -37.59566733 41.83768882 -40.75 44.3125 C-41.33990723 44.77551514 -41.92981445 45.23853027 -42.53759766 45.71557617 C-44.96862458 47.6231338 -47.40034742 49.52980333 -49.83203125 51.43652344 C-57.25079247 57.25477033 -64.65259346 63.09160165 -72 69 C-72.6484375 67.20703125 -72.6484375 67.20703125 -73 65 C-70.28273434 59.93170883 -65.11459043 56.38008278 -60.60546875 53.00390625 C-57.56499446 50.66543052 -54.65895351 48.18540103 -51.75 45.6875 C-46.95652249 41.5914843 -42.06650262 37.66921681 -37.04077148 33.86254883 C-33.95992508 31.52408627 -30.92204196 29.14366058 -27.91796875 26.70703125 C-27.23460449 26.15329834 -26.55124023 25.59956543 -25.84716797 25.02905273 C-24.51088282 23.94273981 -23.17776199 22.85252052 -21.84814453 21.75805664 C-17.21932621 18 -17.21932621 18 -15 18 C-15 17.34 -15 16.68 -15 16 C-14.34 15.67 -13.68 15.34 -13 15 C-13 13.35 -13 11.7 -13 10 C-13.66 10 -14.32 10 -15 10 C-12.32976892 3.0573992 -7.61618053 -1.29331368 0 0 Z " fill="#131313" transform="translate(215,55)"/>
<path d="M0 0 C2.97 0 5.94 0 9 0 C8.86132739 4.10444167 8.71283897 8.2084704 8.5625 12.3125 C8.52318359 13.47974609 8.48386719 14.64699219 8.44335938 15.84960938 C8.40146484 16.96787109 8.35957031 18.08613281 8.31640625 19.23828125 C8.27974854 20.26993408 8.24309082 21.30158691 8.20532227 22.36450195 C8 25 8 25 7 28 C4.69 28.33 2.38 28.66 0 29 C-0.33 27.68 -0.66 26.36 -1 25 C-1.70125 25.66 -2.4025 26.32 -3.125 27 C-6 29 -6 29 -9.125 29.5625 C-12 29 -12 29 -13.875 27.125 C-15.65901419 22.16940502 -16.31396182 16.96079396 -14.12109375 12.01953125 C-12.9375 10.375 -12.9375 10.375 -10 8 C-6.1422537 7.53440993 -3.67242465 7.77585845 0 9 C0 6.03 0 3.06 0 0 Z " fill="#0E0E0E" transform="translate(254,206)"/>
<path d="M0 0 C4.31156014 0.66809761 8.45671629 0.6709956 12.8125 0.625 C12.89937496 3.74982562 12.95284568 6.87434246 13 10 C13.02513672 10.88945312 13.05027344 11.77890625 13.07617188 12.6953125 C13.08583984 13.54609375 13.09550781 14.396875 13.10546875 15.2734375 C13.1211792 16.05895996 13.13688965 16.84448242 13.15307617 17.65380859 C13.04068604 18.30430176 12.9282959 18.95479492 12.8125 19.625 C9.57996204 21.78002531 8.56099077 22.09356135 4.8125 21.625 C3 20.125 3 20.125 1.8125 18.625 C1.44125 19.12 1.07 19.615 0.6875 20.125 C-1.1875 21.625 -1.1875 21.625 -4.1875 22.125 C-7.1875 21.625 -7.1875 21.625 -9.0625 19.75 C-11.01263293 14.33296408 -11.19797928 8.93466692 -8.875 3.625 C-6.03054445 0.25379342 -4.24266417 -0.67582261 0 0 Z " fill="#0F0F0F" transform="translate(178.1875,213.375)"/>
<path d="M0 0 C0.99 0.33 1.98 0.66 3 1 C2.5127432 5.38531121 1.28104459 7.11364619 -2 10 C-4.31152344 11.33691406 -4.31152344 11.33691406 -6.859375 12.515625 C-7.80224365 12.95801514 -8.7451123 13.40040527 -9.71655273 13.85620117 C-10.71759033 14.31615479 -11.71862793 14.7761084 -12.75 15.25 C-14.84035829 16.22937127 -16.93020052 17.20984475 -19.01953125 18.19140625 C-20.04256348 18.66980957 -21.0655957 19.14821289 -22.11962891 19.64111328 C-25.92084414 21.43443113 -29.68490309 23.29496481 -33.4375 25.1875 C-34.0680127 25.50485107 -34.69852539 25.82220215 -35.34814453 26.14916992 C-36.6004048 26.78015252 -37.85236209 27.41173681 -39.10400391 28.04394531 C-41.0816475 29.04117069 -43.06185795 30.03311902 -45.04296875 31.0234375 C-45.71811523 31.36101074 -46.39326172 31.69858398 -47.08886719 32.04638672 C-48.43118123 32.71625615 -49.77426423 33.38458723 -51.11816406 34.05126953 C-54.41630945 35.6905409 -57.69243618 37.35880807 -60.94140625 39.09375 C-61.57224121 39.4249585 -62.20307617 39.75616699 -62.85302734 40.09741211 C-64.5776079 41.00468745 -66.29493308 41.92571612 -68.01171875 42.84765625 C-71.26353551 44.10162481 -72.733374 44.06059286 -76 43 C-72.25177174 39.94843197 -68.09872759 37.74756897 -63.875 35.4375 C-62.23302432 34.53264027 -60.5910985 33.62769005 -58.94921875 32.72265625 C-58.11696777 32.2652002 -57.2847168 31.80774414 -56.42724609 31.33642578 C-53.53824063 29.74575832 -50.65627214 28.14272283 -47.77514648 26.5378418 C-41.41327211 22.99420858 -35.04129076 19.469033 -28.6640625 15.953125 C-28.0192543 15.59759552 -27.37444611 15.24206604 -26.71009827 14.87576294 C-23.47802422 13.09388305 -20.24552895 11.31277289 -17.01245117 9.53271484 C-16.40724136 9.19909943 -15.80203156 8.86548401 -15.17848206 8.52175903 C-13.45146543 7.57042492 -11.72306999 6.62159518 -9.99462891 5.67285156 C-7.56816077 4.31738445 -5.1949065 2.90979459 -2.82421875 1.4609375 C-1.89222656 0.97882813 -0.96023437 0.49671875 0 0 Z " fill="#282828" transform="translate(218,85)"/>
<path d="M0 0 C2.75 0.5625 2.75 0.5625 4.75 2.5625 C5.08 2.2325 5.41 1.9025 5.75 1.5625 C8.42058851 1.42134839 11.07432238 1.52002893 13.75 1.5625 C13.83687496 4.68732562 13.89034568 7.81184246 13.9375 10.9375 C13.96263672 11.82695312 13.98777344 12.71640625 14.01367188 13.6328125 C14.02333984 14.48359375 14.03300781 15.334375 14.04296875 16.2109375 C14.0586792 16.99645996 14.07438965 17.78198242 14.09057617 18.59130859 C13.97818604 19.24180176 13.8657959 19.89229492 13.75 20.5625 C10.52208445 22.7144437 9.46599191 22.76336443 5.75 22.5625 C5.42 21.2425 5.09 19.9225 4.75 18.5625 C4.09 18.5625 3.43 18.5625 2.75 18.5625 C2.75 19.2225 2.75 19.8825 2.75 20.5625 C-0.36877956 22.12188978 -2.82255771 21.9232834 -6.25 21.5625 C-9.02720262 18.78529738 -9.51393581 15.98445759 -9.8125 12.1875 C-9.65229049 7.6329726 -8.1276391 5.03824666 -4.9765625 1.8125 C-3.25 0.5625 -3.25 0.5625 0 0 Z " fill="#111111" transform="translate(273.25,212.4375)"/>
<path d="M0 0 C3.75139959 0.48342778 7.49819433 0.37161965 11.2734375 0.29296875 C11.13223734 2.8766312 10.98565417 5.4597976 10.8359375 8.04296875 C10.79662109 8.77257812 10.75730469 9.5021875 10.71679688 10.25390625 C10.17697011 19.38943614 10.17697011 19.38943614 8.2734375 21.29296875 C5.8984375 21.54296875 5.8984375 21.54296875 3.2734375 21.29296875 C1.4609375 19.79296875 1.4609375 19.79296875 0.2734375 18.29296875 C-0.2834375 18.78796875 -0.8403125 19.28296875 -1.4140625 19.79296875 C-4.1899312 21.59353223 -5.48470315 21.95796554 -8.7265625 21.29296875 C-11.65783724 18.26061558 -11.96233141 15.34883105 -12.1015625 11.29296875 C-11.97320718 7.18559861 -11.44901395 4.51957788 -8.7265625 1.29296875 C-5.23013636 -1.03798201 -3.98983571 -0.63036438 0 0 Z " fill="#101010" transform="translate(113.7265625,213.70703125)"/>
<path d="M0 0 C1.05574219 0.00346436 2.11148438 0.00692871 3.19921875 0.01049805 C14.7479169 0.16962673 25.82932897 1.64408142 36.5 6.3125 C36.0837413 12.69513338 33.84649204 17.87054099 30.5 23.3125 C29.84 23.6425 29.18 23.9725 28.5 24.3125 C28.005 22.3325 28.005 22.3325 27.5 20.3125 C28.16 20.3125 28.82 20.3125 29.5 20.3125 C29.62375 19.69375 29.7475 19.075 29.875 18.4375 C30.5 16.3125 30.5 16.3125 32.5 14.3125 C33.21927295 11.99484271 33.8909893 9.66154126 34.5 7.3125 C31.23267791 6.75466452 27.9745698 6.24359112 24.6875 5.8125 C21.5 5.3125 21.5 5.3125 20.5 4.3125 C18.07503184 4.01972945 15.68387319 3.7968837 13.25 3.625 C12.24646484 3.53508789 12.24646484 3.53508789 11.22265625 3.44335938 C7.10891931 3.14836645 4.19047738 3.44580505 0.5 5.3125 C0.5 5.9725 0.5 6.6325 0.5 7.3125 C1.49 7.6425 2.48 7.9725 3.5 8.3125 C4.6100616 12.97475873 4.4453329 15.9099045 2.5 20.3125 C1.51 20.8075 1.51 20.8075 0.5 21.3125 C0.5 20.6525 0.5 19.9925 0.5 19.3125 C-0.2425 19.35375 -0.985 19.395 -1.75 19.4375 C-4.65095871 19.30563824 -6.09190521 18.89021728 -8.5 17.3125 C-11.09336176 13.42245735 -10.28784926 11.80324078 -9.5 7.3125 C-9.5 5.9925 -9.5 4.6725 -9.5 3.3125 C-10.25023438 3.50585938 -11.00046875 3.69921875 -11.7734375 3.8984375 C-20.29443722 6.06624851 -28.81313298 7.94088942 -37.5 9.3125 C-34.1638626 6.41402419 -30.98948159 5.39317899 -26.75 4.25 C-25.57953125 3.92902344 -24.4090625 3.60804687 -23.203125 3.27734375 C-21.98109375 2.95894531 -20.7590625 2.64054687 -19.5 2.3125 C-18.26765625 1.94898437 -17.0353125 1.58546875 -15.765625 1.2109375 C-10.55060719 -0.07520715 -5.34545138 -0.02844228 0 0 Z " fill="#D83842" transform="translate(101.5,77.6875)"/>
<path d="M0 0 C0 1.98 0 3.96 0 6 C-0.99 6.33 -1.98 6.66 -3 7 C-3 7.66 -3 8.32 -3 9 C-5.38152 10.91005157 -7.7765042 12.71593484 -10.25 14.5 C-16.34870873 18.98023112 -22.21826584 23.59930021 -27.9921875 28.4921875 C-31.35704192 31.2976895 -34.79278176 33.99748118 -38.25 36.6875 C-42.71991331 40.17035284 -47.08685845 43.71669452 -51.3125 47.49609375 C-53.82045084 49.73118883 -56.40886299 51.86231197 -59 54 C-59.66 53.67 -60.32 53.34 -61 53 C-60.34 52.34 -59.68 51.68 -59 51 C-59 50.01 -59 49.02 -59 48 C-56.98046875 45.8359375 -56.98046875 45.8359375 -54.1875 43.375 C-53.69411133 42.93696045 -53.20072266 42.4989209 -52.69238281 42.04760742 C-48.39506597 38.26327085 -43.94097404 34.67626579 -39.484375 31.08203125 C-37.36094764 29.30249229 -35.42174846 27.49038233 -33.5 25.5 C-29.97702565 21.85209748 -26.07284455 18.78107719 -22.11328125 15.62109375 C-19.75848313 13.68944132 -17.54834047 11.64862196 -15.35546875 9.53515625 C-14.73615479 8.94041504 -14.11684082 8.34567383 -13.47875977 7.73291016 C-12.26189469 6.55434756 -11.05492945 5.36545906 -9.85913086 4.16552734 C-4.68630309 -0.83370561 -4.68630309 -0.83370561 0 0 Z " fill="#252525" transform="translate(203,64)"/>
<path d="M0 0 C2.4375 0.75 2.4375 0.75 4.4375 2.75 C4.66075051 7.28942698 4.54470735 11.32117061 3.4375 15.75 C4.4275 15.75 5.4175 15.75 6.4375 15.75 C7.0975 10.8 7.7575 5.85 8.4375 0.75 C11.4075 0.75 14.3775 0.75 17.4375 0.75 C17.2725 1.8225 17.1075 2.895 16.9375 4 C16.22589274 9.57258642 16.35338954 15.14263574 16.4375 20.75 C12.4775 21.245 12.4775 21.245 8.4375 21.75 C7.7775 20.76 7.1175 19.77 6.4375 18.75 C5.880625 19.245 5.32375 19.74 4.75 20.25 C2.02241075 22.01924708 0.62901509 22.1699362 -2.5625 21.75 C-5.68993106 18.62256894 -5.14692838 15.02055838 -5.375 10.75 C-5.43880859 9.91726562 -5.50261719 9.08453125 -5.56835938 8.2265625 C-5.61412109 7.42992187 -5.65988281 6.63328125 -5.70703125 5.8125 C-5.75190674 5.08160156 -5.79678223 4.35070312 -5.84301758 3.59765625 C-5.75044678 2.98792969 -5.65787598 2.37820312 -5.5625 1.75 C-2.5625 -0.25 -2.5625 -0.25 0 0 Z " fill="#141414" transform="translate(219.5625,213.25)"/>
<path d="M0 0 C2.72869407 0.03287583 5.2966618 0.56397771 8 1 C8 5.29 8 9.58 8 14 C8.99 14 9.98 14 11 14 C11 9.71 11 5.42 11 1 C14.3 1 17.6 1 21 1 C21 1.66 21 2.32 21 3 C19.68 3 18.36 3 17 3 C17 4.32 17 5.64 17 7 C18.32 7.66 19.64 8.32 21 9 C21 10.65 21 12.3 21 14 C17.70708513 15.89975858 14.73007648 16.40318776 11 17 C8.98910922 17.63305821 6.98536627 18.29094062 5 19 C5 18.34 5 17.68 5 17 C3.02 17.33 1.04 17.66 -1 18 C-1.33 16.68 -1.66 15.36 -2 14 C-0.68 14 0.64 14 2 14 C0.92598892 11.08482708 0.22189824 9.22189824 -2 7 C-2.25 4.5 -2.25 4.5 -2 2 C-1.34 1.34 -0.68 0.68 0 0 Z " fill="#DAA3A4" transform="translate(151,189)"/>
<path d="M0 0 C2.9375 1.5 2.9375 1.5 5 3 C4.125 7.875 4.125 7.875 3 9 C1.33382885 9.04063832 -0.33388095 9.042721 -2 9 C-2 7.68 -2 6.36 -2 5 C-3.32 5 -4.64 5 -6 5 C-6 8.63 -6 12.26 -6 16 C-2.7 15.67 0.6 15.34 4 15 C1.25 20.5 1.25 20.5 -1 22 C-5.7611244 22.5375463 -7.87979695 22.71502323 -11.9375 20.125 C-15.22558259 16.73727855 -15.583815 14.00794454 -15.5390625 9.3984375 C-14.65845717 5.48038191 -12.34090779 3.62543067 -9.2265625 1.25390625 C-5.92551055 -0.60510722 -3.69315139 -0.69682102 0 0 Z " fill="#111111" transform="translate(208,213)"/>
<path d="M0 0 C1.14340844 3.42222946 0.81006578 5.75158758 0.0625 9.25 C-1.33841694 16.8469187 -1.17565082 24.31039748 -1 32 C-0.34 30.68 0.32 29.36 1 28 C1.66 28 2.32 28 3 28 C3 26.35 3 24.7 3 23 C3.66 23.66 4.32 24.32 5 25 C5.99 24.67 6.98 24.34 8 24 C8 23.34 8 22.68 8 22 C8.66 22 9.32 22 10 22 C9.01394336 25.04947145 7.98246312 28.04339254 6.78125 31.015625 C2.97520403 40.62357031 1.77825141 49.75495907 1 60 C-5.45067471 53.54932529 -5.01406381 39.26482811 -5.125 30.5625 C-4.97368612 19.75868873 -3.2318143 10.29671067 0 0 Z " fill="#E61E25" transform="translate(15,140)"/>
<path d="M0 0 C2 1.0625 2 1.0625 3 3 C2.96807149 6.31258244 2.84887637 8.91791402 0.74609375 11.59838867 C-0.93837665 13.18689186 -2.67901336 14.63263249 -4.5 16.0625 C-5.12986816 16.5790918 -5.75973633 17.09568359 -6.40869141 17.62792969 C-11.06288231 21.39645719 -15.86835297 24.90472084 -21 28 C-21 26.68 -21 25.36 -21 24 C-20.34 24 -19.68 24 -19 24 C-18.67 23.01 -18.34 22.02 -18 21 C-17.34 21 -16.68 21 -16 21 C-13.87953208 17.46588679 -13.46800711 14.05606165 -13 10 C-13.66 10 -14.32 10 -15 10 C-12.32976892 3.0573992 -7.61618053 -1.29331368 0 0 Z " fill="#0B0B0B" transform="translate(215,55)"/>
<path d="M0 0 C3.375 0.4375 3.375 0.4375 6.375 1.4375 C6.21 2.13875 6.045 2.84 5.875 3.5625 C5.27760277 6.4542154 5.27760277 6.4542154 5.4375 9.5 C5.37433439 12.46878356 4.90906269 13.94464813 3.375 16.4375 C4.035 16.7675 4.695 17.0975 5.375 17.4375 C2.66215632 19.99076464 0.95742327 21.33266381 -2.75 22 C-5.625 21.4375 -5.625 21.4375 -7.5 19.5625 C-9.28401419 14.60690502 -9.93896182 9.39829396 -7.74609375 4.45703125 C-5.44265011 1.25653695 -3.8905404 0.46954798 0 0 Z " fill="#101010" transform="translate(247.625,213.5625)"/>
<path d="M0 0 C1.87232721 1.80031463 3.67828358 3.57573648 5.25 5.6484375 C9.31591059 10.93874162 13.91996783 13.39255537 20 16 C18.97407374 19.07777878 18.24530756 19.84450474 16 22 C15.34 22.99 14.68 23.98 14 25 C9.95838045 23.65515286 7.61321846 21.9494838 4.6875 18.875 C3.99011719 18.15054688 3.29273438 17.42609375 2.57421875 16.6796875 C2.05472656 16.12539062 1.53523438 15.57109375 1 15 C1.61234585 18.33803163 2.80597932 20.39130166 4.875 23.0625 C5.38804688 23.73410156 5.90109375 24.40570313 6.4296875 25.09765625 C7.89978213 27.02227025 7.89978213 27.02227025 9.68359375 28.296875 C11.82334607 31.06521925 11.28135539 33.77742067 11.1875 37.1875 C11.16042969 38.45980469 11.13335937 39.73210937 11.10546875 41.04296875 C11.07066406 42.01878906 11.03585938 42.99460938 11 44 C9 42 9 42 8.8046875 39.6171875 C8.83949219 38.25980469 8.83949219 38.25980469 8.875 36.875 C8.89304687 35.96492188 8.91109375 35.05484375 8.9296875 34.1171875 C8.95289063 33.41851562 8.97609375 32.71984375 9 32 C8.01 31.67 7.02 31.34 6 31 C5.67 30.01 5.34 29.02 5 28 C4.34 27.67 3.68 27.34 3 27 C2.71125 26.236875 2.4225 25.47375 2.125 24.6875 C1.18969741 21.88571951 1.18969741 21.88571951 -1.125 20.1875 C-3.96720006 16.87159993 -3.28488952 14.27334287 -3 10 C1 10 1 10 2.75 11.5 C3.1625 11.995 3.575 12.49 4 13 C3.71848913 11.68528432 3.42446661 10.37324233 3.125 9.0625 C2.88136719 7.96615234 2.88136719 7.96615234 2.6328125 6.84765625 C2.17038477 4.79299706 2.17038477 4.79299706 0 4 C0 2.68 0 1.36 0 0 Z " fill="#D3333C" transform="translate(28,197)"/>
<path d="M0 0 C0.33 0 0.66 0 1 0 C1.14695312 0.72703125 1.29390625 1.4540625 1.4453125 2.203125 C2.99228843 9.13784469 5.24837682 15.0446742 8.59765625 21.30859375 C10 24 10 24 10.99609375 26.78515625 C11.32738281 27.51605469 11.65867187 28.24695313 12 29 C12.99 29.33 13.98 29.66 15 30 C15.33 30.66 15.66 31.32 16 32 C17.98 32 19.96 32 22 32 C21.67 32.66 21.34 33.32 21 34 C20.01 34 19.02 34 18 34 C18 34.66 18 35.32 18 36 C16.35 36 14.7 36 13 36 C12.5978125 37.175625 12.5978125 37.175625 12.1875 38.375 C11 41 11 41 8 43 C7.01 42.67 6.02 42.34 5 42 C6.32 40.68 7.64 39.36 9 38 C7.68692823 34.45659102 6.10180268 31.42570799 4.0625 28.25 C-0.84271617 20.13060795 -3.21075825 12.59172121 -2 3 C-1.34 2.01 -0.68 1.02 0 0 Z " fill="#F9D8D8" transform="translate(77,95)"/>
<path d="M0 0 C5.94 0.99 5.94 0.99 12 2 C12 2.66 12 3.32 12 4 C11.01 4 10.02 4 9 4 C9 5.32 9 6.64 9 8 C9.99 8 10.98 8 12 8 C12 8.66 12 9.32 12 10 C11.01 10 10.02 10 9 10 C9 11.65 9 13.3 9 15 C9.99 15 10.98 15 12 15 C12 15.66 12 16.32 12 17 C10.02 17 8.04 17 6 17 C5.67 15.68 5.34 14.36 5 13 C4.01 13.33 3.02 13.66 2 14 C2 14.99 2 15.98 2 17 C1.01 17 0.02 17 -1 17 C-1 16.34 -1 15.68 -1 15 C-1.99 15 -2.98 15 -4 15 C-4 15.66 -4 16.32 -4 17 C-4.99 16.67 -5.98 16.34 -7 16 C-7 11.38 -7 6.76 -7 2 C-5.02 2 -3.04 2 -1 2 C-0.67 1.34 -0.34 0.68 0 0 Z " fill="#E8E8E8" transform="translate(222,188)"/>
<path d="M0 0 C2.33491639 -0.32205743 4.66842508 -0.65458149 7 -1 C7.33 -0.67 7.66 -0.34 8 0 C7.71269945 2.33944736 7.38063221 4.6739143 7 7 C5.02 7.33 3.04 7.66 1 8 C1 6.68 1 5.36 1 4 C0.34 4 -0.32 4 -1 4 C-1.66 8.95 -2.32 13.9 -3 19 C-5.64 19 -8.28 19 -11 19 C-11 12.73 -11 6.46 -11 0 C-6.91222718 -1.36259094 -4.08777282 -1.36259094 0 0 Z " fill="#0F0F0F" transform="translate(159,215)"/>
<path d="M0 0 C3.125 0.1875 3.125 0.1875 6.125 2.1875 C6.785 1.5275 7.445 0.8675 8.125 0.1875 C10.6875 0 10.6875 0 13.125 0.1875 C14.125 1.1875 14.125 1.1875 14.3125 3.5625 C14.125 6.1875 14.125 6.1875 12.125 9.1875 C9.5 9.375 9.5 9.375 7.125 9.1875 C7.125 8.1975 7.125 7.2075 7.125 6.1875 C6.135 6.6825 6.135 6.6825 5.125 7.1875 C4.43162208 10.2274648 4.43162208 10.2274648 4 13.75 C3.83242187 14.94753906 3.66484375 16.14507812 3.4921875 17.37890625 C3.37101563 18.30574219 3.24984375 19.23257813 3.125 20.1875 C0.815 20.1875 -1.495 20.1875 -3.875 20.1875 C-3.875 0.25271739 -3.875 0.25271739 0 0 Z " fill="#090909" transform="translate(131.875,213.8125)"/>
<path d="M0 0 C2 2 2 2 2.4375 4.875 C2 8 2 8 -0.1015625 9.9921875 C-3.23055683 12.15971187 -6.33609445 13.70493087 -9.8125 15.25 C-10.97394531 15.77078125 -12.13539063 16.2915625 -13.33203125 16.828125 C-14.65267578 17.40820312 -14.65267578 17.40820312 -16 18 C-16 14 -16 14 -15 11.625 C-13.84772453 8.6002769 -13.85070097 6.20992922 -14 3 C-8.88990896 -0.44148988 -6.24135045 -1.71331189 0 0 Z " fill="#090909" transform="translate(234,81)"/>
<path d="M0 0 C-0.03515625 2.25 -0.03515625 2.25 -1 5 C-3.50280853 6.59023213 -5.75720677 7.80098494 -8.4375 9 C-9.17033203 9.34611328 -9.90316406 9.69222656 -10.65820312 10.04882812 C-12.11638601 10.73737873 -13.57776892 11.41919879 -15.04248047 12.09375 C-17.38771948 13.17949797 -19.69572765 14.33007784 -22 15.5 C-34.33333333 21.66666667 -46.66666667 27.83333333 -59 34 C-60.08023438 34.59167969 -61.16046875 35.18335938 -62.2734375 35.79296875 C-65 37 -65 37 -68 36 C-67.0934668 35.52167725 -66.18693359 35.04335449 -65.25292969 34.55053711 C-61.82967556 32.74340601 -58.40824541 30.93284394 -54.98730469 29.12133789 C-53.51773368 28.34373533 -52.0476956 27.5670147 -50.57714844 26.79125977 C-42.48131941 22.51968831 -34.45058636 18.19211181 -26.5793457 13.51611328 C-23.01523985 11.42116796 -19.38850291 9.45032279 -15.75 7.48828125 C-13.8055334 6.43594918 -11.86871614 5.36942468 -9.9375 4.29296875 C-8.9475 3.74253906 -7.9575 3.19210938 -6.9375 2.625 C-6.03902344 2.12226562 -5.14054687 1.61953125 -4.21484375 1.1015625 C-2 0 -2 0 0 0 Z " fill="#D9D9D9" transform="translate(220,88)"/>
<path d="M0 0 C0 1.98 0 3.96 0 6 C-0.99 6.33 -1.98 6.66 -3 7 C-3 7.66 -3 8.32 -3 9 C-5.38152 10.91005157 -7.7765042 12.71593484 -10.25 14.5 C-16.34870873 18.98023112 -22.21826584 23.59930021 -27.9921875 28.4921875 C-31.35703749 31.2976858 -34.79271021 33.99757783 -38.25 36.6875 C-43.31538513 40.6323103 -48.24890068 44.67679472 -53 49 C-53.66 48.67 -54.32 48.34 -55 48 C-49.55707911 42.95713906 -44.10145616 38.02075894 -38.3125 33.375 C-35.02247683 30.72250607 -31.94262071 28.03251747 -29 25 C-25.26730621 21.1537354 -21.20699185 17.86676697 -17.02734375 14.51953125 C-12.92248602 11.1032303 -9.03299769 7.47596559 -5.15161133 3.80957031 C-1.09852099 0 -1.09852099 0 0 0 Z " fill="#DEDEDE" transform="translate(203,64)"/>
<path d="M0 0 C0.66 0.33 1.32 0.66 2 1 C1.67 1.99 1.34 2.98 1 4 C1.99 4 2.98 4 4 4 C-0.26172735 8.52754937 -5.0036139 12.23010825 -9.9375 16 C-15.03621457 19.91500971 -20.09535807 23.84325692 -25 28 C-25.66 27.67 -26.32 27.34 -27 27 C-26.57178955 26.60208252 -26.1435791 26.20416504 -25.70239258 25.79418945 C-23.73819579 23.96792411 -21.77533995 22.14022353 -19.8125 20.3125 C-19.13896484 19.68666016 -18.46542969 19.06082031 -17.77148438 18.41601562 C-16.78051758 17.49272461 -16.78051758 17.49272461 -15.76953125 16.55078125 C-15.16729736 15.99044189 -14.56506348 15.43010254 -13.94458008 14.8527832 C-11.58896617 12.60836965 -9.29366649 10.30751504 -7 8 C-7.86802246 8.42933838 -8.73604492 8.85867676 -9.63037109 9.30102539 C-12.84310022 10.88749742 -16.06086242 12.46351463 -19.28027344 14.03637695 C-20.67458027 14.71939229 -22.06749418 15.40525866 -23.45898438 16.09399414 C-25.45606387 17.08186573 -27.45788178 18.05947122 -29.4609375 19.03515625 C-30.08495453 19.34655045 -30.70897156 19.65794464 -31.35189819 19.97877502 C-32.87324287 20.71360639 -34.4343245 21.36507717 -36 22 C-36.66 21.67 -37.32 21.34 -38 21 C-15.87197934 8.4032068 -15.87197934 8.4032068 -6.1875 3.125 C-5.57898193 2.78597656 -4.97046387 2.44695312 -4.34350586 2.09765625 C-2.92789984 1.33529579 -1.46730279 0.65738603 0 0 Z " fill="#1E1E1E" transform="translate(95,153)"/>
<path d="M0 0 C2.64 0 5.28 0 8 0 C8.08687496 3.12482562 8.14034568 6.24934246 8.1875 9.375 C8.22520508 10.70917969 8.22520508 10.70917969 8.26367188 12.0703125 C8.27817383 13.34648437 8.27817383 13.34648437 8.29296875 14.6484375 C8.31653442 15.82672119 8.31653442 15.82672119 8.34057617 17.02880859 C8.22818604 17.67930176 8.1157959 18.32979492 8 19 C4.77208445 21.1519437 3.71599191 21.20086443 0 21 C-0.33 19.35 -0.66 17.7 -1 16 C-1.66 16 -2.32 16 -3 16 C-2.67 15.154375 -2.34 14.30875 -2 13.4375 C-0.93588687 9.77961112 -0.92853551 6.78761802 -1 3 C-0.67 2.01 -0.34 1.02 0 0 Z " fill="#0F0F0F" transform="translate(279,214)"/>
<path d="M0 0 C0.99 0 1.98 0 3 0 C2.67 4.62 2.34 9.24 2 14 C4.475 14.99 4.475 14.99 7 16 C5.70332266 18.59335469 4.49394824 19.51711185 2 21 C-1.0625 21.5 -1.0625 21.5 -4 21 C-6.64913942 18.17425128 -7.20861545 15.63251781 -7.375 11.875 C-7 8 -7 8 -5.75 6.3125 C-5.1725 5.879375 -4.595 5.44625 -4 5 C-3.01 3.6696875 -3.01 3.6696875 -2 2.3125 C-1.34 1.549375 -0.68 0.78625 0 0 Z " fill="#0C0C0C" transform="translate(175,214)"/>
<path d="M0 0 C2 1 2 1 3 2 C3.07325168 4.86267567 3.09238205 7.700719 3.0625 10.5625 C3.05798828 11.36880859 3.05347656 12.17511719 3.04882812 13.00585938 C3.03700518 15.00393756 3.01906914 17.00197783 3 19 C1.1875 20.0625 1.1875 20.0625 -1 21 C-1.99 20.67 -2.98 20.34 -4 20 C-3.505 15.545 -3.505 15.545 -3 11 C-4.32 11 -5.64 11 -7 11 C-7 13.31 -7 15.62 -7 18 C-7.66 18 -8.32 18 -9 18 C-9 13.05 -9 8.1 -9 3 C-8.34 3 -7.68 3 -7 3 C-7 4.98 -7 6.96 -7 9 C-6.01 9 -5.02 9 -4 9 C-4.0825 8.071875 -4.165 7.14375 -4.25 6.1875 C-4 3 -4 3 -2 1.125 C-1.34 0.75375 -0.68 0.3825 0 0 Z " fill="#E8B8B8" transform="translate(183,187)"/>
<path d="M0 0 C0.33 0 0.66 0 1 0 C1.16435547 1.21623047 1.16435547 1.21623047 1.33203125 2.45703125 C2.38696713 9.82442899 3.85754566 16.87276855 6 24 C5.34 24 4.68 24 4 24 C3.67 23.34 3.34 22.68 3 22 C2.67 22.99 2.34 23.98 2 25 C1.34 25 0.68 25 0 25 C0 26.32 0 27.64 0 29 C-0.66 29 -1.32 29 -2 29 C-2 31.64 -2 34.28 -2 37 C-2.33 37 -2.66 37 -3 37 C-5.33670707 24.64349303 -4.4598779 11.78682017 0 0 Z " fill="#E4272E" transform="translate(22,173)"/>
<path d="M0 0 C6.07772021 -0.35233161 6.07772021 -0.35233161 9 0 C11.0625 2 11.0625 2 12 4 C12.66 2.68 13.32 1.36 14 0 C15.24703266 3.74109799 14.45460854 4.44429023 13 8 C12.6186926 10.32597511 12.27539746 12.65912158 12 15 C11.34 15 10.68 15 10 15 C9.67 13.35 9.34 11.7 9 10 C8.34 11.65 7.68 13.3 7 15 C6.34 15 5.68 15 5 15 C4.87625 14.195625 4.7525 13.39125 4.625 12.5625 C4.41875 11.716875 4.2125 10.87125 4 10 C3.34 9.67 2.68 9.34 2 9 C2 10.98 2 12.96 2 15 C1.34 15 0.68 15 0 15 C0 10.05 0 5.1 0 0 Z " fill="#DCDCDC" transform="translate(236,190)"/>
<path d="M0 0 C1.64767247 0.28109113 3.29313145 0.57518526 4.9375 0.875 C5.85402344 1.03742188 6.77054688 1.19984375 7.71484375 1.3671875 C8.46894531 1.57601562 9.22304687 1.78484375 10 2 C11.44207941 4.88415883 11.09394887 7.41721528 11.0625 10.625 C11.05347656 11.81351563 11.04445312 13.00203125 11.03515625 14.2265625 C11.02355469 15.14179688 11.01195312 16.05703125 11 17 C10.01 17 9.02 17 8 17 C8 12.71 8 8.42 8 4 C7.01 4 6.02 4 5 4 C4.67 4.66 4.34 5.32 4 6 C4 5.01 4 4.02 4 3 C2.35 3.66 0.7 4.32 -1 5 C-1.25069913 7.37429296 -1.25069913 7.37429296 -1 10 C-0.0206121 11.02019573 0.97895449 12.02149805 2 13 C2 14.32 2 15.64 2 17 C0.68 17 -0.64 17 -2 17 C-2.33 17.66 -2.66 18.32 -3 19 C-3.66 19.33 -4.32 19.66 -5 20 C-5.59670764 15.59928113 -6 11.44022877 -6 7 C-6.33 6.34 -6.66 5.68 -7 5 C-5.35 3.68 -3.7 2.36 -2 1 C-1.34 1.33 -0.68 1.66 0 2 C0 1.34 0 0.68 0 0 Z " fill="#F9F4F2" transform="translate(151,186)"/>
<path d="M0 0 C1.9375 0.375 1.9375 0.375 4 1 C5.50156874 4.00313748 5.09281204 6.79067522 5.0625 10.125 C5.05347656 11.40632812 5.04445312 12.68765625 5.03515625 14.0078125 C5.02355469 14.99523437 5.01195312 15.98265625 5 17 C3.68 16.67 2.36 16.34 1 16 C1.33 15.34 1.66 14.68 2 14 C1.01 14.33 0.02 14.66 -1 15 C-3.33299825 15.03954234 -5.66708189 15.04401732 -8 15 C-9.49297212 12.01405576 -9.11755228 9.29146376 -9 6 C-8.67 5.34 -8.34 4.68 -8 4 C-6.68 4 -5.36 4 -4 4 C-4 5.32 -4 6.64 -4 8 C-2.02 7.34 -0.04 6.68 2 6 C2 4.68 2 3.36 2 2 C1.34 1.34 0.68 0.68 0 0 Z " fill="#EAEAEA" transform="translate(210,214)"/>
<path d="M0 0 C-0.91670657 3.05196212 -1.48944838 4.64800515 -4.15478516 6.4855957 C-5.02409668 6.87835693 -5.8934082 7.27111816 -6.7890625 7.67578125 C-7.73007813 8.11083984 -8.67109375 8.54589844 -9.640625 8.99414062 C-10.62546875 9.42919922 -11.6103125 9.86425781 -12.625 10.3125 C-13.61757812 10.76689453 -14.61015625 11.22128906 -15.6328125 11.68945312 C-18.08214089 12.80813677 -20.53745909 13.91078701 -23 15 C-23.66 14.34 -24.32 13.68 -25 13 C-27.58354218 12.83312552 -27.58354218 12.83312552 -30 13 C-28.6294676 10.25893519 -27.17473677 10.02241574 -24.375 8.8125 C-20.89830709 7.29315782 -17.44805768 5.74698515 -14.0390625 4.08203125 C-13.03480225 3.59609497 -13.03480225 3.59609497 -12.01025391 3.1003418 C-10.68351122 2.45662829 -9.36015767 1.80587605 -8.04052734 1.14770508 C-3.33548836 -1.11182945 -3.33548836 -1.11182945 0 0 Z " fill="#151515" transform="translate(219,95)"/>
<path d="M0 0 C0.33 2.31 0.66 4.62 1 7 C-2 8 -2 8 -5 8 C-5 8.66 -5 9.32 -5 10 C-4.34 10 -3.68 10 -3 10 C-3 12.97 -3 15.94 -3 19 C-5.45823172 15.31265242 -6.01242616 12.30300029 -7 8 C-9.37755066 12.75510132 -8.54602839 19.07400897 -7.140625 24.03125 C-6.44890559 25.89588494 -5.72852995 27.75028017 -4.97265625 29.58984375 C-4.11149852 31.72371651 -3.49429328 33.75746945 -3 36 C-3.66 36 -4.32 36 -5 36 C-5 35.34 -5 34.68 -5 34 C-5.99 34 -6.98 34 -8 34 C-8.20496094 33.03578125 -8.40992187 32.0715625 -8.62109375 31.078125 C-8.89050781 29.81484375 -9.15992187 28.5515625 -9.4375 27.25 C-9.70433594 25.99703125 -9.97117187 24.7440625 -10.24609375 23.453125 C-10.89456845 20.20084135 -10.89456845 20.20084135 -11.6875 17.90625 C-12.14684281 15.10425887 -11.36615449 12.95027909 -10.5625 10.25 C-10.27503906 9.26515625 -9.98757812 8.2803125 -9.69140625 7.265625 C-9.46324219 6.51796875 -9.23507813 5.7703125 -9 5 C-7.35 5 -5.7 5 -4 5 C-4 3.68 -4 2.36 -4 1 C-2 0 -2 0 0 0 Z " fill="#DA212B" transform="translate(84,88)"/>
<path d="M0 0 C0.12375 0.639375 0.2475 1.27875 0.375 1.9375 C0.58125 2.618125 0.7875 3.29875 1 4 C1.66 4.33 2.32 4.66 3 5 C2.51917969 5.36738281 2.03835937 5.73476562 1.54296875 6.11328125 C-0.61204917 8.74840443 -0.50672346 10.82505636 -0.6875 14.1875 C-0.75324219 15.27417969 -0.81898437 16.36085937 -0.88671875 17.48046875 C-0.92410156 18.31191406 -0.96148437 19.14335937 -1 20 C-1.33 20 -1.66 20 -2 20 C-2.33 18.02 -2.66 16.04 -3 14 C-7.5023612 26.00629653 -6.61642897 39.4726755 -5 52 C-5.66 52 -6.32 52 -7 52 C-7.96070434 49.11788698 -8.10581883 47.30149956 -8.0625 44.3125 C-8.05347656 43.50425781 -8.04445313 42.69601563 -8.03515625 41.86328125 C-8.01775391 40.94095703 -8.01775391 40.94095703 -8 40 C-8.99 40 -9.98 40 -11 40 C-10.84917969 39.48953125 -10.69835938 38.9790625 -10.54296875 38.453125 C-9.83100755 35.23649453 -9.61636863 32.03047424 -9.3125 28.75 C-8.20910109 18.5789254 -4.75285759 9.04870965 0 0 Z " fill="#F7A4A5" transform="translate(25,162)"/>
<path d="M0 0 C0.99 1.0209375 0.99 1.0209375 2 2.0625 C4.33110646 4.38692707 6.73594826 6.61548095 9.1875 8.8125 C9.86167969 9.41707031 10.53585938 10.02164063 11.23046875 10.64453125 C12.89311648 12.20270013 12.89311648 12.20270013 15 12 C16.02611949 10.34928604 17.02308143 8.68029994 18 7 C19.6875 5.1875 19.6875 5.1875 21 4 C18.525 3.505 18.525 3.505 16 3 C16.66 2.01 17.32 1.02 18 0 C19.32 0.99 20.64 1.98 22 3 C21.67 4.65 21.34 6.3 21 8 C20.34 8 19.68 8 19 8 C18.67 10.31 18.34 12.62 18 15 C16.02 15 14.04 15 12 15 C12.33 15.66 12.66 16.32 13 17 C13.07181821 19.71760108 13.09299506 22.40859388 13.0625 25.125 C13.05798828 25.87910156 13.05347656 26.63320312 13.04882812 27.41015625 C13.03703499 29.27347127 13.01909942 31.13674555 13 33 C12.34 32.67 11.68 32.34 11 32 C11.08121094 31.0821875 11.16242187 30.164375 11.24609375 29.21875 C11.78382322 22.11046459 11.78382322 22.11046459 9.58203125 15.53515625 C8.37089562 14.23105498 7.117615 12.96474866 5.82421875 11.7421875 C3.09457529 9.13529032 1.65565569 6.3775376 0 3 C0 2.01 0 1.02 0 0 Z " fill="#FADDDD" transform="translate(27,209)"/>
<path d="M0 0 C2.97 0.495 2.97 0.495 6 1 C6.33 5.95 6.66 10.9 7 16 C8.32 16.33 9.64 16.66 11 17 C9.02 17.66 7.04 18.32 5 19 C5 18.34 5 17.68 5 17 C3.02 17.33 1.04 17.66 -1 18 C-1.33 16.68 -1.66 15.36 -2 14 C-0.68 14 0.64 14 2 14 C0.92598892 11.08482708 0.22189824 9.22189824 -2 7 C-2.25 4.5 -2.25 4.5 -2 2 C-1.34 1.34 -0.68 0.68 0 0 Z " fill="#FCDEDE" transform="translate(151,189)"/>
<path d="M0 0 C1.42889859 3.85140216 0.51322435 6.6455157 -0.4375 10.5625 C-3.05365891 22.50551907 -2.25999102 34.85108626 -2 47 C-1.34 47 -0.68 47 0 47 C0 46.01 0 45.02 0 44 C0.66 44 1.32 44 2 44 C1.67 49.28 1.34 54.56 1 60 C-5.45067471 53.54932529 -5.01406381 39.26482811 -5.125 30.5625 C-4.97368612 19.75868873 -3.2318143 10.29671067 0 0 Z " fill="#CD3E48" transform="translate(15,140)"/>
<path d="M0 0 C3.48655226 0.47776573 6.87978106 0.39202955 10.39453125 0.328125 C10.39453125 1.978125 10.39453125 3.628125 10.39453125 5.328125 C10.06453125 4.008125 9.73453125 2.688125 9.39453125 1.328125 C5.31488844 2.62967506 5.31488844 2.62967506 1.39453125 4.328125 C1.43578125 5.58625 1.47703125 6.844375 1.51953125 8.140625 C1.63356865 11.61876573 1.45378806 12.23923978 -0.60546875 15.328125 C-1.92546875 14.998125 -3.24546875 14.668125 -4.60546875 14.328125 C-4.81739096 9.13603096 -4.19673765 5.201386 -2.60546875 0.328125 C-6.30167092 2.27349456 -7.85880586 3.58527594 -9.60546875 7.328125 C-10.59546875 7.658125 -11.58546875 7.988125 -12.60546875 8.328125 C-11.79052616 5.27209029 -11.04194971 2.86936138 -9.04296875 0.390625 C-5.78345691 -1.03018785 -3.4604431 -0.52796147 0 0 Z " fill="#191919" transform="translate(180.60546875,213.671875)"/>
<path d="M0 0 C5 0 5 0 6.8125 1 C8.70916839 4.19438886 8.65123475 7.44325638 8 11 C6.25 13.5 6.25 13.5 4 15 C2.68 15 1.36 15 0 15 C0 10.05 0 5.1 0 0 Z " fill="#6A6A6A" transform="translate(191,190)"/>
<path d="M0 0 C1.32 0 2.64 0 4 0 C4.33 0.66 4.66 1.32 5 2 C5.99 2 6.98 2 8 2 C8 3.65 8 5.3 8 7 C9.32 6.67 10.64 6.34 12 6 C11.67 7.65 11.34 9.3 11 11 C8.69 9.02 6.38 7.04 4 5 C4.93347507 8.73390027 5.61486434 10.14456366 7.875 13.0625 C8.38804688 13.73410156 8.90109375 14.40570313 9.4296875 15.09765625 C10.89978213 17.02227025 10.89978213 17.02227025 12.68359375 18.296875 C14.82334607 21.06521925 14.28135539 23.77742067 14.1875 27.1875 C14.16042969 28.45980469 14.13335937 29.73210937 14.10546875 31.04296875 C14.07066406 32.01878906 14.03585938 32.99460938 14 34 C12 32 12 32 11.8046875 29.6171875 C11.83949219 28.25980469 11.83949219 28.25980469 11.875 26.875 C11.89304687 25.96492188 11.91109375 25.05484375 11.9296875 24.1171875 C11.95289063 23.41851562 11.97609375 22.71984375 12 22 C11.01 21.67 10.02 21.34 9 21 C8.67 20.01 8.34 19.02 8 18 C7.34 17.67 6.68 17.34 6 17 C5.71125 16.236875 5.4225 15.47375 5.125 14.6875 C4.18969741 11.88571951 4.18969741 11.88571951 1.875 10.1875 C-0.96720006 6.87159993 -0.28488952 4.27334287 0 0 Z " fill="#D3313A" transform="translate(25,207)"/>
<path d="M0 0 C1.32 0.33 2.64 0.66 4 1 C4 1.99 4 2.98 4 4 C4.01160156 4.66515625 4.02320313 5.3303125 4.03515625 6.015625 C4.09371116 10.80039725 3.80297727 15.28250853 3 20 C5.31 20 7.62 20 10 20 C10 20.33 10 20.66 10 21 C8.37536158 21.05395478 6.75021459 21.09277195 5.125 21.125 C4.22007812 21.14820313 3.31515625 21.17140625 2.3828125 21.1953125 C0 21 0 21 -2 19 C-2.75396979 12.41385215 -1.9014013 6.29839179 0 0 Z " fill="#CBCBCB" transform="translate(125,214)"/>
<path d="M0 0 C0.79921875 0.28746094 1.5984375 0.57492188 2.421875 0.87109375 C3.32679688 1.21333984 3.32679688 1.21333984 4.25 1.5625 C3.26 2.0575 3.26 2.0575 2.25 2.5625 C2.25 7.5125 2.25 12.4625 2.25 17.5625 C0.93 17.8925 -0.39 18.2225 -1.75 18.5625 C-2.08 19.2225 -2.41 19.8825 -2.75 20.5625 C-2.75 19.9025 -2.75 19.2425 -2.75 18.5625 C-3.74 18.2325 -4.73 17.9025 -5.75 17.5625 C-4.76 17.2325 -3.77 16.9025 -2.75 16.5625 C-2.09 16.2325 -1.43 15.9025 -0.75 15.5625 C-0.49969023 13.14630177 -0.49969023 13.14630177 -0.75 10.5625 C-1.74 9.9025 -2.73 9.2425 -3.75 8.5625 C-3.75 7.2425 -3.75 5.9225 -3.75 4.5625 C-2.43 4.5625 -1.11 4.5625 0.25 4.5625 C0.25 3.9025 0.25 3.2425 0.25 2.5625 C-0.843125 2.748125 -1.93625 2.93375 -3.0625 3.125 C-6.75 3.5625 -6.75 3.5625 -9.75 2.5625 C-9.42 1.5725 -9.09 0.5825 -8.75 -0.4375 C-5.46105071 -1.88551086 -3.27794441 -1.20512662 0 0 Z " fill="#F9F3F1" transform="translate(171.75,187.4375)"/>
<path d="M0 0 C0.99 0.33 1.98 0.66 3 1 C2.23816406 1.70962891 2.23816406 1.70962891 1.4609375 2.43359375 C-3.01352422 6.73209349 -6.60052836 11.03681958 -9.87109375 16.3125 C-10.24363281 16.869375 -10.61617187 17.42625 -11 18 C-11.33 18 -11.66 18 -12 18 C-13.57754011 8.05463846 -13.57754011 8.05463846 -11.5625 4.375 C-8.03878086 2.48422387 -4.97432371 2.39091709 -1 2 C-0.67 1.34 -0.34 0.68 0 0 Z " fill="#E91B25" transform="translate(38,143)"/>
<path d="M0 0 C0.8971875 0.309375 0.8971875 0.309375 1.8125 0.625 C-1.51211319 2.97096922 -4.84639331 5.30258039 -8.1875 7.625 C-9.36892578 8.44677734 -9.36892578 8.44677734 -10.57421875 9.28515625 C-15.28494184 12.49962873 -19.95693642 15.33089317 -25.1875 17.625 C-25.8475 17.295 -26.5075 16.965 -27.1875 16.625 C-26.57261719 15.97273438 -25.95773438 15.32046875 -25.32421875 14.6484375 C-24.51597656 13.77445313 -23.70773438 12.90046875 -22.875 12 C-22.07449219 11.14148438 -21.27398437 10.28296875 -20.44921875 9.3984375 C-18.16955128 6.60299034 -16.67169262 3.90079084 -15.1875 0.625 C-14.14300089 3.75849732 -14.25326355 4.61468256 -15.1875 7.625 C-15.8475 7.625 -16.5075 7.625 -17.1875 7.625 C-16.5275 8.285 -15.8675 8.945 -15.1875 9.625 C-14.1975 9.295 -13.2075 8.965 -12.1875 8.625 C-12.1875 7.965 -12.1875 7.305 -12.1875 6.625 C-10.5375 6.295 -8.8875 5.965 -7.1875 5.625 C-7.1875 4.965 -7.1875 4.305 -7.1875 3.625 C-6.5275 3.625 -5.8675 3.625 -5.1875 3.625 C-5.1875 2.965 -5.1875 2.305 -5.1875 1.625 C-2.1875 -0.375 -2.1875 -0.375 0 0 Z " fill="#D33943" transform="translate(79.1875,138.375)"/>
<path d="M0 0 C-0.01953125 2.234375 -0.01953125 2.234375 -1 5 C-3.36329487 6.82353479 -5.98503441 8.005286 -8.6875 9.25 C-9.39583984 9.600625 -10.10417969 9.95125 -10.83398438 10.3125 C-14.87807285 12.25425993 -18.48939214 13.51697428 -23 14 C-19.07497696 9.6585698 -14.93341513 6.97272171 -9.8125 4.1875 C-9.08869141 3.78080078 -8.36488281 3.37410156 -7.61914062 2.95507812 C-2.28013393 0 -2.28013393 0 0 0 Z " fill="#E2E2E2" transform="translate(220,88)"/>
<path d="M0 0 C2.875 -0.125 2.875 -0.125 6 0 C8 2 8 2 8.1875 5.5625 C8 9 8 9 7 10 C3.5625 10.1875 3.5625 10.1875 0 10 C-2 8 -2 8 -2.125 4.875 C-2.08375 3.92625 -2.0425 2.9775 -2 2 C-1.34 2 -0.68 2 0 2 C0 1.34 0 0.68 0 0 Z " fill="#FCEBEC" transform="translate(96,86)"/>
<path d="M0 0 C0.99 0.33 1.98 0.66 3 1 C-0.88057782 5.97199033 -5.17206021 9.95709107 -10 14 C-10.50644043 14.42458496 -11.01288086 14.84916992 -11.53466797 15.28662109 C-15.01438014 18.20166573 -18.50418137 21.10429691 -22 24 C-22.66 23.67 -23.32 23.34 -24 23 C-19.41560707 17.25777404 -14.34658933 12.68704482 -8.6015625 8.12109375 C-5.50074522 5.59294993 -2.75093515 2.89963434 0 0 Z " fill="#242424" transform="translate(198,64)"/>
<path d="M0 0 C0.99 0.495 0.99 0.495 2 1 C1.01 1.495 1.01 1.495 0 2 C0 1.34 0 0.68 0 0 Z M-2 2 C-1.34 2.33 -0.68 2.66 0 3 C-3.75 7.875 -3.75 7.875 -6 9 C-6.1134375 9.59296875 -6.226875 10.1859375 -6.34375 10.796875 C-7.26930271 13.90408768 -9.0586526 15.16403861 -11.5 17.25 C-12.3146875 17.95640625 -13.129375 18.6628125 -13.96875 19.390625 C-16 21 -16 21 -17 21 C-17.46875 17.90234375 -17.46875 17.90234375 -17 14 C-14.84569613 11.39164667 -12.23701214 9.52772403 -9.5 7.5625 C-8.42685547 6.75135742 -8.42685547 6.75135742 -7.33203125 5.92382812 C-5.56851839 4.5953151 -3.79230624 3.28925291 -2 2 Z " fill="#151515" transform="translate(200,71)"/>
<path d="M0 0 C0.33 0 0.66 0 1 0 C1.19335938 0.78503906 1.38671875 1.57007812 1.5859375 2.37890625 C2.96653221 7.9491275 4.37388447 13.49622437 6 19 C5.34 19 4.68 19 4 19 C4 18.34 4 17.68 4 17 C3.01 17 2.02 17 1 17 C1.33 18.98 1.66 20.96 2 23 C-2.66063737 18.33936263 -2.23100675 11.64979146 -2.265625 5.453125 C-2 3 -2 3 0 0 Z " fill="#FCC4C6" transform="translate(77,95)"/>
<path d="M0 0 C1.65 0 3.3 0 5 0 C6 1 6 1 6 4.6875 C5.9896875 5.40292969 5.979375 6.11835938 5.96875 6.85546875 C6.00925937 9.6354242 6.45565152 12.2782576 7 15 C6.34 15 5.68 15 5 15 C4.87625 14.195625 4.7525 13.39125 4.625 12.5625 C4.41875 11.716875 4.2125 10.87125 4 10 C3.34 9.67 2.68 9.34 2 9 C2 10.98 2 12.96 2 15 C1.34 15 0.68 15 0 15 C0 10.05 0 5.1 0 0 Z " fill="#5F5F5F" transform="translate(236,190)"/>
<path d="M0 0 C0.33 0 0.66 0 1 0 C1.33 3.96 1.66 7.92 2 12 C1.34 12 0.68 12 0 12 C-0.2165625 13.9490625 -0.2165625 13.9490625 -0.4375 15.9375 C-0.875 19.875 -0.875 19.875 -2 21 C-2.07319621 23.69654854 -2.09242537 26.36691458 -2.0625 29.0625 C-2.05798828 29.82111328 -2.05347656 30.57972656 -2.04882812 31.36132812 C-2.0370068 33.24091871 -2.01907078 35.12046899 -2 37 C-2.33 37 -2.66 37 -3 37 C-5.33670707 24.64349303 -4.4598779 11.78682017 0 0 Z " fill="#CB333A" transform="translate(22,173)"/>
<path d="M0 0 C0.66 0.33 1.32 0.66 2 1 C-4.93 7.435 -4.93 7.435 -12 14 C-12.99 13.01 -13.98 12.02 -15 11 C-15 10.34 -15 9.68 -15 9 C-15.66 8.67 -16.32 8.34 -17 8 C-14.21443118 6.63301613 -11.42068672 5.28365462 -8.625 3.9375 C-7.8309375 3.54755859 -7.036875 3.15761719 -6.21875 2.75585938 C-5.45820312 2.39169922 -4.69765625 2.02753906 -3.9140625 1.65234375 C-2.8614624 1.14175415 -2.8614624 1.14175415 -1.78759766 0.62084961 C-1.19769043 0.41596924 -0.6077832 0.21108887 0 0 Z " fill="#E9E9E9" transform="translate(88,160)"/>
<path d="M0 0 C6.19518473 0.41588046 11.26689311 1.60251894 17 4 C16.5837413 10.38263338 14.34649204 15.55804099 11 21 C10.34 21.33 9.68 21.66 9 22 C8.67 20.68 8.34 19.36 8 18 C8.66 18 9.32 18 10 18 C10.12375 17.38125 10.2475 16.7625 10.375 16.125 C11 14 11 14 13 12 C13.71927295 9.68234271 14.3909893 7.34904126 15 5 C11.74578379 4.44440211 8.53717141 3.95371714 5.25 3.625 C4.1775 3.41875 3.105 3.2125 2 3 C1.34 2.01 0.68 1.02 0 0 Z " fill="#D13E47" transform="translate(121,80)"/>
<path d="M0 0 C1.32 0 2.64 0 4 0 C4.66 4.29 5.32 8.58 6 13 C5.01 13 4.02 13 3 13 C3 13.66 3 14.32 3 15 C2.01 14.67 1.02 14.34 0 14 C0 9.38 0 4.76 0 0 Z " fill="#B3B3B3" transform="translate(215,190)"/>
<path d="M0 0 C0.66 0.33 1.32 0.66 2 1 C1.525625 1.4125 1.05125 1.825 0.5625 2.25 C-1.15023288 3.86135875 -1.15023288 3.86135875 -1.35205078 5.94824219 C-2.22960255 8.7270459 -3.40299305 9.2001309 -5.9296875 10.578125 C-6.72503906 11.01640625 -7.52039063 11.4546875 -8.33984375 11.90625 C-9.59474609 12.57140625 -9.59474609 12.57140625 -10.875 13.25 C-11.70386719 13.70890625 -12.53273437 14.1678125 -13.38671875 14.640625 C-19.57556734 18 -19.57556734 18 -23 18 C-22.48091064 17.5968457 -21.96182129 17.19369141 -21.42700195 16.77832031 C-19.05521292 14.93591777 -16.68385304 13.09296366 -14.3125 11.25 C-13.49587891 10.61578125 -12.67925781 9.9815625 -11.83789062 9.328125 C-7.87083037 6.24441824 -3.91125987 3.1544988 0 0 Z " fill="#E2E2E2" transform="translate(150,117)"/>
<path d="M0 0 C3.96 0 7.92 0 12 0 C9.25 5.5 9.25 5.5 7 7 C4.28184714 7.2529766 1.74088051 7.1347974 -1 7 C-1.33 6.01 -1.66 5.02 -2 4 C-1.34 2.68 -0.68 1.36 0 0 Z " fill="#212121" transform="translate(200,228)"/>
<path d="M0 0 C0.66 0.33 1.32 0.66 2 1 C1.01 2.485 1.01 2.485 0 4 C0.99 4.99 1.98 5.98 3 7 C-3.93 10.465 -3.93 10.465 -11 14 C-9.46640109 7.86560436 -5.28522202 3.45572209 0 0 Z " fill="#F3F3F3" transform="translate(159,110)"/>
<path d="M0 0 C0.66 0.33 1.32 0.66 2 1 C2 1.66 2 2.32 2 3 C2.66 3 3.32 3 4 3 C4 4.32 4 5.64 4 7 C4.99 7.33 5.98 7.66 7 8 C7 9.65 7 11.3 7 13 C7.66 13.33 8.32 13.66 9 14 C8.67 14.66 8.34 15.32 8 16 C7.01 15.67 6.02 15.34 5 15 C5 13.35 5 11.7 5 10 C3.02 10 1.04 10 -1 10 C-1.33 8.02 -1.66 6.04 -2 4 C-1.34 4 -0.68 4 0 4 C0 2.68 0 1.36 0 0 Z " fill="#ED192A" transform="translate(24,194)"/>
<path d="M0 0 C0.66 0 1.32 0 2 0 C0.79618552 2.49361571 -0.45428722 4.68143083 -2 7 C-1.37351562 6.6390625 -0.74703125 6.278125 -0.1015625 5.90625 C0.71570312 5.4421875 1.53296875 4.978125 2.375 4.5 C3.59316406 3.80390625 3.59316406 3.80390625 4.8359375 3.09375 C7 2 7 2 9 2 C8.67 3.32 8.34 4.64 8 6 C7.01 6 6.02 6 5 6 C5 6.66 5 7.32 5 8 C3.906875 8.309375 2.81375 8.61875 1.6875 8.9375 C-0.55407994 9.58337897 -2.7869351 10.2623117 -5 11 C-5.66 10.67 -6.32 10.34 -7 10 C-6.8125 7.6875 -6.8125 7.6875 -6 5 C-3.5 3.3125 -3.5 3.3125 -1 2 C-0.67 1.34 -0.34 0.68 0 0 Z " fill="#F8E0DF" transform="translate(56,148)"/>
<path d="M0 0 C0.99 0 1.98 0 3 0 C3 0.66 3 1.32 3 2 C3.99 2 4.98 2 6 2 C8.14915785 5.22373677 8.38286803 6.26703674 8 10 C7.34 10.66 6.68 11.32 6 12 C5.01 12 4.02 12 3 12 C2.49440092 10.56445975 1.9957251 9.1264798 1.5 7.6875 C1.2215625 6.88699219 0.943125 6.08648437 0.65625 5.26171875 C0 3 0 3 0 0 Z " fill="#FCE8E2" transform="translate(78,112)"/>
<path d="M0 0 C1.125 3.75 1.125 3.75 0 6 C-0.66 6 -1.32 6 -2 6 C-1.175 6.886875 -0.35 7.77375 0.5 8.6875 C2.46099476 11.01307407 2.97259478 11.74787194 3.3125 14.875 C3.1578125 15.926875 3.1578125 15.926875 3 17 C-1.18659858 13.17225273 -4.37820862 9.05392126 -7 4 C-7 3.34 -7 2.68 -7 2 C-4.35261084 0.5393715 -3.10551666 0 0 0 Z " fill="#E0232B" transform="translate(30,218)"/>
<path d="M0 0 C0.66 0 1.32 0 2 0 C1.96519531 1.24716797 1.96519531 1.24716797 1.9296875 2.51953125 C1.91164063 3.60621094 1.89359375 4.69289062 1.875 5.8125 C1.85179688 6.89144531 1.82859375 7.97039062 1.8046875 9.08203125 C1.76976283 12.19402868 1.76976283 12.19402868 4 15 C4.4140625 17.26171875 4.4140625 17.26171875 4.625 19.6875 C4.69976562 20.49574219 4.77453125 21.30398437 4.8515625 22.13671875 C4.92503906 23.05904297 4.92503906 23.05904297 5 24 C4.38125 24.12375 3.7625 24.2475 3.125 24.375 C0.80879168 24.87197356 0.80879168 24.87197356 -1 27 C-1 26.34 -1 25.68 -1 25 C-1.66 24.67 -2.32 24.34 -3 24 C-2.26330078 23.41798828 -2.26330078 23.41798828 -1.51171875 22.82421875 C0.50725753 20.38788304 0.30898805 18.93069328 0.1875 15.8125 C0.16042969 14.91144531 0.13335937 14.01039063 0.10546875 13.08203125 C0.05326172 12.05142578 0.05326172 12.05142578 0 11 C-0.66 11 -1.32 11 -2 11 C-1.67 10.484375 -1.34 9.96875 -1 9.4375 C0.32010877 6.21973488 0.13242105 3.4429472 0 0 Z " fill="#D4D4D4" transform="translate(98,208)"/>
<path d="M0 0 C0.66 0.33 1.32 0.66 2 1 C2 1.66 2 2.32 2 3 C-1.80370282 4.87983836 -5.61228225 6.74927657 -9.42578125 8.60913086 C-10.7230807 9.24364418 -12.01899017 9.88100748 -13.31347656 10.52124023 C-15.17156971 11.43961629 -17.0343774 12.34771565 -18.8984375 13.25390625 C-20.01911621 13.80377197 -21.13979492 14.3536377 -22.29443359 14.92016602 C-23.18727051 15.27651123 -24.08010742 15.63285645 -25 16 C-25.66 15.67 -26.32 15.34 -27 15 C-23.25091908 12.87337542 -19.5005779 10.74898318 -15.75 8.625 C-14.68652344 8.02171875 -13.62304688 7.4184375 -12.52734375 6.796875 C-10.99013672 5.92675781 -10.99013672 5.92675781 -9.421875 5.0390625 C-8.47924805 4.50490723 -7.53662109 3.97075195 -6.56542969 3.42041016 C-5.71883789 2.9516748 -4.87224609 2.48293945 -4 2 C-3.26942383 1.58669434 -2.53884766 1.17338867 -1.78613281 0.74755859 C-1.19670898 0.50086426 -0.60728516 0.25416992 0 0 Z " fill="#454545" transform="translate(84,159)"/>
<path d="M0 0 C1.32 0.66 2.64 1.32 4 2 C1.48673841 3.49347477 -1.03434909 4.96961326 -3.5625 6.4375 C-4.26697266 6.85837891 -4.97144531 7.27925781 -5.69726562 7.71289062 C-10.09608225 10.24677117 -13.79333586 11.94844887 -19 12 C-21.40808017 10.35403751 -22.3377948 8.46812287 -24 6 C-23.34 5.67 -22.68 5.34 -22 5 C-22 5.66 -22 6.32 -22 7 C-20.68 7.33 -19.36 7.66 -18 8 C-18 8.99 -18 9.98 -18 11 C-17.34 11 -16.68 11 -16 11 C-16 10.01 -16 9.02 -16 8 C-14.948125 7.87625 -13.89625 7.7525 -12.8125 7.625 C-9.54041229 7.08859218 -6.99463924 6.36119965 -4 5 C-4 4.34 -4 3.68 -4 3 C-2.68 2.34 -1.36 1.68 0 1 C0 0.67 0 0.34 0 0 Z " fill="#CD343F" transform="translate(112,116)"/>
<path d="M0 0 C0.33 0 0.66 0 1 0 C1.06058594 1.18335938 1.12117188 2.36671875 1.18359375 3.5859375 C1.61253139 11.7486984 2.0825965 19.87442613 3 28 C2.34 28 1.68 28 1 28 C0.03929566 25.11788698 -0.10581883 23.30149956 -0.0625 20.3125 C-0.05347656 19.50425781 -0.04445313 18.69601563 -0.03515625 17.86328125 C-0.01775391 16.94095703 -0.01775391 16.94095703 0 16 C-0.99 16 -1.98 16 -3 16 C-2.8453125 15.44570312 -2.690625 14.89140625 -2.53125 14.3203125 C-1.7681966 10.98756458 -1.56390619 7.64415664 -1.28125 4.2421875 C-1 2 -1 2 0 0 Z " fill="#FAC6C6" transform="translate(17,186)"/>
<path d="M0 0 C0.33 2.31 0.66 4.62 1 7 C-2 8 -2 8 -5 8 C-5 8.66 -5 9.32 -5 10 C-4.34 10 -3.68 10 -3 10 C-3 12.97 -3 15.94 -3 19 C-5.09715785 15.85426323 -5.52004559 13.98543749 -6.125 10.3125 C-6.29257813 9.31863281 -6.46015625 8.32476562 -6.6328125 7.30078125 C-6.75398438 6.54152344 -6.87515625 5.78226562 -7 5 C-6.01 5 -5.02 5 -4 5 C-4 3.68 -4 2.36 -4 1 C-2 0 -2 0 0 0 Z " fill="#E61E27" transform="translate(84,88)"/>
<path d="M0 0 C0.66 0 1.32 0 2 0 C2 4.95 2 9.9 2 15 C1.34 15 0.68 15 0 15 C0 14.34 0 13.68 0 13 C-0.99 13 -1.98 13 -3 13 C-3 11.35 -3 9.7 -3 8 C-2.01 8 -1.02 8 0 8 C0 7.34 0 6.68 0 6 C-0.99 6 -1.98 6 -3 6 C-3 4.68 -3 3.36 -3 2 C-2.01 2 -1.02 2 0 2 C0 1.34 0 0.68 0 0 Z " fill="#EEEEEE" transform="translate(234,190)"/>
<path d="M0 0 C3.71599191 -0.20086443 4.77208445 -0.1519437 8 2 C8 2.66 8 3.32 8 4 C8.66 4.33 9.32 4.66 10 5 C9.67 6.32 9.34 7.64 9 9 C6.03 8.505 6.03 8.505 3 8 C3 6.68 3 5.36 3 4 C2.01 4 1.02 4 0 4 C0 2.68 0 1.36 0 0 Z " fill="#EB1B21" transform="translate(33,210)"/>
<path d="M0 0 C0.66 0 1.32 0 2 0 C2.66 2.97 3.32 5.94 4 9 C4.66 6.03 5.32 3.06 6 0 C6.66 0 7.32 0 8 0 C7.01 4.95 6.02 9.9 5 15 C4.01 15 3.02 15 2 15 C1.66048381 13.43883181 1.32867456 11.87598662 1 10.3125 C0.814375 9.44238281 0.62875 8.57226562 0.4375 7.67578125 C0.01027953 5.06287036 -0.07616201 2.64186962 0 0 Z " fill="#6D6D6D" transform="translate(219,190)"/>
<path d="M0 0 C0.66 0 1.32 0 2 0 C2 1.98 2 3.96 2 6 C3.32 6 4.64 6 6 6 C6 4.35 6 2.7 6 1 C6.33 1 6.66 1 7 1 C7 5.62 7 10.24 7 15 C6.67 15 6.34 15 6 15 C6 12.69 6 10.38 6 8 C4.68 8 3.36 8 2 8 C2 10.31 2 12.62 2 15 C1.34 15 0.68 15 0 15 C0 10.05 0 5.1 0 0 Z " fill="#BA595F" transform="translate(174,190)"/>
<path d="M0 0 C2.125 0.375 2.125 0.375 4 1 C4.25 6.625 4.25 6.625 2 10 C0.68 9.67 -0.64 9.34 -2 9 C-2.125 5.625 -2.125 5.625 -2 2 C-1.34 1.34 -0.68 0.68 0 0 Z " fill="#D2D2D2" transform="translate(274,219)"/>
<path d="M0 0 C2.125 0.375 2.125 0.375 4 1 C4.25 6.625 4.25 6.625 2 10 C0.68 9.67 -0.64 9.34 -2 9 C-2.125 5.625 -2.125 5.625 -2 2 C-1.34 1.34 -0.68 0.68 0 0 Z " fill="#E3E3E3" transform="translate(249,219)"/>
<path d="M0 0 C2.125 0.375 2.125 0.375 4 1 C4.25 6.625 4.25 6.625 2 10 C0.68 9.67 -0.64 9.34 -2 9 C-2.125 5.625 -2.125 5.625 -2 2 C-1.34 1.34 -0.68 0.68 0 0 Z " fill="#E6E6E6" transform="translate(178,219)"/>
<path d="M0 0 C-0.66 0 -1.32 0 -2 0 C-2.33 1.32 -2.66 2.64 -3 4 C-3.74765625 4.17015625 -4.4953125 4.3403125 -5.265625 4.515625 C-6.25046875 4.75796875 -7.2353125 5.0003125 -8.25 5.25 C-9.22453125 5.48203125 -10.1990625 5.7140625 -11.203125 5.953125 C-14.31523411 7.11799266 -15.84212456 8.51330545 -18 11 C-18.66 10.67 -19.32 10.34 -20 10 C-6.96456086 -2.34206471 -6.96456086 -2.34206471 0 0 Z " fill="#FAD7D5" transform="translate(56,138)"/>
<path d="M0 0 C0.66 0 1.32 0 2 0 C1.82984375 0.55945313 1.6596875 1.11890625 1.484375 1.6953125 C-0.75607324 9.10785935 -2.88542553 16.55068688 -5 24 C-5.33 24 -5.66 24 -6 24 C-6.05449838 22.27119018 -6.09301688 20.54187288 -6.125 18.8125 C-6.14820313 17.84957031 -6.17140625 16.88664062 -6.1953125 15.89453125 C-5.9913544 12.87187222 -5.26874632 10.73230015 -4 8 C-3.34 8 -2.68 8 -2 8 C-1.7834375 6.576875 -1.7834375 6.576875 -1.5625 5.125 C-1 2 -1 2 0 0 Z " fill="#FEE1DF" transform="translate(17,130)"/>
<path d="M0 0 C0.66 0.33 1.32 0.66 2 1 C0.67961337 4.56504389 -1.46360868 6.3111324 -4.40234375 8.62890625 C-6.95307912 10.81792365 -8.91862222 13.36766927 -11 16 C-11.66 15.67 -12.32 15.34 -13 15 C-12.34 14.34 -11.68 13.68 -11 13 C-11 12.01 -11 11.02 -11 10 C-9.20845154 8.15319274 -7.44176132 6.48470477 -5.5 4.8125 C-4.97535156 4.34908203 -4.45070312 3.88566406 -3.91015625 3.40820312 C-2.61333776 2.264645 -1.30750133 1.13132826 0 0 Z " fill="#363636" transform="translate(155,102)"/>
<path d="M0 0 C2.125 0.375 2.125 0.375 4 1 C3.125 7.75 3.125 7.75 2 10 C0.68 9.67 -0.64 9.34 -2 9 C-2.125 5.625 -2.125 5.625 -2 2 C-1.34 1.34 -0.68 0.68 0 0 Z " fill="#E7E7E7" transform="translate(112,219)"/>
<path d="M0 0 C0.66 0 1.32 0 2 0 C0.52404517 4.48304037 -1.03228548 8.93216475 -2.625 13.375 C-2.85445312 14.01566406 -3.08390625 14.65632812 -3.3203125 15.31640625 C-3.87962276 16.87781405 -4.43972808 18.43893701 -5 20 C-5.33 20 -5.66 20 -6 20 C-6 16.04 -6 12.08 -6 8 C-5.34 8 -4.68 8 -4 8 C-3.34 6.02 -2.68 4.04 -2 2 C-1.34 2 -0.68 2 0 2 C0 1.34 0 0.68 0 0 Z " fill="#D92833" transform="translate(23,162)"/>
<path d="M0 0 C-1.38624258 4.15872775 -4.23962002 5.21825071 -7.875 7.25 C-8.51308594 7.62640625 -9.15117187 8.0028125 -9.80859375 8.390625 C-11.4927672 9.34698237 -13.24440869 10.18210099 -15 11 C-15.99 10.67 -16.98 10.34 -18 10 C-15.3137382 6.87084199 -12.04608071 5.2357324 -8.4375 3.3125 C-7.28121094 2.68988281 -6.12492188 2.06726563 -4.93359375 1.42578125 C-2 0 -2 0 0 0 Z " fill="#212121" transform="translate(197,98)"/>
<path d="M0 0 C1.65 0 3.3 0 5 0 C5 0.66 5 1.32 5 2 C4.01 2 3.02 2 2 2 C2 3.32 2 4.64 2 6 C2.99 6 3.98 6 5 6 C5 6.66 5 7.32 5 8 C4.01 8 3.02 8 2 8 C2 9.65 2 11.3 2 13 C2.99 13 3.98 13 5 13 C5 13.66 5 14.32 5 15 C3.35 15 1.7 15 0 15 C0 10.05 0 5.1 0 0 Z " fill="#6B6B6B" transform="translate(229,190)"/>
<path d="M0 0 C1.65 0 3.3 0 5 0 C5 0.66 5 1.32 5 2 C4.01 2 3.02 2 2 2 C2 3.32 2 4.64 2 6 C2.99 6 3.98 6 5 6 C5 6.66 5 7.32 5 8 C4.01 8 3.02 8 2 8 C2 9.65 2 11.3 2 13 C2.99 13 3.98 13 5 13 C5 13.66 5 14.32 5 15 C3.35 15 1.7 15 0 15 C0 10.05 0 5.1 0 0 Z " fill="#6D6D6D" transform="translate(201,190)"/>
<path d="M0 0 C-3.6642778 3.04402244 -7.74793603 4.98653761 -12 7.0625 C-12.7115625 7.41376953 -13.423125 7.76503906 -14.15625 8.12695312 C-15.5174512 8.79866529 -16.88063807 9.46637361 -18.24609375 10.12939453 C-19.62356807 10.8131464 -20.9740927 11.551218 -22.3125 12.30859375 C-24 13 -24 13 -27 12 C-23.07145521 9.79611708 -19.13084846 7.61476761 -15.1875 5.4375 C-14.06794922 4.80908203 -12.94839844 4.18066406 -11.79492188 3.53320312 C-10.72177734 2.94345703 -9.64863281 2.35371094 -8.54296875 1.74609375 C-7.55321045 1.19622803 -6.56345215 0.6463623 -5.54370117 0.07983398 C-3 -1 -3 -1 0 0 Z " fill="#A4A4A4" transform="translate(179,112)"/>
<path d="M0 0 C0.66 0 1.32 0 2 0 C3.85776765 3.13498292 4.20140476 5.37471432 4 9 C4.99 9.33 5.98 9.66 7 10 C6.34 11.65 5.68 13.3 5 15 C4.01 14.67 3.02 14.34 2 14 C0.45073518 9.18912503 -0.25400178 5.08003559 0 0 Z " fill="#EC1928" transform="translate(21,206)"/>
<path d="M0 0 C2.72092615 5.02324827 4.69795076 10.44458991 6 16 C6.66 16 7.32 16 8 16 C8.268125 16.969375 8.53625 17.93875 8.8125 18.9375 C9.204375 19.948125 9.59625 20.95875 10 22 C10.99 22.33 11.98 22.66 13 23 C12.67 23.99 12.34 24.98 12 26 C4.42625082 18.38370166 0.79352574 10.71259755 0 0 Z " fill="#FEDBD9" transform="translate(24,181)"/>
<path d="M0 0 C3.91939465 3.80411834 7.49102731 7.81576108 11 12 C10.01 12 9.02 12 8 12 C7.67 12.66 7.34 13.32 7 14 C6.0106909 12.61133677 5.03396922 11.21370149 4.0625 9.8125 C3.51722656 9.03519531 2.97195312 8.25789062 2.41015625 7.45703125 C0.9543711 4.92049701 0.40386565 2.8781818 0 0 Z " fill="#FDD7D0" transform="translate(27,209)"/>
<path d="M0 0 C1.65 0 3.3 0 5 0 C5.625 2.3125 5.625 2.3125 6 5 C5.01 6.485 5.01 6.485 4 8 C2.68 8 1.36 8 0 8 C0 5.36 0 2.72 0 0 Z " fill="#EDEDED" transform="translate(85,221)"/>
<path d="M0 0 C6.75 -0.125 6.75 -0.125 9 1 C5.57894737 10.21052632 5.57894737 10.21052632 2 12 C1.67 10.68 1.34 9.36 1 8 C1.99 8 2.98 8 4 8 C3.67 5.69 3.34 3.38 3 1 C2.01 0.67 1.02 0.34 0 0 Z " fill="#FAD2D5" transform="translate(56,136)"/>
<path d="M0 0 C-0.33 0.99 -0.66 1.98 -1 3 C-1.66 3 -2.32 3 -3 3 C-3.1546875 4.1446875 -3.1546875 4.1446875 -3.3125 5.3125 C-4.06587538 8.25751284 -4.55293098 9.25209356 -7 11 C-9.6875 11.6875 -9.6875 11.6875 -12 12 C-10.53033642 8.60140297 -8.61962486 6.35036291 -6 3.75 C-5.29875 3.04359375 -4.5975 2.3371875 -3.875 1.609375 C-2 0 -2 0 0 0 Z " fill="#D9303D" transform="translate(44,100)"/>
<path d="M0 0 C0.33 0.99 0.66 1.98 1 3 C-1.06178074 4.75085334 -3.12439877 6.50070381 -5.1875 8.25 C-5.76564453 8.74113281 -6.34378906 9.23226562 -6.93945312 9.73828125 C-10.25231411 12.54579056 -13.5936212 15.30568908 -17 18 C-17.66 17.67 -18.32 17.34 -19 17 C-12.72355495 11.26582134 -6.429126 5.56331247 0 0 Z " fill="#AFAFAF" transform="translate(167,95)"/>
<path d="M0 0 C1.32 0 2.64 0 4 0 C4 0.66 4 1.32 4 2 C3.01 2 2.02 2 1 2 C1.27617533 3.94074861 1.27617533 3.94074861 2 6 C2.99 6.66 3.98 7.32 5 8 C5.3125 10.5 5.3125 10.5 5 13 C4.34 13.66 3.68 14.32 3 15 C1.68 15 0.36 15 -1 15 C-1 14.34 -1 13.68 -1 13 C0.32 13 1.64 13 3 13 C1.92598892 10.08482708 1.22189824 8.22189824 -1 6 C-1.1875 3.4375 -1.1875 3.4375 -1 1 C-0.67 0.67 -0.34 0.34 0 0 Z " fill="#B66975" transform="translate(150,190)"/>
<path d="M0 0 C1.32 0.33 2.64 0.66 4 1 C4 3.97 4 6.94 4 10 C2.68 10.33 1.36 10.66 0 11 C0 7.37 0 3.74 0 0 Z " fill="#D6D6D6" transform="translate(193,192)"/>
<path d="M0 0 C0.99 0.33 1.98 0.66 3 1 C-0.43153914 4.53191322 -3.97375062 7.7137505 -7.8125 10.8125 C-9.27623047 11.99779297 -9.27623047 11.99779297 -10.76953125 13.20703125 C-11.50558594 13.79871094 -12.24164063 14.39039063 -13 15 C-13.66 14.67 -14.32 14.34 -15 14 C-10.05 9.38 -5.1 4.76 0 0 Z " fill="#373737" transform="translate(83,166)"/>
<path d="M0 0 C4.29 0 8.58 0 13 0 C13 0.33 13 0.66 13 1 C12.31035156 1.08636719 11.62070312 1.17273438 10.91015625 1.26171875 C4.7436079 2.18374038 0.07135488 3.66421557 -5.22265625 6.9765625 C-7 8 -7 8 -9 8 C-9 7.34 -9 6.68 -9 6 C-8.34 6 -7.68 6 -7 6 C-7 5.34 -7 4.68 -7 4 C-4.35261084 2.5393715 -3.10551666 2 0 2 C0 1.34 0 0.68 0 0 Z " fill="#CE333B" transform="translate(50,135)"/>
<path d="M0 0 C0.33 1.32 0.66 2.64 1 4 C0.34 4 -0.32 4 -1 4 C-1.33 5.65 -1.66 7.3 -2 9 C-2.66 9 -3.32 9 -4 9 C-4.24492187 9.58265625 -4.48984375 10.1653125 -4.7421875 10.765625 C-6.20435874 13.36302236 -7.84740414 14.83975831 -10.125 16.75 C-11.21167969 17.67039062 -11.21167969 17.67039062 -12.3203125 18.609375 C-12.87460938 19.06828125 -13.42890625 19.5271875 -14 20 C-14.66 19.67 -15.32 19.34 -16 19 C-15.43152344 18.55011719 -14.86304687 18.10023437 -14.27734375 17.63671875 C-8.08496587 12.47812682 -3.98877916 6.97715711 0 0 Z " fill="#FAC9CA" transform="translate(134,96)"/>
<path d="M0 0 C0.33 0 0.66 0 1 0 C1.185625 1.2065625 1.185625 1.2065625 1.375 2.4375 C1.58125 3.283125 1.7875 4.12875 2 5 C2.66 5.33 3.32 5.66 4 6 C3.67 6.66 3.34 7.32 3 8 C2.92966231 9.87379605 2.9156978 11.75001102 2.9375 13.625 C2.94652344 14.62789062 2.95554687 15.63078125 2.96484375 16.6640625 C2.97644531 17.43492187 2.98804688 18.20578125 3 19 C0.984375 18.01171875 0.984375 18.01171875 -1 16 C-1.13117541 13.10519711 -1.06318053 10.65846596 -0.75 7.8125 C-0.68425781 7.06291016 -0.61851562 6.31332031 -0.55078125 5.54101562 C-0.38592263 3.69224399 -0.19541184 1.84579227 0 0 Z " fill="#E1E1E1" transform="translate(262,212)"/>
<path d="M0 0 C1.32 0.33 2.64 0.66 4 1 C3.67 1.33 3.34 1.66 3 2 C3.66 2.66 4.32 3.32 5 4 C0.72847508 7.95897432 -2.31251115 9.74875245 -8 11 C-5.66666667 8.66666667 -3.33333333 6.33333333 -1 4 C-0.3574765 1.93125966 -0.3574765 1.93125966 0 0 Z " fill="#D4D4D4" transform="translate(66,178)"/>
<path d="M0 0 C0.90492187 0.30357422 0.90492187 0.30357422 1.828125 0.61328125 C-3.42048076 4.74313658 -8.70569387 8.77532429 -14.171875 12.61328125 C-14.171875 11.29328125 -14.171875 9.97328125 -14.171875 8.61328125 C-13.181875 8.61328125 -12.191875 8.61328125 -11.171875 8.61328125 C-11.171875 7.95328125 -11.171875 7.29328125 -11.171875 6.61328125 C-9.851875 6.28328125 -8.531875 5.95328125 -7.171875 5.61328125 C-7.171875 4.95328125 -7.171875 4.29328125 -7.171875 3.61328125 C-2.92048515 -0.52001444 -2.92048515 -0.52001444 0 0 Z " fill="#FCDDD8" transform="translate(52.171875,91.38671875)"/>
<path d="M0 0 C1.32 0 2.64 0 4 0 C4.33 0.66 4.66 1.32 5 2 C5.99 2 6.98 2 8 2 C8 3.65 8 5.3 8 7 C9.32 6.67 10.64 6.34 12 6 C11.67 7.65 11.34 9.3 11 11 C9.85073734 10.04578192 8.70569459 9.08647955 7.5625 8.125 C6.92441406 7.59132812 6.28632813 7.05765625 5.62890625 6.5078125 C4 5 4 5 3 3 C2.01 3.495 2.01 3.495 1 4 C0.67 2.68 0.34 1.36 0 0 Z " fill="#DB4149" transform="translate(25,207)"/>
<path d="M0 0 C0.99 0.33 1.98 0.66 3 1 C0.85727677 4.1950666 -1.30799734 7.24351824 -4 10 C-7.4375 10.5625 -7.4375 10.5625 -10 10 C-7.0247925 5.99491298 -4.02601793 2.9124385 0 0 Z " fill="#1E1E1E" transform="translate(142,114)"/>
<path d="M0 0 C0 0.66 0 1.32 0 2 C-0.66 2 -1.32 2 -2 2 C-2.33 2.99 -2.66 3.98 -3 5 C-3.66 5 -4.32 5 -5 5 C-5.33 5.66 -5.66 6.32 -6 7 C-8.64860427 7.59355614 -11.29197322 7.74209269 -14 8 C-10.67417683 4.11987297 -5.34770586 0 0 0 Z " fill="#DA2F3B" transform="translate(64,87)"/>
<path d="M0 0 C2.31 0.33 4.62 0.66 7 1 C5.97407374 4.07777878 5.24530756 4.84450474 3 7 C2.01 8.485 2.01 8.485 1 10 C-3.875 8.25 -3.875 8.25 -5 6 C-3.02 6 -1.04 6 1 6 C0.67 4.02 0.34 2.04 0 0 Z " fill="#D83846" transform="translate(41,212)"/>
<path d="M0 0 C1.32 0 2.64 0 4 0 C4 0.66 4 1.32 4 2 C2.68 2 1.36 2 0 2 C0 3.32 0 4.64 0 6 C1.32 6.66 2.64 7.32 4 8 C4 9.65 4 11.3 4 13 C2.02 13.99 2.02 13.99 0 15 C-0.66 14.34 -1.32 13.68 -2 13 C-0.68 12.67 0.64 12.34 2 12 C0.84826645 9.53199953 -0.04783565 7.95216435 -2 6 C-1.44444444 1.44444444 -1.44444444 1.44444444 0 0 Z " fill="#B5626F" transform="translate(168,190)"/>
<path d="M0 0 C0.66 0 1.32 0 2 0 C2 4.29 2 8.58 2 13 C3.32 13 4.64 13 6 13 C6 13.66 6 14.32 6 15 C4.02 15 2.04 15 0 15 C0 10.05 0 5.1 0 0 Z " fill="#666666" transform="translate(208,190)"/>
<path d="M0 0 C0.66 0 1.32 0 2 0 C1.67 5.28 1.34 10.56 1 16 C-2.09902323 12.90097677 -1.9898579 10.60852615 -2.0625 6.25 C-2.041875 5.1775 -2.02125 4.105 -2 3 C-1.34 3 -0.68 3 0 3 C0 2.01 0 1.02 0 0 Z " fill="#D02B31" transform="translate(15,184)"/>
<path d="M0 0 C2 1 2 1 3 3 C-0.96 5.97 -4.92 8.94 -9 12 C-9 9 -9 9 -7.03125 6.73828125 C-5.77828125 5.53751953 -5.77828125 5.53751953 -4.5 4.3125 C-3.6646875 3.50425781 -2.829375 2.69601563 -1.96875 1.86328125 C-1.3190625 1.24839844 -0.669375 0.63351563 0 0 Z " fill="#D6D6D6" transform="translate(178,85)"/>
<path d="M0 0 C1.27875 -0.061875 2.5575 -0.12375 3.875 -0.1875 C4.95394531 -0.23970703 4.95394531 -0.23970703 6.0546875 -0.29296875 C6.69664063 -0.19628906 7.33859375 -0.09960938 8 0 C10.17944188 3.26916282 10.23305854 3.86280386 9.8125 7.5625 C9.73644531 8.34753906 9.66039063 9.13257812 9.58203125 9.94140625 C9 12 9 12 6 14 C6 13.34 6 12.68 6 12 C4.35 12 2.7 12 1 12 C1 11.67 1 11.34 1 11 C2.98 10.67 4.96 10.34 7 10 C7 7.69 7 5.38 7 3 C4.69 2.34 2.38 1.68 0 1 C0 0.67 0 0.34 0 0 Z " fill="#CD2D37" transform="translate(96,85)"/>
<path d="M0 0 C0.99 0.33 1.98 0.66 3 1 C2.41992188 1.85271484 2.41992188 1.85271484 1.828125 2.72265625 C-1.31830553 7.38778468 -4.27618965 12.07618899 -7 17 C-7.66 15.68 -8.32 14.36 -9 13 C-7.68 12.34 -6.36 11.68 -5 11 C-5 9.68 -5 8.36 -5 7 C-4.34 7 -3.68 7 -3 7 C-2.690625 6.21625 -2.38125 5.4325 -2.0625 4.625 C-1 2 -1 2 0 0 Z " fill="#FCDDDD" transform="translate(27,113)"/>
<path d="M0 0 C0.33 0.66 0.66 1.32 1 2 C-2.08065427 5.25669165 -4.89806503 8.10679924 -9 10 C-11.15234375 9.5703125 -11.15234375 9.5703125 -13 9 C-11.71802734 8.15115234 -11.71802734 8.15115234 -10.41015625 7.28515625 C-9.2942305 6.54433159 -8.17834728 5.80344286 -7.0625 5.0625 C-6.49853516 4.68931641 -5.93457031 4.31613281 -5.35351562 3.93164062 C-2.53966389 2.14034283 -2.53966389 2.14034283 0 0 Z " fill="#FCDBDC" transform="translate(81,138)"/>
<path d="M0 0 C1.32 0.33 2.64 0.66 4 1 C4.625 3.375 4.625 3.375 5 6 C4.34 6.66 3.68 7.32 3 8 C2.01 8 1.02 8 0 8 C0 5.36 0 2.72 0 0 Z " fill="#D7D7D7" transform="translate(86,208)"/>
<path d="M0 0 C0.33 0 0.66 0 1 0 C1 4.62 1 9.24 1 14 C-0.32 14.33 -1.64 14.66 -3 15 C-3.33 15.66 -3.66 16.32 -4 17 C-4 16.34 -4 15.68 -4 15 C-4.99 14.67 -5.98 14.34 -7 14 C-6.01 13.67 -5.02 13.34 -4 13 C-3.34 12.67 -2.68 12.34 -2 12 C-1.30772968 9.19019327 -1.30772968 9.19019327 -0.875 5.9375 C-0.70742187 4.83277344 -0.53984375 3.72804687 -0.3671875 2.58984375 C-0.24601563 1.73519531 -0.12484375 0.88054687 0 0 Z " fill="#F8D9D9" transform="translate(173,191)"/>
<path d="M0 0 C0.33 0 0.66 0 1 0 C1 4.95 1 9.9 1 15 C0.34 15 -0.32 15 -1 15 C-1.66 15.66 -2.32 16.32 -3 17 C-3 16.34 -3 15.68 -3 15 C-3.66 14.67 -4.32 14.34 -5 14 C-4.52949219 13.62230469 -4.05898437 13.24460938 -3.57421875 12.85546875 C-1.50320971 10.41445314 -1.29313284 8.45509934 -0.8125 5.3125 C-0.65394531 4.31863281 -0.49539062 3.32476562 -0.33203125 2.30078125 C-0.22246094 1.54152344 -0.11289063 0.78226563 0 0 Z " fill="#E7E7E7" transform="translate(200,190)"/>
<path d="M0 0 C2.66673742 -0.02727345 5.33318869 -0.04696948 8 -0.0625 C8.74378906 -0.07087891 9.48757812 -0.07925781 10.25390625 -0.08789062 C15.26148844 -0.10966272 20.04279032 0.28458451 25 1 C25 1.33 25 1.66 25 2 C23.53626953 1.98259766 23.53626953 1.98259766 22.04296875 1.96484375 C20.77066406 1.95582031 19.49835938 1.94679688 18.1875 1.9375 C16.92292969 1.92589844 15.65835938 1.91429688 14.35546875 1.90234375 C11.00394763 1.83840884 11.00394763 1.83840884 8 3 C5.26187393 2.54451823 2.6798824 1.74685247 0 1 C0 0.67 0 0.34 0 0 Z " fill="#DA2129" transform="translate(96,79)"/>
<path d="M0 0 C0.99 0.33 1.98 0.66 3 1 C-2.42465753 7.78082192 -2.42465753 7.78082192 -6 10 C-6.66 10 -7.32 10 -8 10 C-6.34908222 5.70761377 -3.26245434 3.1206085 0 0 Z " fill="#1D1D1D" transform="translate(198,64)"/>
<path d="M0 0 C0.99 0.33 1.98 0.66 3 1 C3 1.66 3 2.32 3 3 C4.32 3.33 5.64 3.66 7 4 C5.02 4.66 3.04 5.32 1 6 C1 5.34 1 4.68 1 4 C-0.98 4.33 -2.96 4.66 -5 5 C-5.33 4.34 -5.66 3.68 -6 3 C-5.195625 2.690625 -4.39125 2.38125 -3.5625 2.0625 C-1.10919595 1.23664655 -1.10919595 1.23664655 0 0 Z " fill="#FBECEC" transform="translate(155,202)"/>
<path d="M0 0 C1.65 0 3.3 0 5 0 C5 1.98 5 3.96 5 6 C3.35 6.33 1.7 6.66 0 7 C0 4.69 0 2.38 0 0 Z " fill="#9F9F9F" transform="translate(236,190)"/>
<path d="M0 0 C1.32 1.32 2.64 2.64 4 4 C4.66 2.68 5.32 1.36 6 0 C7.24703266 3.74109799 6.45460854 4.44429023 5 8 C4.6186926 10.32597511 4.27539746 12.65912158 4 15 C3.67 15 3.34 15 3 15 C2 10 1 5 0 0 Z " fill="#5D5D5D" transform="translate(244,190)"/>
<path d="M0 0 C1.65 1.32 3.3 2.64 5 4 C4.34 4.66 3.68 5.32 3 6 C2.54188325 7.97235333 2.54188325 7.97235333 2.375 10.125 C2.25125 11.40375 2.1275 12.6825 2 14 C-0.07384637 11.71823587 -0.98397191 10.55676517 -1.07421875 7.421875 C-0.94660156 6.54015625 -0.81898438 5.6584375 -0.6875 4.75 C-0.56761719 3.85796875 -0.44773438 2.9659375 -0.32421875 2.046875 C-0.21722656 1.37140625 -0.11023438 0.6959375 0 0 Z " fill="#E0E0E0" transform="translate(191,214)"/>
<path d="M0 0 C0 3.52232517 -0.56731481 4.05751328 -2.8125 6.625 C-3.59560547 7.54152344 -3.59560547 7.54152344 -4.39453125 8.4765625 C-6 10 -6 10 -9 11 C-9 10.34 -9 9.68 -9 9 C-8.34 9 -7.68 9 -7 9 C-6.7834375 7.824375 -6.7834375 7.824375 -6.5625 6.625 C-6 4 -6 4 -5 2 C-3.67696283 1.6278958 -2.34262065 1.29369827 -1 1 C-0.67 0.67 -0.34 0.34 0 0 Z " fill="#D13440" transform="translate(129,102)"/>
<path d="M0 0 C0.33 0 0.66 0 1 0 C1 4.62 1 9.24 1 14 C0.34 12.68 -0.32 11.36 -1 10 C-1.99 10.33 -2.98 10.66 -4 11 C-3.625 8.0625 -3.625 8.0625 -3 5 C-2.34 4.67 -1.68 4.34 -1 4 C-0.34786708 1.97536745 -0.34786708 1.97536745 0 0 Z " fill="#D9D9D9" transform="translate(228,191)"/>
<path d="M0 0 C2.18975773 3.28463659 2.99806563 6.20696275 4 10 C3.34 10 2.68 10 2 10 C2 9.34 2 8.68 2 8 C1.01 8 0.02 8 -1 8 C-0.67 9.98 -0.34 11.96 0 14 C-0.66 13.34 -1.32 12.68 -2 12 C-1.66887313 7.89402683 -1.15559618 3.96204403 0 0 Z " fill="#FCD8D6" transform="translate(79,104)"/>
<path d="M0 0 C-0.1875 2.375 -0.1875 2.375 -1 5 C-3.5625 6.3125 -3.5625 6.3125 -6 7 C-6 6.34 -6 5.68 -6 5 C-6.99 4.67 -7.98 4.34 -9 4 C-2.25 0 -2.25 0 0 0 Z " fill="#DADADA" transform="translate(220,88)"/>
<path d="M0 0 C0.66 0 1.32 0 2 0 C3.625 2 3.625 2 5 4 C2.69 5.65 0.38 7.3 -2 9 C-2.125 5.625 -2.125 5.625 -2 2 C-1.34 1.34 -0.68 0.68 0 0 Z " fill="#1B1B1B" transform="translate(185,83)"/>
<path d="M0 0 C2.48046875 1.546875 2.48046875 1.546875 5 4 C5.48828125 7.453125 5.48828125 7.453125 5.3125 11.25 C5.26738281 12.51328125 5.22226562 13.7765625 5.17578125 15.078125 C5.11777344 16.04234375 5.05976562 17.0065625 5 18 C3 16 3 16 2.8046875 13.6171875 C2.83949219 12.25980469 2.83949219 12.25980469 2.875 10.875 C2.89304688 9.96492187 2.91109375 9.05484375 2.9296875 8.1171875 C2.95289063 7.41851562 2.97609375 6.71984375 3 6 C2.01 5.67 1.02 5.34 0 5 C0 3.35 0 1.7 0 0 Z " fill="#CE4B52" transform="translate(34,223)"/>
<path d="M0 0 C2 2 2 2 2.125 5.125 C2.08375 6.07375 2.0425 7.0225 2 8 C1.01 8.495 1.01 8.495 0 9 C0 8.34 0 7.68 0 7 C-0.99 7 -1.98 7 -3 7 C-3 5.35 -3 3.7 -3 2 C-2.01 2 -1.02 2 0 2 C0 1.34 0 0.68 0 0 Z " fill="#F2F2F2" transform="translate(206,196)"/>
<path d="M0 0 C0.33 1.32 0.66 2.64 1 4 C0.01 4.495 0.01 4.495 -1 5 C-1.28875 5.598125 -1.5775 6.19625 -1.875 6.8125 C-3.19965085 9.38820998 -4.89415861 11.03454804 -7 13 C-7.66 12.67 -8.32 12.34 -9 12 C-7.68858144 10.18671738 -6.37583526 8.37439486 -5.0625 6.5625 C-3.96615234 5.04849609 -3.96615234 5.04849609 -2.84765625 3.50390625 C-1 1 -1 1 0 0 Z " fill="#FAD2D2" transform="translate(35,149)"/>
<path d="M0 0 C1.80030122 2.70045182 2.93377066 5.06677881 4.125 8.0625 C4.47820312 8.94035156 4.83140625 9.81820312 5.1953125 10.72265625 C6 13 6 13 6 15 C5.34 15 4.68 15 4 15 C4 14.34 4 13.68 4 13 C3.01 13 2.02 13 1 13 C0.67 8.71 0.34 4.42 0 0 Z " fill="#D13C44" transform="translate(75,109)"/>
<path d="M0 0 C3.3721049 1.44518781 5.69880363 3.12350453 8 6 C8.25 8.75 8.25 8.75 8 11 C4.31993178 7.61831569 2.0214155 4.57478244 0 0 Z " fill="#D4293A" transform="translate(25,224)"/>
<path d="M0 0 C0.66 0 1.32 0 2 0 C2 0.99 2 1.98 2 3 C3.32 3.33 4.64 3.66 6 4 C5.21625 4.165 4.4325 4.33 3.625 4.5 C0.8906529 5.70396899 0.8906529 5.70396899 0.22265625 7.9140625 C-0.26413052 9.92516699 -0.63853255 11.962638 -1 14 C-1.33 14 -1.66 14 -2 14 C-1.85970581 11.8537974 -1.71261836 9.70803782 -1.5625 7.5625 C-1.48128906 6.36753906 -1.40007812 5.17257813 -1.31640625 3.94140625 C-1 1 -1 1 0 0 Z " fill="#B4B4B4" transform="translate(137,220)"/>
<path d="M0 0 C0.99 0 1.98 0 3 0 C3 2.97 3 5.94 3 9 C2.01 8.67 1.02 8.34 0 8 C-0.38063221 5.6739143 -0.71269945 3.33944736 -1 1 C-0.67 0.67 -0.34 0.34 0 0 Z " fill="#D4D4D4" transform="translate(74,208)"/>
<path d="M0 0 C0.66 0.33 1.32 0.66 2 1 C1.67 3.64 1.34 6.28 1 9 C-1.5 7.75 -1.5 7.75 -4 6 C-4 4.68 -4 3.36 -4 2 C-2.68 2 -1.36 2 0 2 C0 1.34 0 0.68 0 0 Z " fill="#FDE5E7" transform="translate(172,190)"/>
<path d="M0 0 C0.99 0.33 1.98 0.66 3 1 C3 2.32 3 3.64 3 5 C3.66 5 4.32 5 5 5 C5.66 7.64 6.32 10.28 7 13 C3.66366632 10.00880429 1.75472293 7.12359889 0 3 C0 2.01 0 1.02 0 0 Z " fill="#CD333B" transform="translate(81,107)"/>
<path d="M0 0 C1.98 0 3.96 0 6 0 C5.360625 0.165 4.72125 0.33 4.0625 0.5 C1.83880759 1.781786 1.83880759 1.781786 1.51171875 3.9140625 C1.2724022 5.93575155 1.13106972 7.96841939 1 10 C0.01 9.34 -0.98 8.68 -2 8 C-2.1875 4.875 -2.1875 4.875 -2 2 C-1.34 2 -0.68 2 0 2 C0 1.34 0 0.68 0 0 Z " fill="#FBD3CD" transform="translate(96,86)"/>
<path d="M0 0 C0.66 0 1.32 0 2 0 C2 6.27 2 12.54 2 19 C1.67 19 1.34 19 1 19 C0.67 16.36 0.34 13.72 0 11 C-0.66 11 -1.32 11 -2 11 C-1.67 10.484375 -1.34 9.96875 -1 9.4375 C0.32010877 6.21973488 0.13242105 3.4429472 0 0 Z " fill="#C2C2C2" transform="translate(98,208)"/>
<path d="M0 0 C2 1.25 2 1.25 4 3 C4 4.32 4 5.64 4 7 C2.68 7 1.36 7 0 7 C-0.33 7.66 -0.66 8.32 -1 9 C-1.99 9.495 -1.99 9.495 -3 10 C-3 9.01 -3 8.02 -3 7 C-2.34 7 -1.68 7 -1 7 C-1 6.34 -1 5.68 -1 5 C-0.34 5 0.32 5 1 5 C0.67 3.35 0.34 1.7 0 0 Z " fill="#F9DBDD" transform="translate(149,196)"/>
<path d="M0 0 C0 0.99 0 1.98 0 3 C-5.078125 6.3203125 -5.078125 6.3203125 -7 7 C-9.234375 6.1171875 -9.234375 6.1171875 -11 5 C-9.54462432 4.16151196 -8.08559627 3.32936066 -6.625 2.5 C-5.81289062 2.0359375 -5.00078125 1.571875 -4.1640625 1.09375 C-2 0 -2 0 0 0 Z " fill="#FAD8D8" transform="translate(111,121)"/>
<path d="M0 0 C0.66 0.33 1.32 0.66 2 1 C2 1.66 2 2.32 2 3 C-3.078125 6.3203125 -3.078125 6.3203125 -5 7 C-7.234375 6.1171875 -7.234375 6.1171875 -9 5 C-7.54735962 4.1361871 -6.0876837 3.28419546 -4.625 2.4375 C-3.40683594 1.72400391 -3.40683594 1.72400391 -2.1640625 0.99609375 C-1.44992188 0.66738281 -0.73578125 0.33867188 0 0 Z " fill="#323232" transform="translate(178,107)"/>
<path d="M0 0 C0.66 0.33 1.32 0.66 2 1 C2 1.66 2 2.32 2 3 C0.73308493 3.67408308 -0.53870749 4.33900497 -1.8125 5 C-2.52019531 5.37125 -3.22789062 5.7425 -3.95703125 6.125 C-6 7 -6 7 -9 7 C-9 6.34 -9 5.68 -9 5 C-7.54735962 4.1361871 -6.0876837 3.28419546 -4.625 2.4375 C-3.40683594 1.72400391 -3.40683594 1.72400391 -2.1640625 0.99609375 C-1.44992188 0.66738281 -0.73578125 0.33867188 0 0 Z " fill="#CDCDCD" transform="translate(187,105)"/>
<path d="M0 0 C0.99 0 1.98 0 3 0 C3 3.96 3 7.92 3 12 C2.01 12 1.02 12 0 12 C0 8.04 0 4.08 0 0 Z " fill="#FEDFE1" transform="translate(159,191)"/>
<path d="M0 0 C0 0.66 0 1.32 0 2 C-1.26691507 2.67408308 -2.53870749 3.33900497 -3.8125 4 C-4.52019531 4.37125 -5.22789062 4.7425 -5.95703125 5.125 C-8 6 -8 6 -11 6 C-11 5.34 -11 4.68 -11 4 C-4.5 0 -4.5 0 0 0 Z " fill="#232323" transform="translate(171,113)"/>
<path d="M0 0 C0.66 0.33 1.32 0.66 2 1 C-1.70090521 4.9252025 -5.54959656 7.94580156 -10 11 C-10 10.01 -10 9.02 -10 8 C-7.8125 5.95703125 -7.8125 5.95703125 -5 3.8125 C-4.071875 3.09707031 -3.14375 2.38164063 -2.1875 1.64453125 C-1.1046875 0.83048828 -1.1046875 0.83048828 0 0 Z " fill="#D3D3D3" transform="translate(197,80)"/>
<path d="M0 0 C-0.598125 0.2475 -1.19625 0.495 -1.8125 0.75 C-4.32312572 2.18464327 -5.35944105 3.64615455 -7 6 C-7.98165594 7.01801357 -8.97591432 8.0246803 -10 9 C-10.33 8.34 -10.66 7.68 -11 7 C-8.34677071 1.69354141 -5.99574308 -0.32409422 0 0 Z " fill="#353535" transform="translate(179,213)"/>
<path d="M0 0 C1.32 0 2.64 0 4 0 C4 2.31 4 4.62 4 7 C2.68 7 1.36 7 0 7 C0 4.69 0 2.38 0 0 Z " fill="#F9E1DE" transform="translate(176,198)"/>
<path d="M0 0 C0.99 0.33 1.98 0.66 3 1 C0.83385197 3.30874711 -1.39206608 5.05290181 -4.0625 6.75 C-5.10083984 7.42289063 -5.10083984 7.42289063 -6.16015625 8.109375 C-6.76730469 8.40328125 -7.37445313 8.6971875 -8 9 C-8.66 8.67 -9.32 8.34 -10 8 C-8.40629329 6.63353852 -6.79967018 5.28212834 -5.1875 3.9375 C-4.29417969 3.18339844 -3.40085938 2.42929688 -2.48046875 1.65234375 C-1.25263672 0.83443359 -1.25263672 0.83443359 0 0 Z " fill="#ABABAB" transform="translate(137,127)"/>
<path d="M0 0 C0.66 0.66 1.32 1.32 2 2 C-2.455 3.485 -2.455 3.485 -7 5 C-5.48890239 2.6577987 -4.53902092 1.22867554 -1.9375 0.125 C-1.298125 0.08375 -0.65875 0.0425 0 0 Z M-9 5 C-8.34 5.33 -7.68 5.66 -7 6 C-8.65 7.32 -10.3 8.64 -12 10 C-10.125 6.125 -10.125 6.125 -9 5 Z " fill="#070707" transform="translate(161,105)"/>
<path d="M0 0 C0.99 0.33 1.98 0.66 3 1 C-0.33333333 4.33333333 -3.66666667 7.66666667 -7 11 C-6.33333333 8.33333333 -5.66666667 5.66666667 -5 3 C-4.360625 2.87625 -3.72125 2.7525 -3.0625 2.625 C-2.0415625 2.315625 -2.0415625 2.315625 -1 2 C-0.67 1.34 -0.34 0.68 0 0 Z " fill="#CC2E3B" transform="translate(38,143)"/>
<path d="M0 0 C0.66 0.33 1.32 0.66 2 1 C0.60667426 4.36720387 -0.9789286 5.9859524 -4 8 C-4.66 7.34 -5.32 6.68 -6 6 C-4.02 4.02 -2.04 2.04 0 0 Z " fill="#2F2F2F" transform="translate(173,86)"/>
<path d="M0 0 C0 0.66 0 1.32 0 2 C-0.66 2 -1.32 2 -2 2 C-1.67 4.31 -1.34 6.62 -1 9 C-1.66 9 -2.32 9 -3 9 C-5.1519437 5.77208445 -5.20086443 4.71599191 -5 1 C-3 0 -3 0 0 0 Z " fill="#D92F3C" transform="translate(96,86)"/>
<path d="M0 0 C0.33 0 0.66 0 1 0 C1.27615058 1.59987236 1.52007625 3.205333 1.75 4.8125 C1.88921875 5.70582031 2.0284375 6.59914062 2.171875 7.51953125 C2 10 2 10 0.015625 11.82421875 C-0.98210937 12.40623047 -0.98210937 12.40623047 -2 13 C-2.99 12.34 -3.98 11.68 -5 11 C-4.01 11 -3.02 11 -2 11 C-2 10.01 -2 9.02 -2 8 C-1.34 8 -0.68 8 0 8 C0 5.36 0 2.72 0 0 Z " fill="#CDCDCD" transform="translate(238,223)"/>
<path d="M0 0 C1.485 0.99 1.485 0.99 3 2 C3.1875 5.625 3.1875 5.625 3 9 C2.01 9 1.02 9 0 9 C0 6.03 0 3.06 0 0 Z " fill="#E9E9E9" transform="translate(235,222)"/>
<path d="M0 0 C1.32 0 2.64 0 4 0 C4 1.32 4 2.64 4 4 C5.32 4.33 6.64 4.66 8 5 C6.35 5 4.7 5 3 5 C2.67 4.34 2.34 3.68 2 3 C1.34 3 0.68 3 0 3 C0 4.98 0 6.96 0 9 C-0.33 9 -0.66 9 -1 9 C-1.125 2.25 -1.125 2.25 0 0 Z " fill="#C0C0C0" transform="translate(202,218)"/>
<path d="M0 0 C0.99 0.33 1.98 0.66 3 1 C3 1.66 3 2.32 3 3 C-2.2734375 6.22265625 -2.2734375 6.22265625 -4 7 C-4.66 6.67 -5.32 6.34 -6 6 C-4.02 4.02 -2.04 2.04 0 0 Z " fill="#C33C49" transform="translate(58,149)"/>
<path d="M0 0 C1.32 1.32 2.64 2.64 4 4 C3.1875 6.4375 3.1875 6.4375 2 9 C1.01 9.33 0.02 9.66 -1 10 C-1.33 9.01 -1.66 8.02 -2 7 C-1.34 6.67 -0.68 6.34 0 6 C0 4.02 0 2.04 0 0 Z " fill="#D33440" transform="translate(83,127)"/>
<path d="M0 0 C0.99 0 1.98 0 3 0 C3 0.66 3 1.32 3 2 C3.66 2 4.32 2 5 2 C5 3.98 5 5.96 5 8 C4.01 8.495 4.01 8.495 3 9 C2.67 7.02 2.34 5.04 2 3 C1.34 3 0.68 3 0 3 C0 2.01 0 1.02 0 0 Z " fill="#FAF8F6" transform="translate(78,112)"/>
<path d="M0 0 C0.99 0.33 1.98 0.66 3 1 C0.14723863 3.93200474 -2.65079784 6.64315404 -6 9 C-6 5 -6 5 -3.1875 2.1875 C-2.135625 1.465625 -1.08375 0.74375 0 0 Z " fill="#F9F8F1" transform="translate(42,144)"/>
<path d="M0 0 C0.33 0.99 0.66 1.98 1 3 C0.195625 3.763125 -0.60875 4.52625 -1.4375 5.3125 C-4.16799024 7.79430898 -4.16799024 7.79430898 -5 11 C-5.66 11 -6.32 11 -7 11 C-5.5140084 6.40693504 -3.14985318 3.56430755 0 0 Z " fill="#CD3E4A" transform="translate(31,112)"/>
<path d="M0 0 C2.6875 -0.3125 2.6875 -0.3125 5 0 C4.375 1.9375 4.375 1.9375 3 4 C-0.125 4.75 -0.125 4.75 -3 5 C-1.8125 2.5 -1.8125 2.5 0 0 Z " fill="#EEEEEE" transform="translate(209,93)"/>
<path d="M0 0 C2.97 0 5.94 0 9 0 C5.32326162 1.83836919 1.95007553 2.93651813 -2 4 C-1.34 2.68 -0.68 1.36 0 0 Z " fill="#DC2531" transform="translate(82,80)"/>
<path d="M0 0 C4 5 4 5 8 10 C7.34 10.66 6.68 11.32 6 12 C5.566875 11.21625 5.13375 10.4325 4.6875 9.625 C3.10779753 6.78301625 3.10779753 6.78301625 0 5 C-0.1875 2.375 -0.1875 2.375 0 0 Z " fill="#FAC7C9" transform="translate(25,225)"/>
<path d="M0 0 C1.32 0 2.64 0 4 0 C4 1.65 4 3.3 4 5 C2.68 5.33 1.36 5.66 0 6 C0 4.02 0 2.04 0 0 Z " fill="#F3F3F3" transform="translate(273,223)"/>
<path d="M0 0 C0.66 0 1.32 0 2 0 C2 1.98 2 3.96 2 6 C2.99 6 3.98 6 5 6 C5 6.66 5 7.32 5 8 C3.35 8 1.7 8 0 8 C0 5.36 0 2.72 0 0 Z " fill="#646464" transform="translate(201,197)"/>
<path d="M0 0 C0.185625 0.9590625 0.185625 0.9590625 0.375 1.9375 C0.684375 2.9584375 0.684375 2.9584375 1 4 C1.66 4.33 2.32 4.66 3 5 C1.71034824 6.37562854 0.37310707 7.70766393 -1 9 C-1.66 9 -2.32 9 -3 9 C-2.44271087 5.65626525 -1.64826111 2.96687001 0 0 Z " fill="#F9CECE" transform="translate(25,162)"/>
<path d="M0 0 C-4.39453125 4.00390625 -4.39453125 4.00390625 -6 5 C-6.99 4.67 -7.98 4.34 -9 4 C-9 3.34 -9 2.68 -9 2 C-3.375 -1.125 -3.375 -1.125 0 0 Z " fill="#1A1A1A" transform="translate(163,108)"/>
<path d="M0 0 C0.66 0.33 1.32 0.66 2 1 C-0.97 3.475 -0.97 3.475 -4 6 C-5.32 5.34 -6.64 4.68 -8 4 C-6.71349294 3.30289269 -5.42059335 2.61757124 -4.125 1.9375 C-3.40570313 1.55464844 -2.68640625 1.17179688 -1.9453125 0.77734375 C-1.30335937 0.52082031 -0.66140625 0.26429688 0 0 Z " fill="#CACACA" transform="translate(88,160)"/>
<path d="M0 0 C2.31 0.66 4.62 1.32 7 2 C7 2.99 7 3.98 7 5 C5.02 5 3.04 5 1 5 C0.67 3.35 0.34 1.7 0 0 Z " fill="#D8272F" transform="translate(95,95)"/>
<path d="M0 0 C0.77772405 2.33317216 1.42415568 4.61435923 2 7 C0.68 7.33 -0.64 7.66 -2 8 C-2 5.69 -2 3.38 -2 1 C-1.34 0.67 -0.68 0.34 0 0 Z " fill="#FCFCFC" transform="translate(204,220)"/>
<path d="M0 0 C0.99 0.66 1.98 1.32 3 2 C1.02 4.31 -0.96 6.62 -3 9 C-3.33 7.68 -3.66 6.36 -4 5 C-2.0625 2.25 -2.0625 2.25 0 0 Z " fill="#FCDEDC" transform="translate(35,103)"/>
<path d="M0 0 C0.6875 1.6875 0.6875 1.6875 1 4 C-0.4375 6.75 -0.4375 6.75 -2 9 C-2.66 7.68 -3.32 6.36 -4 5 C-3.34 5 -2.68 5 -2 5 C-1.7834375 4.0409375 -1.7834375 4.0409375 -1.5625 3.0625 C-1 1 -1 1 0 0 Z " fill="#D42733" transform="translate(133,93)"/>
<path d="M0 0 C0.66 0 1.32 0 2 0 C2.33 0.99 2.66 1.98 3 3 C2.01 3.33 1.02 3.66 0 4 C-0.66 4.66 -1.32 5.32 -2 6 C-2 5.34 -2 4.68 -2 4 C-3.98 4 -5.96 4 -8 4 C-8 3.67 -8 3.34 -8 3 C-5.36 2.67 -2.72 2.34 0 2 C0 1.34 0 0.68 0 0 Z " fill="#ADADAD" transform="translate(276,231)"/>
<path d="M0 0 C2.83022097 3.99560608 1.76210446 7.42737323 1 12 C0.71125 11.38125 0.4225 10.7625 0.125 10.125 C-0.93720042 7.86674235 -0.93720042 7.86674235 -3 6 C-2.34 6 -1.68 6 -1 6 C-0.67 4.02 -0.34 2.04 0 0 Z " fill="#B8B8B8" transform="translate(167,216)"/>
<path d="M0 0 C0.82810826 3.31243305 1.09278428 5.65976579 1 9 C-0.98 9.99 -0.98 9.99 -3 11 C-2.01 7.37 -1.02 3.74 0 0 Z " fill="#FCCED0" transform="translate(138,85)"/>
<path d="M0 0 C-0.598125 0.268125 -1.19625 0.53625 -1.8125 0.8125 C-4.04327908 1.8893979 -4.04327908 1.8893979 -5.625 3.625 C-6.07875 4.07875 -6.5325 4.5325 -7 5 C-9 5 -9 5 -12 4 C-4.71428571 -0.57142857 -4.71428571 -0.57142857 0 0 Z " fill="#333333" transform="translate(232,80)"/>
<path d="M0 0 C2.31 0.33 4.62 0.66 7 1 C6.01 2.485 6.01 2.485 5 4 C2.03 3.505 2.03 3.505 -1 3 C-0.67 2.01 -0.34 1.02 0 0 Z " fill="#E71A1F" transform="translate(97,80)"/>
<path d="M0 0 C0.93423645 3.01031744 1.04449911 3.86650268 0 7 C-0.99 7 -1.98 7 -3 7 C-3 5.35 -3 3.7 -3 2 C-2.34 2 -1.68 2 -1 2 C-0.67 1.34 -0.34 0.68 0 0 Z " fill="#DADADA" transform="translate(226,222)"/>
<path d="M0 0 C1 2 2 4 3 6 C2.67 6.66 2.34 7.32 2 8 C0.68 8 -0.64 8 -2 8 C-1.34 5.36 -0.68 2.72 0 0 Z " fill="#D0D0D0" transform="translate(146,215)"/>
<path d="M0 0 C0 1.65 0 3.3 0 5 C-0.33 3.68 -0.66 2.36 -1 1 C-3.64 1.66 -6.28 2.32 -9 3 C-9.33 2.34 -9.66 1.68 -10 1 C-6.78548731 -0.60725635 -3.56387464 -0.05748185 0 0 Z " fill="#3A3A3A" transform="translate(191,214)"/>
<path d="M0 0 C0.66 0.33 1.32 0.66 2 1 C1.67 2.65 1.34 4.3 1 6 C-0.65 6 -2.3 6 -4 6 C-3.34 5.67 -2.68 5.34 -2 5 C-2.33 3.68 -2.66 2.36 -3 1 C-2.01 0.67 -1.02 0.34 0 0 Z " fill="#212121" transform="translate(89,215)"/>
<path d="M0 0 C1.11375 0.3403125 1.11375 0.3403125 2.25 0.6875 C2.25 1.6775 2.25 2.6675 2.25 3.6875 C-0.72 3.3575 -3.69 3.0275 -6.75 2.6875 C-4.29511132 0.41445492 -3.41240272 -0.38777304 0 0 Z " fill="#C9C9C9" transform="translate(251.75,211.3125)"/>
<path d="M0 0 C0.99 0 1.98 0 3 0 C3 1.98 3 3.96 3 6 C2.01 6 1.02 6 0 6 C0 4.02 0 2.04 0 0 Z " fill="#FEECEE" transform="translate(176,190)"/>
<path d="M0 0 C0.99 0.33 1.98 0.66 3 1 C3 3.64 3 6.28 3 9 C0.23776722 6.23776722 0.42143709 3.79293383 0 0 Z " fill="#C44449" transform="translate(13,191)"/>
<path d="M0 0 C0.33 0.66 0.66 1.32 1 2 C-1.31 2.33 -3.62 2.66 -6 3 C-6 2.01 -6 1.02 -6 0 C-2.25 -1.125 -2.25 -1.125 0 0 Z " fill="#F0181B" transform="translate(101,121)"/>
<path d="M0 0 C0.99 0 1.98 0 3 0 C3 2.97 3 5.94 3 9 C0.87491756 5.81237635 0.4979837 3.73487777 0 0 Z " fill="#D33742" transform="translate(78,98)"/>
<path d="M0 0 C0.33 0 0.66 0 1 0 C1.1875 3.375 1.1875 3.375 1 7 C0.01 7.66 -0.98 8.32 -2 9 C-2 8.34 -2 7.68 -2 7 C-3.65 7 -5.3 7 -7 7 C-7 6.67 -7 6.34 -7 6 C-5.02 5.67 -3.04 5.34 -1 5 C-0.67 3.35 -0.34 1.7 0 0 Z " fill="#E14C54" transform="translate(104,90)"/>
<path d="M0 0 C1.32 0.33 2.64 0.66 4 1 C2.68 2.32 1.36 3.64 0 5 C-0.99 4.67 -1.98 4.34 -3 4 C-2.01 2.68 -1.02 1.36 0 0 Z " fill="#E7E7E7" transform="translate(182,82)"/>
<path d="M0 0 C0.33 0 0.66 0 1 0 C1 2.97 1 5.94 1 9 C-3 7 -3 7 -4 5 C-2.68 5.33 -1.36 5.66 0 6 C0 4.02 0 2.04 0 0 Z " fill="#C82A33" transform="translate(37,230)"/>
<path d="M0 0 C2.64 0 5.28 0 8 0 C7.34 1.32 6.68 2.64 6 4 C1.125 2.25 1.125 2.25 0 0 Z " fill="#CA4655" transform="translate(36,218)"/>
<path d="M0 0 C0.99 0.33 1.98 0.66 3 1 C2.67 2.98 2.34 4.96 2 7 C1.34 7 0.68 7 0 7 C0 4.69 0 2.38 0 0 Z " fill="#F8F8F8" transform="translate(194,194)"/>
<path d="M0 0 C1.32 0 2.64 0 4 0 C4 1.65 4 3.3 4 5 C2.68 4.67 1.36 4.34 0 4 C0 2.68 0 1.36 0 0 Z " fill="#F9F9F9" transform="translate(231,192)"/>
<path d="M0 0 C1.32 0.33 2.64 0.66 4 1 C2.35 2.98 0.7 4.96 -1 7 C-1.66 6.67 -2.32 6.34 -3 6 C-2.34 5.34 -1.68 4.68 -1 4 C-0.3574765 1.93125966 -0.3574765 1.93125966 0 0 Z " fill="#AFAFAF" transform="translate(66,178)"/>
<path d="M0 0 C0.66 0.33 1.32 0.66 2 1 C0.68 2.32 -0.64 3.64 -2 5 C-2.99 4.67 -3.98 4.34 -5 4 C-3.36587557 2.29159719 -2.13093906 1.06546953 0 0 Z " fill="#191919" transform="translate(90,156)"/>
<path d="M0 0 C0.99 0.66 1.98 1.32 3 2 C1.02 4.97 1.02 4.97 -1 8 C-1.93065133 5.39417629 -2.14917407 4.35801776 -1.0625 1.75 C-0.711875 1.1725 -0.36125 0.595 0 0 Z " fill="#D23743" transform="translate(28,153)"/>
<path d="M0 0 C0.66 0 1.32 0 2 0 C2.33 1.32 2.66 2.64 3 4 C2.01 4.33 1.02 4.66 0 5 C-0.66 4.67 -1.32 4.34 -2 4 C-1.34 2.68 -0.68 1.36 0 0 Z " fill="#F9F9FC" transform="translate(86,123)"/>
<path d="M0 0 C0.66 0.33 1.32 0.66 2 1 C0.35 2.65 -1.3 4.3 -3 6 C-3.99 5.67 -4.98 5.34 -6 5 C-4.02 3.35 -2.04 1.7 0 0 Z " fill="#DDDDDD" transform="translate(159,110)"/>
<path d="M0 0 C0.99 0.33 1.98 0.66 3 1 C1.35 2.65 -0.3 4.3 -2 6 C-2.33 5.01 -2.66 4.02 -3 3 C-2.01 2.01 -1.02 1.02 0 0 Z " fill="#191919" transform="translate(207,56)"/>
</svg>
