<svg width="148" height="41" viewBox="0 0 148 41" fill="none" xmlns="http://www.w3.org/2000/svg">
<path d="M2.02273 23.2727V0H11.2045C12.9621 0 14.4621 0.314394 15.7045 0.943182C16.9545 1.56439 17.9053 2.44697 18.5568 3.59091C19.2159 4.72727 19.5455 6.06439 19.5455 7.60227C19.5455 9.14773 19.2121 10.4773 18.5455 11.5909C17.8788 12.697 16.9129 13.5455 15.6477 14.1364C14.3902 14.7273 12.8674 15.0227 11.0795 15.0227H4.93182V11.0682H10.2841C11.2235 11.0682 12.0038 10.9394 12.625 10.6818C13.2462 10.4242 13.7083 10.0379 14.0114 9.52273C14.322 9.00758 14.4773 8.36742 14.4773 7.60227C14.4773 6.82955 14.322 6.17803 14.0114 5.64773C13.7083 5.11742 13.2424 4.71591 12.6136 4.44318C11.9924 4.16288 11.2083 4.02273 10.2614 4.02273H6.94318V23.2727H2.02273ZM14.5909 12.6818L20.375 23.2727H14.9432L9.28409 12.6818H14.5909Z" fill="#EE2E31"/>
<path d="M30.1548 12.9105C30.098 12.3376 29.8542 11.8925 29.4233 11.5753C28.9924 11.258 28.4077 11.0994 27.669 11.0994C27.1671 11.0994 26.7434 11.1705 26.3977 11.3125C26.0521 11.4498 25.7869 11.6416 25.6023 11.8878C25.4223 12.134 25.3324 12.4134 25.3324 12.7259C25.3229 12.9863 25.3774 13.2135 25.4957 13.4077C25.6188 13.6018 25.7869 13.7699 26 13.9119C26.2131 14.0492 26.4593 14.17 26.7386 14.2741C27.018 14.3736 27.3163 14.4588 27.6335 14.5298L28.9403 14.8423C29.5748 14.9844 30.1572 15.1738 30.6875 15.4105C31.2178 15.6473 31.6771 15.9384 32.0653 16.2841C32.4536 16.6297 32.7543 17.0369 32.9673 17.5057C33.1851 17.9744 33.2964 18.5118 33.3011 19.1179C33.2964 20.008 33.0691 20.7798 32.6193 21.4332C32.1742 22.0819 31.5303 22.5862 30.6875 22.946C29.8494 23.3011 28.8385 23.4787 27.6548 23.4787C26.4806 23.4787 25.4579 23.2988 24.5866 22.9389C23.7202 22.5791 23.0431 22.0464 22.5554 21.3409C22.0724 20.6307 21.8191 19.7524 21.7955 18.706H24.7713C24.8045 19.1937 24.9441 19.6009 25.1903 19.9276C25.4413 20.2495 25.7751 20.4934 26.1918 20.6591C26.6132 20.8201 27.089 20.9006 27.6193 20.9006C28.1402 20.9006 28.5923 20.8248 28.9759 20.6733C29.3641 20.5218 29.6648 20.3111 29.8778 20.0412C30.0909 19.7713 30.1974 19.4612 30.1974 19.1108C30.1974 18.7841 30.1004 18.5095 29.9062 18.2869C29.7169 18.0644 29.4375 17.875 29.0682 17.7188C28.7036 17.5625 28.2562 17.4205 27.7259 17.2926L26.142 16.8949C24.9157 16.5966 23.9474 16.1302 23.2372 15.4957C22.527 14.8613 22.1742 14.0066 22.179 12.9318C22.1742 12.0511 22.4086 11.2817 22.8821 10.6236C23.3603 9.96544 24.0161 9.45171 24.8494 9.08239C25.6828 8.71307 26.6297 8.52841 27.6903 8.52841C28.7699 8.52841 29.7121 8.71307 30.517 9.08239C31.3267 9.45171 31.9564 9.96544 32.4062 10.6236C32.8561 11.2817 33.0881 12.044 33.1023 12.9105H30.1548ZM38.445 8.72727V23.2727H35.3697V8.72727H38.445ZM48.8658 12.9105C48.8089 12.3376 48.5651 11.8925 48.1342 11.5753C47.7034 11.258 47.1186 11.0994 46.38 11.0994C45.8781 11.0994 45.4543 11.1705 45.1087 11.3125C44.763 11.4498 44.4979 11.6416 44.3132 11.8878C44.1333 12.134 44.0433 12.4134 44.0433 12.7259C44.0339 12.9863 44.0883 13.2135 44.2067 13.4077C44.3298 13.6018 44.4979 13.7699 44.7109 13.9119C44.924 14.0492 45.1702 14.17 45.4496 14.2741C45.7289 14.3736 46.0272 14.4588 46.3445 14.5298L47.6513 14.8423C48.2857 14.9844 48.8681 15.1738 49.3984 15.4105C49.9287 15.6473 50.388 15.9384 50.7763 16.2841C51.1645 16.6297 51.4652 17.0369 51.6783 17.5057C51.8961 17.9744 52.0073 18.5118 52.0121 19.1179C52.0073 20.008 51.7801 20.7798 51.3303 21.4332C50.8852 22.0819 50.2412 22.5862 49.3984 22.946C48.5604 23.3011 47.5495 23.4787 46.3658 23.4787C45.1915 23.4787 44.1688 23.2988 43.2976 22.9389C42.4311 22.5791 41.754 22.0464 41.2663 21.3409C40.7834 20.6307 40.5301 19.7524 40.5064 18.706H43.4822C43.5154 19.1937 43.6551 19.6009 43.9013 19.9276C44.1522 20.2495 44.486 20.4934 44.9027 20.6591C45.3241 20.8201 45.8 20.9006 46.3303 20.9006C46.8511 20.9006 47.3033 20.8248 47.6868 20.6733C48.075 20.5218 48.3757 20.3111 48.5888 20.0412C48.8018 19.7713 48.9084 19.4612 48.9084 19.1108C48.9084 18.7841 48.8113 18.5095 48.6172 18.2869C48.4278 18.0644 48.1484 17.875 47.7791 17.7188C47.4145 17.5625 46.9671 17.4205 46.4368 17.2926L44.853 16.8949C43.6267 16.5966 42.6584 16.1302 41.9482 15.4957C41.2379 14.8613 40.8852 14.0066 40.8899 12.9318C40.8852 12.0511 41.1196 11.2817 41.593 10.6236C42.0713 9.96544 42.727 9.45171 43.5604 9.08239C44.3937 8.71307 45.3407 8.52841 46.4013 8.52841C47.4808 8.52841 48.4231 8.71307 49.228 9.08239C50.0376 9.45171 50.6674 9.96544 51.1172 10.6236C51.567 11.2817 51.799 12.044 51.8132 12.9105H48.8658ZM53.5266 11.2628V8.72727H65.4727V11.2628H61.0195V23.2727H57.9798V11.2628H53.5266ZM67.44 23.2727V8.72727H77.2411V11.2628H70.5153V14.7287H76.7369V17.2642H70.5153V20.7372H77.2695V23.2727H67.44ZM79.6861 8.72727H83.4787L87.4844 18.5H87.6548L91.6605 8.72727H95.4531V23.2727H92.4702V13.8054H92.3494L88.5852 23.2017H86.554L82.7898 13.7699H82.669V23.2727H79.6861V8.72727ZM105.877 12.9105C105.821 12.3376 105.577 11.8925 105.146 11.5753C104.715 11.258 104.13 11.0994 103.392 11.0994C102.89 11.0994 102.466 11.1705 102.12 11.3125C101.775 11.4498 101.51 11.6416 101.325 11.8878C101.145 12.134 101.055 12.4134 101.055 12.7259C101.046 12.9863 101.1 13.2135 101.218 13.4077C101.342 13.6018 101.51 13.7699 101.723 13.9119C101.936 14.0492 102.182 14.17 102.461 14.2741C102.741 14.3736 103.039 14.4588 103.356 14.5298L104.663 14.8423C105.297 14.9844 105.88 15.1738 106.41 15.4105C106.94 15.6473 107.4 15.9384 107.788 16.2841C108.176 16.6297 108.477 17.0369 108.69 17.5057C108.908 17.9744 109.019 18.5118 109.024 19.1179C109.019 20.008 108.792 20.7798 108.342 21.4332C107.897 22.0819 107.253 22.5862 106.41 22.946C105.572 23.3011 104.561 23.4787 103.377 23.4787C102.203 23.4787 101.181 23.2988 100.309 22.9389C99.4428 22.5791 98.7657 22.0464 98.2781 21.3409C97.7951 20.6307 97.5418 19.7524 97.5181 18.706H100.494C100.527 19.1937 100.667 19.6009 100.913 19.9276C101.164 20.2495 101.498 20.4934 101.914 20.6591C102.336 20.8201 102.812 20.9006 103.342 20.9006C103.863 20.9006 104.315 20.8248 104.699 20.6733C105.087 20.5218 105.387 20.3111 105.6 20.0412C105.814 19.7713 105.92 19.4612 105.92 19.1108C105.92 18.7841 105.823 18.5095 105.629 18.2869C105.44 18.0644 105.16 17.875 104.791 17.7188C104.426 17.5625 103.979 17.4205 103.449 17.2926L101.865 16.8949C100.638 16.5966 99.6701 16.1302 98.9599 15.4957C98.2496 14.8613 97.8969 14.0066 97.9016 12.9318C97.8969 12.0511 98.1313 11.2817 98.6048 10.6236C99.083 9.96544 99.7388 9.45171 100.572 9.08239C101.405 8.71307 102.352 8.52841 103.413 8.52841C104.493 8.52841 105.435 8.71307 106.24 9.08239C107.049 9.45171 107.679 9.96544 108.129 10.6236C108.579 11.2817 108.811 12.044 108.825 12.9105H105.877Z" fill="#111111"/>
<path d="M5.82955 30.7273C5.77841 30.2955 5.57102 29.9602 5.20739 29.7216C4.84375 29.483 4.39773 29.3636 3.86932 29.3636C3.48295 29.3636 3.14489 29.4261 2.85511 29.5511C2.56818 29.6761 2.34375 29.848 2.18182 30.0668C2.02273 30.2855 1.94318 30.5341 1.94318 30.8125C1.94318 31.0455 1.99858 31.2457 2.10938 31.4134C2.22301 31.5781 2.3679 31.7159 2.54403 31.8267C2.72017 31.9347 2.90483 32.0241 3.09801 32.0952C3.29119 32.1634 3.46875 32.2188 3.63068 32.2614L4.51705 32.5C4.74432 32.5597 4.99716 32.642 5.27557 32.7472C5.55682 32.8523 5.82528 32.9957 6.08097 33.1776C6.33949 33.3565 6.55256 33.5866 6.72017 33.8679C6.88778 34.1491 6.97159 34.4943 6.97159 34.9034C6.97159 35.375 6.84801 35.8011 6.60085 36.1818C6.35653 36.5625 5.99858 36.8651 5.52699 37.0895C5.05824 37.3139 4.48864 37.4261 3.81818 37.4261C3.19318 37.4261 2.65199 37.3253 2.1946 37.1236C1.74006 36.9219 1.3821 36.6406 1.12074 36.2798C0.862216 35.919 0.715909 35.5 0.681818 35.0227H1.77273C1.80114 35.3523 1.91193 35.625 2.10511 35.8409C2.30114 36.054 2.5483 36.2131 2.84659 36.3182C3.14773 36.4205 3.47159 36.4716 3.81818 36.4716C4.22159 36.4716 4.58381 36.4063 4.90483 36.2756C5.22585 36.142 5.48011 35.9574 5.66761 35.7216C5.85511 35.483 5.94886 35.2045 5.94886 34.8864C5.94886 34.5966 5.8679 34.3608 5.70597 34.179C5.54403 33.9972 5.33097 33.8494 5.06676 33.7358C4.80256 33.6222 4.51705 33.5227 4.21023 33.4375L3.13636 33.1307C2.45455 32.9347 1.91477 32.6548 1.51705 32.2912C1.11932 31.9276 0.920455 31.4517 0.920455 30.8636C0.920455 30.375 1.05256 29.9489 1.31676 29.5852C1.58381 29.2188 1.94176 28.9347 2.39062 28.733C2.84233 28.5284 3.34659 28.4261 3.90341 28.4261C4.46591 28.4261 4.96591 28.527 5.40341 28.7287C5.84091 28.9276 6.1875 29.2003 6.44318 29.5469C6.7017 29.8935 6.83807 30.2869 6.85227 30.7273H5.82955ZM16.0728 32.9091C16.0728 33.8295 15.9066 34.625 15.5742 35.2955C15.2418 35.9659 14.7859 36.483 14.2063 36.8466C13.6268 37.2102 12.9648 37.392 12.2205 37.392C11.4762 37.392 10.8143 37.2102 10.2347 36.8466C9.65518 36.483 9.19922 35.9659 8.86683 35.2955C8.53445 34.625 8.36825 33.8295 8.36825 32.9091C8.36825 31.9886 8.53445 31.1932 8.86683 30.5227C9.19922 29.8523 9.65518 29.3352 10.2347 28.9716C10.8143 28.608 11.4762 28.4261 12.2205 28.4261C12.9648 28.4261 13.6268 28.608 14.2063 28.9716C14.7859 29.3352 15.2418 29.8523 15.5742 30.5227C15.9066 31.1932 16.0728 31.9886 16.0728 32.9091ZM15.0501 32.9091C15.0501 32.1534 14.9237 31.5156 14.6708 30.9957C14.4208 30.4759 14.0813 30.0824 13.6523 29.8153C13.2262 29.5483 12.7489 29.4148 12.2205 29.4148C11.6921 29.4148 11.2134 29.5483 10.7844 29.8153C10.3583 30.0824 10.0188 30.4759 9.76598 30.9957C9.51598 31.5156 9.39098 32.1534 9.39098 32.9091C9.39098 33.6648 9.51598 34.3026 9.76598 34.8224C10.0188 35.3423 10.3583 35.7358 10.7844 36.0028C11.2134 36.2699 11.6921 36.4034 12.2205 36.4034C12.7489 36.4034 13.2262 36.2699 13.6523 36.0028C14.0813 35.7358 14.4208 35.3423 14.6708 34.8224C14.9237 34.3026 15.0501 33.6648 15.0501 32.9091ZM17.8498 37.2727V28.5455H23.0827V29.483H18.9066V32.4318H22.6907V33.3693H18.9066V37.2727H17.8498ZM24.4155 29.483V28.5455H30.9609V29.483H28.2166V37.2727H27.1598V29.483H24.4155ZM34.1772 37.2727L31.7908 28.5455H32.8647L34.6886 35.6534H34.7738L36.6317 28.5455H37.8249L39.6829 35.6534H39.7681L41.592 28.5455H42.6658L40.2795 37.2727H39.1886L37.2624 30.3182H37.1942L35.2681 37.2727H34.1772ZM43.6609 37.2727H42.5529L45.7575 28.5455H46.8484L50.0529 37.2727H48.945L46.337 29.9261H46.2688L43.6609 37.2727ZM44.07 33.8636H48.5359V34.8011H44.07V33.8636ZM51.4123 37.2727V28.5455H54.3612C55.043 28.5455 55.6026 28.6619 56.0401 28.8949C56.4776 29.125 56.8015 29.4418 57.0117 29.8452C57.2219 30.2486 57.3271 30.7074 57.3271 31.2216C57.3271 31.7358 57.2219 32.1918 57.0117 32.5895C56.8015 32.9872 56.479 33.2997 56.0444 33.527C55.6097 33.7514 55.0543 33.8636 54.3782 33.8636H51.9918V32.9091H54.3441C54.81 32.9091 55.185 32.8409 55.4691 32.7045C55.756 32.5682 55.9634 32.375 56.0913 32.125C56.2219 31.8722 56.2873 31.571 56.2873 31.2216C56.2873 30.8722 56.2219 30.5668 56.0913 30.3054C55.9606 30.044 55.7518 29.8423 55.4648 29.7003C55.1779 29.5554 54.7987 29.483 54.3271 29.483H52.4691V37.2727H51.4123ZM55.5202 33.3523L57.668 37.2727H56.4407L54.3271 33.3523H55.5202ZM59.0881 37.2727V28.5455H64.3551V29.483H60.1449V32.4318H64.0824V33.3693H60.1449V36.3352H64.4233V37.2727H59.0881ZM69.6349 28.5455H70.8963L73.8622 35.7898H73.9645L76.9304 28.5455H78.1918V37.2727H77.2031V30.642H77.1179L74.3906 37.2727H73.4361L70.7088 30.642H70.6236V37.2727H69.6349V28.5455ZM80.6687 37.2727H79.5607L82.7653 28.5455H83.8562L87.0607 37.2727H85.9528L83.3448 29.9261H83.2766L80.6687 37.2727ZM81.0778 33.8636H85.5437V34.8011H81.0778V33.8636ZM95.3406 28.5455V37.2727H94.3178L89.5621 30.4205H89.4769V37.2727H88.4201V28.5455H89.4428L94.2156 35.4148H94.3008V28.5455H95.3406ZM97.8132 37.2727H96.7053L99.9098 28.5455H101.001L104.205 37.2727H103.097L100.489 29.9261H100.421L97.8132 37.2727ZM98.2223 33.8636H102.688V34.8011H98.2223V33.8636ZM111.12 31.2727C111.027 30.9858 110.903 30.7287 110.75 30.5014C110.599 30.2713 110.419 30.0753 110.208 29.9134C110.001 29.7514 109.765 29.6278 109.501 29.5426C109.237 29.4574 108.947 29.4148 108.632 29.4148C108.115 29.4148 107.645 29.5483 107.221 29.8153C106.798 30.0824 106.461 30.4759 106.211 30.9957C105.961 31.5156 105.836 32.1534 105.836 32.9091C105.836 33.6648 105.963 34.3026 106.216 34.8224C106.468 35.3423 106.811 35.7358 107.243 36.0028C107.674 36.2699 108.16 36.4034 108.7 36.4034C109.2 36.4034 109.64 36.2969 110.021 36.0838C110.404 35.8679 110.703 35.5639 110.916 35.1719C111.132 34.777 111.24 34.3125 111.24 33.7784L111.564 33.8466H108.939V32.9091H112.262V33.8466C112.262 34.5653 112.109 35.1903 111.802 35.7216C111.498 36.2528 111.078 36.6648 110.541 36.9574C110.007 37.2472 109.393 37.392 108.7 37.392C107.927 37.392 107.248 37.2102 106.663 36.8466C106.081 36.483 105.626 35.9659 105.299 35.2955C104.975 34.625 104.814 33.8295 104.814 32.9091C104.814 32.2188 104.906 31.598 105.091 31.0469C105.278 30.4929 105.542 30.0213 105.883 29.6321C106.224 29.2429 106.627 28.9446 107.093 28.7372C107.559 28.5298 108.072 28.4261 108.632 28.4261C109.092 28.4261 109.521 28.4957 109.919 28.6349C110.319 28.7713 110.676 28.9659 110.988 29.2188C111.304 29.4688 111.566 29.7685 111.777 30.1179C111.987 30.4645 112.132 30.8494 112.211 31.2727H111.12ZM114.072 28.5455H115.334L118.3 35.7898H118.402L121.368 28.5455H122.629V37.2727H121.641V30.642H121.555L118.828 37.2727H117.874L115.146 30.642H115.061V37.2727H114.072V28.5455ZM124.748 37.2727V28.5455H130.015V29.483H125.805V32.4318H129.743V33.3693H125.805V36.3352H130.083V37.2727H124.748ZM138.841 28.5455V37.2727H137.818L133.062 30.4205H132.977V37.2727H131.92V28.5455H132.943L137.716 35.4148H137.801V28.5455H138.841ZM140.478 29.483V28.5455H147.023V29.483H144.279V37.2727H143.222V29.483H140.478Z" fill="#111111"/>
</svg>
