<?xml version="1.0" encoding="UTF-8"?>
<svg version="1.1" xmlns="http://www.w3.org/2000/svg" width="250" height="53">
<path d="M0 0 C8.4459375 -0.12375 8.4459375 -0.12375 17.0625 -0.25 C19.7077771 -0.30462402 19.7077771 -0.30462402 22.40649414 -0.36035156 C23.82436918 -0.37204798 25.24225778 -0.38223755 26.66015625 -0.390625 C27.38005737 -0.41108887 28.0999585 -0.43155273 28.8416748 -0.45263672 C34.32478663 -0.45637117 37.4648161 0.9024526 42 4 C45.39620438 7.9922729 45.45877199 11.95506439 45.375 17 C45.38660156 17.69867187 45.39820313 18.39734375 45.41015625 19.1171875 C45.38490923 23.5774947 44.8307791 26.51596419 42 30 C39.8125 31.3125 39.8125 31.3125 38 32 C39.73031785 37.54488219 41.72208567 42.81244871 44.23046875 48.0546875 C45 50 45 50 45 53 C40.38 53 35.76 53 31 53 C29.66180502 50.3773768 28.3292849 47.75213401 27 45.125 C26.6184375 44.37863281 26.236875 43.63226563 25.84375 42.86328125 C25.4828125 42.14785156 25.121875 41.43242188 24.75 40.6953125 C24.41484375 40.03547363 24.0796875 39.37563477 23.734375 38.69580078 C23 37 23 37 23 35 C20.03 35 17.06 35 14 35 C14 40.94 14 46.88 14 53 C9.38 53 4.76 53 0 53 C0 35.51 0 18.02 0 0 Z M14 12 C14 15.3 14 18.6 14 22 C16.64590014 22.02684679 19.29153096 22.04676357 21.9375 22.0625 C22.69224609 22.07087891 23.44699219 22.07925781 24.22460938 22.08789062 C26.14994313 22.09652441 28.07535581 22.05224333 30 22 C31.20561184 21.01732141 31.20561184 21.01732141 31.09765625 19.15234375 C31.08605469 18.42144531 31.07445313 17.69054687 31.0625 16.9375 C31.041875 15.638125 31.02125 14.33875 31 13 C27.93466836 11.46733418 24.73245728 11.89723529 21.375 11.9375 C20.31539062 11.94426758 20.31539062 11.94426758 19.234375 11.95117188 C17.48954725 11.96296125 15.744763 11.98089676 14 12 Z " fill="#EE2E31" transform="translate(0,0)"/>
<path d="M0 0 C3.63 0 7.26 0 11 0 C12.3376655 3.12321008 13.67029736 6.24840189 15 9.375 C15.3815625 10.26445312 15.763125 11.15390625 16.15625 12.0703125 C16.5171875 12.92109375 16.878125 13.771875 17.25 14.6484375 C17.58515625 15.43395996 17.9203125 16.21948242 18.265625 17.02880859 C19 19 19 19 19 21 C19.66 21 20.32 21 21 21 C21.09152344 20.34644531 21.18304688 19.69289063 21.27734375 19.01953125 C22.23691061 15.01009781 23.87075611 11.43613647 25.5625 7.6875 C25.89185547 6.94693359 26.22121094 6.20636719 26.56054688 5.44335938 C27.36917123 3.62688438 28.18397116 1.81316069 29 0 C30.64574566 -0.02688151 32.29161413 -0.04634123 33.9375 -0.0625 C35.31228516 -0.07990234 35.31228516 -0.07990234 36.71484375 -0.09765625 C39 0 39 0 40 1 C40.08843793 3.44830426 40.11528752 5.86820599 40.09765625 8.31640625 C40.0962413 9.04746078 40.09482635 9.77851532 40.09336853 10.53172302 C40.08775408 12.87535632 40.07519922 15.21889539 40.0625 17.5625 C40.05748686 19.14778508 40.05292363 20.73307166 40.04882812 22.31835938 C40.03777997 26.2122761 40.02050572 30.10612205 40 34 C37.36 34 34.72 34 32 34 C31.67 28.06 31.34 22.12 31 16 C30.50628906 17.21558594 30.01257813 18.43117188 29.50390625 19.68359375 C28.85690291 21.2682831 28.2097603 22.85291559 27.5625 24.4375 C27.23701172 25.23994141 26.91152344 26.04238281 26.57617188 26.86914062 C26.26357422 27.63291016 25.95097656 28.39667969 25.62890625 29.18359375 C25.34088135 29.89056396 25.05285645 30.59753418 24.75610352 31.32592773 C24 33 24 33 23 34 C20.69 34 18.38 34 16 34 C13.69 28.39 11.38 22.78 9 17 C8.67 22.61 8.34 28.22 8 34 C5.36 34 2.72 34 0 34 C0 22.78 0 11.56 0 0 Z " fill="#020202" transform="translate(180,19)"/>
<path d="M0 0 C0.88365234 0.00902344 1.76730469 0.01804687 2.67773438 0.02734375 C4.84777359 0.05080363 7.01767247 0.08667135 9.1875 0.125 C9.1875 2.435 9.1875 4.745 9.1875 7.125 C8.05570313 7.18558594 6.92390625 7.24617188 5.7578125 7.30859375 C4.27602855 7.39299917 2.7942584 7.47764717 1.3125 7.5625 C0.19294922 7.62147461 0.19294922 7.62147461 -0.94921875 7.68164062 C-5.01236864 7.84073624 -5.01236864 7.84073624 -8.8125 9.125 C-8.8125 10.115 -8.8125 11.105 -8.8125 12.125 C-7.92046875 12.22296875 -7.0284375 12.3209375 -6.109375 12.421875 C-4.93890625 12.57140625 -3.7684375 12.7209375 -2.5625 12.875 C-1.40234375 13.01421875 -0.2421875 13.1534375 0.953125 13.296875 C4.56983724 14.22289311 5.88241338 15.24913003 8.1875 18.125 C9.71964888 21.18929776 9.41688548 23.7415642 9.1875 27.125 C7.4859351 30.95352104 6.03119977 32.57222995 2.1875 34.125 C0.00512695 34.36791992 0.00512695 34.36791992 -2.32421875 34.35546875 C-3.16404297 34.35353516 -4.00386719 34.35160156 -4.86914062 34.34960938 C-6.17141602 34.33124023 -6.17141602 34.33124023 -7.5 34.3125 C-8.37978516 34.31185547 -9.25957031 34.31121094 -10.16601562 34.31054688 C-16.67209943 34.26540057 -16.67209943 34.26540057 -17.8125 33.125 C-17.8125 31.145 -17.8125 29.165 -17.8125 27.125 C-11.5425 26.795 -5.2725 26.465 1.1875 26.125 C0.8575 24.805 0.5275 23.485 0.1875 22.125 C-0.70453125 22.02703125 -1.5965625 21.9290625 -2.515625 21.828125 C-3.68609375 21.67859375 -4.8565625 21.5290625 -6.0625 21.375 C-7.22265625 21.23578125 -8.3828125 21.0965625 -9.578125 20.953125 C-13.21398481 20.02220437 -14.54785575 19.07065899 -16.8125 16.125 C-18.01046491 11.89219064 -17.93723019 9.54769676 -16.6875 5.3125 C-12.90061422 -1.12520583 -6.72246094 -0.13033854 0 0 Z " fill="#020202" transform="translate(240.8125,18.875)"/>
<path d="M0 0 C0.88365234 0.00902344 1.76730469 0.01804687 2.67773438 0.02734375 C4.84777359 0.05080363 7.01767247 0.08667135 9.1875 0.125 C9.1875 2.435 9.1875 4.745 9.1875 7.125 C8.05570313 7.18558594 6.92390625 7.24617188 5.7578125 7.30859375 C4.27602855 7.39299917 2.7942584 7.47764717 1.3125 7.5625 C0.19294922 7.62147461 0.19294922 7.62147461 -0.94921875 7.68164062 C-5.01236864 7.84073624 -5.01236864 7.84073624 -8.8125 9.125 C-8.8125 10.115 -8.8125 11.105 -8.8125 12.125 C-7.92046875 12.22296875 -7.0284375 12.3209375 -6.109375 12.421875 C-4.93890625 12.57140625 -3.7684375 12.7209375 -2.5625 12.875 C-1.40234375 13.01421875 -0.2421875 13.1534375 0.953125 13.296875 C4.56983724 14.22289311 5.88241338 15.24913003 8.1875 18.125 C9.71964888 21.18929776 9.41688548 23.7415642 9.1875 27.125 C7.4859351 30.95352104 6.03119977 32.57222995 2.1875 34.125 C0.00512695 34.36791992 0.00512695 34.36791992 -2.32421875 34.35546875 C-3.16404297 34.35353516 -4.00386719 34.35160156 -4.86914062 34.34960938 C-6.17141602 34.33124023 -6.17141602 34.33124023 -7.5 34.3125 C-8.37978516 34.31185547 -9.25957031 34.31121094 -10.16601562 34.31054688 C-16.67209943 34.26540057 -16.67209943 34.26540057 -17.8125 33.125 C-17.8125 31.145 -17.8125 29.165 -17.8125 27.125 C-11.5425 26.795 -5.2725 26.465 1.1875 26.125 C0.8575 24.805 0.5275 23.485 0.1875 22.125 C-0.70453125 22.02703125 -1.5965625 21.9290625 -2.515625 21.828125 C-3.68609375 21.67859375 -4.8565625 21.5290625 -6.0625 21.375 C-7.22265625 21.23578125 -8.3828125 21.0965625 -9.578125 20.953125 C-13.21398481 20.02220437 -14.54785575 19.07065899 -16.8125 16.125 C-18.01046491 11.89219064 -17.93723019 9.54769676 -16.6875 5.3125 C-12.90061422 -1.12520583 -6.72246094 -0.13033854 0 0 Z " fill="#030303" transform="translate(109.8125,18.875)"/>
<path d="M0 0 C0.88365234 0.00902344 1.76730469 0.01804687 2.67773438 0.02734375 C4.84777359 0.05080363 7.01767247 0.08667135 9.1875 0.125 C9.1875 2.435 9.1875 4.745 9.1875 7.125 C8.05570313 7.18558594 6.92390625 7.24617188 5.7578125 7.30859375 C4.27602855 7.39299917 2.7942584 7.47764717 1.3125 7.5625 C0.19294922 7.62147461 0.19294922 7.62147461 -0.94921875 7.68164062 C-5.01236864 7.84073624 -5.01236864 7.84073624 -8.8125 9.125 C-8.8125 10.115 -8.8125 11.105 -8.8125 12.125 C-7.92046875 12.22296875 -7.0284375 12.3209375 -6.109375 12.421875 C-4.93890625 12.57140625 -3.7684375 12.7209375 -2.5625 12.875 C-1.40234375 13.01421875 -0.2421875 13.1534375 0.953125 13.296875 C4.56983724 14.22289311 5.88241338 15.24913003 8.1875 18.125 C9.71964888 21.18929776 9.41688548 23.7415642 9.1875 27.125 C7.4859351 30.95352104 6.03119977 32.57222995 2.1875 34.125 C0.00512695 34.36791992 0.00512695 34.36791992 -2.32421875 34.35546875 C-3.16404297 34.35353516 -4.00386719 34.35160156 -4.86914062 34.34960938 C-6.17141602 34.33124023 -6.17141602 34.33124023 -7.5 34.3125 C-8.37978516 34.31185547 -9.25957031 34.31121094 -10.16601562 34.31054688 C-16.67209943 34.26540057 -16.67209943 34.26540057 -17.8125 33.125 C-17.8125 31.145 -17.8125 29.165 -17.8125 27.125 C-11.5425 26.795 -5.2725 26.465 1.1875 26.125 C0.8575 24.805 0.5275 23.485 0.1875 22.125 C-0.70453125 22.02703125 -1.5965625 21.9290625 -2.515625 21.828125 C-3.68609375 21.67859375 -4.8565625 21.5290625 -6.0625 21.375 C-7.22265625 21.23578125 -8.3828125 21.0965625 -9.578125 20.953125 C-13.21398481 20.02220437 -14.54785575 19.07065899 -16.8125 16.125 C-18.01046491 11.89219064 -17.93723019 9.54769676 -16.6875 5.3125 C-12.90061422 -1.12520583 -6.72246094 -0.13033854 0 0 Z " fill="#030303" transform="translate(67.8125,18.875)"/>
<path d="M0 0 C7.59 0 15.18 0 23 0 C23 2.31 23 4.62 23 7 C18.05 7 13.1 7 8 7 C8 8.98 8 10.96 8 13 C12.95 13 17.9 13 23 13 C23 15.64 23 18.28 23 21 C18.05 21 13.1 21 8 21 C8 22.98 8 24.96 8 27 C12.95 27 17.9 27 23 27 C23 29.31 23 31.62 23 34 C15.41 34 7.82 34 0 34 C0 22.78 0 11.56 0 0 Z " fill="#020202" transform="translate(153,19)"/>
<path d="M0 0 C1.084021 0.00523682 2.16804199 0.01047363 3.28491211 0.01586914 C5.03964844 0.02070313 5.03964844 0.02070313 6.82983398 0.02563477 C8.67738281 0.03820312 8.67738281 0.03820312 10.56225586 0.05102539 C12.41560547 0.05779297 12.41560547 0.05779297 14.30639648 0.06469727 C17.37089703 0.07652931 20.43530307 0.09301366 23.49975586 0.11352539 C23.49975586 2.42352539 23.49975586 4.73352539 23.49975586 7.11352539 C20.52975586 7.11352539 17.55975586 7.11352539 14.49975586 7.11352539 C14.50761108 8.28709595 14.50761108 8.28709595 14.515625 9.484375 C14.53632692 13.00658373 14.54939424 16.52877969 14.56225586 20.05102539 C14.57063477 21.28272461 14.57901367 22.51442383 14.58764648 23.78344727 C14.59248047 25.53818359 14.59248047 25.53818359 14.59741211 27.32836914 C14.60526733 28.95440063 14.60526733 28.95440063 14.61328125 30.61328125 C14.49975586 33.11352539 14.49975586 33.11352539 13.49975586 34.11352539 C11.18975586 34.11352539 8.87975586 34.11352539 6.49975586 34.11352539 C6.16975586 25.53352539 5.83975586 16.95352539 5.49975586 8.11352539 C2.52975586 7.78352539 -0.44024414 7.45352539 -3.50024414 7.11352539 C-3.5427877 5.11397793 -3.54105197 3.11310903 -3.50024414 1.11352539 C-2.50024414 0.11352539 -2.50024414 0.11352539 0 0 Z " fill="#020202" transform="translate(125.500244140625,18.886474609375)"/>
<path d="M0 0 C2.64 0 5.28 0 8 0 C8 11.22 8 22.44 8 34 C5.36 34 2.72 34 0 34 C0 22.78 0 11.56 0 0 Z " fill="#0D0D0D" transform="translate(81,19)"/>
</svg>
