<svg width="148" height="41" viewBox="0 0 148 41" fill="none" xmlns="http://www.w3.org/2000/svg">
<path d="M2.02273 23.2729V0.000221252H11.2045C12.9621 0.000221252 14.4621 0.314615 15.7045 0.943403C16.9545 1.56462 17.9053 2.44719 18.5568 3.59113C19.2159 4.72749 19.5455 6.06461 19.5455 7.60249C19.5455 9.14795 19.2121 10.4775 18.5455 11.5911C17.8788 12.6972 16.9129 13.5457 15.6477 14.1366C14.3902 14.7275 12.8674 15.0229 11.0795 15.0229H4.93182V11.0684H10.2841C11.2235 11.0684 12.0038 10.9396 12.625 10.682C13.2462 10.4245 13.7083 10.0381 14.0114 9.52295C14.322 9.0078 14.4773 8.36765 14.4773 7.60249C14.4773 6.82977 14.322 6.17825 14.0114 5.64795C13.7083 5.11765 13.2424 4.71613 12.6136 4.4434C11.9924 4.1631 11.2083 4.02295 10.2614 4.02295H6.94318V23.2729H2.02273ZM14.5909 12.682L20.375 23.2729H14.9432L9.28409 12.682H14.5909Z" fill="#EE2E31"/>
<path d="M30.1548 12.9107C30.098 12.3378 29.8542 11.8927 29.4233 11.5755C28.9924 11.2583 28.4077 11.0997 27.669 11.0997C27.1671 11.0997 26.7434 11.1707 26.3977 11.3127C26.0521 11.45 25.7869 11.6418 25.6023 11.888C25.4223 12.1342 25.3324 12.4136 25.3324 12.7261C25.3229 12.9865 25.3774 13.2138 25.4957 13.4079C25.6188 13.602 25.7869 13.7701 26 13.9122C26.2131 14.0495 26.4593 14.1702 26.7386 14.2744C27.018 14.3738 27.3163 14.459 27.6335 14.5301L28.9403 14.8426C29.5748 14.9846 30.1572 15.174 30.6875 15.4107C31.2178 15.6475 31.6771 15.9387 32.0653 16.2843C32.4536 16.63 32.7543 17.0372 32.9673 17.5059C33.1851 17.9747 33.2964 18.5121 33.3011 19.1181C33.2964 20.0083 33.0691 20.7801 32.6193 21.4335C32.1742 22.0821 31.5303 22.5864 30.6875 22.9462C29.8494 23.3014 28.8385 23.4789 27.6548 23.4789C26.4806 23.4789 25.4579 23.299 24.5866 22.9391C23.7202 22.5793 23.0431 22.0466 22.5554 21.3411C22.0724 20.6309 21.8191 19.7526 21.7955 18.7062H24.7713C24.8045 19.1939 24.9441 19.6011 25.1903 19.9278C25.4413 20.2497 25.7751 20.4936 26.1918 20.6593C26.6132 20.8203 27.089 20.9008 27.6193 20.9008C28.1402 20.9008 28.5923 20.825 28.9759 20.6735C29.3641 20.522 29.6648 20.3113 29.8778 20.0414C30.0909 19.7715 30.1974 19.4614 30.1974 19.111C30.1974 18.7843 30.1004 18.5097 29.9062 18.2872C29.7169 18.0646 29.4375 17.8752 29.0682 17.719C28.7036 17.5627 28.2562 17.4207 27.7259 17.2928L26.142 16.8951C24.9157 16.5968 23.9474 16.1304 23.2372 15.496C22.527 14.8615 22.1742 14.0069 22.179 12.932C22.1742 12.0514 22.4086 11.2819 22.8821 10.6238C23.3603 9.96566 24.0161 9.45193 24.8494 9.08261C25.6828 8.71329 26.6297 8.52863 27.6903 8.52863C28.7699 8.52863 29.7121 8.71329 30.517 9.08261C31.3267 9.45193 31.9564 9.96566 32.4062 10.6238C32.8561 11.2819 33.0881 12.0443 33.1023 12.9107H30.1548ZM38.445 8.72749V23.2729H35.3697V8.72749H38.445ZM48.8658 12.9107C48.8089 12.3378 48.5651 11.8927 48.1342 11.5755C47.7034 11.2583 47.1186 11.0997 46.38 11.0997C45.8781 11.0997 45.4543 11.1707 45.1087 11.3127C44.763 11.45 44.4979 11.6418 44.3132 11.888C44.1333 12.1342 44.0433 12.4136 44.0433 12.7261C44.0339 12.9865 44.0883 13.2138 44.2067 13.4079C44.3298 13.602 44.4979 13.7701 44.7109 13.9122C44.924 14.0495 45.1702 14.1702 45.4496 14.2744C45.7289 14.3738 46.0272 14.459 46.3445 14.5301L47.6513 14.8426C48.2857 14.9846 48.8681 15.174 49.3984 15.4107C49.9287 15.6475 50.388 15.9387 50.7763 16.2843C51.1645 16.63 51.4652 17.0372 51.6783 17.5059C51.8961 17.9747 52.0073 18.5121 52.0121 19.1181C52.0073 20.0083 51.7801 20.7801 51.3303 21.4335C50.8852 22.0821 50.2412 22.5864 49.3984 22.9462C48.5604 23.3014 47.5495 23.4789 46.3658 23.4789C45.1915 23.4789 44.1688 23.299 43.2976 22.9391C42.4311 22.5793 41.754 22.0466 41.2663 21.3411C40.7834 20.6309 40.5301 19.7526 40.5064 18.7062H43.4822C43.5154 19.1939 43.6551 19.6011 43.9013 19.9278C44.1522 20.2497 44.486 20.4936 44.9027 20.6593C45.3241 20.8203 45.8 20.9008 46.3303 20.9008C46.8511 20.9008 47.3033 20.825 47.6868 20.6735C48.075 20.522 48.3757 20.3113 48.5888 20.0414C48.8018 19.7715 48.9084 19.4614 48.9084 19.111C48.9084 18.7843 48.8113 18.5097 48.6172 18.2872C48.4278 18.0646 48.1484 17.8752 47.7791 17.719C47.4145 17.5627 46.9671 17.4207 46.4368 17.2928L44.853 16.8951C43.6267 16.5968 42.6584 16.1304 41.9482 15.496C41.2379 14.8615 40.8852 14.0069 40.8899 12.932C40.8852 12.0514 41.1196 11.2819 41.593 10.6238C42.0713 9.96566 42.727 9.45193 43.5604 9.08261C44.3937 8.71329 45.3407 8.52863 46.4013 8.52863C47.4808 8.52863 48.4231 8.71329 49.228 9.08261C50.0376 9.45193 50.6674 9.96566 51.1172 10.6238C51.567 11.2819 51.799 12.0443 51.8132 12.9107H48.8658ZM53.5266 11.263V8.72749H65.4727V11.263H61.0195V23.2729H57.9798V11.263H53.5266ZM67.44 23.2729V8.72749H77.2411V11.263H70.5153V14.7289H76.7369V17.2644H70.5153V20.7374H77.2695V23.2729H67.44ZM79.6861 8.72749H83.4787L87.4844 18.5002H87.6548L91.6605 8.72749H95.4531V23.2729H92.4702V13.8056H92.3494L88.5852 23.2019H86.554L82.7898 13.7701H82.669V23.2729H79.6861V8.72749ZM105.877 12.9107C105.821 12.3378 105.577 11.8927 105.146 11.5755C104.715 11.2583 104.13 11.0997 103.392 11.0997C102.89 11.0997 102.466 11.1707 102.12 11.3127C101.775 11.45 101.51 11.6418 101.325 11.888C101.145 12.1342 101.055 12.4136 101.055 12.7261C101.046 12.9865 101.1 13.2138 101.218 13.4079C101.342 13.602 101.51 13.7701 101.723 13.9122C101.936 14.0495 102.182 14.1702 102.461 14.2744C102.741 14.3738 103.039 14.459 103.356 14.5301L104.663 14.8426C105.297 14.9846 105.88 15.174 106.41 15.4107C106.94 15.6475 107.4 15.9387 107.788 16.2843C108.176 16.63 108.477 17.0372 108.69 17.5059C108.908 17.9747 109.019 18.5121 109.024 19.1181C109.019 20.0083 108.792 20.7801 108.342 21.4335C107.897 22.0821 107.253 22.5864 106.41 22.9462C105.572 23.3014 104.561 23.4789 103.377 23.4789C102.203 23.4789 101.181 23.299 100.309 22.9391C99.4428 22.5793 98.7657 22.0466 98.2781 21.3411C97.7951 20.6309 97.5418 19.7526 97.5181 18.7062H100.494C100.527 19.1939 100.667 19.6011 100.913 19.9278C101.164 20.2497 101.498 20.4936 101.914 20.6593C102.336 20.8203 102.812 20.9008 103.342 20.9008C103.863 20.9008 104.315 20.825 104.699 20.6735C105.087 20.522 105.387 20.3113 105.6 20.0414C105.814 19.7715 105.92 19.4614 105.92 19.111C105.92 18.7843 105.823 18.5097 105.629 18.2872C105.44 18.0646 105.16 17.8752 104.791 17.719C104.426 17.5627 103.979 17.4207 103.449 17.2928L101.865 16.8951C100.638 16.5968 99.6701 16.1304 98.9599 15.496C98.2496 14.8615 97.8969 14.0069 97.9016 12.932C97.8969 12.0514 98.1313 11.2819 98.6048 10.6238C99.083 9.96566 99.7388 9.45193 100.572 9.08261C101.405 8.71329 102.352 8.52863 103.413 8.52863C104.493 8.52863 105.435 8.71329 106.24 9.08261C107.049 9.45193 107.679 9.96566 108.129 10.6238C108.579 11.2819 108.811 12.0443 108.825 12.9107H105.877Z" fill="white"/>
<path d="M5.82955 30.7275C5.77841 30.2957 5.57102 29.9604 5.20739 29.7218C4.84375 29.4832 4.39773 29.3639 3.86932 29.3639C3.48295 29.3639 3.14489 29.4264 2.85511 29.5514C2.56818 29.6764 2.34375 29.8482 2.18182 30.067C2.02273 30.2857 1.94318 30.5343 1.94318 30.8127C1.94318 31.0457 1.99858 31.246 2.10938 31.4136C2.22301 31.5783 2.3679 31.7161 2.54403 31.8269C2.72017 31.9349 2.90483 32.0244 3.09801 32.0954C3.29119 32.1636 3.46875 32.219 3.63068 32.2616L4.51705 32.5002C4.74432 32.5599 4.99716 32.6423 5.27557 32.7474C5.55682 32.8525 5.82528 32.996 6.08097 33.1778C6.33949 33.3568 6.55256 33.5869 6.72017 33.8681C6.88778 34.1494 6.97159 34.4945 6.97159 34.9036C6.97159 35.3752 6.84801 35.8014 6.60085 36.182C6.35653 36.5627 5.99858 36.8653 5.52699 37.0897C5.05824 37.3141 4.48864 37.4264 3.81818 37.4264C3.19318 37.4264 2.65199 37.3255 2.1946 37.1238C1.74006 36.9221 1.3821 36.6408 1.12074 36.2801C0.862216 35.9193 0.715909 35.5002 0.681818 35.0229H1.77273C1.80114 35.3525 1.91193 35.6252 2.10511 35.8411C2.30114 36.0542 2.5483 36.2133 2.84659 36.3184C3.14773 36.4207 3.47159 36.4718 3.81818 36.4718C4.22159 36.4718 4.58381 36.4065 4.90483 36.2758C5.22585 36.1423 5.48011 35.9576 5.66761 35.7218C5.85511 35.4832 5.94886 35.2048 5.94886 34.8866C5.94886 34.5968 5.8679 34.361 5.70597 34.1792C5.54403 33.9974 5.33097 33.8497 5.06676 33.736C4.80256 33.6224 4.51705 33.5229 4.21023 33.4377L3.13636 33.1309C2.45455 32.9349 1.91477 32.6551 1.51705 32.2914C1.11932 31.9278 0.920455 31.4519 0.920455 30.8639C0.920455 30.3752 1.05256 29.9491 1.31676 29.5854C1.58381 29.219 1.94176 28.9349 2.39062 28.7332C2.84233 28.5286 3.34659 28.4264 3.90341 28.4264C4.46591 28.4264 4.96591 28.5272 5.40341 28.7289C5.84091 28.9278 6.1875 29.2005 6.44318 29.5471C6.7017 29.8937 6.83807 30.2872 6.85227 30.7275H5.82955ZM16.0728 32.9093C16.0728 33.8298 15.9066 34.6252 15.5742 35.2957C15.2418 35.9661 14.7859 36.4832 14.2063 36.8468C13.6268 37.2104 12.9648 37.3923 12.2205 37.3923C11.4762 37.3923 10.8143 37.2104 10.2347 36.8468C9.65518 36.4832 9.19922 35.9661 8.86683 35.2957C8.53445 34.6252 8.36825 33.8298 8.36825 32.9093C8.36825 31.9889 8.53445 31.1934 8.86683 30.5229C9.19922 29.8525 9.65518 29.3354 10.2347 28.9718C10.8143 28.6082 11.4762 28.4264 12.2205 28.4264C12.9648 28.4264 13.6268 28.6082 14.2063 28.9718C14.7859 29.3354 15.2418 29.8525 15.5742 30.5229C15.9066 31.1934 16.0728 31.9889 16.0728 32.9093ZM15.0501 32.9093C15.0501 32.1536 14.9237 31.5158 14.6708 30.996C14.4208 30.4761 14.0813 30.0826 13.6523 29.8156C13.2262 29.5485 12.7489 29.415 12.2205 29.415C11.6921 29.415 11.2134 29.5485 10.7844 29.8156C10.3583 30.0826 10.0188 30.4761 9.76598 30.996C9.51598 31.5158 9.39098 32.1536 9.39098 32.9093C9.39098 33.665 9.51598 34.3028 9.76598 34.8227C10.0188 35.3426 10.3583 35.736 10.7844 36.0031C11.2134 36.2701 11.6921 36.4036 12.2205 36.4036C12.7489 36.4036 13.2262 36.2701 13.6523 36.0031C14.0813 35.736 14.4208 35.3426 14.6708 34.8227C14.9237 34.3028 15.0501 33.665 15.0501 32.9093ZM17.8498 37.2729V28.5457H23.0827V29.4832H18.9066V32.432H22.6907V33.3695H18.9066V37.2729H17.8498ZM24.4155 29.4832V28.5457H30.9609V29.4832H28.2166V37.2729H27.1598V29.4832H24.4155ZM34.1772 37.2729L31.7908 28.5457H32.8647L34.6886 35.6536H34.7738L36.6317 28.5457H37.8249L39.6829 35.6536H39.7681L41.592 28.5457H42.6658L40.2795 37.2729H39.1886L37.2624 30.3184H37.1942L35.2681 37.2729H34.1772ZM43.6609 37.2729H42.5529L45.7575 28.5457H46.8484L50.0529 37.2729H48.945L46.337 29.9264H46.2688L43.6609 37.2729ZM44.07 33.8639H48.5359V34.8014H44.07V33.8639ZM51.4123 37.2729V28.5457H54.3612C55.043 28.5457 55.6026 28.6622 56.0401 28.8951C56.4776 29.1252 56.8015 29.442 57.0117 29.8454C57.2219 30.2488 57.3271 30.7076 57.3271 31.2218C57.3271 31.736 57.2219 32.192 57.0117 32.5897C56.8015 32.9874 56.479 33.2999 56.0444 33.5272C55.6097 33.7516 55.0543 33.8639 54.3782 33.8639H51.9918V32.9093H54.3441C54.81 32.9093 55.185 32.8411 55.4691 32.7048C55.756 32.5684 55.9634 32.3752 56.0913 32.1252C56.2219 31.8724 56.2873 31.5712 56.2873 31.2218C56.2873 30.8724 56.2219 30.567 56.0913 30.3056C55.9606 30.0443 55.7518 29.8426 55.4648 29.7005C55.1779 29.5556 54.7987 29.4832 54.3271 29.4832H52.4691V37.2729H51.4123ZM55.5202 33.3525L57.668 37.2729H56.4407L54.3271 33.3525H55.5202ZM59.0881 37.2729V28.5457H64.3551V29.4832H60.1449V32.432H64.0824V33.3695H60.1449V36.3354H64.4233V37.2729H59.0881ZM69.6349 28.5457H70.8963L73.8622 35.79H73.9645L76.9304 28.5457H78.1918V37.2729H77.2031V30.6423H77.1179L74.3906 37.2729H73.4361L70.7088 30.6423H70.6236V37.2729H69.6349V28.5457ZM80.6687 37.2729H79.5607L82.7653 28.5457H83.8562L87.0607 37.2729H85.9528L83.3448 29.9264H83.2766L80.6687 37.2729ZM81.0778 33.8639H85.5437V34.8014H81.0778V33.8639ZM95.3406 28.5457V37.2729H94.3178L89.5621 30.4207H89.4769V37.2729H88.4201V28.5457H89.4428L94.2156 35.415H94.3008V28.5457H95.3406ZM97.8132 37.2729H96.7053L99.9098 28.5457H101.001L104.205 37.2729H103.097L100.489 29.9264H100.421L97.8132 37.2729ZM98.2223 33.8639H102.688V34.8014H98.2223V33.8639ZM111.12 31.2729C111.027 30.986 110.903 30.7289 110.75 30.5016C110.599 30.2715 110.419 30.0755 110.208 29.9136C110.001 29.7516 109.765 29.6281 109.501 29.5428C109.237 29.4576 108.947 29.415 108.632 29.415C108.115 29.415 107.645 29.5485 107.221 29.8156C106.798 30.0826 106.461 30.4761 106.211 30.996C105.961 31.5158 105.836 32.1536 105.836 32.9093C105.836 33.665 105.963 34.3028 106.216 34.8227C106.468 35.3426 106.811 35.736 107.243 36.0031C107.674 36.2701 108.16 36.4036 108.7 36.4036C109.2 36.4036 109.64 36.2971 110.021 36.084C110.404 35.8681 110.703 35.5641 110.916 35.1721C111.132 34.7772 111.24 34.3127 111.24 33.7786L111.564 33.8468H108.939V32.9093H112.262V33.8468C112.262 34.5656 112.109 35.1906 111.802 35.7218C111.498 36.2531 111.078 36.665 110.541 36.9576C110.007 37.2474 109.393 37.3923 108.7 37.3923C107.927 37.3923 107.248 37.2104 106.663 36.8468C106.081 36.4832 105.626 35.9661 105.299 35.2957C104.975 34.6252 104.814 33.8298 104.814 32.9093C104.814 32.219 104.906 31.5982 105.091 31.0471C105.278 30.4931 105.542 30.0215 105.883 29.6323C106.224 29.2431 106.627 28.9448 107.093 28.7374C107.559 28.5301 108.072 28.4264 108.632 28.4264C109.092 28.4264 109.521 28.496 109.919 28.6352C110.319 28.7715 110.676 28.9661 110.988 29.219C111.304 29.469 111.566 29.7687 111.777 30.1181C111.987 30.4647 112.132 30.8497 112.211 31.2729H111.12ZM114.072 28.5457H115.334L118.3 35.79H118.402L121.368 28.5457H122.629V37.2729H121.641V30.6423H121.555L118.828 37.2729H117.874L115.146 30.6423H115.061V37.2729H114.072V28.5457ZM124.748 37.2729V28.5457H130.015V29.4832H125.805V32.432H129.743V33.3695H125.805V36.3354H130.083V37.2729H124.748ZM138.841 28.5457V37.2729H137.818L133.062 30.4207H132.977V37.2729H131.92V28.5457H132.943L137.716 35.415H137.801V28.5457H138.841ZM140.478 29.4832V28.5457H147.023V29.4832H144.279V37.2729H143.222V29.4832H140.478Z" fill="white"/>
</svg>
