<?xml version="1.0" encoding="UTF-8"?>
<svg version="1.1" xmlns="http://www.w3.org/2000/svg" width="1526" height="472">
<path d="M0 0 C9.97555523 8.98363561 19.38038852 18.5081577 27.515625 29.203125 C28.13268311 29.99759033 28.13268311 29.99759033 28.76220703 30.80810547 C51.09617863 59.6365283 65.98786263 92.59675377 73.515625 128.203125 C73.72880371 129.20714355 73.94198242 130.21116211 74.16162109 131.24560547 C79.83464567 159.32280324 80.23349629 191.09790203 74.515625 219.203125 C74.20963379 220.70818604 74.20963379 220.70818604 73.89746094 222.24365234 C64.97086576 264.68720858 46.09537323 302.6327004 16.8046875 334.69140625 C15.26302271 336.3830282 13.73717056 338.08918151 12.2265625 339.80859375 C7.61051723 345.05121561 2.90266029 349.76523402 -2.484375 354.203125 C-3.63811593 355.18087739 -4.79175189 356.15875364 -5.9453125 357.13671875 C-15.30787279 364.99283614 -25.01140258 371.90704266 -35.484375 378.203125 C-36.18755859 378.6269043 -36.89074219 379.05068359 -37.61523438 379.48730469 C-90.73306917 411.1004351 -155.48629132 420.34051854 -215.46289062 405.46435547 C-243.71383435 398.05643116 -270.81066689 386.48891128 -294.484375 369.203125 C-295.03206543 368.80416016 -295.57975586 368.40519531 -296.14404297 367.99414062 C-323.68663207 347.73480058 -346.60761789 323.01574371 -363.484375 293.203125 C-364.12584473 292.08067383 -364.12584473 292.08067383 -364.78027344 290.93554688 C-385.34631576 254.59857278 -396.63571586 211.08561196 -394.484375 169.203125 C-394.44328613 168.36475098 -394.40219727 167.52637695 -394.35986328 166.66259766 C-391.69346882 116.46111977 -374.85174901 68.64933576 -343.484375 29.203125 C-343.05608398 28.65769043 -342.62779297 28.11225586 -342.18652344 27.55029297 C-329.08896257 10.98512452 -313.74719285 -3.66624624 -296.484375 -15.796875 C-295.78554199 -16.29735352 -295.08670898 -16.79783203 -294.36669922 -17.31347656 C-215.39520368 -73.59533327 -104.21533228 -74.82649916 0 0 Z " fill="#E52229" transform="translate(394.484375,59.796875)"/>
<path d="M0 0 C1.36172585 -0.01902626 1.36172585 -0.01902626 2.7509613 -0.03843689 C4.21820396 -0.03403343 4.21820396 -0.03403343 5.71508789 -0.02954102 C7.22601768 -0.03740379 7.22601768 -0.03740379 8.76747131 -0.04542542 C10.89835691 -0.05185061 13.02927796 -0.05050221 15.16015625 -0.04199219 C18.4219479 -0.03348845 21.68198526 -0.06222753 24.94360352 -0.09399414 C27.01326445 -0.09560636 29.08292849 -0.09502822 31.15258789 -0.09204102 C32.6167942 -0.10889198 32.6167942 -0.10889198 34.11058044 -0.12608337 C40.80527352 -0.05714298 40.80527352 -0.05714298 43.93017578 2.01660156 C45.85530755 4.94396333 47.47947997 7.93538355 48.96899414 11.09936523 C49.2863855 11.75658066 49.60377686 12.41379608 49.93078613 13.09092712 C50.96235486 15.23304544 51.98152017 17.38080009 53.00024414 19.52905273 C53.70935373 21.00904112 54.41899375 22.48877547 55.12915039 23.96826172 C61.39211136 37.0485389 67.49435662 50.20390076 73.50024414 63.40405273 C75.79743875 61.10685812 76.69408599 59.09237049 78.04711914 56.13842773 C78.55573486 55.03426514 79.06435059 53.93010254 79.58837891 52.79248047 C80.4110022 50.99145874 80.4110022 50.99145874 81.25024414 49.15405273 C81.82375494 47.91035541 82.39790261 46.66695158 82.97265625 45.42382812 C85.7935146 39.31772046 88.59410958 33.20263509 91.37619019 27.07876587 C92.62801421 24.32854098 93.88828573 21.58223594 95.15002441 18.83654785 C95.7562385 17.51150346 96.35840702 16.18460039 96.9564209 14.85583496 C97.79592743 12.99098231 98.64854306 11.1326552 99.50415039 9.27514648 C99.98698486 8.21223389 100.46981934 7.14932129 100.96728516 6.05419922 C102.59875079 3.23375657 103.76256101 2.10696319 106.50024414 0.40405273 C108.6559906 0.01637268 108.6559906 0.01637268 111.00585938 0 C111.89035263 -0.01268417 112.77484589 -0.02536835 113.68614197 -0.03843689 C114.63413162 -0.03550125 115.58212128 -0.03256561 116.55883789 -0.02954102 C117.54014175 -0.03478287 118.52144562 -0.04002472 119.53248596 -0.04542542 C121.60612035 -0.05184374 123.67979115 -0.05051108 125.75341797 -0.04199219 C128.92294302 -0.03348698 132.09066295 -0.06223913 135.26000977 -0.09399414 C137.27628527 -0.0956064 139.29256396 -0.09502815 141.30883789 -0.09204102 C142.72778603 -0.10889198 142.72778603 -0.10889198 144.17539978 -0.12608337 C148.1337865 -0.08424974 150.91794737 0.13547653 154.54223633 1.80712891 C157.52517317 5.76342556 157.6204598 9.60101544 158.01977539 14.45092773 C158.12427505 15.49397064 158.22877472 16.53701355 158.33644104 17.61166382 C158.68322936 21.12407958 158.997756 24.63865347 159.31274414 28.15405273 C159.5516018 30.63717458 159.792707 33.1200811 160.03588867 35.6027832 C160.50077284 40.37336963 160.95831013 45.14448856 161.40632629 49.9166851 C162.34906903 59.94691417 163.35664471 69.9700208 164.37991142 79.99232483 C165.21480372 88.17091627 166.04456778 96.35003219 166.87524414 104.52905273 C166.96610416 105.42291183 167.05696419 106.31677094 167.15057755 107.23771667 C167.67774358 112.4276437 168.20118719 117.61792168 168.71925163 122.80876541 C168.87868139 124.40062456 169.0393334 125.99236184 169.20129585 127.5839653 C169.42448738 129.77905289 169.6433143 131.97453483 169.86108398 134.17016602 C170.04711685 136.02075119 170.04711685 136.02075119 170.23690796 137.90872192 C170.96860255 147.62069784 170.96860255 147.62069784 169.06274414 150.80834961 C165.26576253 153.17278099 161.89292293 152.9775562 157.50024414 152.93530273 C156.62754883 152.93912964 155.75485352 152.94295654 154.85571289 152.94689941 C153.01325322 152.94961764 151.1707549 152.94226268 149.32836914 152.92553711 C146.5097848 152.90412521 143.69374929 152.92534075 140.87524414 152.95092773 C139.08357185 152.94828444 137.29190115 152.94315943 135.50024414 152.93530273 C134.65848633 152.94339966 133.81672852 152.95149658 132.94946289 152.95983887 C132.1618457 152.94723022 131.37422852 152.93462158 130.56274414 152.92163086 C129.52827148 152.9168573 129.52827148 152.9168573 128.47290039 152.9119873 C125.52601324 152.15320034 124.35270032 150.78375457 122.50024414 148.40405273 C121.72512817 145.65266418 121.72512817 145.65266418 121.34448242 142.51269531 C121.19738831 141.35661774 121.05029419 140.20054016 120.89874268 139.00942993 C120.76723816 137.81965546 120.63573364 136.62988098 120.50024414 135.40405273 C120.36954529 134.29556976 120.23884644 133.18708679 120.10418701 132.04501343 C119.71005301 128.58737755 119.34727418 125.12765104 118.99243164 121.66577148 C118.86208527 120.41899124 118.73173889 119.172211 118.59744263 117.88764954 C118.18707505 113.95591953 117.78108325 110.02375248 117.37524414 106.09155273 C117.09594494 103.40463606 116.81568486 100.71781991 116.53540039 98.03100586 C115.85368648 91.48903066 115.17555195 84.94669215 114.50024414 78.40405273 C112.51293702 82.62009374 110.52809713 86.83728503 108.54556274 91.05557251 C107.85053208 92.53396094 107.15503889 94.01213201 106.45907593 95.49008179 C102.11938297 104.7092077 97.79153116 113.92714908 93.93579102 123.36254883 C92.33028439 127.14273515 91.05823368 129.32744954 87.50024414 131.40405273 C83.02357718 132.03448873 78.51649056 131.86745404 74.00024414 131.84155273 C72.7640332 131.8615332 71.52782227 131.88151367 70.25415039 131.90209961 C69.06692383 131.90145508 67.87969727 131.90081055 66.65649414 131.90014648 C65.029375 131.90292603 65.029375 131.90292603 63.36938477 131.90576172 C59.74528868 131.27203831 58.73148271 130.29392623 56.50024414 127.40405273 C54.90380859 124.60522461 54.90380859 124.60522461 53.36352539 121.37280273 C53.08241409 120.78814743 52.8013028 120.20349213 52.51167297 119.60112 C51.603494 117.70603684 50.70785082 115.80534055 49.81274414 113.90405273 C49.19068081 112.59823401 48.5681191 111.29265258 47.94506836 109.98730469 C42.97004482 99.53202734 38.16380215 89.00192663 33.50024414 78.40405273 C32.10391584 87.06382342 31.12422176 95.73440796 30.28149414 104.46264648 C30.17699951 105.54301178 30.07250488 106.62337708 29.96484375 107.73648071 C29.53083977 112.25143799 29.10105072 116.76676546 28.67749023 121.28271484 C28.36370723 124.61409998 28.04185945 127.94463105 27.71899414 131.27514648 C27.62622192 132.28878769 27.53344971 133.30242889 27.43786621 134.3467865 C26.1707989 147.29321459 26.1707989 147.29321459 23.18432617 151.06678772 C21.11014068 152.71381895 20.06815052 152.7834463 17.44360352 152.79223633 C16.22719177 152.80642105 16.22719177 152.80642105 14.98620605 152.82089233 C13.67831116 152.81178329 13.67831116 152.81178329 12.34399414 152.80249023 C10.99597717 152.8067955 10.99597717 152.8067955 9.62072754 152.81118774 C7.72102224 152.81322889 5.82129594 152.80769552 3.92163086 152.79516602 C1.01116004 152.77911294 -1.89792207 152.79501286 -4.80834961 152.81420898 C-6.65340476 152.81222656 -8.49845905 152.8083829 -10.34350586 152.80249023 C-11.21543579 152.80856293 -12.08736572 152.81463562 -12.98571777 152.82089233 C-13.79665894 152.81143585 -14.6076001 152.80197937 -15.44311523 152.79223633 C-16.51209045 152.78865616 -16.51209045 152.78865616 -17.60266113 152.78500366 C-20.13429425 152.27663264 -20.91300845 151.42536597 -22.49975586 149.40405273 C-23.6614384 141.61361559 -22.12746694 133.08781395 -21.33813477 125.30102539 C-21.15275902 123.40871689 -21.15275902 123.40871689 -20.96363831 121.47817993 C-20.62772782 118.05246298 -20.28500272 114.62746166 -19.94054079 111.20259523 C-19.65270715 108.33466421 -19.36821068 105.46640592 -19.08366811 102.5981468 C-18.41254462 95.83389139 -17.73578847 89.07021606 -17.05541992 82.30688477 C-16.35461247 75.33940619 -15.66326561 68.37103421 -14.97652304 61.40215647 C-14.38485243 55.40136418 -13.78742426 49.40116422 -13.18536127 43.40140569 C-12.8265534 39.82523647 -12.46989734 36.24888666 -12.11876297 32.67195511 C-11.72762779 28.69066708 -11.3244812 24.71068402 -10.92016602 20.73071289 C-10.80579697 19.55037476 -10.69142792 18.37003662 -10.57359314 17.15393066 C-10.40539314 15.52670578 -10.40539314 15.52670578 -10.23379517 13.86660767 C-10.13977228 12.92683893 -10.0457494 11.9870702 -9.94887733 11.01882362 C-8.86033829 4.68138406 -6.90475249 0.04672287 0 0 Z " fill="#313133" transform="translate(606.499755859375,254.595947265625)"/>
<path d="M0 0 C1.23324005 -0.00810448 1.23324005 -0.00810448 2.49139404 -0.01637268 C5.19287817 -0.02881654 7.89328698 -0.01239246 10.59472656 0.00561523 C12.4865118 0.00546009 14.37829735 0.00396848 16.27008057 0.00120544 C20.23097831 -0.00017682 24.19151323 0.01234588 28.15234375 0.03515625 C33.20360597 0.06346231 38.2542622 0.06082232 43.3055687 0.04806614 C47.21263708 0.04107337 51.11956812 0.0489404 55.02661896 0.06132317 C56.88755006 0.06580829 58.74849607 0.06620045 60.60942841 0.06225777 C76.75409585 0.04407041 92.08193398 1.65262074 104.47363281 13.23999023 C112.14137749 21.86061969 116.88782708 31.26123101 119.48535156 42.50170898 C119.67484375 43.25581055 119.86433594 44.00991211 120.05957031 44.78686523 C122.76611103 62.04416616 119.81563663 79.63686846 110.48535156 94.50170898 C104.17946921 102.65465016 104.17946921 102.65465016 100.48535156 104.50170898 C102.12452301 110.27470022 103.96443222 115.95318323 105.96582031 121.61108398 C106.29466721 122.5419281 106.29466721 122.5419281 106.63015747 123.49157715 C107.54049356 126.06581011 108.45226896 128.63939551 109.37768555 131.20825195 C110.06142696 133.11031795 110.73252773 135.01691288 111.40332031 136.92358398 C111.80317139 138.04345703 112.20302246 139.16333008 112.61499023 140.31713867 C113.51416816 143.6071462 113.8729682 146.1135642 113.48535156 149.50170898 C112.20558167 151.14898682 112.20558167 151.14898682 110.48535156 152.50170898 C107.53170102 152.82459439 104.79331095 152.96973449 101.83691406 152.97045898 C100.98737152 152.97807251 100.13782898 152.98568604 99.26254272 152.99353027 C97.46542295 153.00433406 95.66824037 153.00718323 93.87109375 153.00268555 C91.1268576 153.00171482 88.38543267 153.04329577 85.64160156 153.08764648 C83.89421155 153.09285486 82.14681183 153.09554166 80.39941406 153.09545898 C79.58155426 153.11185425 78.76369446 153.12824951 77.92105103 153.1451416 C73.83627026 153.09582513 71.99051812 152.87107531 68.60913086 150.39868164 C66.25727014 147.19059114 64.93367239 144.29945664 63.59082031 140.55639648 C63.35373856 139.9047049 63.1166568 139.25301331 62.87239075 138.58157349 C62.37782387 137.21405411 61.8899235 135.84410686 61.40844727 134.47192383 C60.67078085 132.37081094 59.91298027 130.27784019 59.15136719 128.18530273 C55.48535156 117.98878342 55.48535156 117.98878342 55.48535156 114.50170898 C46.24535156 114.50170898 37.00535156 114.50170898 27.48535156 114.50170898 C27.52015625 116.9934668 27.55496094 119.48522461 27.59082031 122.05249023 C27.61421489 124.46515761 27.63243198 126.87781237 27.65014648 129.29052734 C27.6652354 130.96766819 27.68570904 132.64476956 27.71166992 134.32177734 C27.74804967 136.73211402 27.76507642 139.14192917 27.77832031 141.55249023 C27.79380417 142.30258865 27.80928802 143.05268707 27.82524109 143.82551575 C27.82693008 149.04693075 27.82693008 149.04693075 26.21087646 151.19854736 C23.14571544 153.51343729 19.28028407 152.94811844 15.58300781 152.93530273 C14.70889755 152.94054459 13.83478729 152.94578644 12.93418884 152.95118713 C11.08577537 152.95760957 9.23732104 152.95626746 7.38891602 152.94775391 C4.56159572 152.93925032 1.73629995 152.96799046 -1.09082031 152.99975586 C-2.88704367 153.00136813 -4.68327059 153.00078984 -6.47949219 152.99780273 C-7.32438705 153.00903671 -8.16928192 153.02027069 -9.03977966 153.03184509 C-9.83062454 153.02246414 -10.62146942 153.01308319 -11.4362793 153.00341797 C-12.12894394 153.0032518 -12.82160858 153.00308563 -13.53526306 153.00291443 C-16.45726613 152.26302625 -17.61650436 150.80775995 -19.51464844 148.50170898 C-20.018013 145.90790176 -20.018013 145.90790176 -20.02258301 142.91143799 C-20.0338623 141.77317566 -20.0451416 140.63491333 -20.0567627 139.4621582 C-20.04866577 138.21740723 -20.04056885 136.97265625 -20.03222656 135.69018555 C-20.03923584 134.37596619 -20.04624512 133.06174683 -20.0534668 131.70770264 C-20.07170375 128.10406147 -20.06462957 124.50087838 -20.05195045 120.89722919 C-20.0418161 117.12131334 -20.05121812 113.34543645 -20.05749512 109.56951904 C-20.06477386 103.22425307 -20.05518174 96.87917325 -20.03613281 90.53393555 C-20.01440097 83.21072291 -20.02138738 75.88795639 -20.04343843 68.56475472 C-20.06163096 62.26987032 -20.06413089 55.97511973 -20.05368376 49.6802175 C-20.04746506 45.92404872 -20.04656735 42.16808904 -20.05982971 38.4119339 C-20.07144258 34.87574316 -20.06326469 31.34012278 -20.04025269 27.80399323 C-20.03249632 25.89712799 -20.04427777 23.99021416 -20.0567627 22.08337402 C-19.99254755 15.53881875 -19.83643195 9.72596013 -15.51464844 4.50170898 C-10.85593604 0.36515242 -6.01305764 -0.07631994 0 0 Z M27.48535156 39.50170898 C27.48535156 51.38170898 27.48535156 63.26170898 27.48535156 75.50170898 C33.30160156 75.58420898 39.11785156 75.66670898 45.11035156 75.75170898 C46.93518066 75.788125 48.76000977 75.82454102 50.64013672 75.86206055 C52.10155056 75.87375312 53.56297753 75.8839436 55.02441406 75.89233398 C55.77102295 75.91279785 56.51763184 75.93326172 57.28686523 75.9543457 C62.48136697 75.95778463 65.3309297 74.87875999 69.48535156 71.50170898 C73.69225001 66.5524167 74.10598916 60.68654146 73.86816406 54.40795898 C73.11901093 48.72051071 71.3792192 45.04119819 66.92285156 41.41870117 C62.66793788 39.04586152 59.79084715 38.98044041 55.02441406 39.11108398 C54.32276123 39.1151123 53.6211084 39.11914062 52.89819336 39.12329102 C50.30197629 39.144063 47.70613491 39.19990792 45.11035156 39.25170898 C39.29410156 39.33420898 33.47785156 39.41670898 27.48535156 39.50170898 Z " fill="#313133" transform="translate(1405.5146484375,254.498291015625)"/>
<path d="M0 0 C0.71265015 -0.00016617 1.42530029 -0.00033234 2.1595459 -0.00050354 C2.97048706 -0.00988449 3.78142822 -0.01926544 4.61694336 -0.02893066 C5.48887329 -0.01769669 6.36080322 -0.00646271 7.25915527 0.00511169 C8.15783325 0.00365646 9.05651123 0.00220123 9.98242188 0.0007019 C11.88215375 0.00236164 13.78189897 0.01393134 15.68151855 0.03465271 C18.59209206 0.06359791 21.50084368 0.05526561 24.41149902 0.04222107 C26.25655997 0.04845871 28.10161516 0.05684986 29.94665527 0.06761169 C30.81858521 0.06467606 31.69051514 0.06174042 32.58886719 0.05871582 C33.39980835 0.07139999 34.21074951 0.08408417 35.04626465 0.09715271 C35.75891479 0.10255569 36.47156494 0.10795868 37.20581055 0.11352539 C39.75316752 0.63408953 40.6092622 1.38033762 42.10290527 3.50120544 C42.46366882 5.87405396 42.46366882 5.87405396 42.44348145 8.70701599 C42.44314156 10.29832588 42.44314156 10.29832588 42.4427948 11.92178345 C42.42731094 13.06560989 42.41182709 14.20943634 42.39587402 15.38792419 C42.39162918 16.56006973 42.38738434 17.73221527 42.38301086 18.93988037 C42.366196 22.68972078 42.3285376 26.43902701 42.29040527 30.18870544 C42.27536211 32.72841123 42.26167307 35.26812543 42.24938965 37.80784607 C42.21883313 44.03933806 42.16011418 50.26967266 42.10290527 56.50120544 C57.28290527 56.50120544 72.46290527 56.50120544 88.10290527 56.50120544 C88.05069824 50.81450623 88.05069824 50.81450623 87.99743652 45.01292419 C87.97405376 41.34927626 87.95582983 37.68563657 87.93811035 34.0219574 C87.92300522 31.47178946 87.90251994 28.92164758 87.87658691 26.37156677 C87.84028023 22.71028726 87.82319612 19.0493506 87.80993652 15.38792419 C87.79445267 14.24409775 87.77896881 13.1002713 87.76301575 11.92178345 C87.76278915 10.86091019 87.76256256 9.80003693 87.7623291 8.70701599 C87.75233635 7.30469978 87.75233635 7.30469978 87.74214172 5.87405396 C88.10290527 3.50120544 88.10290527 3.50120544 89.37065125 1.70010376 C91.47363116 0.24462492 92.61637361 0.12153934 95.1595459 0.11302185 C96.37595764 0.09883713 96.37595764 0.09883713 97.61694336 0.08436584 C98.92483826 0.09347488 98.92483826 0.09347488 100.25915527 0.10276794 C101.60717224 0.09846268 101.60717224 0.09846268 102.98242188 0.09407043 C104.88212718 0.09202929 106.78185347 0.09756266 108.68151855 0.11009216 C111.59198937 0.12614524 114.50107148 0.11024532 117.41149902 0.09104919 C119.25655418 0.09303162 121.10160846 0.09687527 122.94665527 0.10276794 C123.81858521 0.09669525 124.69051514 0.09062256 125.58886719 0.08436584 C126.39980835 0.09382233 127.21074951 0.10327881 128.04626465 0.11302185 C129.11523987 0.11660202 129.11523987 0.11660202 130.20581055 0.12025452 C132.76910522 0.63498342 133.51835788 1.42580133 135.10290527 3.50120544 C135.48322201 6.12369442 135.48322201 6.12369442 135.49058533 9.33981323 C135.50048996 10.55820892 135.51039459 11.77660461 135.52059937 13.03192139 C135.51636112 14.38423257 135.51180323 15.73654278 135.50695801 17.08885193 C135.51265952 18.51136309 135.51962293 19.93386968 135.52775574 21.35636902 C135.54572716 25.22210489 135.5445113 29.08761426 135.53881335 32.95337939 C135.53572708 36.17912566 135.54180771 39.40482806 135.5478521 42.63056809 C135.56190893 50.23990931 135.56032659 57.84913829 135.5489502 65.45848083 C135.53746871 73.3117074 135.55154233 81.16459249 135.57834667 89.01777405 C135.60049051 95.75756852 135.60714401 102.4972557 135.60127026 109.23708397 C135.59789618 113.26366319 135.60034537 117.29002351 135.61752129 121.31657219 C135.63296749 125.10303887 135.62906134 128.88899906 135.61021614 132.67544556 C135.60652367 134.06540389 135.60965796 135.45539956 135.62010193 136.84532356 C135.63326627 138.74204885 135.61938444 140.63890454 135.60411072 142.53561401 C135.60390143 143.59731025 135.60369215 144.65900648 135.60347652 145.75287533 C134.97891689 149.18194971 133.79749385 150.36255438 131.10290527 152.50120544 C129.16821289 153.00241089 129.16821289 153.00241089 127.13220215 153.00291443 C126.36460571 153.01229538 125.59700928 153.02167633 124.80615234 153.03134155 C123.57632629 153.01449059 123.57632629 153.01449059 122.32165527 152.99729919 C121.47115601 152.99875443 120.62065674 153.00020966 119.74438477 153.00170898 C117.9489804 153.00005145 116.15356161 152.98850641 114.35827637 152.96775818 C111.61238158 152.93880536 108.86841828 152.9471512 106.12243652 152.96018982 C104.3763334 152.95395202 102.63023637 152.94556075 100.88415527 152.93479919 C99.65432922 152.93920265 99.65432922 152.93920265 98.3996582 152.94369507 C93.96901806 152.8704808 91.25819611 152.70193195 88.10290527 149.50120544 C87.62188721 147.09039307 87.62188721 147.09039307 87.64880371 144.20359802 C87.64910583 143.12270401 87.64940796 142.04181 87.64971924 140.92816162 C87.67036438 139.7624614 87.69100952 138.59676117 87.71228027 137.39573669 C87.71794006 136.20139511 87.72359985 135.00705353 87.72943115 133.77651978 C87.75185352 129.95517698 87.80206332 126.1347657 87.85290527 122.31370544 C87.87296257 119.72582834 87.89121468 117.13793657 87.90759277 114.55003357 C87.94833874 108.19977506 88.02662504 101.85153505 88.10290527 95.50120544 C72.92290527 95.50120544 57.74290527 95.50120544 42.10290527 95.50120544 C42.14931152 99.36452576 42.19571777 103.22784607 42.24353027 107.20823669 C42.27470667 110.94137762 42.29900551 114.67450416 42.32263184 118.40769958 C42.34277301 121.0063982 42.37008756 123.60505137 42.40466309 126.20359802 C42.45306916 129.93442487 42.47584928 133.66465364 42.49353027 137.39573669 C42.51417542 138.56143692 42.53482056 139.72713715 42.55609131 140.92816162 C42.55639343 142.00905563 42.55669556 143.08994965 42.55700684 144.20359802 C42.56588928 145.15624039 42.57477173 146.10888275 42.58392334 147.09039307 C42.10290527 149.50120544 42.10290527 149.50120544 40.32269287 151.30705261 C36.81993677 153.19138881 33.20376507 152.9486993 29.32165527 152.93479919 C28.47115601 152.94004105 27.62065674 152.9452829 26.74438477 152.95068359 C24.94902639 152.95709735 23.15362596 152.95577514 21.35827637 152.94725037 C18.61223584 152.93873438 15.86827191 152.96751851 13.12243652 152.99925232 C11.3763434 153.00086433 9.63024659 153.00028681 7.88415527 152.99729919 C7.06427124 153.00853317 6.24438721 153.01976715 5.3996582 153.03134155 C4.63206177 153.0219606 3.86446533 153.01257965 3.0736084 153.00291443 C2.40172485 153.00274826 1.72984131 153.00258209 1.03759766 153.00241089 C-1.86132886 152.25140894 -3.01909855 150.80025867 -4.89709473 148.50120544 C-5.39766598 145.77128601 -5.39766598 145.77128601 -5.39830017 142.58030701 C-5.40813431 141.36895081 -5.41796844 140.1575946 -5.42810059 138.90953064 C-5.41872893 137.57029443 -5.40894962 136.23106102 -5.39880371 134.89183044 C-5.40258743 133.47902386 -5.40808792 132.06622099 -5.41517639 130.65342712 C-5.42914162 126.8186493 -5.41795408 122.98431961 -5.40146518 119.14956665 C-5.38761751 115.13689316 -5.39407443 111.12424576 -5.39759827 107.11155701 C-5.40030062 100.37287675 -5.38682271 93.63437458 -5.36364746 86.89573669 C-5.33703748 79.10444484 -5.33529048 71.31345078 -5.34703583 63.52212906 C-5.35781435 56.02777038 -5.35162597 48.53351944 -5.33748055 41.03916931 C-5.33172137 37.84944615 -5.33180287 34.65980184 -5.33654594 31.47007751 C-5.34131766 27.71401245 -5.33120632 23.95827353 -5.30959129 20.20227051 C-5.30402585 18.82360942 -5.30355594 17.44491696 -5.30854416 16.06625366 C-5.31449774 14.18486314 -5.3001575 12.30344094 -5.28477478 10.42210388 C-5.28234488 9.36908081 -5.27991499 8.31605774 -5.27741146 7.23112488 C-4.78374154 3.68755454 -3.6476814 0.963704 0 0 Z " fill="#313133" transform="translate(1052.8970947265625,64.49879455566406)"/>
<path d="M0 0 C1.95728027 -0.0237545 1.95728027 -0.0237545 3.95410156 -0.04798889 C5.37044636 -0.04414746 6.78678834 -0.03910844 8.203125 -0.03295898 C9.66374101 -0.03819704 11.12435362 -0.04447419 12.58496094 -0.05174255 C15.64143833 -0.06213511 18.69744982 -0.05760184 21.75390625 -0.04296875 C25.66499304 -0.02577381 29.57461166 -0.04928842 33.48553467 -0.08445835 C36.50026121 -0.10644919 39.51463723 -0.10498717 42.52941895 -0.09669304 C43.97108573 -0.09587458 45.41277852 -0.10271803 46.85437012 -0.11746407 C48.87159854 -0.13493764 50.88903895 -0.11703155 52.90625 -0.09765625 C54.05254883 -0.09669449 55.19884766 -0.09573273 56.37988281 -0.09474182 C60.475257 0.74237716 61.89074834 2.27890248 64.453125 5.53344727 C65.71005249 8.32281494 65.71005249 8.32281494 66.60693359 11.38989258 C66.95237213 12.53899109 67.29781067 13.6880896 67.65371704 14.87200928 C68.18477554 16.72309296 68.18477554 16.72309296 68.7265625 18.61157227 C69.11349111 19.91507469 69.50214274 21.21806677 69.89242554 22.52056885 C70.69601436 25.20725698 71.4922058 27.89596896 72.28308105 30.58642578 C74.03430463 36.52223579 75.89263268 42.42457743 77.7421875 48.33032227 C78.4571444 50.62782399 79.17149384 52.92551484 79.88525391 55.22338867 C80.24339172 56.37591125 80.60152954 57.52843384 80.97052002 58.71588135 C83.29979841 66.21842454 85.6223295 73.72306131 87.94546509 81.22750854 C90.2361122 88.62223807 92.54012231 96.01261425 94.8565979 103.39929199 C96.27129828 107.91660027 97.67700779 112.43667331 99.08074951 116.95739746 C99.74017598 119.07380897 100.403563 121.18899095 101.07110596 123.30285645 C101.99271347 126.22294569 102.90025719 129.14706259 103.8046875 132.07250977 C104.07563232 132.91884979 104.34657715 133.76518982 104.62573242 134.63717651 C106.19675439 139.78175238 106.9818282 144.14769479 106.453125 149.53344727 C105.17114258 151.23196411 105.17114258 151.23196411 103.453125 152.53344727 C100.49947446 152.85633267 97.76108439 153.00147277 94.8046875 153.00219727 C93.95514496 153.00981079 93.10560242 153.01742432 92.23031616 153.02526855 C90.43319639 153.03607234 88.63601381 153.03892151 86.83886719 153.03442383 C84.09463104 153.0334531 81.35320611 153.07503405 78.609375 153.11938477 C76.86198499 153.12459314 75.11458527 153.12727994 73.3671875 153.12719727 C72.5493277 153.14359253 71.7314679 153.15998779 70.88882446 153.17687988 C70.11807587 153.16757446 69.34732727 153.15826904 68.55322266 153.14868164 C67.88054352 153.15073608 67.20786438 153.15279053 66.51480103 153.15490723 C64.453125 152.53344727 64.453125 152.53344727 59.453125 147.53344727 C57.473125 141.26344727 55.493125 134.99344727 53.453125 128.53344727 C35.303125 128.20344727 17.153125 127.87344727 -1.546875 127.53344727 C-1.876875 129.84344727 -2.206875 132.15344727 -2.546875 134.53344727 C-3.07521413 136.7555795 -3.65833804 138.96543919 -4.296875 141.15844727 C-4.60109375 142.24383789 -4.9053125 143.32922852 -5.21875 144.44750977 C-6.84273481 148.22088623 -8.30998095 149.98208815 -11.546875 152.53344727 C-14.52646839 153.23478513 -17.41149394 153.18832807 -20.4609375 153.12719727 C-21.31239349 153.12723755 -22.16384949 153.12727783 -23.04110718 153.12731934 C-24.83477185 153.12197303 -26.62843663 153.10442822 -28.421875 153.07543945 C-31.16999616 153.03347596 -33.91567404 153.03438142 -36.6640625 153.04125977 C-38.40887122 153.03077046 -40.15366731 153.01783374 -41.8984375 153.00219727 C-42.72034576 153.00199585 -43.54225403 153.00179443 -44.3890686 153.00158691 C-49.94934757 152.88585002 -49.94934757 152.88585002 -52.28695679 151.50720215 C-54.30119041 148.3517565 -53.93125978 145.12037641 -53.546875 141.53344727 C-52.71217346 137.87316895 -52.71217346 137.87316895 -51.52172852 134.07836914 C-51.19643724 133.02491035 -51.19643724 133.02491035 -50.86457443 131.95016956 C-50.14553279 129.63074063 -49.41066314 127.3166512 -48.67578125 125.00219727 C-48.16026256 123.34905598 -47.64581627 121.69557995 -47.13237 120.04179382 C-45.75551975 115.61631834 -44.3653375 111.19514234 -42.97218323 106.77477646 C-40.66329298 99.43893051 -38.37688323 92.09601264 -36.08577347 84.75459862 C-35.22153431 81.9868855 -34.35572369 79.21966713 -33.48983765 76.45246887 C-30.2103421 65.95873444 -26.99528344 55.44900235 -23.88192558 44.90476608 C-23.28752037 42.89212382 -22.69098065 40.88012665 -22.09376526 38.86831665 C-19.91157978 31.51256029 -19.91157978 31.51256029 -17.76370239 24.14672852 C-16.8156827 20.86869454 -15.84747086 17.59726315 -14.875 14.32641602 C-14.60830002 13.37925217 -14.34160004 12.43208832 -14.06681824 11.45622253 C-13.80661392 10.59378433 -13.54640961 9.73134613 -13.27832031 8.84277344 C-13.06282532 8.10113449 -12.84733032 7.35949554 -12.62530518 6.59538269 C-9.77925827 1.1538019 -5.81747932 0.03145785 0 0 Z M25.453125 41.53344727 C23.45534931 47.90428236 21.46196809 54.27648009 19.47167969 60.6496582 C18.79366273 62.81892243 18.11462919 64.98786918 17.43457031 67.15649414 C16.45893083 70.26830052 15.4869173 73.38121918 14.515625 76.49438477 C14.05627563 77.95538101 14.05627563 77.95538101 13.58764648 79.44589233 C13.30735596 80.34667511 13.02706543 81.24745789 12.73828125 82.17553711 C12.48957275 82.97051605 12.24086426 83.765495 11.98461914 84.58456421 C11.36542218 86.51835982 11.36542218 86.51835982 11.453125 88.53344727 C21.353125 88.53344727 31.253125 88.53344727 41.453125 88.53344727 C39.69129439 81.48612483 37.95896903 74.59734562 35.75390625 67.70532227 C35.5139946 66.94544006 35.27408295 66.18555786 35.02690125 65.40264893 C34.27649943 63.02850287 33.52117577 60.65595905 32.765625 58.28344727 C32.24901856 56.65204144 31.73274021 55.02053168 31.21679688 53.38891602 C29.96601247 49.43588672 28.71081851 45.48428352 27.453125 41.53344727 C26.793125 41.53344727 26.133125 41.53344727 25.453125 41.53344727 Z " fill="#313133" transform="translate(847.546875,254.466552734375)"/>
<path d="M0 0 C0.92370392 -0.00807175 1.84740784 -0.01614349 2.79910278 -0.02445984 C4.75781365 -0.03831703 6.71654883 -0.04903184 8.67529297 -0.05688477 C11.67591929 -0.07410744 14.67544693 -0.11797956 17.67578125 -0.16210938 C19.5755127 -0.17223489 21.47525355 -0.18075144 23.375 -0.1875 C24.27507782 -0.20500809 25.17515564 -0.22251617 26.10250854 -0.24055481 C27.35863449 -0.23616646 27.35863449 -0.23616646 28.64013672 -0.23168945 C29.74480789 -0.24048882 29.74480789 -0.24048882 30.87179565 -0.24946594 C32.8203125 0.23828125 32.8203125 0.23828125 34.55653381 1.66950989 C36.50851272 5.63712507 36.2427978 9.44339033 36.22094727 13.80859375 C36.23141586 15.26286774 36.23141586 15.26286774 36.24209595 16.746521 C36.26209618 19.95219583 36.26157258 23.15754953 36.26171875 26.36328125 C36.27348726 28.59001538 36.28685018 30.8167416 36.30174255 33.04345703 C36.33796419 38.9076273 36.35814098 44.77172753 36.37329102 50.63598633 C36.39810215 60.02286579 36.43770414 69.40959044 36.49519157 78.79632568 C36.51154275 82.07795811 36.51530042 85.3594451 36.51820374 88.64111328 C36.52797878 90.65006767 36.53824185 92.65901977 36.54907227 94.66796875 C36.54524284 96.0395816 36.54524284 96.0395816 36.54133606 97.43890381 C36.55157806 98.70060394 36.55157806 98.70060394 36.56202698 99.98779297 C36.56366128 100.71634491 36.56529558 101.44489685 36.56697941 102.19552612 C36.86292919 104.58192159 37.59076306 106.18189654 38.8203125 108.23828125 C40.37842964 109.5182376 40.37842964 109.5182376 42.1953125 110.42578125 C42.78054688 110.74933594 43.36578125 111.07289063 43.96875 111.40625 C51.90574215 114.97287306 63.57984143 114.52152737 71.6328125 111.48828125 C75.11071644 109.97979279 76.96349153 108.56804487 78.8203125 105.23828125 C79.27236581 102.05618315 79.22669459 98.89327208 79.20507812 95.68383789 C79.2104509 94.71592819 79.21582367 93.74801849 79.22135925 92.7507782 C79.2311397 90.65007079 79.2340806 88.54932297 79.23100281 86.44859505 C79.22652964 83.12401637 79.24051118 79.79997134 79.25939941 76.47544861 C79.29620539 69.41723489 79.30989585 62.35907682 79.3203125 55.30078125 C79.33238425 47.12543352 79.35389307 38.95034518 79.40031433 30.77511406 C79.4139023 27.49955489 79.40971026 24.22432211 79.40490723 20.94874573 C79.4142473 18.93986595 79.42441598 16.93098979 79.43554688 14.92211914 C79.42939865 14.01130585 79.42325043 13.10049255 79.41691589 12.16207886 C79.46266183 7.46344625 79.5273954 3.91067143 82.8203125 0.23828125 C84.75537109 -0.39663696 84.75537109 -0.39663696 86.96875 -0.40869141 C88.21519287 -0.43233261 88.21519287 -0.43233261 89.48681641 -0.45645142 C90.38062012 -0.44633026 91.27442383 -0.43620911 92.1953125 -0.42578125 C93.11618652 -0.43056488 94.03706055 -0.43534851 94.98583984 -0.4402771 C96.93263456 -0.44367929 98.87948616 -0.43445451 100.82617188 -0.41357422 C103.8098868 -0.38681226 106.78983989 -0.41331022 109.7734375 -0.4453125 C111.66407082 -0.44200846 113.5547018 -0.43560234 115.4453125 -0.42578125 C116.33911621 -0.4359024 117.23291992 -0.44602356 118.15380859 -0.45645142 C118.98477051 -0.44069061 119.81573242 -0.42492981 120.671875 -0.40869141 C121.40229004 -0.40471344 122.13270508 -0.40073547 122.88525391 -0.39663696 C124.8203125 0.23828125 124.8203125 0.23828125 126.55632019 2.15074158 C128.36150358 6.56024256 128.23069294 10.56412704 128.19262695 15.28588867 C128.19627762 16.29468079 128.19992828 17.3034729 128.20368958 18.34283447 C128.21179245 21.67664449 128.19818197 25.00996786 128.18359375 28.34375 C128.18307491 30.66677347 128.18359353 32.98979739 128.18510437 35.31282043 C128.18501464 40.18428088 128.17458812 45.05557585 128.15649414 49.92700195 C128.13387033 56.15311518 128.13325154 62.37898532 128.14001179 68.60512829 C128.1433645 73.40513749 128.13669612 78.20509192 128.12688255 83.00509071 C128.12304797 85.29946925 128.12187507 87.5938539 128.1234684 89.88823509 C128.12384192 93.10684023 128.11113676 96.32514191 128.0949707 99.54370117 C128.09744812 100.48172073 128.09992554 101.4197403 128.10247803 102.38618469 C128.00883653 114.14960612 125.59616807 125.75077495 117.4453125 134.7421875 C100.36093143 150.47131719 77.08570398 155.85585887 54.33984375 155.421875 C32.92056792 154.30455429 13.14462891 148.94502266 -2.1796875 133.23828125 C-14.12444601 119.03897667 -12.48286069 101.62942078 -12.4453125 84.05078125 C-12.44666196 81.8168941 -12.44860483 79.58300724 -12.45111084 77.34912109 C-12.45404398 72.69284234 -12.44981975 68.03664081 -12.44042969 63.38037109 C-12.42898297 57.41407701 -12.43563898 51.44796187 -12.44757462 45.48167419 C-12.45479695 40.88005215 -12.45250447 36.27847268 -12.44731903 31.67684937 C-12.44598632 29.47602314 -12.44761698 27.27519303 -12.45227814 25.07437134 C-12.45735525 22.00650747 -12.44961867 18.93893583 -12.43847656 15.87109375 C-12.44252502 14.96506912 -12.44657349 14.05904449 -12.45074463 13.12556458 C-12.37883756 2.44190818 -10.64613434 0.08698152 0 0 Z " fill="#313133" transform="translate(750.1796875,64.76171875)"/>
<path d="M0 0 C0.68344482 0.14920898 1.36688965 0.29841797 2.07104492 0.45214844 C6.36621432 1.51332708 9.27572959 3.02799584 12.4375 6.125 C14.13395913 11.21437738 13.7021986 16.62215182 13.73266602 21.94897461 C13.74420816 23.35630327 13.76469564 24.76358739 13.79418945 26.1706543 C13.83685657 28.20651924 13.85302956 30.24108733 13.86328125 32.27734375 C13.87786377 33.49413818 13.89244629 34.71093262 13.9074707 35.96459961 C13.34927705 39.71827071 12.45094528 40.88887574 9.4375 43.125 C4.80208117 43.72934032 0.93325829 42.56890638 -3.5 41.25 C-19.06162408 36.89274526 -41.2284044 32.95925917 -56.5625 40.125 C-59.3301772 42.32431492 -59.52739322 42.88364092 -60.0625 46.5625 C-59.89906566 50.22970916 -59.89906566 50.22970916 -57.3125 52.5 C-53.58799946 54.70084123 -50.52866782 55.23400485 -46.24609375 55.3359375 C-24.59073893 56.01110445 -0.82454951 57.15381993 15.1875 73.75 C24.61955373 85.1342695 25.30223989 99.06600304 24.4375 113.125 C22.78719653 124.87204205 17.48313031 135.33096634 8.4375 143.125 C-17.69972759 159.73437123 -58.17221629 158.24349324 -87.44555664 151.74902344 C-96.99567489 149.4977904 -96.99567489 149.4977904 -100.5625 145.125 C-102.75954432 140.73091135 -101.83082092 134.83173881 -101.85766602 129.94921875 C-101.87488187 127.7649869 -101.91877034 125.58226825 -101.96289062 123.3984375 C-101.97301777 122.00782362 -101.98153381 120.61719689 -101.98828125 119.2265625 C-102.00286377 117.96150879 -102.01744629 116.69645508 -102.0324707 115.39306641 C-101.5625 112.125 -101.5625 112.125 -99.73339844 109.67333984 C-97.5625 108.125 -97.5625 108.125 -94.40234375 108.25 C-93.13519531 108.53875 -91.86804688 108.8275 -90.5625 109.125 C-89.04319072 109.43857739 -87.52364653 109.75101813 -86.00390625 110.0625 C-83.56064182 110.59098658 -81.11897869 111.12632632 -78.67773438 111.6640625 C-69.4381922 113.65938668 -60.6301583 114.32992765 -51.1875 114.375 C-50.115 114.395625 -49.0425 114.41625 -47.9375 114.4375 C-40.94860074 114.47150924 -35.1203122 113.52423793 -28.5625 111.125 C-27.5725 110.795 -26.5825 110.465 -25.5625 110.125 C-24.8372277 107.0063291 -24.47368121 104.60240099 -25.0625 101.4375 C-27.17966254 98.17354109 -29.94796893 97.18384006 -33.5625 96.125 C-36.81191634 95.71207701 -40.03979274 95.66748693 -43.3125 95.625 C-64.23278035 94.95466707 -85.35599365 92.32202901 -100.4375 76.25 C-109.0907256 65.64216344 -110.33247252 52.54142063 -109.35546875 39.32421875 C-108.04550643 28.45585008 -103.22629662 17.28876298 -94.9765625 9.8671875 C-69.55589063 -8.47847537 -29.30532391 -6.62978219 0 0 Z " fill="#313133" transform="translate(1006.5625,64.875)"/>
<path d="M0 0 C13.53933484 -0.29179601 27.49418971 1.03156387 40.71875 3.94140625 C41.40219482 4.08223633 42.08563965 4.22306641 42.78979492 4.36816406 C47.51720877 5.51224957 50.1268414 7.35483855 53.15625 11.12890625 C55.00592249 16.47709381 54.34071291 22.48726859 54.34375 28.06640625 C54.35599609 29.24654297 54.36824219 30.42667969 54.38085938 31.64257812 C54.38279297 32.78146484 54.38472656 33.92035156 54.38671875 35.09375 C54.39082764 36.13136475 54.39493652 37.16897949 54.39916992 38.23803711 C54.14458787 41.26769146 53.53053643 43.42474318 52.15625 46.12890625 C46.16749232 49.12328509 36.13134582 45.08127296 29.90625 43.58984375 C21.49528644 41.63312653 13.28108011 40.94844118 4.65625 40.94140625 C3.47095703 40.92303711 3.47095703 40.92303711 2.26171875 40.90429688 C-4.48254467 40.88773976 -10.93129185 41.52408237 -16.90625 44.81640625 C-19.15892007 47.09055555 -19.15892007 47.09055555 -19.34375 50.69140625 C-19.09788763 53.98885106 -19.09788763 53.98885106 -17.71875 55.94140625 C-12.1977038 59.43806884 -6.46129571 59.42511022 -0.15625 59.56640625 C19.36674956 60.28466657 39.09760463 62.36924946 54.15625 76.12890625 C63.18419179 86.38041524 65.57109245 97.81207647 65.4296875 111.203125 C64.55745914 123.72583222 60.96622453 135.46550402 51.796875 144.4375 C43.83243499 151.17759286 35.51789218 154.44525436 25.34375 156.31640625 C24.45921143 156.48366211 23.57467285 156.65091797 22.66333008 156.82324219 C-1.4771049 161.25787705 -32.55125683 162.29634411 -55.84375 153.12890625 C-59.29804726 150.4005808 -60.69451085 148.96822495 -61.47485352 144.57958984 C-61.50086846 143.22909149 -61.49873363 141.8778409 -61.47265625 140.52734375 C-61.47506821 139.80906403 -61.47748016 139.0907843 -61.47996521 138.35073853 C-61.47898957 136.83956351 -61.46566317 135.32835151 -61.44067383 133.81738281 C-61.40624139 131.50332784 -61.42005384 129.19306936 -61.43945312 126.87890625 C-61.43255736 125.40753583 -61.42288739 123.93617525 -61.41015625 122.46484375 C-61.41511612 121.77417816 -61.42007599 121.08351257 -61.42518616 120.37191772 C-61.34692646 117.18783062 -61.21791033 115.53000533 -59.00585938 113.15869141 C-55.69073348 111.57973917 -53.40028496 112.37635358 -49.84375 113.12890625 C-49.1130127 113.2784375 -48.38227539 113.42796875 -47.62939453 113.58203125 C-44.39970861 114.24936065 -41.17964865 114.95854869 -37.95898438 115.66796875 C-28.7194422 117.66329293 -19.9114083 118.3338339 -10.46875 118.37890625 C-9.39625 118.39953125 -8.32375 118.42015625 -7.21875 118.44140625 C-0.08141794 118.47613779 8.05596906 118.38942583 13.90380859 113.73925781 C16.06539293 110.95995756 15.56954401 108.49430032 15.15625 105.12890625 C12.79749619 101.92774036 10.97430938 100.86703813 7.15625 100.12890625 C5.71985288 100.02000911 4.27995498 99.95224588 2.83984375 99.91796875 C-19.85822392 99.21029228 -43.66041018 97.60915283 -60.27734375 80.10546875 C-68.81217524 69.33583101 -69.87748475 56.35872316 -68.84375 43.12890625 C-66.96094651 30.52294848 -61.67187641 19.42534329 -51.46875 11.56640625 C-36.42778714 1.46460058 -17.51384817 0.79389696 0 0 Z " fill="#313133" transform="translate(655.84375,60.87109375)"/>
<path d="M0 0 C1.18564041 0.00223572 1.18564041 0.00223572 2.39523315 0.0045166 C37.53955406 0.12363031 37.53955406 0.12363031 48.3125 7.3125 C50.95878324 11.70697553 51.69603785 15.00233561 51.7109375 20.1015625 C51.71480469 21.37257813 51.71867187 22.64359375 51.72265625 23.953125 C51.71105469 25.26796875 51.69945312 26.5828125 51.6875 27.9375 C51.69819535 29.27344609 51.7099051 30.60938446 51.72265625 31.9453125 C51.71878906 33.21375 51.71492188 34.4821875 51.7109375 35.7890625 C51.70755371 36.94486816 51.70416992 38.10067383 51.70068359 39.29150391 C51.27596859 42.59680167 50.6995534 44.01336689 48.3125 46.3125 C43.19130672 46.89459452 38.91129469 45.83489849 34 44.4375 C18.44742121 40.27202425 -4.55860095 35.91517335 -19.375 44 C-22.01068716 46.19493031 -22.01068716 46.19493031 -22.3125 49.8125 C-21.60447563 53.77743649 -20.91494835 54.98156508 -17.6875 57.3125 C-14.31656935 58.41921838 -10.97316547 58.55234096 -7.4453125 58.7421875 C-6.21296875 58.81566406 -4.980625 58.88914062 -3.7109375 58.96484375 C-1.15135337 59.11103242 1.4085454 59.25183194 3.96875 59.38671875 C19.19740599 60.31683335 34.84981235 62.88949227 47.3125 72.3125 C48.1375 72.869375 48.9625 73.42625 49.8125 74 C58.03692522 81.60759333 61.92370349 92.0674266 62.515625 103.09765625 C62.7905124 117.98681064 60.61119622 131.90457455 49.9375 143.1875 C30.05024816 161.341658 -1.52571676 159.23379624 -26.6875 158.3125 C-52.85148952 156.95659267 -52.85148952 156.95659267 -61.35083008 150.19311523 C-64.32067913 146.53192529 -64.29458918 144.59860633 -64.24609375 139.9296875 C-64.24376236 139.23360382 -64.24143097 138.53752014 -64.23902893 137.82034302 C-64.2293256 136.35617735 -64.20761673 134.89204729 -64.17456055 133.42822266 C-64.12499471 131.18726078 -64.11306849 128.94849281 -64.10742188 126.70703125 C-63.9995081 115.78051215 -63.9995081 115.78051215 -61.6875 112.3125 C-56.96110215 110.92038569 -53.79482763 111.60178304 -49.1875 113.125 C-42.04250458 115.29695878 -35.10700864 116.53613286 -27.6875 117.3125 C-26.42035156 117.44785156 -25.15320313 117.58320313 -23.84765625 117.72265625 C-16.64182316 118.33908445 -9.75719527 118.35486387 -2.5625 117.5625 C-1.86406982 117.48870117 -1.16563965 117.41490234 -0.44604492 117.33886719 C3.98680452 116.76564002 7.48275447 115.61733166 11.3125 113.3125 C12.83741998 110.26266004 12.54812548 107.6701631 12.3125 104.3125 C10.50855599 101.23518374 7.77573375 100.66204544 4.4465332 99.74291992 C0.31953439 98.91053245 -3.86574298 98.96426935 -8.0625 98.875 C-26.13800795 98.24272605 -44.90895032 96.22651323 -58.6875 83.3125 C-59.32429687 82.71695313 -59.96109375 82.12140625 -60.6171875 81.5078125 C-69.87022031 71.93707899 -72.03374929 59.89368241 -71.8984375 47.0390625 C-71.16135305 34.01723716 -66.68601671 22.0862403 -57.01171875 13.09375 C-40.84652945 0.70496627 -19.52818033 -0.09109176 0 0 Z " fill="#313133" transform="translate(1030.6875,251.6875)"/>
<path d="M0 0 C1.51586197 -0.00810448 1.51586197 -0.00810448 3.06234741 -0.01637268 C6.38659371 -0.02883178 9.7099695 -0.01239175 13.03417969 0.00561523 C15.34869431 0.00546023 17.66320919 0.00397102 19.97772217 0.00120544 C24.81957524 -0.00017712 29.66113155 0.01235999 34.50292969 0.03515625 C40.71630349 0.06360371 46.92918672 0.06078431 53.1425972 0.04806614 C57.91746228 0.04112188 62.69221338 0.04888287 67.4670639 0.06132317 C69.75885329 0.06584538 72.05065486 0.06616777 74.34244537 0.06225777 C77.53844961 0.05935628 80.73376961 0.07579979 83.9296875 0.09765625 C85.355728 0.09090378 85.355728 0.09090378 86.81057739 0.08401489 C87.67965729 0.09391953 88.54873718 0.10382416 89.44415283 0.11402893 C90.57676481 0.11767377 90.57676481 0.11767377 91.73225784 0.12139225 C94.2776025 0.61183643 95.16467139 1.44431579 96.70605469 3.50170898 C97.07836914 6.73217773 97.07836914 6.73217773 97.06933594 10.68920898 C97.07008369 11.73757935 97.07008369 11.73757935 97.07084656 12.80712891 C97.0685086 14.2831507 97.05879634 15.75917667 97.04223633 17.23510742 C97.01863932 19.49360831 97.02167739 21.7509286 97.02832031 24.00952148 C96.98528237 35.08286746 96.98528237 35.08286746 94.70605469 38.50170898 C91.3515334 39.61988275 88.84187204 39.62196768 85.30688477 39.61523438 C84.34062416 39.61545341 84.34062416 39.61545341 83.35484314 39.61567688 C81.22838966 39.61498094 79.10202409 39.60720347 76.97558594 39.59936523 C75.50013782 39.59749992 74.02468907 39.59607655 72.54924011 39.59507751 C68.66779874 39.59126124 64.78639484 39.58143855 60.90496826 39.57037354 C56.9434866 39.56014029 52.98199888 39.55557579 49.02050781 39.55053711 C41.24900438 39.53981548 33.47753956 39.52222588 25.70605469 39.50170898 C25.70605469 45.44170898 25.70605469 51.38170898 25.70605469 57.50170898 C27.50792236 57.48076172 29.30979004 57.45981445 31.16625977 57.43823242 C37.11736081 57.37375128 43.06836314 57.32777926 49.01970387 57.2944603 C52.62832448 57.27357848 56.23656745 57.24525134 59.8449707 57.19995117 C63.32685243 57.15651256 66.80837079 57.13257635 70.29050255 57.12220001 C72.26652904 57.11120394 74.24240917 57.07997446 76.21821594 57.04852295 C77.41923447 57.04822083 78.62025299 57.0479187 79.85766602 57.04760742 C80.91689774 57.03872498 81.97612946 57.02984253 83.06745911 57.02069092 C85.70605469 57.50170898 85.70605469 57.50170898 87.5473175 59.33355713 C89.18114259 62.39066184 89.09483715 64.86046535 89.10449219 68.31420898 C89.10736237 68.96494385 89.11023254 69.61567871 89.1131897 70.28613281 C89.11522525 71.65780511 89.10973092 73.02950677 89.09716797 74.40112305 C89.08110454 76.49521064 89.09703126 78.58736859 89.11621094 80.68139648 C89.11422841 82.01733822 89.11038454 83.35327877 89.10449219 84.68920898 C89.1011084 85.89963867 89.09772461 87.11006836 89.09423828 88.35717773 C88.6617057 91.8609637 88.18096816 93.03945014 85.70605469 95.50170898 C83.06745911 95.98272705 83.06745911 95.98272705 79.85766602 95.95581055 C78.65664749 95.95550842 77.45562897 95.9552063 76.21821594 95.95489502 C74.92127304 95.93424988 73.62433014 95.91360474 72.28808594 95.89233398 C70.94716739 95.88487212 69.60623792 95.87917893 68.26530457 95.87518311 C64.73867603 95.85992198 61.21270813 95.82063748 57.68634033 95.77636719 C54.08688291 95.73542395 50.48731856 95.71717421 46.88769531 95.69702148 C39.82685261 95.65414249 32.76656631 95.5837896 25.70605469 95.50170898 C25.70605469 101.44170898 25.70605469 107.38170898 25.70605469 113.50170898 C28.71907715 113.47028809 28.71907715 113.47028809 31.79296875 113.43823242 C38.43054373 113.37194573 45.06813336 113.32776706 51.70595169 113.2944603 C55.73041546 113.27358765 59.75454004 113.24527664 63.77880859 113.19995117 C67.66269004 113.15648078 71.5462453 113.13256944 75.43035126 113.12220001 C76.91195562 113.11481068 78.39354218 113.10038081 79.87500763 113.07878876 C81.9509179 113.04973687 84.02548156 113.04575342 86.1015625 113.04760742 C87.28292786 113.03872498 88.46429321 113.02984253 89.68145752 113.02069092 C93.3456313 113.60342432 94.51689821 114.55237915 96.70605469 117.50170898 C97.20776367 120.84570313 97.20776367 120.84570313 97.20214844 124.78686523 C97.20360367 125.48436386 97.2050589 126.18186249 97.20655823 126.90049744 C97.20490258 128.37055654 97.19337846 129.84063358 97.17260742 131.31054688 C97.1436017 133.56056214 97.15201268 135.80822701 97.16503906 138.05834961 C97.15880261 139.4886996 97.15041239 140.91904215 97.13964844 142.34936523 C97.1298999 143.6488208 97.12015137 144.94827637 97.11010742 146.28710938 C96.70605469 149.50170898 96.70605469 149.50170898 95.44759083 151.17839146 C93.27982101 152.82558541 92.14102911 152.88070354 89.43742371 152.88938904 C88.56689865 152.89929367 87.6963736 152.9091983 86.79946899 152.91940308 C85.84720428 152.91490143 84.89493958 152.91039978 83.91381836 152.90576172 C82.9086467 152.91262497 81.90347504 152.91948822 80.86784363 152.92655945 C77.53642754 152.9448988 74.20547931 152.94097891 70.87402344 152.93530273 C68.56097764 152.93986188 66.2479332 152.94516665 63.93489075 152.95118713 C59.08178208 152.96013286 54.22883784 152.95767934 49.37573242 152.94775391 C43.15799205 152.93627663 36.94082063 152.95644978 30.72315502 152.98567104 C25.94387711 153.00402562 21.16473561 153.00374177 16.38543129 152.99803352 C14.09331783 152.99788014 11.80119522 153.00393823 9.50911522 153.016325 C6.30120685 153.03121442 3.09435024 153.02057119 -0.11352539 153.00341797 C-1.53281342 153.01791992 -1.53281342 153.01791992 -2.98077393 153.03271484 C-8.59476327 152.96990516 -11.85265772 152.27110663 -16.29394531 148.50170898 C-20.21528543 144.1564402 -21.41451515 141.12911439 -21.44111633 135.33540344 C-21.45184929 133.73104179 -21.45184929 133.73104179 -21.46279907 132.0942688 C-21.46548798 130.92072845 -21.46817688 129.74718811 -21.47094727 128.53808594 C-21.47751846 127.30204117 -21.48408966 126.0659964 -21.49085999 124.79249573 C-21.51061127 120.69165811 -21.52226228 116.59085963 -21.53222656 112.48999023 C-21.53627512 111.07642281 -21.54039207 109.66285558 -21.54457664 108.24928856 C-21.56362626 101.60605457 -21.57785643 94.96283166 -21.58618861 88.31957561 C-21.59595344 80.66119649 -21.62225389 73.00310698 -21.66268951 65.34482986 C-21.69289732 59.41942554 -21.70766199 53.494104 -21.71096963 47.5686242 C-21.71331528 44.03259594 -21.7222115 40.49687715 -21.7474308 36.96093178 C-21.77514529 33.01129629 -21.77086609 29.06203847 -21.76391602 25.11230469 C-21.77672607 23.9488855 -21.78953613 22.78546631 -21.80273438 21.58679199 C-21.76157984 15.16408739 -21.46713424 9.64799939 -17.29394531 4.50170898 C-11.73701337 0.08596293 -6.92820878 -0.07106083 0 0 Z " fill="#313133" transform="translate(1270.2939453125,254.498291015625)"/>
<path d="M0 0 C22.69135693 15.12538963 22.69135693 15.12538963 25.69287109 21.12841797 C26.27226627 25.34972571 26.09240691 28.20832816 23.56787109 31.62841797 C13.22419178 42.51006642 -5.08044854 46.33241547 -19.16186523 49.42089844 C-21.26772102 49.8834906 -23.37046175 50.35866255 -25.47314453 50.83544922 C-35.73547957 53.12841797 -35.73547957 53.12841797 -40.30712891 53.12841797 C-40.45408203 53.72267578 -40.60103516 54.31693359 -40.75244141 54.92919922 C-44.56956307 69.0349994 -53.67835222 84.60078691 -66.68212891 92.06591797 C-72.45692617 93.75853096 -77.09953811 93.78682224 -82.86962891 92.06591797 C-89.86748177 88.12167363 -94.47179546 83.34867149 -98.86962891 76.62841797 C-99.26279297 76.03311279 -99.65595703 75.43780762 -100.06103516 74.82446289 C-102.06199746 71.64046519 -103.52333841 68.74195745 -104.48291016 65.09716797 C-105.70140276 60.81125494 -106.8575112 57.12198452 -110.30712891 54.12841797 C-117.69881964 50.93440907 -125.93294988 50.07857352 -133.82373047 48.78076172 C-148.01828576 46.12251587 -165.94737773 40.90118157 -175.17041016 29.13232422 C-176.30712891 27.12841797 -176.30712891 27.12841797 -176.74462891 23.62841797 C-173.42243641 15.53960146 -165.18828551 10.21789618 -158.18212891 5.37841797 C-157.32031006 4.78134033 -156.45849121 4.1842627 -155.57055664 3.5690918 C-140.30497493 -6.80260079 -123.92228785 -15.12637659 -106.76953125 -21.89746094 C-105.17311407 -22.52900016 -103.58183511 -23.17374945 -101.99707031 -23.83398438 C-66.98018659 -38.32927431 -29.63338151 -19.36395708 0 0 Z " fill="#FDFDFD" transform="translate(311.30712890625,138.87158203125)"/>
<path d="M0 0 C0.93725418 -0.00020928 1.87450836 -0.00041857 2.84016418 -0.00063419 C3.91696442 -0.01046833 4.99376465 -0.02030247 6.10319519 -0.03043461 C7.28459076 -0.02076664 8.46598633 -0.01109867 9.68318176 -0.00113773 C11.54929611 -0.00924221 11.54929611 -0.00924221 13.45310974 -0.01751041 C16.86659824 -0.0278864 20.27912003 -0.02028202 23.69252396 -0.0037992 C27.26257484 0.0100395 30.83259617 0.00359258 34.40266418 0.00006771 C40.39827084 -0.00263536 46.3936774 0.01084935 52.38923645 0.03401852 C59.32337018 0.06062903 66.25716934 0.06237581 73.19133663 0.05063015 C79.85863467 0.0398551 86.52581156 0.04603724 93.19309998 0.06018543 C96.03197591 0.06594766 98.87076325 0.06586074 101.7096405 0.06112003 C105.67230413 0.05546662 109.63463224 0.0746578 113.59724426 0.09651852 C114.77863983 0.09201687 115.9600354 0.08751522 117.17723083 0.08287716 C118.25403107 0.09278179 119.3308313 0.10268642 120.44026184 0.1128912 C121.37751602 0.11532109 122.3147702 0.11775099 123.28042603 0.12025452 C125.64021301 0.50057125 125.64021301 0.50057125 127.44194031 1.82289696 C129.42690654 4.60200292 129.01114423 7.33697038 129.00349426 10.68807125 C129.00424202 11.73644161 129.00424202 11.73644161 129.00500488 12.80599117 C129.00266693 14.28201297 128.99295466 15.75803894 128.97639465 17.23396969 C128.95279765 19.49247058 128.95583572 21.74979087 128.96247864 24.00838375 C128.91944069 35.08172973 128.91944069 35.08172973 126.64021301 38.50057125 C122.75560254 39.79544141 119.08137345 39.62383165 115.03474426 39.5982275 C114.1955394 39.59681255 113.35633453 39.59539761 112.49169922 39.59393978 C109.81200085 39.5883434 107.13238611 39.5757916 104.45271301 39.56307125 C102.63565693 39.55805578 100.81859953 39.55349296 99.00154114 39.54939938 C94.54773289 39.53837516 90.09398713 39.52111303 85.64021301 39.50057125 C85.6420566 40.05348717 85.64390018 40.60640308 85.64579964 41.17607403 C85.68996891 54.62992687 85.72293717 68.083767 85.74383736 81.53767681 C85.75428371 88.04389042 85.76845852 94.55005178 85.79109192 101.05623531 C85.81278981 107.33263063 85.82477522 113.60897562 85.8299675 119.88540554 C85.83366874 122.28244221 85.84089613 124.67947606 85.85167313 127.07649136 C85.8661473 130.42852431 85.86819264 133.78034812 85.86726379 137.13240719 C85.87445435 138.12790585 85.8816449 139.1234045 85.88905334 140.14906979 C85.88630402 141.06329708 85.88355469 141.97752438 85.88072205 142.91945553 C85.88256563 143.71219749 85.88440922 144.50493946 85.88630867 145.32170391 C85.60669354 147.79734401 84.95679924 149.39375908 83.64021301 151.50057125 C80.28263419 153.17936066 76.49388204 152.68534188 72.80036926 152.70369625 C71.92247238 152.70939632 71.0445755 152.7150964 70.14007568 152.7209692 C68.28149116 152.73042276 66.42288985 152.73695459 64.56428528 152.74080563 C61.71755363 152.7505206 58.87154103 152.78154404 56.02497864 152.81307125 C54.22094648 152.81960031 52.41690914 152.82485116 50.61286926 152.82869625 C49.75967606 152.84104305 48.90648285 152.85338985 48.0274353 152.8661108 C42.05411938 152.84353754 42.05411938 152.84353754 39.95391846 151.10329342 C37.71507687 148.37190409 37.51594974 146.61551402 37.5199585 143.15996456 C37.51858383 142.2484866 37.51720917 141.33700863 37.51579285 140.39791012 C37.52118576 138.8938763 37.52118576 138.8938763 37.52668762 137.35945797 C37.5265416 136.3057803 37.52639557 135.25210262 37.52624512 134.16649532 C37.52694381 130.67106245 37.53473421 127.17568235 37.54255676 123.68025875 C37.5444211 121.26173081 37.54584493 118.84320249 37.54684448 116.42467403 C37.55066845 110.0492871 37.56049773 103.67392284 37.57154846 97.29854488 C37.58176516 90.79687971 37.58634266 84.29521088 37.59138489 77.79354 C37.60212008 65.0292074 37.61900371 52.26489053 37.64021301 39.50057125 C36.51002747 39.51104488 35.37984192 39.52151852 34.21540833 39.53230953 C30.0185005 39.56853557 25.82160647 39.59148123 21.62458801 39.61043453 C19.80880915 39.62048617 17.99304646 39.63412954 16.17732239 39.65145016 C13.56595366 39.67573531 10.95479914 39.68706273 8.34333801 39.69588375 C7.12750031 39.71136761 7.12750031 39.71136761 5.88710022 39.72716427 C-1.31934987 39.72859575 -1.31934987 39.72859575 -4.35978699 37.50057125 C-6.55333967 33.11346589 -5.58688972 27.20100759 -5.60002136 22.32479 C-5.60971933 20.14080771 -5.64073829 17.9577698 -5.67228699 15.77400875 C-5.67881807 14.38338933 -5.68406813 12.99276319 -5.68791199 11.60213375 C-5.69725769 10.33708004 -5.70660339 9.07202633 -5.7162323 7.76863766 C-5.2637138 3.61972487 -4.34797069 0.92231593 0 0 Z " fill="#313133" transform="translate(1104.3597869873047,254.49942874908447)"/>
<path d="M0 0 C1.06734375 -0.01611328 2.1346875 -0.03222656 3.234375 -0.04882812 C13.47921287 -0.05512102 21.1680768 2.06158566 29.07421875 8.75 C33.88295797 13.77171368 34.15425093 19.30095429 34.01513672 25.9519043 C33.64878637 32.3073167 32.15280369 37.11453915 28.375 42.3125 C27.84003906 43.055 27.30507813 43.7975 26.75390625 44.5625 C11.42399921 63.55180421 -14.98397784 72.72652894 -37.625 79.3125 C-38.34768066 79.52487305 -39.07036133 79.73724609 -39.81494141 79.95605469 C-55.29897313 84.41330355 -70.54564375 85.48978411 -86.5625 85.5625 C-87.24282288 85.56785767 -87.92314575 85.57321533 -88.62408447 85.57873535 C-90.57096943 85.5903775 -92.51793473 85.58459562 -94.46484375 85.578125 C-95.60300537 85.57586914 -96.74116699 85.57361328 -97.91381836 85.57128906 C-100.625 85.3125 -100.625 85.3125 -102.625 83.3125 C-102.95873243 63.9560191 -86.53807092 43.48566928 -74 30.3125 C-54.16305081 11.01985734 -27.64861372 -0.08408946 0 0 Z " fill="#FDFCFC" transform="translate(322.625,336.6875)"/>
<path d="M0 0 C1.92480469 0.71020508 1.92480469 0.71020508 4 2 C4.78613281 4.06518555 4.78613281 4.06518555 5.203125 6.63671875 C5.45968872 8.07374146 5.45968872 8.07374146 5.72143555 9.53979492 C5.89586182 10.5785376 6.07028809 11.61728027 6.25 12.6875 C11.07710032 38.17650139 21.01521116 62.75607812 36 84 C36.71800781 85.02222656 37.43601562 86.04445313 38.17578125 87.09765625 C48.84699806 101.78716429 62.07196361 115.36599313 76 127 C75.47462222 130.88570246 74.60326665 132.91235951 71.90234375 135.7421875 C71.26490234 136.41636719 70.62746094 137.09054687 69.97070312 137.78515625 C69.29974609 138.47480469 68.62878906 139.16445313 67.9375 139.875 C67.29361328 140.55691406 66.64972656 141.23882812 65.98632812 141.94140625 C62.08192819 146.02876411 58.01981791 149.8403785 53.72119141 153.51025391 C52.24578827 154.7872624 50.83420411 156.13736185 49.4375 157.5 C47 159 47 159 43.84375 159.03515625 C38.56367428 157.61318464 35.85644366 154.74734071 32.0625 150.9375 C31.35665771 150.25010742 30.65081543 149.56271484 29.92358398 148.85449219 C28.5416605 147.50501123 27.16582035 146.14926558 25.796875 144.78662109 C24.38098828 143.37881416 22.94419342 141.99203465 21.5 140.61328125 C16.16943384 135.48691016 11.55792244 129.81178769 7 124 C6.31115723 123.13375 6.31115723 123.13375 5.60839844 122.25 C-12.6206588 99.22895647 -25.12604507 73.08269476 -34.3125 45.3125 C-34.66248047 44.27939697 -35.01246094 43.24629395 -35.37304688 42.18188477 C-37.65618581 35.10674343 -38.69817322 28.42493876 -39 21 C-37.865625 20.505 -36.73125 20.01 -35.5625 19.5 C-33.70790412 18.66762232 -31.85382102 17.83410198 -30 17 C-29.06679932 16.58935303 -29.06679932 16.58935303 -28.11474609 16.17041016 C-17.94497536 11.68052574 -8.90326166 6.6890592 0 0 Z " fill="#FDFCFC" transform="translate(192,200)"/>
<path d="M0 0 C1.21641174 -0.01418472 1.21641174 -0.01418472 2.45739746 -0.02865601 C3.76529236 -0.01954697 3.76529236 -0.01954697 5.09960938 -0.01025391 C6.44762634 -0.01455917 6.44762634 -0.01455917 7.82287598 -0.01895142 C9.72258128 -0.02099256 11.62230758 -0.01545919 13.52197266 -0.00292969 C16.43244347 0.01312339 19.34152558 -0.00277653 22.25195312 -0.02197266 C24.09700828 -0.01999023 25.94206257 -0.01614658 27.78710938 -0.01025391 C28.65903931 -0.0163266 29.53096924 -0.02239929 30.42932129 -0.02865601 C31.24026245 -0.01919952 32.05120361 -0.00974304 32.88671875 0 C33.5993689 0.00238678 34.31201904 0.00477356 35.04626465 0.00723267 C37.60955932 0.52196157 38.35881198 1.31277948 39.94335938 3.38818359 C40.32367611 6.01067257 40.32367611 6.01067257 40.33103943 9.22679138 C40.34094406 10.44518707 40.35084869 11.66358276 40.36105347 12.91889954 C40.35681522 14.27121072 40.35225734 15.62352093 40.34741211 16.97583008 C40.35311362 18.39834124 40.36007703 19.82084783 40.36820984 21.24334717 C40.38618127 25.10908304 40.38496541 28.97459241 40.37926745 32.84035754 C40.37618118 36.0661038 40.38226181 39.29180621 40.3883062 42.51754624 C40.40236303 50.12688745 40.40078069 57.73611643 40.3894043 65.34545898 C40.37792282 73.19868555 40.39199643 81.05157063 40.41880077 88.90475219 C40.44094461 95.64454667 40.44759811 102.38423385 40.44172436 109.12406212 C40.43835028 113.15064134 40.44079947 117.17700166 40.45797539 121.20355034 C40.47342159 124.99001702 40.46951544 128.77597721 40.45067024 132.56242371 C40.44697777 133.95238204 40.45011206 135.34237771 40.46055603 136.73230171 C40.47372037 138.629027 40.45983854 140.52588269 40.44456482 142.42259216 C40.44435554 143.4842884 40.44414625 144.54598463 40.44393063 145.63985348 C39.81936411 149.06896564 38.63768174 150.24920153 35.94335938 152.38818359 C34.00866699 152.89611816 34.00866699 152.89611816 31.97265625 152.90576172 C31.20505981 152.91837036 30.43746338 152.930979 29.64660645 152.94396973 C28.82672241 152.9358728 28.00683838 152.92777588 27.16210938 152.91943359 C26.31161011 152.9232605 25.46111084 152.9270874 24.58483887 152.93103027 C22.78945734 152.93374818 20.99403613 152.92639542 19.19873047 152.90966797 C16.45255145 152.88825527 13.7089884 152.9094723 10.96289062 152.93505859 C9.21679111 152.93241529 7.47069322 152.92729027 5.72460938 152.91943359 C4.90472534 152.92753052 4.08484131 152.93562744 3.2401123 152.94396973 C2.08871765 152.92505676 2.08871765 152.92505676 0.9140625 152.90576172 C-0.09376282 152.90098816 -0.09376282 152.90098816 -1.12194824 152.89611816 C-4.01874651 152.1355921 -5.17888821 150.68927059 -7.05664062 148.38818359 C-7.55721188 145.63985348 -7.55721188 145.63985348 -7.55784607 142.42259216 C-7.56768021 141.20137665 -7.57751434 139.98016113 -7.58764648 138.72193909 C-7.57827486 137.37167079 -7.56849556 136.02140528 -7.55834961 134.67114258 C-7.56213326 133.24686143 -7.56763369 131.82258396 -7.57472229 130.39831543 C-7.58868719 126.53261526 -7.57750076 122.66735964 -7.56101108 118.80168414 C-7.54716581 114.75784625 -7.55361995 110.71403431 -7.55714417 106.67018127 C-7.5598464 99.88022695 -7.54636857 93.09044938 -7.52319336 86.30053711 C-7.49657275 78.446742 -7.49483982 70.59324226 -7.50658172 62.73941749 C-7.51735408 55.18739057 -7.51117742 47.63547065 -7.49702644 40.08345222 C-7.49126298 36.86778298 -7.4913521 33.65219194 -7.49609184 30.43652153 C-7.50085797 26.65173319 -7.49077548 22.86726906 -7.46913719 19.08254242 C-7.46356451 17.69217332 -7.46310846 16.30177309 -7.46809006 14.91140175 C-7.47402875 13.01652437 -7.45972416 11.12161546 -7.44432068 9.22679138 C-7.44189078 8.16547217 -7.43946089 7.10415297 -7.43695736 6.01067257 C-7.05664062 3.38818359 -7.05664062 3.38818359 -5.65097904 1.54708004 C-3.63838348 0.08415986 -2.47531203 0.00829022 0 0 Z " fill="#313133" transform="translate(1218.056640625,64.61181640625)"/>
<path d="M0 0 C0.70125 0.2371875 1.4025 0.474375 2.125 0.71875 C2.70323678 12.01042933 1.98118155 19.36125062 -5.375 28.09375 C-7.21543798 30.12659741 -8.58818125 31.57093202 -11.03515625 32.83203125 C-14.17220472 36.04900452 -13.61436767 40.20721601 -13.8125 44.53125 C-14.9018843 60.00969163 -17.21098253 88.05473253 -28.875 99.71875 C-53.15340619 101.75500342 -80.88670791 94.70676264 -102.875 84.71875 C-103.535 84.05875 -104.195 83.39875 -104.875 82.71875 C-104.69754132 75.863241 -101.67173427 69.83584836 -99.0625 63.59375 C-94.05231974 51.31960196 -90.06933521 39.32801872 -87.26806641 26.36328125 C-86.51400946 22.96247648 -85.8309693 20.65270395 -83.875 17.71875 C-81.25561523 17.42578125 -81.25561523 17.42578125 -77.93359375 17.53125 C-76.71865234 17.55695068 -75.50371094 17.58265137 -74.25195312 17.60913086 C-72.30192383 17.66339233 -72.30192383 17.66339233 -70.3125 17.71875 C-47.36111111 18.06587333 -25.16643849 13.91998901 -5.6875 1.125 C-2.875 -0.28125 -2.875 -0.28125 0 0 Z " fill="#FDFCFC" transform="translate(417.875,206.28125)"/>
<path d="M0 0 C4.90787144 0.40744593 8.68222331 2.88494138 12.875 5.25 C32.72718136 16.03195354 52.10192529 18.45947375 74.42626953 17.9777832 C76.24167236 17.94430786 76.24167236 17.94430786 78.09375 17.91015625 C79.72860352 17.86580444 79.72860352 17.86580444 81.39648438 17.82055664 C84 18 84 18 86 20 C86.7109375 22.30883789 86.7109375 22.30883789 87.375 25.22265625 C87.63313477 26.30708008 87.89126953 27.39150391 88.15722656 28.50878906 C88.4353418 29.68151367 88.71345703 30.85423828 89 32.0625 C92.58043445 46.56735032 97.51749837 60.59510914 103.99804688 74.07617188 C105.25043595 76.71442459 105.99254781 78.81289675 106.109375 81.74609375 C104.4301142 85.15783136 101.6533088 85.8781235 98.25 87.0625 C97.57042236 87.31435059 96.89084473 87.56620117 96.19067383 87.82568359 C94.13516609 88.57614892 92.07085863 89.29313745 90 90 C88.92621094 90.37253906 87.85242188 90.74507813 86.74609375 91.12890625 C70.45491402 96.43446287 47.16181121 103.40924869 30 100 C18.09686669 88.40861542 15.31457639 59.99165182 14.90234375 44.27734375 C14.91394531 43.17519531 14.92554687 42.07304687 14.9375 40.9375 C14.94652344 39.81214844 14.95554687 38.68679687 14.96484375 37.52734375 C14.97644531 36.69332031 14.98804687 35.85929687 15 35 C14.39027344 34.70351562 13.78054687 34.40703125 13.15234375 34.1015625 C6.40435351 30.64796314 3.14848033 25.30436921 -0.1328125 18.73046875 C-1.24918799 15.21539458 -1.25423076 11.89560656 -1.1875 8.25 C-1.18685547 7.56550781 -1.18621094 6.88101563 -1.18554688 6.17578125 C-1.14067963 1.14067963 -1.14067963 1.14067963 0 0 Z " fill="#FDFCFC" transform="translate(54,206)"/>
<path d="M0 0 C0.957854 0.00942627 1.91570801 0.01885254 2.90258789 0.02856445 C27.239151 0.53900795 51.07336671 9.22455326 69.375 25.375 C70.16003906 25.9834375 70.94507813 26.591875 71.75390625 27.21875 C72.49511719 27.8065625 73.23632812 28.394375 74 29 C74.65226562 29.50789063 75.30453125 30.01578125 75.9765625 30.5390625 C77.375 32.375 77.375 32.375 77.80859375 35.21484375 C77.28075939 39.06185273 75.98737319 41.10590329 73.8125 44.3125 C66.84231601 55.03275177 62.12718899 66.34647496 58.3203125 78.5234375 C57.375 81.375 57.375 81.375 56.375 82.375 C50.20152414 82.2187204 44.1861791 80.77910668 38.25 79.1875 C37.4252417 78.96682861 36.6004834 78.74615723 35.75073242 78.51879883 C13.43694441 72.3536856 -15.46397802 60.50807636 -28.1875 40.1875 C-32.14034642 32.85138158 -33.77480053 25.68709966 -32.625 17.375 C-30.34740428 11.45731826 -25.90435609 6.77878725 -20.625 3.375 C-13.8389114 0.56432411 -7.27925973 -0.11234829 0 0 Z " fill="#FDFCFC" transform="translate(148.625,336.625)"/>
<path d="M0 0 C3.98757422 0.27778607 6.99510038 2.87324482 10.1875 5.0625 C20.14398181 11.6876928 31.02612913 16.33574719 42 21 C39.25813502 53.90237974 22.22400774 88.71815035 2.58984375 114.87890625 C1 116 1 116 -1.37109375 115.92578125 C-11.18036657 112.47140137 -19.95524182 101.47874758 -27 94 C-27.72364746 93.26402588 -27.72364746 93.26402588 -28.46191406 92.51318359 C-30.7208339 90.07250246 -31.93706276 88.33317127 -32.55859375 85.04296875 C-31.85630999 81.21724114 -30.18006783 78.49274592 -28.0625 75.3125 C-15.11985547 54.7207577 -5.05543894 30.00545418 -2.5234375 5.64453125 C-2 2 -2 2 0 0 Z " fill="#FDFCFC" transform="translate(278,200)"/>
<path d="M0 0 C10.16032602 1.31486572 18.96196303 6.95365672 26.25 13.875 C28.35692522 18.08885044 27.68081235 22.34509078 26.44921875 26.71875 C23.59754346 34.32321745 18.82927119 43.0853644 11.25 46.875 C0.97083667 46.70920704 -7.88020995 42.10070594 -15.4453125 35.26953125 C-18.21758445 32.30635434 -18.75 31.06813369 -18.75 26.9375 C-17.34421482 17.00005303 -10.47517687 2.44420794 0 0 Z " fill="#FDFBFB" transform="translate(313.75,68.125)"/>
<path d="M0 0 C7.52671689 4.66656447 12.95936911 13.42605891 15 22 C15.73833687 25.94463308 15.96144047 29.24108566 13.9921875 32.84375 C10.18118588 37.23338538 5.08911526 39.79655761 0 42.4375 C-0.67611328 42.79207275 -1.35222656 43.14664551 -2.04882812 43.51196289 C-6.51132537 45.6928948 -9.93531836 46.49518546 -15 46 C-22.84698547 41.68415799 -27.76195236 31.76399744 -30.38671875 23.53125 C-31.30793793 19.72902051 -31.45952723 17.68356873 -30 14 C-22.98836974 5.80397274 -11.19286115 -1.81217752 0 0 Z " fill="#FDFBFB" transform="translate(162,69)"/>
<path d="M0 0 C7.93494574 4.43690668 13.19557598 13.58672795 16 22 C16.7695374 28.59603483 16.7695374 28.59603483 14.9765625 31.8671875 C8.32004828 40.14185987 -0.83337489 44.71000748 -11.125 46.5625 C-16.47695235 45.51537889 -19.58215078 41.98763909 -22.671875 37.65625 C-31.4506245 23.57548348 -31.4506245 23.57548348 -30 16 C-24.83798512 6.97696586 -10.63097582 -2.46087403 0 0 Z " fill="#FDFBFB" transform="translate(386,128)"/>
<path d="M0 0 C10.73103695 2.325058 21.50376004 7.44314005 27.75 16.8125 C28.30924874 22.41172538 27.13217168 25.92742318 24.5625 30.875 C23.97082031 32.04160156 23.37914062 33.20820313 22.76953125 34.41015625 C20.0104764 39.05838985 16.65633389 44.28924257 11.75 46.8125 C2.86420839 48.24057365 -4.10628473 43.65251373 -11.2421875 38.76171875 C-14.66325484 36.03358714 -17.57429211 33.64700106 -19.11328125 29.46875 C-19.8321739 20.78565451 -14.31721668 12.80826861 -9.25 6.20703125 C-6.31045474 2.96319712 -4.28841607 1.07210402 0 0 Z " fill="#FDFBFB" transform="translate(89.25,127.1875)"/>
<path d="M0 0 C0.88107422 -0.020625 1.76214844 -0.04125 2.66992188 -0.0625 C7.91096716 -0.09390701 11.52633742 0.32527546 16.0625 3.25 C19.90142263 7.08892263 20.30748707 11.79230628 20.34082031 17.06152344 C20.33147461 17.7424707 20.32212891 18.42341797 20.3125 19.125 C20.30234863 20.18509277 20.30234863 20.18509277 20.29199219 21.26660156 C20.17149431 27.33913429 19.94901925 32.49277956 16.4375 37.625 C9.14049756 42.61768588 -0.48010945 41.84090938 -8.9375 41.25 C-13.1804713 40.44659715 -16.06896793 39.31465222 -18.875 35.875 C-21.07977977 30.42789705 -21.14964157 25.10957183 -21.1875 19.3125 C-21.208125 18.52681641 -21.22875 17.74113281 -21.25 16.93164062 C-21.28887686 11.12440928 -20.14456788 7.15931675 -16.5625 2.4375 C-12.07761539 -0.83991567 -5.31065512 0.03094337 0 0 Z " fill="#FDFBFB" transform="translate(236.9375,49.75)"/>
</svg>
