<?xml version="1.0" encoding="UTF-8"?>
<svg version="1.1" xmlns="http://www.w3.org/2000/svg" width="500" height="499">
<path d="M0 0 C0.73320465 -0.00067474 1.4664093 -0.00134949 2.22183228 -0.00204468 C14.81510447 0.01629462 26.9876218 0.84843717 39.375 3.25 C40.27718262 3.42160645 41.17936523 3.59321289 42.10888672 3.77001953 C84.52548029 12.0665006 125.40052657 32.78095449 155.375 64.25 C156.220625 65.095625 157.06625 65.94125 157.9375 66.8125 C158.741875 67.616875 159.54625 68.42125 160.375 69.25 C160.91640625 69.76820312 161.4578125 70.28640625 162.015625 70.8203125 C163.50466666 72.26064719 164.94377193 73.75220318 166.375 75.25 C166.375 75.91 166.375 76.57 166.375 77.25 C167.035 77.25 167.695 77.25 168.375 77.25 C198.98878897 111.34262863 215.16416913 155.36095205 220.375 200.25 C220.47216309 201.07169678 220.56932617 201.89339355 220.66943359 202.73999023 C222.68567371 221.05809273 221.30159023 239.12256073 218.375 257.25 C218.26285156 257.98653809 218.15070313 258.72307617 218.03515625 259.48193359 C212.60562734 294.84928165 196.5246501 326.77791949 175.375 355.25 C174.74529297 356.10158691 174.11558594 356.95317383 173.46679688 357.83056641 C172.84353516 358.6560498 172.22027344 359.4815332 171.578125 360.33203125 C171.01254883 361.08331299 170.44697266 361.83459473 169.86425781 362.60864258 C169.37280273 363.15029053 168.88134766 363.69193848 168.375 364.25 C167.715 364.25 167.055 364.25 166.375 364.25 C166.12983643 364.81895996 165.88467285 365.38791992 165.63208008 365.97412109 C163.05977858 370.63114082 158.80889822 374.15175923 155.0625 377.875 C154.1562085 378.77710205 153.24991699 379.6792041 152.31616211 380.60864258 C145.68624877 387.12773314 139.0032631 392.93905802 131.375 398.25 C129.81458984 399.37535156 129.81458984 399.37535156 128.22265625 400.5234375 C124.9790848 402.82735613 121.69914699 405.06481532 118.375 407.25 C117.82183105 407.61448242 117.26866211 407.97896484 116.69873047 408.35449219 C88.65018857 426.58162036 55.54738218 437.03073928 22.375 440.25 C21.62387939 440.33612549 20.87275879 440.42225098 20.09887695 440.51098633 C-26.19061875 445.64917983 -80.35310536 434.28170806 -118.375 406.55078125 C-121.42555902 404.15534119 -121.42555902 404.15534119 -124.625 403.25 C-124.625 402.59 -124.625 401.93 -124.625 401.25 C-125.41003906 400.91162109 -125.41003906 400.91162109 -126.2109375 400.56640625 C-129.49010426 398.77825221 -132.3352477 396.50373648 -135.25 394.1875 C-135.86375488 393.701604 -136.47750977 393.21570801 -137.10986328 392.71508789 C-148.3070608 383.77687174 -148.3070608 383.77687174 -152.625 379.25 C-152.625 378.59 -152.625 377.93 -152.625 377.25 C-153.21796875 376.981875 -153.8109375 376.71375 -154.421875 376.4375 C-161.61782978 372.55882934 -166.76406821 364.60332313 -171.625 358.25 C-172.04297852 357.70843262 -172.46095703 357.16686523 -172.89160156 356.60888672 C-184.21994825 341.8621472 -193.07661556 326.22054431 -200.625 309.25 C-201.07359375 308.27289063 -201.5221875 307.29578125 -201.984375 306.2890625 C-207.7959238 293.11873437 -212.09141525 279.03823932 -214.9375 264.9375 C-215.08453369 264.21175781 -215.23156738 263.48601562 -215.38305664 262.73828125 C-218.01536735 248.70749595 -219.00703945 234.74968151 -218.9375 220.5 C-218.93567719 219.71663269 -218.93385437 218.93326538 -218.93197632 218.12615967 C-218.88315974 205.61035185 -218.15042906 193.53713632 -215.625 181.25 C-215.45339355 180.36779785 -215.28178711 179.4855957 -215.10498047 178.57666016 C-212.43795355 165.02701936 -208.58711361 152.12951865 -203.625 139.25 C-203.17640625 138.06664062 -202.7278125 136.88328125 -202.265625 135.6640625 C-199.24117175 128.17409299 -195.5206781 121.10277542 -191.6875 114 C-190.95237183 112.63319092 -190.95237183 112.63319092 -190.20239258 111.23876953 C-186.73697917 104.93458735 -182.86133895 99.06082256 -178.625 93.25 C-177.85414063 92.18910156 -177.08328125 91.12820312 -176.2890625 90.03515625 C-164.95133129 74.89646151 -164.95133129 74.89646151 -160.625 70.25 C-159.965 70.25 -159.305 70.25 -158.625 70.25 C-158.625 69.59 -158.625 68.93 -158.625 68.25 C-157.965 68.25 -157.305 68.25 -156.625 68.25 C-156.625 67.59 -156.625 66.93 -156.625 66.25 C-155.965 66.25 -155.305 66.25 -154.625 66.25 C-154.625 65.59 -154.625 64.93 -154.625 64.25 C-153.965 64.25 -153.305 64.25 -152.625 64.25 C-152.625 63.59 -152.625 62.93 -152.625 62.25 C-151.965 62.25 -151.305 62.25 -150.625 62.25 C-150.625 61.59 -150.625 60.93 -150.625 60.25 C-149.965 60.25 -149.305 60.25 -148.625 60.25 C-148.625 59.59 -148.625 58.93 -148.625 58.25 C-146.7109375 56.47265625 -146.7109375 56.47265625 -144 54.3125 C-142.99453125 53.51070312 -141.9890625 52.70890625 -140.953125 51.8828125 C-140.41107422 51.45516602 -139.86902344 51.02751953 -139.31054688 50.58691406 C-137.60696997 49.23569924 -135.91986594 47.86587227 -134.234375 46.4921875 C-126.69158268 40.391337 -119.00799493 35.15763271 -110.625 30.25 C-109.74328125 29.69054687 -108.8615625 29.13109375 -107.953125 28.5546875 C-83.22420502 13.1884511 -54.58140434 5.15358726 -25.93505859 1.54833984 C-23.9446166 1.2912779 -21.95977854 0.99148061 -19.9765625 0.68359375 C-13.36100955 -0.12804425 -6.65611059 0.00550717 0 0 Z " fill="#FCEBEF" transform="translate(249.625,28.75)"/>
<path d="M0 0 C0 0.66 0 1.32 0 2 C0.82177734 2.11794922 0.82177734 2.11794922 1.66015625 2.23828125 C11.65960725 5.49352824 19.59660586 16.51396685 24.640625 25.25 C29.92927922 35.94888669 31.14708983 51.0565185 28.01171875 62.6640625 C24.10413154 71.68621366 17.44352433 81.57657322 10 88 C7.76953125 88.73046875 7.76953125 88.73046875 6 89 C6 89.66 6 90.32 6 91 C0.25 94 0.25 94 -2 94 C-2 94.66 -2 95.32 -2 96 C-14.2469316 99.46349876 -28.45707862 100.02777365 -40 94 C-42.99661982 91.9269615 -45.5013507 89.64391961 -48 87 C-48.928125 86.071875 -49.85625 85.14375 -50.8125 84.1875 C-53.67062046 80.02281019 -54.85525161 75.88065023 -56 71 C-56.185625 70.27941406 -56.37125 69.55882812 -56.5625 68.81640625 C-58.91759145 53.65550502 -57.01793057 38.22779858 -50.94921875 24.1953125 C-50.14449866 22.33419033 -49.4639754 20.42013801 -48.8125 18.5 C-38.83593436 -0.76509227 -20.1421953 -7.96209132 0 0 Z " fill="#F2C1CB" transform="translate(264,134)"/>
<path d="M0 0 C6.17878976 6.53186346 7.89012648 12.57142876 7.70629883 21.49682617 C7.28034915 29.59561318 5.07327885 33.79586303 -0.8125 39.1875 C-6.0324893 43.57147539 -9.80050088 44.65650738 -16.625 44.625 C-17.31142578 44.64111328 -17.99785156 44.65722656 -18.70507812 44.67382812 C-25.51387977 44.68026975 -31.23144737 42.59740238 -36.390625 37.9375 C-41.801253 31.75392515 -43.56436513 25.23771879 -43.16015625 17.1328125 C-42.1935393 9.29126829 -38.8704362 3.45946835 -32.8125 -1.6875 C-21.58490377 -8.39391654 -10.78468182 -6.47080909 0 0 Z " fill="#083964" transform="translate(276.8125,262.6875)"/>
<path d="M0 0 C2.12133789 1.42553711 2.12133789 1.42553711 4 4 C4.59380468 7.22849032 4.53649674 10.4167358 4.49609375 13.69140625 C4.49754898 14.63306137 4.49900421 15.57471649 4.50050354 16.54490662 C4.49884545 18.53281757 4.48729419 20.52074148 4.46655273 22.50854492 C4.43757061 25.5550775 4.44595101 28.59987295 4.45898438 31.64648438 C4.45274773 33.57813347 4.44435736 35.50977707 4.43359375 37.44140625 C4.43652939 38.35394669 4.43946503 39.26648712 4.44248962 40.2066803 C4.42346336 41.47831276 4.42346336 41.47831276 4.40405273 42.77563477 C4.39864975 43.52079849 4.39324677 44.26596222 4.38768005 45.03370667 C3.88918159 47.56206528 3.03130642 48.45255424 1 50 C-2.47727653 50.51789225 -4.24031301 50.53551706 -7.14453125 48.48828125 C-9.69381429 45.06955852 -9.67009107 41.86167791 -9.75 37.75 C-9.77964844 37.00492187 -9.80929687 36.25984375 -9.83984375 35.4921875 C-9.9102343 33.66203328 -9.95741832 31.83101231 -10 30 C-10.48210937 30.91523438 -10.96421875 31.83046875 -11.4609375 32.7734375 C-12.09876794 33.9740595 -12.73679926 35.1745748 -13.375 36.375 C-13.85066406 37.27992188 -13.85066406 37.27992188 -14.3359375 38.203125 C-15.7132062 40.78550382 -16.91830581 42.91830581 -19 45 C-22.25 45.6875 -22.25 45.6875 -26 45 C-28.50102191 42.2789808 -30.21738016 39.22203414 -32 36 C-32.99623214 34.3310784 -33.9952236 32.6637915 -35 31 C-35.04898437 31.96421875 -35.09796875 32.9284375 -35.1484375 33.921875 C-35.22320312 35.18515625 -35.29796875 36.4484375 -35.375 37.75 C-35.44460938 39.00296875 -35.51421875 40.2559375 -35.5859375 41.546875 C-35.95473894 44.62253987 -36.2888083 46.46398927 -38 49 C-41.04300316 50.52150158 -43.654085 50.23899393 -47 50 C-49.05629031 46.91556454 -49.25317204 46.2488361 -49.2746582 42.75976562 C-49.28895622 41.48329163 -49.28895622 41.48329163 -49.30354309 40.18103027 C-49.30263168 39.26535278 -49.30172028 38.34967529 -49.30078125 37.40625 C-49.30720894 35.9916449 -49.30720894 35.9916449 -49.31376648 34.54846191 C-49.31950932 32.55461429 -49.32001038 30.56074571 -49.31567383 28.56689453 C-49.31251209 25.51168223 -49.33597976 22.45743642 -49.36132812 19.40234375 C-49.36360089 17.46614706 -49.36430472 15.52994776 -49.36328125 13.59375 C-49.372491 12.67807251 -49.38170074 11.76239502 -49.39118958 10.81896973 C-49.38496078 9.96798706 -49.37873199 9.11700439 -49.37231445 8.24023438 C-49.37294388 7.49205444 -49.3735733 6.74387451 -49.3742218 5.97302246 C-48.890175 3.42096588 -48.06066047 2.54608689 -46 1 C-42.625 0.5 -42.625 0.5 -39 1 C-34.02744771 5.0355755 -31.27652393 10.28195115 -28.1875 15.8125 C-27.43436523 17.13797852 -27.43436523 17.13797852 -26.66601562 18.49023438 C-25.43670394 20.65616448 -24.21499483 22.82601685 -23 25 C-20.6404917 22.83463921 -19.1718111 20.74432894 -17.6953125 17.91015625 C-17.27636719 17.12576172 -16.85742188 16.34136719 -16.42578125 15.53320312 C-15.56189626 13.89234049 -14.70248012 12.24911693 -13.84765625 10.60351562 C-7.34993569 -1.50767912 -7.34993569 -1.50767912 0 0 Z " fill="#083964" transform="translate(353,257)"/>
<path d="M0 0 C5.60782643 1.86927548 7.43261445 4.96617624 10 10 C11.13502479 12.47096547 12.22675911 14.92925864 13.26953125 17.4375 C13.69742195 18.46315063 13.69742195 18.46315063 14.13395691 19.50952148 C14.72904782 20.9436737 15.32132894 22.37899483 15.91088867 23.81542969 C16.81283142 26.00080303 17.73724302 28.17581012 18.66210938 30.3515625 C19.24099712 31.75462585 19.81851857 33.15825387 20.39453125 34.5625 C20.67150345 35.20437256 20.94847565 35.84624512 21.23384094 36.50756836 C23.04395214 41.02520276 23.19783856 44.29030813 22 49 C18.88122044 50.55938978 16.42744229 50.3607834 13 50 C10.17772321 46.70734375 9.8722067 44.36103352 9 40 C1.41 40.33 -6.18 40.66 -14 41 C-14.99 43.64 -15.98 46.28 -17 49 C-20.04300316 50.52150158 -22.654085 50.23899393 -26 50 C-28.33932359 46.49101461 -28.32933214 45.12694334 -28 41 C-27.1875 38.4921875 -27.1875 38.4921875 -26 35.875 C-24.26313798 31.93613341 -22.58932949 27.99640186 -21.02734375 23.984375 C-20.68251953 23.10152832 -20.33769531 22.21868164 -19.98242188 21.30908203 C-19.29815715 19.551417 -18.61829657 17.79202955 -17.94335938 16.03076172 C-14.39316683 6.99052591 -11.05095947 -1.1432027 0 0 Z " fill="#0A3965" transform="translate(198,257)"/>
<path d="M0 0 C5.6130184 1.02905337 7.45829237 4.24199795 10.75 8.6875 C11.88888672 10.18603516 11.88888672 10.18603516 13.05078125 11.71484375 C14.59044245 13.7534459 16.11989925 15.79981461 17.63671875 17.85546875 C19.62036541 20.51377528 21.66268401 23.11015949 23.75 25.6875 C23.76458252 25.03676514 23.77916504 24.38603027 23.79418945 23.71557617 C23.86864549 20.76811694 23.96531266 17.82179358 24.0625 14.875 C24.08505859 13.85083984 24.10761719 12.82667969 24.13085938 11.77148438 C24.16630859 10.78857422 24.20175781 9.80566406 24.23828125 8.79296875 C24.26446533 7.88699951 24.29064941 6.98103027 24.31762695 6.04760742 C24.8300356 3.25062585 25.44627889 2.32322516 27.75 0.6875 C31.3125 0.375 31.3125 0.375 34.75 0.6875 C37.15324164 3.09074164 37.00199953 3.62827117 37.00878906 6.90600586 C37.01509338 7.77708481 37.02139771 8.64816376 37.02789307 9.54563904 C37.0238446 10.48835159 37.01979614 11.43106415 37.015625 12.40234375 C37.01849518 13.85236534 37.01849518 13.85236534 37.02142334 15.3316803 C37.02278592 17.37859354 37.01908443 19.42551541 37.01074219 21.47241211 C37.00005534 24.60875866 37.01062912 27.74453087 37.0234375 30.88085938 C37.02211569 32.86718877 37.01955285 34.8535178 37.015625 36.83984375 C37.01967346 37.78053207 37.02372192 38.7212204 37.02789307 39.69041443 C37.02158875 40.56464554 37.01528442 41.43887665 37.00878906 42.33959961 C37.00719788 43.10856064 37.00560669 43.87752167 37.00396729 44.66978455 C36.75 46.6875 36.75 46.6875 34.75 49.6875 C31.625 50.4375 31.625 50.4375 27.75 49.6875 C24.59701055 47.08285654 22.23383374 43.91958312 19.75 40.6875 C18.86432275 39.56948664 17.97755556 38.45233608 17.08984375 37.3359375 C9.53368376 27.73509007 9.53368376 27.73509007 7.75 23.6875 C7.09 23.6875 6.43 23.6875 5.75 23.6875 C5.77356567 24.76233643 5.77356567 24.76233643 5.79760742 25.85888672 C5.85981863 29.09334476 5.89894649 32.32767719 5.9375 35.5625 C5.96263672 36.69042969 5.98777344 37.81835938 6.01367188 38.98046875 C6.02817383 40.59501953 6.02817383 40.59501953 6.04296875 42.2421875 C6.06653442 43.73468018 6.06653442 43.73468018 6.09057617 45.25732422 C5.97818604 46.05928223 5.8657959 46.86124023 5.75 47.6875 C2.27957297 50.00111802 0.83165827 50.19770728 -3.25 49.6875 C-5.31351695 47.91093614 -6.1462515 46.42369378 -6.52703857 43.72164917 C-6.64840514 41.21437321 -6.66559126 38.72502478 -6.6484375 36.21484375 C-6.65130768 35.29538467 -6.65417786 34.3759256 -6.65713501 33.42860413 C-6.65917392 31.48779686 -6.65365615 29.54696897 -6.64111328 27.60620117 C-6.62503883 24.63218403 -6.64097724 21.65952212 -6.66015625 18.68554688 C-6.65817415 16.79947616 -6.65433115 14.9134063 -6.6484375 13.02734375 C-6.65451019 12.13667709 -6.66058289 11.24601044 -6.6668396 10.32835388 C-6.65738312 9.50061966 -6.64792664 8.67288544 -6.63818359 7.82006836 C-6.63579681 7.09266953 -6.63341003 6.36527069 -6.63095093 5.61582947 C-5.85576324 1.69191917 -3.71899496 0.78671047 0 0 Z " fill="#0A3965" transform="translate(116.25,257.3125)"/>
<path d="M0 0 C0.94230469 -0.02900391 1.88460937 -0.05800781 2.85546875 -0.08789062 C8.81579184 -0.14222737 12.22229326 0.32486286 16.75 4.3125 C18.64546422 8.10342845 18.36647379 12.19307237 17.75 16.3125 C16.11372493 19.9101732 13.97769308 23.05789474 11.75 26.3125 C10.9434167 27.67880322 10.14954877 29.05278511 9.375 30.4375 C8.83875 31.38625 8.3025 32.335 7.75 33.3125 C9.07 33.3125 10.39 33.3125 11.75 33.3125 C11.42 34.3025 11.09 35.2925 10.75 36.3125 C4.15 36.3125 -2.45 36.3125 -9.25 36.3125 C-9.25 35.3225 -9.25 34.3325 -9.25 33.3125 C-8.26 33.3125 -7.27 33.3125 -6.25 33.3125 C-7.3510141 31.39402063 -8.45594096 29.47778646 -9.5625 27.5625 C-10.17738281 26.49515625 -10.79226562 25.4278125 -11.42578125 24.328125 C-13.10467499 21.38424225 -13.10467499 21.38424225 -14.953125 19.26171875 C-17.50124841 15.43185856 -16.85668596 10.71586584 -16.25 6.3125 C-12.05701908 -0.67580153 -7.44517225 0.07515315 0 0 Z " fill="#243B5E" transform="translate(249.25,148.6875)"/>
<path d="M0 0 C3.24710065 2.06234771 6.09300493 4.49063457 9 7 C10.32535289 8.01055306 11.65618458 9.0141309 13 10 C16.48053172 8.48325453 18.92358823 6.38636587 21.75 3.875 C27.24143423 -0.57970328 27.24143423 -0.57970328 31.375 -0.75 C35 0 35 0 37.5 1.5625 C39.58392818 4.94888329 39.55802097 7.09385318 39 11 C37.453125 13.203125 37.453125 13.203125 35 15 C32.26317029 15.2911521 29.96059961 15.38322418 27.25 15.25 C26.55261719 15.23195312 25.85523438 15.21390625 25.13671875 15.1953125 C23.42388461 15.14838554 21.71176176 15.07664605 20 15 C20 15.66 20 16.32 20 17 C20.804375 17.3403125 20.804375 17.3403125 21.625 17.6875 C24.82460161 19.45570089 27.29037223 21.53670203 30 24 C30 24.66 30 25.32 30 26 C25.49656089 25.4887988 23.12474574 23.82478642 19.6875 20.9375 C18.80449219 20.20402344 17.92148438 19.47054687 17.01171875 18.71484375 C16.34785156 18.14894531 15.68398437 17.58304688 15 17 C10.25628336 18.63348851 7.51343415 21.09587577 3.96484375 24.5390625 C2 26 2 26 -2 26 C-0.4114658 21.71095765 2.43127368 19.67654474 6 17 C6.66 17 7.32 17 8 17 C8 16.34 8 15.68 8 15 C6.96359375 15.04640625 5.9271875 15.0928125 4.859375 15.140625 C3.48961221 15.17815275 2.11981818 15.21455184 0.75 15.25 C-0.27287109 15.30027344 -0.27287109 15.30027344 -1.31640625 15.3515625 C-4.75841326 15.41839759 -6.64232914 15.26198821 -9.453125 13.203125 C-11.71058909 9.98794888 -11.54744955 7.83214687 -11 4 C-8.09704332 -0.52861242 -5.13858465 -0.92663002 0 0 Z " fill="#2D4063" transform="translate(236,188)"/>
<path d="M0 0 C2.04576975 1.54304514 2.8908346 2.43461015 3.38095093 4.97302246 C3.38333771 5.72120239 3.38572449 6.46938232 3.38818359 7.24023438 C3.39764008 8.09121704 3.40709656 8.94219971 3.4168396 9.81896973 C3.41076691 10.73464722 3.40469421 11.65032471 3.3984375 12.59375 C3.40274277 14.0083551 3.40274277 14.0083551 3.40713501 15.45153809 C3.40917646 17.44539999 3.40364093 19.43928188 3.39111328 21.43310547 C3.37506089 24.48841044 3.39095933 27.54239252 3.41015625 30.59765625 C3.40817383 32.53385709 3.40433019 34.47005711 3.3984375 36.40625 C3.40754654 37.77976624 3.40754654 37.77976624 3.4168396 39.18103027 C3.40738312 40.03201294 3.39792664 40.88299561 3.38818359 41.75976562 C3.38579681 42.50794556 3.38341003 43.25612549 3.38095093 44.02697754 C2.88792067 46.58048167 2.07426554 47.46307631 0 49 C-3.5625 49.375 -3.5625 49.375 -7 49 C-9.07396744 45.88904884 -9.2534905 45.18493123 -9.2746582 41.65209961 C-9.28419022 40.7778685 -9.29372223 39.90363739 -9.30354309 39.00291443 C-9.30263168 38.0622261 -9.30172028 37.12153778 -9.30078125 36.15234375 C-9.30506638 35.18470596 -9.3093515 34.21706818 -9.31376648 33.22010803 C-9.31950921 31.17498558 -9.32001047 29.12984271 -9.31567383 27.0847168 C-9.31250867 23.94610053 -9.33599185 20.80842191 -9.36132812 17.66992188 C-9.3636005 15.68489703 -9.3643049 13.69986963 -9.36328125 11.71484375 C-9.372491 10.7721312 -9.38170074 9.82941864 -9.39118958 8.85813904 C-9.38496078 7.98706009 -9.37873199 7.11598114 -9.37231445 6.21850586 C-9.37294388 5.45034042 -9.3735733 4.68217499 -9.3742218 3.89073181 C-9.25072861 3.26679031 -9.12723541 2.64284882 -9 2 C-5.53076119 -0.31282587 -4.07794425 -0.42478586 0 0 Z " fill="#063763" transform="translate(387,258)"/>
<path d="M0 0 C3.97108701 2.36575396 5.85325363 4.51726419 7 9 C7.32040987 13.48573823 7.32793356 17.08483901 5 21 C1.51010561 24.22815231 -1.34572504 25.31015979 -6 25.5625 C-9.49306424 25.41520211 -11.72073452 24.96506836 -14.5 22.8125 C-17.87867899 19.01148614 -18.76236036 16.6040676 -19.5 11.625 C-18.83079468 6.77326145 -16.64807555 4.17114824 -13 1 C-8.65623423 -1.72256313 -4.83555891 -1.19161988 0 0 Z " fill="#F3E6ED" transform="translate(265,270)"/>
<path d="M0 0 C-0.33 2.97 -0.66 5.94 -1 9 C0.32 6.69 1.64 4.38 3 2 C4.32 2.66 5.64 3.32 7 4 C7.13534286 13.05293337 6.75741925 21.97859571 6 31 C6.928125 30.835 7.85625 30.67 8.8125 30.5 C12 30 12 30 15 30 C14.67 30.99 14.34 31.98 14 33 C7.4 33 0.8 33 -6 33 C-6 32.01 -6 31.02 -6 30 C-5.01 30 -4.02 30 -3 30 C-3 29.01 -3 28.02 -3 27 C-2.34 26.67 -1.68 26.34 -1 26 C-1.97453125 24.60587891 -1.97453125 24.60587891 -2.96875 23.18359375 C-3.8133463 21.9354681 -4.65704935 20.68673767 -5.5 19.4375 C-5.92925781 18.82841797 -6.35851562 18.21933594 -6.80078125 17.59179688 C-9.66635639 13.29343416 -10.69014488 10.31476059 -10 5 C-7.0256495 1.00587219 -5.05072617 -0.72153231 0 0 Z " fill="#374C6F" transform="translate(246,152)"/>
<path d="M0 0 C3.5625 0.8125 3.5625 0.8125 6.0625 2.375 C8.16270266 5.78782932 8.19460717 7.87938873 7.5625 11.8125 C5.0625 14.25 5.0625 14.25 2.5625 15.8125 C2.5625 15.1525 2.5625 14.4925 2.5625 13.8125 C-2.3875 13.8125 -7.3375 13.8125 -12.4375 13.8125 C-12.7675 12.8225 -13.0975 11.8325 -13.4375 10.8125 C-14.0975 10.4825 -14.7575 10.1525 -15.4375 9.8125 C-5.04168292 0.18108124 -5.04168292 0.18108124 0 0 Z " fill="#2A3F62" transform="translate(267.4375,187.1875)"/>
<path d="M0 0 C0.33 1.32 0.66 2.64 1 4 C5.95 4 10.9 4 16 4 C16 4.66 16 5.32 16 6 C11.38 6 6.76 6 2 6 C2 6.66 2 7.32 2 8 C2.53625 8.226875 3.0725 8.45375 3.625 8.6875 C6.82460161 10.45570089 9.29037223 12.53670203 12 15 C12 15.66 12 16.32 12 17 C7.49656089 16.4887988 5.12474574 14.82478642 1.6875 11.9375 C0.80449219 11.20402344 -0.07851562 10.47054687 -0.98828125 9.71484375 C-1.65214844 9.14894531 -2.31601563 8.58304688 -3 8 C-7.74371664 9.63348851 -10.48656585 12.09587577 -14.03515625 15.5390625 C-16 17 -16 17 -20 17 C-18.4114658 12.71095765 -15.56872632 10.67654474 -12 8 C-11.34 8 -10.68 8 -10 8 C-10 7.34 -10 6.68 -10 6 C-14.62 6 -19.24 6 -24 6 C-23.67 5.34 -23.34 4.68 -23 4 C-18.38 4 -13.76 4 -9 4 C-9 3.34 -9 2.68 -9 2 C-6.69 2.33 -4.38 2.66 -2 3 C-2 2.34 -2 1.68 -2 1 C-1.34 0.67 -0.68 0.34 0 0 Z " fill="#263B60" transform="translate(254,197)"/>
<path d="M0 0 C-0.8125 1.9375 -0.8125 1.9375 -2 4 C-2.99 4.33 -3.98 4.66 -5 5 C-4.87625 6.1446875 -4.87625 6.1446875 -4.75 7.3125 C-5 10 -5 10 -6.8125 11.75 C-9 13 -9 13 -12 14 C-13.42610133 17.42264319 -13.09901205 21.09879533 -13.0625 24.75 C-13.05347656 25.92046875 -13.04445312 27.0909375 -13.03515625 28.296875 C-13.02355469 29.18890625 -13.01195312 30.0809375 -13 31 C-10.525 31.99 -10.525 31.99 -8 33 C-8.33 33.99 -8.66 34.98 -9 36 C-11.0625 36.6875 -11.0625 36.6875 -13 37 C-16.71329819 30.19228666 -17.01679652 23.32215114 -15.56640625 15.73046875 C-13.65786447 9.72034028 -9.36988256 3.97047137 -3.90234375 0.7734375 C-2 0 -2 0 0 0 Z M-4 26 C-3.34 26.99 -2.68 27.98 -2 29 C0.54045287 32.53678072 0.54045287 32.53678072 4 35 C6.30410044 35.23604169 6.30410044 35.23604169 8.875 35.25 C9.73867188 35.27578125 10.60234375 35.3015625 11.4921875 35.328125 C14.46527407 34.93912302 15.71923125 33.87595698 18 32 C18.66 32 19.32 32 20 32 C20.33 31.34 20.66 30.68 21 30 C20.67 31.32 20.34 32.64 20 34 C19.34 34 18.68 34 18 34 C18 34.66 18 35.32 18 36 C14.67098317 38.21934455 13.51206363 38.27129898 9.625 38.25 C8.68914062 38.25515625 7.75328125 38.2603125 6.7890625 38.265625 C3.85670238 37.98635261 1.66595075 37.22149016 -1 36 C-1 35.34 -1 34.68 -1 34 C-1.66 34 -2.32 34 -3 34 C-3 33.34 -3 32.68 -3 32 C-3.99 31.67 -4.98 31.34 -6 31 C-5.34 29.35 -4.68 27.7 -4 26 Z M-8 31 C-7.34 31 -6.68 31 -6 31 C-6 31.66 -6 32.32 -6 33 C-6.66 33 -7.32 33 -8 33 C-8 32.34 -8 31.68 -8 31 Z " fill="#174067" transform="translate(250,259)"/>
<path d="M0 0 C0.33 0.66 0.66 1.32 1 2 C1.66 1.67 2.32 1.34 3 1 C5.6723621 0.86584528 8.32250488 0.95681459 11 1 C12.47006623 5.41019868 11.43537323 8.69388031 10 13 C9.67 11.35 9.34 9.7 9 8 C8.01 8 7.02 8 6 8 C5.34 10.31 4.68 12.62 4 15 C3.67 14.01 3.34 13.02 3 12 C2.01 12.33 1.02 12.66 0 13 C-0.99 12.01 -1.98 11.02 -3 10 C-4.32 12.31 -5.64 14.62 -7 17 C-7.66 17 -8.32 17 -9 17 C-7.43085625 10.98494894 -5.89765918 5.90350672 -2 1 C-1.34 0.67 -0.68 0.34 0 0 Z " fill="#0F3D65" transform="translate(189,259)"/>
<path d="M0 0 C2.49247522 3.02096567 3.87956332 5.87923005 5.1875 9.5625 C5.53167969 10.51253906 5.87585938 11.46257812 6.23046875 12.44140625 C7 15 7 15 7 18 C2.71 18 -1.58 18 -6 18 C-5.19950264 13.19701584 -4.32420375 9.97893173 -2.4375 5.625 C-1.98246094 4.56539063 -1.52742187 3.50578125 -1.05859375 2.4140625 C-0.70925781 1.61742187 -0.35992187 0.82078125 0 0 Z " fill="#EBE3EC" transform="translate(195,268)"/>
<path d="M0 0 C6.38197767 0.48165869 6.38197767 0.48165869 8.9375 2.625 C10.44335916 5.99103813 10.3350185 8.32232498 10 12 C8.78737267 14.68991676 7.19638072 17.03047331 5.5 19.4375 C5.07074219 20.07365234 4.64148438 20.70980469 4.19921875 21.36523438 C3.14715133 22.91995623 2.07552 24.46140889 1 26 C-0.0842218 22.70184278 0.12997122 20.53900834 0.9375 17.1875 C2.27844186 10.98450362 2.8425375 5.8627336 0 0 Z " fill="#E0BDCD" transform="translate(254,152)"/>
<path d="M0 0 C-0.33 0.66 -0.66 1.32 -1 2 C-3.59121822 9.77365466 -1.34192734 18.14013986 0 26 C-5.24120562 21.04364251 -9.3917733 15.37289349 -10.6875 8.1875 C-9.43056106 2.359874 -6.06202709 -0.86600387 0 0 Z " fill="#D0B7CB" transform="translate(246,152)"/>
<path d="M0 0 C5.23080226 -0.31384814 8.63565714 -0.0065473 13 3 C15.41187131 6.1799832 17.70069433 9.9593735 18 14 C17.34 14.66 16.68 15.32 16 16 C15.67 15.34 15.34 14.68 15 14 C14.34 14 13.68 14 13 14 C12.731875 14.61875 12.46375 15.2375 12.1875 15.875 C11 18 11 18 8 20 C6.68 16.7 5.36 13.4 4 10 C4.99 10 5.98 10 7 10 C7.33 10.66 7.66 11.32 8 12 C8.33 9.36 8.66 6.72 9 4 C5.7 4 2.4 4 -1 4 C-0.67 2.68 -0.34 1.36 0 0 Z " fill="#123E66" transform="translate(191,257)"/>
<path d="M0 0 C3.44165321 0.35299007 5.06872538 1.04581692 8 3 C8.36076355 4.98684692 8.36076355 4.98684692 8.34057617 7.44970703 C8.34034958 8.37051056 8.34012299 9.29131409 8.33988953 10.24002075 C8.32440567 11.23589203 8.30892181 12.23176331 8.29296875 13.2578125 C8.28872391 14.27600067 8.28447906 15.29418884 8.28010559 16.3432312 C8.26327579 19.60408673 8.22561546 22.86433041 8.1875 26.125 C8.17245874 28.33202234 8.15876937 30.53905434 8.14648438 32.74609375 C8.1133583 38.16427223 8.06311653 43.58209242 8 49 C7.34 49 6.68 49 6 49 C6 49.66 6 50.32 6 51 C5.34 50.67 4.68 50.34 4 50 C4.33 49.34 4.66 48.68 5 48 C5.08934406 46.58026727 5.11758978 45.15642209 5.11352539 43.73388672 C5.11344986 42.85312469 5.11337433 41.97236267 5.11329651 41.06491089 C5.10813522 40.11278717 5.10297394 39.16066345 5.09765625 38.1796875 C5.09553383 36.71899338 5.09553383 36.71899338 5.09336853 35.22879028 C5.08775973 32.11082927 5.07520573 28.9929394 5.0625 25.875 C5.05748613 23.76432395 5.05292303 21.65364678 5.04882812 19.54296875 C5.03778745 14.36195479 5.02104073 9.18098248 5 4 C2.69 3.34 0.38 2.68 -2 2 C-1.34 1.34 -0.68 0.68 0 0 Z " fill="#CCD0E1" transform="translate(147,256)"/>
<path d="M0 0 C1.32 0.66 2.64 1.32 4 2 C4.2137731 9.68395543 4.01670288 16.56340812 2 24 C1.34 24 0.68 24 0 24 C-1.68439515 17.06690926 -2.80842649 10.14506352 -2 3 C-1.34 2.01 -0.68 1.02 0 0 Z " fill="#DCBDCE" transform="translate(249,154)"/>
<path d="M0 0 C2.20922852 1.37280273 2.20922852 1.37280273 4 4 C4.52989526 7.45702571 4.39563679 10.85994565 4.27734375 14.34765625 C4.24623253 15.86002113 4.24623253 15.86002113 4.2144928 17.40293884 C4.16593641 19.53230074 4.10729419 21.66145313 4.03930664 23.7902832 C3.93778062 27.05348032 3.87373082 30.31586948 3.81445312 33.58007812 C3.76264636 35.64849455 3.70868298 37.71685832 3.65234375 39.78515625 C3.63340561 40.76331802 3.61446747 41.7414798 3.59495544 42.74928284 C3.56225052 43.65710007 3.52954559 44.5649173 3.49584961 45.50024414 C3.47268173 46.29870255 3.44951385 47.09716095 3.42564392 47.91981506 C2.89490139 50.5136325 2.07537176 51.39475603 0 53 C-3.69418201 54.231394 -6.2056261 53.64432764 -10 53 C-9.67 52.34 -9.34 51.68 -9 51 C-6.97456444 50.74280183 -4.94649776 50.49157878 -2.91015625 50.34375 C-0.76477844 50.14523788 -0.76477844 50.14523788 1 48 C1.30479871 46.07628134 1.30479871 46.07628134 1.25878906 43.85742188 C1.26509338 43.00313599 1.27139771 42.1488501 1.27789307 41.26867676 C1.2738446 40.34470093 1.26979614 39.4207251 1.265625 38.46875 C1.26753845 37.52189331 1.2694519 36.57503662 1.27142334 35.5994873 C1.27278573 33.59545628 1.26908556 31.59141646 1.26074219 29.58740234 C1.25004347 26.51249447 1.26063572 23.43817086 1.2734375 20.36328125 C1.27211591 18.41926954 1.26955354 16.47525819 1.265625 14.53125 C1.26967346 13.60727417 1.27372192 12.68329834 1.27789307 11.73132324 C1.27158875 10.87703735 1.26528442 10.02275146 1.25878906 9.14257812 C1.25719788 8.38916138 1.25560669 7.63574463 1.25396729 6.85949707 C1.15738682 4.75410993 1.15738682 4.75410993 -1 3 C-3.68839385 2.73008094 -6.29141936 2.91262643 -9 3 C-9 2.34 -9 1.68 -9 1 C-5.90826248 -0.54586876 -3.40570448 -0.29359521 0 0 Z " fill="#EFEDF9" transform="translate(388,256)"/>
<path d="M0 0 C3.875 1.875 3.875 1.875 5 3 C5.09268999 4.35094982 5.11747326 5.70667091 5.11352539 7.06079102 C5.11344986 7.92160782 5.11337433 8.78242462 5.11329651 9.66932678 C5.10813522 10.60473801 5.10297394 11.54014923 5.09765625 12.50390625 C5.0962413 13.45692123 5.09482635 14.40993622 5.09336853 15.39183044 C5.08775152 18.44875165 5.07519616 21.50560077 5.0625 24.5625 C5.05748719 26.62955624 5.05292391 28.69661362 5.04882812 30.76367188 C5.03777656 35.84247588 5.02050055 40.9212257 5 46 C4.01 46.495 4.01 46.495 3 47 C2.9906543 45.74340576 2.98130859 44.48681152 2.97167969 43.19213867 C2.93183868 38.53455009 2.86609657 33.87762617 2.79248047 29.22045898 C2.7642366 27.20394421 2.74303912 25.18731802 2.72900391 23.1706543 C2.70762154 20.2733441 2.66099634 17.37737828 2.609375 14.48046875 C2.60814636 13.57725388 2.60691772 12.674039 2.60565186 11.74345398 C2.63587992 6.81125182 2.63587992 6.81125182 -0.03808594 2.9074707 C-0.68551758 2.60800537 -1.33294922 2.30854004 -2 2 C-1.34 2 -0.68 2 0 2 C0 1.34 0 0.68 0 0 Z " fill="#2B4B6D" transform="translate(385,258)"/>
<path d="M0 0 C3.67909973 0.409942 5.27347356 1.87858364 8.08203125 4.24609375 C8.96503906 4.97699219 9.84804687 5.70789063 10.7578125 6.4609375 C11.42167969 7.07066406 12.08554688 7.68039063 12.76953125 8.30859375 C12.76953125 8.63859375 12.76953125 8.96859375 12.76953125 9.30859375 C10.3105447 9.38936338 7.85419383 9.44896518 5.39453125 9.49609375 C4.34652344 9.53379883 4.34652344 9.53379883 3.27734375 9.57226562 C1.24609375 9.6015625 1.24609375 9.6015625 -2.23046875 9.30859375 C-4.23046875 6.30859375 -4.23046875 6.30859375 -3.91796875 3.68359375 C-2.97063871 0.41099905 -2.97063871 0.41099905 0 0 Z " fill="#F1C2CB" transform="translate(232.23046875,190.69140625)"/>
<path d="M0 0 C1.3303125 0.37125 1.3303125 0.37125 2.6875 0.75 C3.3125 3.0625 3.3125 3.0625 3.6875 5.75 C2.6975 7.235 2.6975 7.235 1.6875 8.75 C-0.93947064 8.97137393 -3.32143964 9.03162025 -5.9375 8.9375 C-6.64390625 8.92396484 -7.3503125 8.91042969 -8.078125 8.89648438 C-9.82324128 8.8611104 -11.56796608 8.80730221 -13.3125 8.75 C-4.25633562 -0.32123288 -4.25633562 -0.32123288 0 0 Z " fill="#E1BCCB" transform="translate(268.3125,191.25)"/>
<path d="M0 0 C0.33 1.32 0.66 2.64 1 4 C5.95 4 10.9 4 16 4 C16 4.66 16 5.32 16 6 C11.05 6 6.1 6 1 6 C0.67 6.66 0.34 7.32 0 8 C0 7.34 0 6.68 0 6 C-4.65052872 5.73067479 -4.65052872 5.73067479 -9 7 C-11.55807762 6.91089842 -14.0762601 6.76705754 -16.625 6.5625 C-17.33140625 6.51029297 -18.0378125 6.45808594 -18.765625 6.40429688 C-20.51079987 6.27458793 -22.25545725 6.13795046 -24 6 C-23.67 5.34 -23.34 4.68 -23 4 C-18.38 4 -13.76 4 -9 4 C-9 3.34 -9 2.68 -9 2 C-6.69 2.33 -4.38 2.66 -2 3 C-2 2.34 -2 1.68 -2 1 C-1.34 0.67 -0.68 0.34 0 0 Z " fill="#0D325B" transform="translate(254,197)"/>
<path d="M0 0 C0.33 0 0.66 0 1 0 C1.65520257 14.34126909 2.16502485 28.64283833 2 43 C1.34 43 0.68 43 0 43 C0 43.66 0 44.32 0 45 C-2.98594424 46.49297212 -5.70853624 46.11755228 -9 46 C-9.66 45.67 -10.32 45.34 -11 45 C-11 44.34 -11 43.68 -11 43 C-9.72125 43.04125 -8.4425 43.0825 -7.125 43.125 C-4.98128508 43.24212873 -4.98128508 43.24212873 -3 43 C-0.65199864 40.65199864 -0.7397146 40.19115983 -0.68115234 37.00927734 C-0.66128265 36.18857758 -0.64141296 35.36787781 -0.62094116 34.52230835 C-0.60361435 33.19255478 -0.60361435 33.19255478 -0.5859375 31.8359375 C-0.56657135 30.92872955 -0.5472052 30.02152161 -0.5272522 29.08682251 C-0.46736784 26.18297796 -0.42103584 23.27909396 -0.375 20.375 C-0.33682835 18.40883667 -0.29777711 16.4426902 -0.2578125 14.4765625 C-0.16165909 9.6511783 -0.077661 4.82571582 0 0 Z " fill="#CAD1E2" transform="translate(357,263)"/>
<path d="M0 0 C3.95684414 2.9676331 4.60372575 3.79762336 6.375 8.0625 C8.30288009 12.27508324 8.30288009 12.27508324 12.3125 14.625 C13.199375 14.74875 14.08625 14.8725 15 15 C13.375 16.125 13.375 16.125 11 17 C7.8125 16.375 7.8125 16.375 5 15 C4.3125 12.9375 4.3125 12.9375 4 11 C3.01 10.67 2.02 10.34 1 10 C1 12.31 1 14.62 1 17 C0.34 17 -0.32 17 -1 17 C-0.67 11.39 -0.34 5.78 0 0 Z " fill="#DCDEED" transform="translate(317,287)"/>
<path d="M0 0 C1.8871875 0.0309375 1.8871875 0.0309375 3.8125 0.0625 C5.28256623 4.47269868 4.24787323 7.75638031 2.8125 12.0625 C2.4825 10.4125 2.1525 8.7625 1.8125 7.0625 C0.4925 7.3925 -0.8275 7.7225 -2.1875 8.0625 C-2.1875 7.4025 -2.1875 6.7425 -2.1875 6.0625 C-1.5275 6.0625 -0.8675 6.0625 -0.1875 6.0625 C-0.5175 4.7425 -0.8475 3.4225 -1.1875 2.0625 C-2.1775 2.0625 -3.1675 2.0625 -4.1875 2.0625 C-4.5175 3.0525 -4.8475 4.0425 -5.1875 5.0625 C-6.1775 5.0625 -7.1675 5.0625 -8.1875 5.0625 C-7.875 3.125 -7.875 3.125 -7.1875 1.0625 C-4.43671116 0.14557039 -2.82801087 -0.04636083 0 0 Z M-10.1875 5.0625 C-9.1975 5.5575 -9.1975 5.5575 -8.1875 6.0625 C-9.1775 6.5575 -9.1775 6.5575 -10.1875 7.0625 C-10.1875 6.4025 -10.1875 5.7425 -10.1875 5.0625 Z " fill="#023666" transform="translate(196.1875,259.9375)"/>
<path d="M0 0 C0.66 0.33 1.32 0.66 2 1 C-4.28583222 7.46262125 -10.89284234 13.44753308 -18 19 C-17.67 17.35 -17.34 15.7 -17 14 C-16.34 14 -15.68 14 -15 14 C-15 13.34 -15 12.68 -15 12 C-14.34 12 -13.68 12 -13 12 C-13 11.34 -13 10.68 -13 10 C-12.34 10 -11.68 10 -11 10 C-11 9.34 -11 8.68 -11 8 C-10.34 8 -9.68 8 -9 8 C-9 7.34 -9 6.68 -9 6 C-8.34 6 -7.68 6 -7 6 C-7 5.34 -7 4.68 -7 4 C-6.34 4 -5.68 4 -5 4 C-5 3.34 -5 2.68 -5 2 C-2.625 0.9375 -2.625 0.9375 0 0 Z " fill="#F8F3F5" transform="translate(106,85)"/>
<path d="M0 0 C5.74020002 0.27300951 8.52650134 1.75061349 12.75 5.5625 C16.33093778 9.1402982 16.33093778 9.1402982 21 10 C21 10.66 21 11.32 21 12 C13.90855477 12 10.56658768 9.53374174 5.296875 4.91015625 C3.2439553 3.20288119 1.43124558 2.065064 -1 1 C-0.67 0.67 -0.34 0.34 0 0 Z " fill="#233A5E" transform="translate(231,188)"/>
<path d="M0 0 C0.66 0.33 1.32 0.66 2 1 C1.51781006 1.71397949 1.51781006 1.71397949 1.02587891 2.44238281 C-0.49281224 6.22862947 -0.35792157 9.87610627 -0.4140625 13.921875 C-0.43342865 14.78186096 -0.4527948 15.64184692 -0.4727478 16.52789307 C-0.53241814 19.26849521 -0.5788786 22.00913964 -0.625 24.75 C-0.66319134 26.61069517 -0.70224375 28.47137288 -0.7421875 30.33203125 C-0.83810935 34.88787864 -0.92218668 39.44380879 -1 44 C-0.01 44 0.98 44 2 44 C2 45.32 2 46.64 2 48 C1.01 47.67 0.02 47.34 -1 47 C-2.14601494 44.70797012 -2.13237239 43.4054331 -2.14526367 40.85742188 C-2.15164352 40.00313599 -2.15802338 39.1488501 -2.16459656 38.26867676 C-2.16570938 37.34470093 -2.1668222 36.4207251 -2.16796875 35.46875 C-2.17129715 34.52189331 -2.17462555 33.57503662 -2.17805481 32.5994873 C-2.18312246 30.59546394 -2.18546319 28.59143211 -2.18530273 26.58740234 C-2.18749106 23.51255497 -2.20565354 20.43806519 -2.22460938 17.36328125 C-2.22754289 15.41927207 -2.22952797 13.47526117 -2.23046875 11.53125 C-2.23765427 10.60727417 -2.24483978 9.68329834 -2.25224304 8.73132324 C-2.24916641 7.87703735 -2.24608978 7.02275146 -2.24291992 6.14257812 C-2.24434494 5.38916138 -2.24576996 4.63574463 -2.24723816 3.85949707 C-2 2 -2 2 0 0 Z " fill="#1A3D60" transform="translate(306,259)"/>
<path d="M0 0 C0.33 0 0.66 0 1 0 C1.33 5.94 1.66 11.88 2 18 C1.34 18 0.68 18 0 18 C0 14.7 0 11.4 0 8 C-2.62113708 10.62113708 -4.19642667 12.82227557 -6 16 C-6.99 15.67 -7.98 15.34 -9 15 C-7 11.66666667 -5 8.33333333 -3 5 C-2.45988281 4.06542969 -1.91976563 3.13085938 -1.36328125 2.16796875 C-0.91339844 1.45253906 -0.46351563 0.73710937 0 0 Z " fill="#DADEEC" transform="translate(343,286)"/>
<path d="M0 0 C0.33 0 0.66 0 1 0 C1.07654536 4.51617599 1.10228696 8.59085217 0 13 C0.99 13 1.98 13 3 13 C3.33 14.32 3.66 15.64 4 17 C2.02 17 0.04 17 -2 17 C-2.05398987 14.72942623 -2.09278742 12.45848712 -2.125 10.1875 C-2.14820313 8.92292969 -2.17140625 7.65835938 -2.1953125 6.35546875 C-2 3 -2 3 0 0 Z " fill="#173558" transform="translate(254,166)"/>
<path d="M0 0 C0.33 0.99 0.66 1.98 1 3 C1.9590625 3.2165625 1.9590625 3.2165625 2.9375 3.4375 C3.618125 3.623125 4.29875 3.80875 5 4 C5.6837045 5.32467746 6.34964186 6.65863633 7 8 C9.0335948 9.26804566 9.0335948 9.26804566 11 10 C9.9275 10.28875 8.855 10.5775 7.75 10.875 C4.90599636 11.72820109 2.56491017 12.5636503 0 14 C0 13.34 0 12.68 0 12 C0.66 12 1.32 12 2 12 C2 11.01 2 10.02 2 9 C1.34 9 0.68 9 0 9 C0 7 0 7 1.5 5.375 C1.995 4.92125 2.49 4.4675 3 4 C1.68 4 0.36 4 -1 4 C-0.67 2.68 -0.34 1.36 0 0 Z " fill="#D5B6C7" transform="translate(258,178)"/>
<path d="M0 0 C2.475 0.99 2.475 0.99 5 2 C4.896875 2.886875 4.79375 3.77375 4.6875 4.6875 C4.62439869 10.79570665 7.67382721 16.47533962 10 22 C9.34 22.33 8.68 22.66 8 23 C6.6582322 19.73256344 5.32805641 16.46053092 4 13.1875 C3.6184375 12.25873047 3.236875 11.32996094 2.84375 10.37304688 C2.4828125 9.48037109 2.121875 8.58769531 1.75 7.66796875 C1.41484375 6.84578857 1.0796875 6.0236084 0.734375 5.17651367 C0 3 0 3 0 0 Z " fill="#E8E4EF" transform="translate(210,271)"/>
<path d="M0 0 C1.32 0.66 2.64 1.32 4 2 C3.01 2.495 3.01 2.495 2 3 C1.34 2.67 0.68 2.34 0 2 C-0.33 2.99 -0.66 3.98 -1 5 C-1.66 5 -2.32 5 -3 5 C-3.33 5.99 -3.66 6.98 -4 8 C-5.64551962 8.71727778 -7.31422289 9.38325228 -9 10 C-9.66 10.66 -10.32 11.32 -11 12 C-12.32 12 -13.64 12 -15 12 C-15 11.34 -15 10.68 -15 10 C-14.28457031 9.75507813 -13.56914062 9.51015625 -12.83203125 9.2578125 C-9.65416879 7.84640324 -7.36353001 6.08718481 -4.6875 3.875 C-3.36298828 2.78832031 -3.36298828 2.78832031 -2.01171875 1.6796875 C-1.34785156 1.12539062 -0.68398437 0.57109375 0 0 Z " fill="#CFB6C9" transform="translate(249,204)"/>
<path d="M0 0 C-0.309375 0.70125 -0.61875 1.4025 -0.9375 2.125 C-2.03302678 5.08936657 -2.56422992 7.87698108 -3 11 C-4.4606285 8.35261084 -5 7.10551666 -5 4 C-7.89932357 6.39509338 -8.50168276 8.31245243 -9 12 C-9.33 12 -9.66 12 -10 12 C-10.42880585 7.62618037 -10.48534354 5.65174704 -7.8125 2.0625 C-4.80004811 -0.14663138 -3.62732988 -0.51818998 0 0 Z " fill="#CFB7CF" transform="translate(246,152)"/>
<path d="M0 0 C1.32 0.66 2.64 1.32 4 2 C-2.435 6.95 -2.435 6.95 -9 12 C-9 8.68560062 -8.83218656 7.7084497 -7 5 C-4.75903656 3.18859768 -2.41231133 1.57380739 0 0 Z " fill="#F9F3F7" transform="translate(126,67)"/>
<path d="M0 0 C0.99 0.33 1.98 0.66 3 1 C2.67 1.99 2.34 2.98 2 4 C1.85164052 5.77166975 1.75229982 7.54767612 1.68359375 9.32421875 C1.64169922 10.35224609 1.59980469 11.38027344 1.55664062 12.43945312 C1.51732422 13.51130859 1.47800781 14.58316406 1.4375 15.6875 C1.39431641 16.77095703 1.35113281 17.85441406 1.30664062 18.97070312 C1.20053162 21.64700791 1.09847639 24.32340526 1 27 C-0.32 25.68 -1.64 24.36 -3 23 C-2.01 23 -1.02 23 0 23 C-0.08378906 22.34515625 -0.16757813 21.6903125 -0.25390625 21.015625 C-1.05220686 13.86123477 -0.81047114 7.14461481 0 0 Z " fill="#ECEBF7" transform="translate(140,257)"/>
<path d="M0 0 C0.33 0 0.66 0 1 0 C0.98839844 0.68707031 0.97679687 1.37414062 0.96484375 2.08203125 C0.95582031 2.98308594 0.94679688 3.88414062 0.9375 4.8125 C0.92589844 5.70582031 0.91429687 6.59914062 0.90234375 7.51953125 C0.88990033 10.13413791 0.88990033 10.13413791 2 13 C1.67 13.66 1.34 14.32 1 15 C-0.32 15 -1.64 15 -3 15 C-3 15.66 -3 16.32 -3 17 C-4.32 17.33 -5.64 17.66 -7 18 C-6.36771484 16.93072266 -6.36771484 16.93072266 -5.72265625 15.83984375 C-2.66639293 10.49677634 -0.27535694 6.19553107 0 0 Z " fill="#D2B5C6" transform="translate(267,158)"/>
<path d="M0 0 C1.65 0 3.3 0 5 0 C5.33 0.99 5.66 1.98 6 3 C5.01 3 4.02 3 3 3 C3 2.34 3 1.68 3 1 C2.34 1 1.68 1 1 1 C1 8.92 1 16.84 1 25 C-0.98 25.99 -0.98 25.99 -3 27 C-2.505 25.515 -2.505 25.515 -2 24 C-1.34 24 -0.68 24 0 24 C0 16.08 0 8.16 0 0 Z " fill="#1E415F" transform="translate(121,280)"/>
<path d="M0 0 C4.29 0 8.58 0 13 0 C13 0.33 13 0.66 13 1 C11.02 1.33 9.04 1.66 7 2 C8.15173355 4.46800047 9.04783565 6.04783565 11 8 C7.43770549 8 6.58890321 7.23890991 3.8125 5.125 C3.09707031 4.59132812 2.38164062 4.05765625 1.64453125 3.5078125 C1.10183594 3.01023438 0.55914062 2.51265625 0 2 C0 1.34 0 0.68 0 0 Z " fill="#BAABC0" transform="translate(256,203)"/>
<path d="M0 0 C0.33 0 0.66 0 1 0 C1.3125 3.25 1.3125 3.25 1 7 C-1.5 9.4375 -1.5 9.4375 -4 11 C-4 10.34 -4 9.68 -4 9 C-8.95 9 -13.9 9 -19 9 C-19 8.67 -19 8.34 -19 8 C-14.05 7.67 -9.1 7.34 -4 7 C-3.34 5.35 -2.68 3.7 -2 2 C-1.34 1.34 -0.68 0.68 0 0 Z " fill="#354568" transform="translate(274,192)"/>
<path d="M0 0 C1.49114951 2.98229902 0.80026992 4.79892034 0 8 C-2.0625 11.375 -2.0625 11.375 -4 14 C-5.32 13.34 -6.64 12.68 -8 12 C-5.36 8.04 -2.72 4.08 0 0 Z " fill="#2C4165" transform="translate(262,166)"/>
<path d="M0 0 C1.04005702 3.38018531 1.08004482 6.4780279 1 10 C0.01 10.33 -0.98 10.66 -2 11 C-2.66 10.67 -3.32 10.34 -4 10 C-4.25 7.25 -4.25 7.25 -4 4 C-2 1.625 -2 1.625 0 0 Z " fill="#F1C2CC" transform="translate(241,155)"/>
<path d="M0 0 C0.33 0.99 0.66 1.98 1 3 C0.01 3.33 -0.98 3.66 -2 4 C-2 4.66 -2 5.32 -2 6 C-5.32216238 8.21477492 -6.55033323 8.29667707 -10.4375 8.3125 C-11.38496094 8.32925781 -12.33242188 8.34601563 -13.30859375 8.36328125 C-16.37125309 7.94988891 -17.72618559 7.03729471 -20 5 C-19.67 4.34 -19.34 3.68 -19 3 C-17.515 3.99 -17.515 3.99 -16 5 C-13.62392133 5.35420761 -13.62392133 5.35420761 -11.0625 5.3125 C-9.78052734 5.33763672 -9.78052734 5.33763672 -8.47265625 5.36328125 C-5.54509722 4.93316594 -4.25724246 3.84772115 -2 2 C-1.34 2 -0.68 2 0 2 C0 1.34 0 0.68 0 0 Z " fill="#304E6D" transform="translate(270,289)"/>
<path d="M0 0 C2.31 0.66 4.62 1.32 7 2 C6.7525 2.556875 6.505 3.11375 6.25 3.6875 C5.71646324 6.24050936 5.71646324 6.24050936 7.9375 8.75 C8.618125 9.4925 9.29875 10.235 10 11 C9.01 11 8.02 11 7 11 C5.17578125 9.1015625 5.17578125 9.1015625 3.3125 6.625 C2.68988281 5.81289063 2.06726563 5.00078125 1.42578125 4.1640625 C0 2 0 2 0 0 Z " fill="#DFDDE9" transform="translate(127,266)"/>
<path d="M0 0 C3.85613052 0.52583598 5.25125936 2.51929641 7.75 5.375 C6.76 5.87 6.76 5.87 5.75 6.375 C4.76 5.715 3.77 5.055 2.75 4.375 C2.75 3.715 2.75 3.055 2.75 2.375 C1.43 2.705 0.11 3.035 -1.25 3.375 C-1.58 5.025 -1.91 6.675 -2.25 8.375 C-2.91 7.715 -3.57 7.055 -4.25 6.375 C-3.54460581 0.59076763 -3.54460581 0.59076763 0 0 Z " fill="#C5B2C8" transform="translate(232.25,190.625)"/>
<path d="M0 0 C5.4 -0.36 5.4 -0.36 7.875 1.125 C9.4682099 3.78034983 9.20214032 5.96789518 9 9 C8.278125 8.21625 7.55625 7.4325 6.8125 6.625 C4.16700959 4.15587562 2.39626389 3.06739722 -1 2 C-0.67 1.34 -0.34 0.68 0 0 Z " fill="#20365C" transform="translate(265,188)"/>
<path d="M0 0 C3.27286682 2.7819368 4.96427697 6.27954067 7 10 C5.68 10.33 4.36 10.66 3 11 C1.35 8.03 -0.3 5.06 -2 2 C-1.34 2 -0.68 2 0 2 C0 1.34 0 0.68 0 0 Z " fill="#2B4065" transform="translate(239,169)"/>
<path d="M0 0 C0.28571429 7.42857143 0.28571429 7.42857143 -2 11 C-2.66 10.67 -3.32 10.34 -4 10 C-4 7.03 -4 4.06 -4 1 C-2 0 -2 0 0 0 Z " fill="#39486A" transform="translate(257,157)"/>
<path d="M0 0 C0.66 1.32 1.32 2.64 2 4 C2.66 3.34 3.32 2.68 4 2 C4.33 5.63 4.66 9.26 5 13 C4.01 13.495 4.01 13.495 3 14 C-0.00559652 8.99067246 -0.29341888 5.67276511 0 0 Z " fill="#414D70" transform="translate(243,157)"/>
<path d="M0 0 C1.56217417 2.48110015 2.05728067 3.60858207 1.625 6.5625 C1.41875 7.366875 1.2125 8.17125 1 9 C1 9.99 1 10.98 1 12 C-0.32 12 -1.64 12 -3 12 C-2.40075776 7.80530429 -1.42500059 3.99000166 0 0 Z " fill="#D8D7E6" transform="translate(192,274)"/>
<path d="M0 0 C0.99 0.33 1.98 0.66 3 1 C2.071875 2.3303125 2.071875 2.3303125 1.125 3.6875 C-1.96450924 8.99006195 -2.31455293 15.00233814 -3 21 C-3.33 21 -3.66 21 -4 21 C-4.27863374 13.44592983 -4.33215338 6.49823007 0 0 Z " fill="#D8DCEA" transform="translate(237,265)"/>
<path d="M0 0 C7.92 0 15.84 0 24 0 C24.66 1.32 25.32 2.64 26 4 C25.01 3.67 24.02 3.34 23 3 C23 2.34 23 1.68 23 1 C15.41 1 7.82 1 0 1 C0 0.67 0 0.34 0 0 Z " fill="#113458" transform="translate(184,296)"/>
<path d="M0 0 C2.4375 2 2.4375 2 4 4 C3.01 5.485 3.01 5.485 2 7 C1.67 6.34 1.34 5.68 1 5 C-0.76826954 2.82717431 -0.76826954 2.82717431 -2.98046875 2.734375 C-4.98888143 2.74859385 -6.99584122 2.86857975 -9 3 C-9 2.34 -9 1.68 -9 1 C-5.90826248 -0.54586876 -3.40570448 -0.29359521 0 0 Z " fill="#D7D9E6" transform="translate(388,256)"/>
<path d="M0 0 C1.32 0.33 2.64 0.66 4 1 C4.22893297 4.03336186 4.36475845 6.97465051 4 10 C2 12.0625 2 12.0625 0 13 C-0.66 12.67 -1.32 12.34 -2 12 C-1.505 11.649375 -1.01 11.29875 -0.5 10.9375 C1.75322054 8.02709013 1.25966039 5.57033034 1 2 C0.67 1.34 0.34 0.68 0 0 Z " fill="#D7BDCE" transform="translate(273,190)"/>
<path d="M0 0 C7.42857143 -0.28571429 7.42857143 -0.28571429 11 2 C11 2.66 11 3.32 11 4 C9.02 4.33 7.04 4.66 5 5 C5 4.01 5 3.02 5 2 C3.35 2 1.7 2 0 2 C0 1.34 0 0.68 0 0 Z " fill="#10315A" transform="translate(242,149)"/>
<path d="M0 0 C0.495 0.350625 0.99 0.70125 1.5 1.0625 C5.22697603 2.46011601 8.09802848 1.65032859 12 1 C11.34 2.32 10.68 3.64 10 5 C6.6875 5.3125 6.6875 5.3125 3 5 C1.0625 2.5 1.0625 2.5 0 0 Z " fill="#204261" transform="translate(324,297)"/>
<path d="M0 0 C0.99 0.33 1.98 0.66 3 1 C0.94766315 3.2477975 -0.00667261 4.0022242 -3 5 C-5.3406065 4.72230092 -7.67624308 4.39460023 -10 4 C-9.67 3.34 -9.34 2.68 -9 2 C-7.1875 1.62109375 -7.1875 1.62109375 -5 1.4375 C-2.21067942 1.37334592 -2.21067942 1.37334592 0 0 Z " fill="#E2E3F1" transform="translate(388,305)"/>
<path d="M0 0 C1.65 1.65 3.3 3.3 5 5 C5.99 4.01 6.98 3.02 8 2 C8.66 2.66 9.32 3.32 10 4 C9.34 4 8.68 4 8 4 C8 4.66 8 5.32 8 6 C7.34 6 6.68 6 6 6 C6 6.66 6 7.32 6 8 C4.35 7.67 2.7 7.34 1 7 C0.67 4.69 0.34 2.38 0 0 Z " fill="#254768" transform="translate(326,277)"/>
<path d="M0 0 C4.29 0 8.58 0 13 0 C13 0.66 13 1.32 13 2 C11.03852126 3.38938077 9.03833424 4.7260411 7 6 C6.67 4.68 6.34 3.36 6 2 C3.03 1.505 3.03 1.505 0 1 C0 0.67 0 0.34 0 0 Z " fill="#A9A2B6" transform="translate(231,203)"/>
<path d="M0 0 C3.5 -0.375 3.5 -0.375 7 0 C7.66 0.99 8.32 1.98 9 3 C7.02 3.99 7.02 3.99 5 5 C4.38125 4.2265625 4.38125 4.2265625 3.75 3.4375 C3.1725 2.963125 2.595 2.48875 2 2 C-0.16299211 2.22757731 -0.16299211 2.22757731 -2 3 C-1.34 2.01 -0.68 1.02 0 0 Z " fill="#1E4168" transform="translate(144,258)"/>
<path d="M0 0 C2.31 0 4.62 0 7 0 C7.33 0.99 7.66 1.98 8 3 C3.545 3.495 3.545 3.495 -1 4 C-0.67 2.68 -0.34 1.36 0 0 Z " fill="#2D4C6C" transform="translate(191,257)"/>
<path d="M0 0 C-3.31371 2.20914 -4.3446021 2.22481553 -8.1875 2.125 C-9.08855469 2.10695313 -9.98960937 2.08890625 -10.91796875 2.0703125 C-11.60503906 2.04710937 -12.29210937 2.02390625 -13 2 C-13 1.34 -13 0.68 -13 0 C-11.58456585 -0.19658808 -10.16755969 -0.38187546 -8.75 -0.5625 C-7.96109375 -0.66691406 -7.1721875 -0.77132813 -6.359375 -0.87890625 C-3.99467126 -1.00027349 -2.2488963 -0.69633257 0 0 Z " fill="#E4E3F2" transform="translate(267,293)"/>
<path d="M0 0 C7.42857143 -0.14285714 7.42857143 -0.14285714 11 1 C11.33 2.98 11.66 4.96 12 7 C11.34 7 10.68 7 10 7 C9.4225 6.175 8.845 5.35 8.25 4.5 C6.19396698 1.64917869 6.19396698 1.64917869 2.75 1.6875 C1.38875 1.8421875 1.38875 1.8421875 0 2 C0 1.34 0 0.68 0 0 Z " fill="#E4E3F0" transform="translate(347,256)"/>
<path d="M0 0 C0.33 0.99 0.66 1.98 1 3 C0.07767578 2.96519531 0.07767578 2.96519531 -0.86328125 2.9296875 C-1.67152344 2.91164062 -2.47976562 2.89359375 -3.3125 2.875 C-4.51326172 2.84019531 -4.51326172 2.84019531 -5.73828125 2.8046875 C-8.28388576 2.84182678 -8.28388576 2.84182678 -11 5 C-11 4.01 -11 3.02 -11 2 C-7.36576791 -0.32590854 -4.22911669 -0.16265833 0 0 Z " fill="#D1B7C9" transform="translate(237,186)"/>
<path d="M0 0 C0.886875 0.804375 1.77375 1.60875 2.6875 2.4375 C5.38287032 4.7039159 7.42063478 5.68417366 11 6 C8.47274972 7.68483352 7.41024863 8.0781426 4.375 7.5 C1.19691313 5.49278724 0.85376494 3.57028974 0 0 Z " fill="#DCDFED" transform="translate(138,301)"/>
<path d="M0 0 C0 0.99 0 1.98 0 3 C-2.31 3.33 -4.62 3.66 -7 4 C-7.33 3.01 -7.66 2.02 -8 1 C-5.29120665 -0.35439668 -2.99066732 -0.06501451 0 0 Z " fill="#10345C" transform="translate(181,303)"/>
<path d="M0 0 C1.98 0 3.96 0 6 0 C6.66 2.31 7.32 4.62 8 7 C7.34 7.66 6.68 8.32 6 9 C5.566875 8.071875 5.13375 7.14375 4.6875 6.1875 C3.27961373 3.52815927 2.23876444 1.91894095 0 0 Z " fill="#234668" transform="translate(265,270)"/>
<path d="M0 0 C1.98 0 3.96 0 6 0 C4.35 2.64 2.7 5.28 1 8 C0.02391783 5.07175348 -0.08226668 3.04386724 0 0 Z " fill="#E3DEEA" transform="translate(340,258)"/>
<path d="M0 0 C1.3921875 0.3403125 1.3921875 0.3403125 2.8125 0.6875 C3.1425 2.3375 3.4725 3.9875 3.8125 5.6875 C3.1525 5.6875 2.4925 5.6875 1.8125 5.6875 C1.4825 4.6975 1.1525 3.7075 0.8125 2.6875 C-1.4975 2.6875 -3.8075 2.6875 -6.1875 2.6875 C-4.14987265 -0.14253799 -3.59070275 -0.35202968 0 0 Z " fill="#BEAEC3" transform="translate(268.1875,191.3125)"/>
<path d="M0 0 C2.4375 0.75 2.4375 0.75 5 2 C5.8125 4.125 5.8125 4.125 6 6 C4.02 6 2.04 6 0 6 C0 4.02 0 2.04 0 0 Z " fill="#063563" transform="translate(252,177)"/>
<path d="M0 0 C0.66 0.33 1.32 0.66 2 1 C1.95875 1.94875 1.9175 2.8975 1.875 3.875 C1.65026182 7.10244856 1.65026182 7.10244856 4 9 C2.68 9 1.36 9 0 9 C-1.36623674 6.26752652 -1.128426 4.01801098 -1 1 C-0.67 0.67 -0.34 0.34 0 0 Z " fill="#37506E" transform="translate(171,297)"/>
<path d="M0 0 C0.33 0.66 0.66 1.32 1 2 C0.0625 4.125 0.0625 4.125 -1 6 C-1.66 6 -2.32 6 -3 6 C-3 6.99 -3 7.98 -3 9 C-3.66 9 -4.32 9 -5 9 C-4.5206753 4.68607774 -3.2542015 2.83430453 0 0 Z " fill="#1A425F" transform="translate(189,259)"/>
<path d="M0 0 C2.64752004 2.57784846 4.94432065 4.91648098 7 8 C6.01 8.495 6.01 8.495 5 9 C1.7457985 6.16569547 0.4793247 4.31392226 0 0 Z " fill="#1B3E5F" transform="translate(120,259)"/>
<path d="M0 0 C2.64 0.33 5.28 0.66 8 1 C3.375 5 3.375 5 0 5 C0 3.35 0 1.7 0 0 Z " fill="#E8E4ED" transform="translate(240,258)"/>
<path d="M0 0 C1.65 0.33 3.3 0.66 5 1 C5 1.99 5 2.98 5 4 C2 5 2 5 -1 4 C-0.67 2.68 -0.34 1.36 0 0 Z " fill="#F4C2CE" transform="translate(255,186)"/>
<path d="M0 0 C1.32 1.32 2.64 2.64 4 4 C2.02 6.97 2.02 6.97 0 10 C-1.2380014 6.42355152 -0.74926071 3.66305234 0 0 Z " fill="#B7AAC3" transform="translate(255,168)"/>
<path d="M0 0 C2.78211944 0.37596209 4.5879284 0.67318459 6.8125 2.4375 C8 4 8 4 8 6 C5.0280615 4.87548273 2.66559313 3.77706209 0 2 C0 1.34 0 0.68 0 0 Z " fill="#FBF5F9" transform="translate(380,74)"/>
<path d="M0 0 C0.598125 0.33 1.19625 0.66 1.8125 1 C4.05386471 2.20787988 4.05386471 2.20787988 7 2 C7.66 1.34 8.32 0.68 9 0 C9.66 0.66 10.32 1.32 11 2 C9 4 9 4 6.0625 4.25 C3 4 3 4 0 2 C0 1.34 0 0.68 0 0 Z " fill="#234160" transform="translate(345,303)"/>
<path d="M0 0 C1.65 1.65 3.3 3.3 5 5 C1.86650268 6.04449911 1.01031744 5.93423645 -2 5 C-1.125 1.125 -1.125 1.125 0 0 Z " fill="#164265" transform="translate(132,274)"/>
<path d="M0 0 C0.99 0.33 1.98 0.66 3 1 C3 3.64 3 6.28 3 9 C2.34 9 1.68 9 1 9 C0.67 6.03 0.34 3.06 0 0 Z " fill="#203460" transform="translate(245,169)"/>
<path d="M0 0 C0.99 0 1.98 0 3 0 C5.1875 3 5.1875 3 7 6 C4.03 5.505 4.03 5.505 1 5 C0.67 3.35 0.34 1.7 0 0 Z " fill="#F8F4F7" transform="translate(415,106)"/>
<path d="M0 0 C2.475 0.495 2.475 0.495 5 1 C5.33 2.98 5.66 4.96 6 7 C5.34 7 4.68 7 4 7 C3.67 5.68 3.34 4.36 3 3 C2.34 3 1.68 3 1 3 C0.67 2.01 0.34 1.02 0 0 Z " fill="#F8F6F7" transform="translate(352,56)"/>
<path d="M0 0 C4.19162145 0.95264124 5.7207791 1.63260408 8.375 5.125 C8.91125 6.07375 9.4475 7.0225 10 8 C6.05205855 6.32971708 3.18203882 3.8204435 0 1 C0 0.67 0 0.34 0 0 Z " fill="#F7DFE3" transform="translate(106,415)"/>
<path d="M0 0 C1 3 1 3 0 6 C-0.61875 5.835 -1.2375 5.67 -1.875 5.5 C-3.96063386 4.92365356 -3.96063386 4.92365356 -6 5 C-6 4.34 -6 3.68 -6 3 C-4.02 2.01 -2.04 1.02 0 0 Z " fill="#FBEDF3" transform="translate(254,274)"/>
<path d="M0 0 C2.97 0.33 5.94 0.66 9 1 C9 1.66 9 2.32 9 3 C9.99 3.33 10.98 3.66 12 4 C11.34 4.66 10.68 5.32 10 6 C9.46375 5.54625 8.9275 5.0925 8.375 4.625 C5.68301698 2.78311688 3.11479612 1.92028067 0 1 C0 0.67 0 0.34 0 0 Z " fill="#C6CDE0" transform="translate(266,258)"/>
<path d="M0 0 C1.32 0.66 2.64 1.32 4 2 C4 2.33 4 2.66 4 3 C-0.95 3 -5.9 3 -11 3 C-11 2.67 -11 2.34 -11 2 C-7.37 2 -3.74 2 0 2 C0 1.34 0 0.68 0 0 Z " fill="#C0B1C7" transform="translate(241,197)"/>
<path d="M0 0 C0.68707555 2.49064888 1 4.37886292 1 7 C-0.5 8.6875 -0.5 8.6875 -2 10 C-2.6875 8.375 -2.6875 8.375 -3 6 C-1.5625 2.75 -1.5625 2.75 0 0 Z " fill="#DBDAE7" transform="translate(283,290)"/>
<path d="M0 0 C2.17854707 3.2678206 3.49760034 6.38058265 5 10 C4.34 10 3.68 10 3 10 C3 9.34 3 8.68 3 8 C2.34 8 1.68 8 1 8 C-0.35439668 5.29120665 -0.06501451 2.99066732 0 0 Z " fill="#1F4265" transform="translate(246,285)"/>
<path d="M0 0 C1.98 1.65 3.96 3.3 6 5 C3 6 3 6 0 6 C0 4.02 0 2.04 0 0 Z " fill="#DDE0EE" transform="translate(123,282)"/>
<path d="M0 0 C1.32 0.66 2.64 1.32 4 2 C3.6875 3.9375 3.6875 3.9375 3 6 C2.01 6.33 1.02 6.66 0 7 C0 6.34 0 5.68 0 5 C-0.66 4.67 -1.32 4.34 -2 4 C-1.34 2.68 -0.68 1.36 0 0 Z " fill="#03335E" transform="translate(188,269)"/>
<path d="M0 0 C0.66 0.33 1.32 0.66 2 1 C1.690625 1.495 1.38125 1.99 1.0625 2.5 C-0.41644382 5.97986781 -0.62402851 9.24028509 -1 13 C-1.33 13 -1.66 13 -2 13 C-2.05391993 11.20866022 -2.09275571 9.41686101 -2.125 7.625 C-2.14820313 6.62726563 -2.17140625 5.62953125 -2.1953125 4.6015625 C-2 2 -2 2 0 0 Z " fill="#14385A" transform="translate(306,259)"/>
<path d="M0 0 C0.66 0 1.32 0 2 0 C1.6875 2.875 1.6875 2.875 1 6 C0.01 6.66 -0.98 7.32 -2 8 C-1.125 1.125 -1.125 1.125 0 0 Z " fill="#F6F3F5" transform="translate(46,170)"/>
<path d="M0 0 C0 0.66 0 1.32 0 2 C1.65 2 3.3 2 5 2 C4.67 2.66 4.34 3.32 4 4 C1.69 4 -0.62 4 -3 4 C-3 3.34 -3 2.68 -3 2 C-3.66 1.67 -4.32 1.34 -5 1 C-3 0 -3 0 0 0 Z " fill="#354769" transform="translate(242,149)"/>
<path d="M0 0 C2.97 0.33 5.94 0.66 9 1 C9 1.66 9 2.32 9 3 C6.1875 3.1875 6.1875 3.1875 3 3 C2.01 2.01 1.02 1.02 0 0 Z " fill="#F9F4F5" transform="translate(184,457)"/>
<path d="M0 0 C0.33 0 0.66 0 1 0 C0.67 2.97 0.34 5.94 0 9 C-0.99 9.33 -1.98 9.66 -3 10 C-2.01 6.7 -1.02 3.4 0 0 Z " fill="#305372" transform="translate(179,276)"/>
<path d="M0 0 C3.93673644 1.31224548 6.22719294 2.91910327 9 6 C6.69 5.34 4.38 4.68 2 4 C2 3.34 2 2.68 2 2 C1.34 2 0.68 2 0 2 C0 1.34 0 0.68 0 0 Z " fill="#264566" transform="translate(270,260)"/>
<path d="M0 0 C-0.8125 1.9375 -0.8125 1.9375 -2 4 C-2.99 4.33 -3.98 4.66 -5 5 C-5.66 4.34 -6.32 3.68 -7 3 C-2.25 0 -2.25 0 0 0 Z " fill="#274C6F" transform="translate(250,259)"/>
<path d="M0 0 C2.46278801 2.46278801 2.99771255 4.70676982 4 8 C3.34 8.66 2.68 9.32 2 10 C0.68373308 6.38026598 0 3.90432869 0 0 Z " fill="#D0D2E1" transform="translate(235,291)"/>
<path d="M0 0 C0.99 1.32 1.98 2.64 3 4 C2.67 4.66 2.34 5.32 2 6 C0.68 6 -0.64 6 -2 6 C-1.34 4.02 -0.68 2.04 0 0 Z " fill="#CBD2E2" transform="translate(195,268)"/>
<path d="M0 0 C2.475 0.495 2.475 0.495 5 1 C5.33 1.99 5.66 2.98 6 4 C4.35 3.67 2.7 3.34 1 3 C0.67 2.01 0.34 1.02 0 0 Z " fill="#213857" transform="translate(260,210)"/>
<path d="" fill="#FFFFFF" transform="translate(0,0)"/>
<path d="" fill="#FFFFFF" transform="translate(0,0)"/>
<path d="" fill="#FFFFFF" transform="translate(0,0)"/>
<path d="" fill="#FFFFFF" transform="translate(0,0)"/>
<path d="" fill="#FFFFFF" transform="translate(0,0)"/>
<path d="" fill="#FFFFFF" transform="translate(0,0)"/>
<path d="" fill="#FFFFFF" transform="translate(0,0)"/>
<path d="" fill="#FFFFFF" transform="translate(0,0)"/>
<path d="" fill="#FFFFFF" transform="translate(0,0)"/>
<path d="" fill="#FFFFFF" transform="translate(0,0)"/>
<path d="" fill="#FFFFFF" transform="translate(0,0)"/>
<path d="" fill="#FFFFFF" transform="translate(0,0)"/>
<path d="" fill="#FFFFFF" transform="translate(0,0)"/>
<path d="" fill="#FFFFFF" transform="translate(0,0)"/>
<path d="" fill="#FFFFFF" transform="translate(0,0)"/>
<path d="" fill="#FFFFFF" transform="translate(0,0)"/>
<path d="" fill="#FFFFFF" transform="translate(0,0)"/>
<path d="" fill="#FFFFFF" transform="translate(0,0)"/>
<path d="" fill="#FFFFFF" transform="translate(0,0)"/>
<path d="" fill="#FFFFFF" transform="translate(0,0)"/>
<path d="" fill="#FFFFFF" transform="translate(0,0)"/>
</svg>
