<?xml version="1.0" encoding="UTF-8"?>
<svg version="1.1" xmlns="http://www.w3.org/2000/svg" width="300" height="116">
<path d="M0 0 C99 0 198 0 300 0 C300 38.28 300 76.56 300 116 C201 116 102 116 0 116 C0 77.72 0 39.44 0 0 Z " fill="#0B0A0A" transform="translate(0,0)"/>
<path d="M0 0 C0.33 0 0.66 0 1 0 C1 30.03 1 60.06 1 91 C-98 91 -197 91 -299 91 C-299 64.6 -299 38.2 -299 11 C-298.67 11 -298.34 11 -298 11 C-297.82871582 12.29623291 -297.65743164 13.59246582 -297.48095703 14.92797852 C-296.84137718 19.75746654 -296.19490162 24.58601102 -295.54638672 29.41430664 C-295.26717311 31.50032023 -294.98980608 33.58658189 -294.71435547 35.6730957 C-294.31708442 38.67987819 -293.91308321 41.68569284 -293.5078125 44.69140625 C-293.3868924 45.61772354 -293.26597229 46.54404083 -293.14138794 47.49842834 C-292.09251351 56.04877115 -292.09251351 56.04877115 -288.8359375 63.91796875 C-285.89985173 65.64838526 -282.93147423 65.3908987 -279.625 65.3125 C-278.83351563 65.303396 -278.04203125 65.29429199 -277.2265625 65.28491211 C-261.81194979 64.99504794 -246.38292222 63.99840164 -231 63 C-229.28490234 62.89147705 -229.28490234 62.89147705 -227.53515625 62.78076172 C-226.55417969 62.70744629 -225.57320313 62.63413086 -224.5625 62.55859375 C-223.73878906 62.49857178 -222.91507812 62.4385498 -222.06640625 62.37670898 C-219.70009992 62.08641451 -219.70009992 62.08641451 -217 60 C-214.81797791 59.73498535 -214.81797791 59.73498535 -212.24194336 59.71289062 C-211.26951691 59.69938568 -210.29709045 59.68588074 -209.29519653 59.67196655 C-207.70854691 59.66418686 -207.70854691 59.66418686 -206.08984375 59.65625 C-204.98760468 59.64244293 -203.8853656 59.62863586 -202.74972534 59.6144104 C-200.37971293 59.58476839 -198.00964958 59.5589995 -195.63955688 59.53668213 C-189.43897909 59.4752432 -183.23907533 59.37621436 -177.0390625 59.2734375 C-175.81429703 59.25320526 -174.58953156 59.23297302 -173.32765198 59.21212769 C-150.71111089 58.8080719 -128.19193316 57.07929951 -105.67700195 54.96533203 C-83.18682537 52.87763769 -83.18682537 52.87763769 -78.0625 57 C-72.54605816 60.71569251 -67.50030523 61.10771384 -61 60 C-59.47487793 59.25230347 -59.47487793 59.25230347 -57.91894531 58.48950195 C-53.42061734 56.52118252 -49.18501721 56.61192043 -44.33984375 56.6640625 C-42.47590793 56.65155654 -40.61197561 56.63851972 -38.74804688 56.625 C-35.83605607 56.62106521 -32.92440955 56.62506556 -30.01245117 56.63964844 C-27.18356554 56.64823021 -24.35610392 56.62652866 -21.52734375 56.6015625 C-20.66157211 56.61490631 -19.79580048 56.62825012 -18.90379333 56.64199829 C-14.82005789 56.59226379 -11.89535132 56.37382405 -8.59204102 53.83740234 C-3.06543791 47.78765371 -2.46506719 42.44786174 -2.05078125 34.5703125 C-1.95726631 33.084814 -1.95726631 33.084814 -1.86186218 31.56930542 C-1.66652366 28.42180686 -1.48926552 25.27359077 -1.3125 22.125 C-1.18283433 19.98430236 -1.05198797 17.84367589 -0.91992188 15.703125 C-0.5996018 10.46949694 -0.29409901 5.23516346 0 0 Z " fill="#EC2442" transform="translate(299,25)"/>
<path d="M0 0 C0.33 0 0.66 0 1 0 C1 30.03 1 60.06 1 91 C-69.62 91 -140.24 91 -213 91 C-213 90.67 -213 90.34 -213 90 C-211.79114136 89.90295776 -211.79114136 89.90295776 -210.55786133 89.80395508 C-175.48508219 86.93398334 -140.60835536 82.42506125 -106.10668945 75.41772461 C-103.64209213 74.92903229 -101.16821265 74.52288845 -98.6875 74.125 C-91.31591294 72.80000718 -83.28147876 71.18765251 -77 67 C-76.26393501 63.43230448 -76.26393501 63.43230448 -76 60 C-74.49759766 60.05220703 -74.49759766 60.05220703 -72.96484375 60.10546875 C-71.62241277 60.13363164 -70.27996344 60.16092909 -68.9375 60.1875 C-66.97103516 60.23970703 -66.97103516 60.23970703 -64.96484375 60.29296875 C-61.01941387 60.2421314 -61.01941387 60.2421314 -57.85595703 58.50268555 C-53.38550922 56.50325085 -49.16998548 56.61208219 -44.33984375 56.6640625 C-42.47590793 56.65155654 -40.61197561 56.63851972 -38.74804688 56.625 C-35.83605607 56.62106521 -32.92440955 56.62506556 -30.01245117 56.63964844 C-27.18356554 56.64823021 -24.35610392 56.62652866 -21.52734375 56.6015625 C-20.66157211 56.61490631 -19.79580048 56.62825012 -18.90379333 56.64199829 C-14.82005789 56.59226379 -11.89535132 56.37382405 -8.59204102 53.83740234 C-3.06543791 47.78765371 -2.46506719 42.44786174 -2.05078125 34.5703125 C-1.95726631 33.084814 -1.95726631 33.084814 -1.86186218 31.56930542 C-1.66652366 28.42180686 -1.48926552 25.27359077 -1.3125 22.125 C-1.18283433 19.98430236 -1.05198797 17.84367589 -0.91992188 15.703125 C-0.5996018 10.46949694 -0.29409901 5.23516346 0 0 Z " fill="#FDFCFC" transform="translate(299,25)"/>
<path d="M0 0 C75.57 0 151.14 0 229 0 C229 0.33 229 0.66 229 1 C227.78183594 1.02578125 226.56367188 1.0515625 225.30859375 1.078125 C223.68486165 1.13443941 222.06116511 1.19178597 220.4375 1.25 C219.23770508 1.27126953 219.23770508 1.27126953 218.01367188 1.29296875 C212.20649647 1.52999632 208.77398702 2.64374246 204 6 C202.88987549 7.28789429 202.88987549 7.28789429 201.75732422 8.60180664 C198.20091432 11.69500785 196.32899922 11.62606126 191.66015625 11.63671875 C190.92744507 11.64628098 190.19473389 11.6558432 189.43981934 11.66569519 C187.83343076 11.6842431 186.22688611 11.69174379 184.62039185 11.68963623 C181.07213646 11.6866729 177.52535754 11.74141172 173.9775238 11.79199219 C172.04881782 11.81906421 170.12007188 11.84340486 168.19129944 11.86523438 C156.30859018 12.00624033 144.43720646 12.43240107 132.5625 12.875 C131.4282962 12.91635071 130.29409241 12.95770142 129.1255188 13.00030518 C110.35145947 13.6918596 91.61308486 14.74428031 72.86645508 15.95996094 C60.34998066 16.76703813 47.85181913 17.40197957 35.3125 17.70922852 C18.43692051 17.28293157 18.43692051 17.28293157 3.6875 24 C1.85440429 26.09639678 1.85440429 26.09639678 0 29 C0 19.43 0 9.86 0 0 Z " fill="#FBFBFB" transform="translate(0,0)"/>
<path d="M0 0 C1.32 0.66 2.64 1.32 4 2 C4 6.95 4 11.9 4 17 C6.165625 14.586875 6.165625 14.586875 8.375 12.125 C12.75 7.25 12.75 7.25 15 5 C19.13830989 5.30096799 21.51847024 5.67898016 25 8 C25 9.32 25 10.64 25 12 C23.62569717 13.06508469 22.25046604 14.12898889 20.87109375 15.1875 C18.32538701 17.65348732 16.45370903 20.46410842 14.5625 23.4375 C13.86253906 24.52933594 13.16257813 25.62117188 12.44140625 26.74609375 C10.75877546 30.54455296 10.65685469 32.09747542 12 36 C13.88408329 38.52269666 13.88408329 38.52269666 16.3125 40.6875 C17.09238281 41.43386719 17.87226563 42.18023437 18.67578125 42.94921875 C20.71873732 44.75182705 22.79113238 46.40779565 25 48 C24.125 51.875 24.125 51.875 23 53 C18.70517193 53.61354687 16.29915727 53.78774298 12.5390625 51.5078125 C9.52125075 49.15411466 6.70573914 46.70573914 4 44 C4.495 51.92 4.495 51.92 5 60 C2.29120665 61.35439668 -0.00933268 61.06501451 -3 61 C-6.06997835 54.8600433 -7.05542371 48.76761128 -8 42 C-8.268125 42.64066406 -8.53625 43.28132813 -8.8125 43.94140625 C-11.97999605 50.93282023 -15.97835523 56.48917762 -23 60 C-27.53489845 60.6236599 -30.90082987 60.74943418 -34.75 58.125 C-40.66224192 49.91355289 -42.80092872 43.17316674 -42.5625 33.0625 C-42.57893555 31.55139648 -42.57893555 31.55139648 -42.59570312 30.00976562 C-42.50006519 20.09530002 -40.12755203 11.12755203 -33 4 C-29.04139683 2.02069841 -24.30430763 2.4401912 -20 3 C-16.55645999 5.52994777 -14.57566835 8.06767987 -13 12 C-12.69921875 15.1640625 -12.69921875 15.1640625 -12.6875 18.625 C-12.67074219 19.77226563 -12.65398437 20.91953125 -12.63671875 22.1015625 C-12.75660156 23.05804688 -12.87648437 24.01453125 -13 25 C-17.05358424 27.70238949 -19.18310104 27.22937614 -24 27 C-24.66 26.67 -25.32 26.34 -26 26 C-26.4140625 23.71484375 -26.4140625 23.71484375 -26.625 20.9375 C-26.69976562 20.01839844 -26.77453125 19.09929688 -26.8515625 18.15234375 C-26.90054688 17.44207031 -26.94953125 16.73179688 -27 16 C-29.5990004 22.50934154 -30.47017464 28.20273886 -30.375 35.1875 C-30.38660156 36.05052734 -30.39820313 36.91355469 -30.41015625 37.80273438 C-30.38624257 43.01193049 -29.69733486 46.41167642 -27 51 C-27 51.66 -27 52.32 -27 53 C-23.02253939 49.75910617 -21.26873487 45.79339905 -19.1484375 41.2421875 C-18 39 -18 39 -16 37 C-13.36 37 -10.72 37 -8 37 C-8 25.12 -8 13.24 -8 1 C-5.2201184 -0.3899408 -3.0813674 -0.18488204 0 0 Z " fill="#F8F8F8" transform="translate(168,19)"/>
<path d="M0 0 C0.33 0 0.66 0 1 0 C1.17128418 1.29623291 1.34256836 2.59246582 1.51904297 3.92797852 C2.15862282 8.75746654 2.80509838 13.58601102 3.45361328 18.41430664 C3.73282689 20.50032023 4.01019392 22.58658189 4.28564453 24.6730957 C4.68291558 27.67987819 5.08691679 30.68569284 5.4921875 33.69140625 C5.6131076 34.61772354 5.73402771 35.54404083 5.85861206 36.49842834 C6.90748649 45.04877115 6.90748649 45.04877115 10.1640625 52.91796875 C13.10027401 54.64845936 16.0684427 54.39053938 19.375 54.3125 C20.16648437 54.30412109 20.95796875 54.29574219 21.7734375 54.28710938 C32.80221232 54.08673193 43.82812957 53.37158309 54.83740234 52.7121582 C62.90152152 52.23417116 70.91668377 51.83975805 79 52 C78.34 53.03125 77.68 54.0625 77 55.125 C74.07636151 60.99323496 73.80801389 67.61806196 75 74 C76.65 75.98 78.3 77.96 80 80 C53.6 80 27.2 80 0 80 C0 53.6 0 27.2 0 0 Z " fill="#FBFBFB" transform="translate(0,36)"/>
<path d="M0 0 C1.15113281 -0.01417969 2.30226562 -0.02835938 3.48828125 -0.04296875 C6.58545863 0.18014903 8.03530353 0.73532081 10.6875 2.1875 C10.87518604 14.91440078 10.42682012 27.53578593 9.57055664 40.234375 C9.37160005 43.23884302 9.19452049 46.24416421 9.01757812 49.25 C8.89194845 51.16675387 8.76504529 53.0834248 8.63671875 55 C8.58658127 55.89565674 8.53644379 56.79131348 8.48478699 57.71411133 C8.42495132 58.5367749 8.36511566 59.35943848 8.3034668 60.20703125 C8.25683395 60.92995361 8.21020111 61.65287598 8.16215515 62.39770508 C7.6875 64.1875 7.6875 64.1875 4.6875 66.1875 C1.92729004 66.55917184 -0.50102476 66.36600636 -3.3125 66.1875 C-5.3125 64.1875 -5.3125 64.1875 -5.5078125 62.2421875 C-5.44270833 60.22395833 -5.37760417 58.20572917 -5.3125 56.1875 C-6.95798828 56.22230469 -6.95798828 56.22230469 -8.63671875 56.2578125 C-10.091139 56.27657921 -11.54556664 56.29477844 -13 56.3125 C-13.72123047 56.32925781 -14.44246094 56.34601563 -15.18554688 56.36328125 C-19.33758025 56.40119936 -22.6549503 56.23681356 -26.3125 54.1875 C-28.9938557 50.16546644 -29.03375685 46.83270657 -28.3125 42.1875 C-26.84471127 38.16504783 -24.89482917 34.45758497 -22.875 30.6875 C-22.33383545 29.64392334 -21.7926709 28.60034668 -21.23510742 27.52514648 C-19.61116878 24.40336551 -17.96331808 21.29512977 -16.3125 18.1875 C-15.38904163 16.41879454 -14.46704634 14.64932402 -13.546875 12.87890625 C-6.84188276 0.03805274 -6.84188276 0.03805274 0 0 Z " fill="#F6F6F6" transform="translate(231.3125,10.8125)"/>
<path d="M0 0 C3.67658266 1.73802089 5.47878841 2.8321884 7.14575195 6.56713867 C8.22074563 10.88708324 8.26834908 14.86803968 8.23046875 19.30078125 C8.23001053 20.17776169 8.22955231 21.05474213 8.2290802 21.95829773 C8.22607171 23.8013953 8.21822769 25.64449064 8.20581055 27.48754883 C8.18744772 30.32056582 8.18530178 33.15325758 8.18554688 35.98632812 C8.1806352 37.77864868 8.17480842 39.57096701 8.16796875 41.36328125 C8.16685593 42.21424881 8.1657431 43.06521637 8.16459656 43.94197083 C8.11608196 49.88391804 8.11608196 49.88391804 7 51 C0.74719101 51.58988764 0.74719101 51.58988764 -2.375 49.125 C-5.87203611 44.55195278 -5.19115121 40.2013103 -5.1875 34.625 C-5.18814453 33.63161621 -5.18878906 32.63823242 -5.18945312 31.61474609 C-5.13866734 24.54744272 -4.62987962 17.89788337 -3 11 C-3.66 11 -4.32 11 -5 11 C-5.2784375 11.85207031 -5.556875 12.70414063 -5.84375 13.58203125 C-6.5947159 15.80194735 -7.38447609 18.00924973 -8.21875 20.19921875 C-11.2386935 28.42119907 -12.74255511 36.08145797 -13.3671875 44.82885742 C-13.81558485 50.81558485 -13.81558485 50.81558485 -16 53 C-18.2421875 53.37109375 -18.2421875 53.37109375 -20.875 53.4375 C-21.73867188 53.47746094 -22.60234375 53.51742187 -23.4921875 53.55859375 C-26 53 -26 53 -28.2109375 51.06640625 C-30.61472511 46.94637727 -31.16607045 43.19082886 -31.75 38.5 C-31.87141357 37.58887451 -31.99282715 36.67774902 -32.11791992 35.73901367 C-32.94587019 28.93187579 -33.28151459 22.1674258 -33.3125 15.3125 C-33.31797852 14.41015625 -33.32345703 13.5078125 -33.32910156 12.578125 C-33.25828418 6.25828418 -33.25828418 6.25828418 -31 4 C-26.66356399 3.68462284 -24.67346771 3.55102153 -21 6 C-20.48828125 8.3828125 -20.48828125 8.3828125 -20.3125 11.125 C-20.21388672 12.49011719 -20.21388672 12.49011719 -20.11328125 13.8828125 C-20.07589844 14.58148438 -20.03851563 15.28015625 -20 16 C-19.70867188 15.34773438 -19.41734375 14.69546875 -19.1171875 14.0234375 C-14.87156323 4.97144614 -11.11278959 -2.30605294 0 0 Z " fill="#F7F7F7" transform="translate(83,25)"/>
<path d="M0 0 C5.32013609 3.23792843 5.32013609 3.23792843 6.67578125 5.94921875 C7.10331808 12.1485028 6.21854755 16.27689393 3.67578125 21.94921875 C3.01578125 22.60921875 2.35578125 23.26921875 1.67578125 23.94921875 C-0.48828125 23.92578125 -0.48828125 23.92578125 -2.94921875 23.57421875 C-3.76648438 23.46335937 -4.58375 23.3525 -5.42578125 23.23828125 C-6.05226563 23.14289062 -6.67875 23.0475 -7.32421875 22.94921875 C-8.30220596 19.15353414 -8.25074944 16.44861885 -7.38671875 12.63671875 C-7.19207031 11.75371094 -6.99742188 10.87070312 -6.796875 9.9609375 C-6.64089844 9.29707031 -6.48492188 8.63320313 -6.32421875 7.94921875 C-9.54930762 10.28740818 -11.0820029 11.59601285 -11.796875 15.58984375 C-11.92106143 19.62860257 -11.95781695 22.82602194 -9.94921875 26.38671875 C-6.72899845 28.30351655 -3.42399132 29.62585397 0.07421875 30.95703125 C11.56533992 35.33953091 11.56533992 35.33953091 14.67578125 41.94921875 C15.43886838 45.69528284 15.40585419 47.81540921 13.3125 51.06640625 C9.27172353 55.95834405 5.5518889 59.49691077 -0.96875 60.2578125 C-5.56746098 60.46096841 -8.44309107 60.47789536 -12.44921875 58.07421875 C-15.59268062 54.51162863 -15.51188335 52.14515205 -15.57421875 47.44921875 C-15.6 46.28390625 -15.62578125 45.11859375 -15.65234375 43.91796875 C-15.5440625 42.93828125 -15.43578125 41.95859375 -15.32421875 40.94921875 C-12.23533353 38.88996194 -11.61485948 38.71018135 -8.13671875 38.82421875 C-6.87859375 38.86546875 -5.62046875 38.90671875 -4.32421875 38.94921875 C-3.34173351 43.00197035 -3.24262301 46.78783612 -3.32421875 50.94921875 C-2.33421875 50.94921875 -1.34421875 50.94921875 -0.32421875 50.94921875 C1.24008373 47.8206138 1.03205409 45.3931895 0.67578125 41.94921875 C-2.76784121 37.79312268 -7.72219675 36.65373105 -12.66796875 34.9453125 C-18.24193983 32.85507334 -22.00607201 29.84417076 -25.32421875 24.94921875 C-26.65329064 18.93535201 -26.70357286 13.24327167 -23.48046875 7.8828125 C-17.30342888 0.81010184 -9.43716619 -4.26655077 0 0 Z " fill="#F3F3F3" transform="translate(36.32421875,24.05078125)"/>
<path d="M0 0 C0.99 0.66 1.98 1.32 3 2 C3.328125 4.73828125 3.328125 4.73828125 3.25 8.3125 C3.23614258 8.96114014 3.22228516 9.60978027 3.20800781 10.27807617 C3.17236655 11.72205164 3.12859819 13.16584187 3.078125 14.609375 C2.99421581 17.17699607 2.95066367 19.7439097 2.90625 22.3125 C2.38822769 43.88141391 2.38822769 43.88141391 -5.125 51.625 C-8.80209769 54.40852341 -12.10452191 54.75870108 -16.63671875 54.44921875 C-20.26703172 53.75915926 -22.29981883 52.50731109 -25 50 C-28.68367879 44.53751055 -29.9293995 39.8022638 -30.75 33.3125 C-30.93320801 31.95656738 -30.93320801 31.95656738 -31.12011719 30.57324219 C-32.29400083 21.08023914 -32.51940355 11.54903452 -32 2 C-31 1 -31 1 -27.6875 0.75 C-24 1 -24 1 -21.80859375 1.8984375 C-18.80422915 5.38947023 -19.40681172 9.42097094 -19.375 13.875 C-19.32262752 15.78008951 -19.26534228 17.68505035 -19.203125 19.58984375 C-19.17412109 20.51651855 -19.14511719 21.44319336 -19.11523438 22.39794922 C-18.78158507 29.93192028 -18.08206853 37.50580007 -14 44 C-12.42551535 41.17008048 -11.6943968 38.90250337 -11.40234375 35.68359375 C-11.3235498 34.84530029 -11.24475586 34.00700684 -11.16357422 33.14331055 C-11.08896973 32.25039307 -11.01436523 31.35747559 -10.9375 30.4375 C-10.85516113 29.51815674 -10.77282227 28.59881348 -10.68798828 27.65161133 C-9.89290662 18.44676991 -9.40081817 9.22936575 -9 0 C-5.88109857 -1.55945072 -3.34501482 -0.64552918 0 0 Z " fill="#F7F7F7" transform="translate(284,20)"/>
<path d="M0 0 C5.38739591 0.20720754 8.94871756 1.41979691 13 5 C14.99445415 10.37281526 15.22879746 15.24135374 15.3125 20.875 C15.57328752 29.19086211 17.20389064 36.40766645 19.84375 44.265625 C20.97779126 47.92827178 21.56782637 51.20865862 22 55 C17.69230769 58.07692308 17.69230769 58.07692308 14.1875 57.6875 C13.465625 57.460625 12.74375 57.23375 12 57 C10.515 52.545 10.515 52.545 9 48 C6.10935018 48.57220726 6.10935018 48.57220726 3 50 C2.401875 51.03125 1.80375 52.0625 1.1875 53.125 C-1 56 -1 56 -3.2109375 56.42578125 C-5.5284276 56.43674729 -7.71158982 56.36670265 -10 56 C-10.33 55.67 -10.66 55.34 -11 55 C-10.46675488 49.64996932 -9.61802903 44.35732351 -8.6875 39.0625 C-8.56068848 38.33595215 -8.43387695 37.6094043 -8.30322266 36.86083984 C-7.2197927 30.8404901 -5.81724726 24.92350207 -4.3449707 18.98828125 C-3.14149569 13.99852024 -2.47750097 9.14473609 -2.2734375 4.00390625 C-2 2 -2 2 0 0 Z " fill="#F5F5F5" transform="translate(104,20)"/>
<path d="M0 0 C3.44354001 2.52994777 5.42433165 5.06767987 7 9 C7.30078125 12.1640625 7.30078125 12.1640625 7.3125 15.625 C7.32925781 16.77226563 7.34601563 17.91953125 7.36328125 19.1015625 C7.24339844 20.05804688 7.12351563 21.01453125 7 22 C2.94641576 24.70238949 0.81689896 24.22937614 -4 24 C-4.66 23.67 -5.32 23.34 -6 23 C-6.4140625 20.71484375 -6.4140625 20.71484375 -6.625 17.9375 C-6.69976562 17.01839844 -6.77453125 16.09929688 -6.8515625 15.15234375 C-6.90054688 14.44207031 -6.94953125 13.73179688 -7 13 C-9.5990004 19.50934154 -10.47017464 25.20273886 -10.375 32.1875 C-10.38660156 33.05052734 -10.39820313 33.91355469 -10.41015625 34.80273438 C-10.38624257 40.01193049 -9.69733486 43.41167642 -7 48 C-7 48.66 -7 49.32 -7 50 C-3.02253939 46.75910617 -1.26873487 42.79339905 0.8515625 38.2421875 C2 36 2 36 4 34 C6.68839385 33.73008094 9.29141936 33.91262643 12 34 C12 31.69 12 29.38 12 27 C12.33 27 12.66 27 13 27 C13.74507544 33.37305598 14.10349817 39.58311325 14 46 C13.67 46 13.34 46 13 46 C12.505 42.535 12.505 42.535 12 39 C11.731875 39.64066406 11.46375 40.28132813 11.1875 40.94140625 C8.02000395 47.93282023 4.02164477 53.48917762 -3 57 C-7.53489845 57.6236599 -10.90082987 57.74943418 -14.75 55.125 C-20.66224192 46.91355289 -22.80092872 40.17316674 -22.5625 30.0625 C-22.57893555 28.55139648 -22.57893555 28.55139648 -22.59570312 27.00976562 C-22.50006519 17.09530002 -20.12755203 8.12755203 -13 1 C-9.04139683 -0.97930159 -4.30430763 -0.5598088 0 0 Z " fill="#F1F1F1" transform="translate(148,22)"/>
<path d="M0 0 C20.79 0 41.58 0 63 0 C63 6.27 63 12.54 63 19 C61.35 17.35 59.7 15.7 58 14 C53.03437612 10.79235652 48.83054321 10.53402744 43.1015625 10.48828125 C42.26660248 10.47033005 41.43164246 10.45237885 40.57138062 10.43388367 C37.92263739 10.38000078 35.27407206 10.34595639 32.625 10.3125 C30.82158995 10.27930741 29.0182033 10.24481596 27.21484375 10.20898438 C22.81002466 10.12428725 18.4052563 10.05737166 14 10 C13.87367188 9.36320313 13.74734375 8.72640625 13.6171875 8.0703125 C13.20463277 5.83600275 13.20463277 5.83600275 11.125 4.875 C10.42375 4.58625 9.7225 4.2975 9 4 C8.01 3.34 7.02 2.68 6 2 C4.0103005 1.60986284 2.00980131 1.26797351 0 1 C0 0.67 0 0.34 0 0 Z " fill="#F8F8F8" transform="translate(237,0)"/>
<path d="M0 0 C0.99 0 1.98 0 3 0 C3 1.32 3 2.64 3 4 C1.68 3.67 0.36 3.34 -1 3 C-0.525625 3.721875 -0.05125 4.44375 0.4375 5.1875 C1.94152903 7.89475226 2.56599182 9.96194275 3 13 C-1.73169412 14.4582331 -6.18618876 15.37748361 -11.125 15.9375 C-16.09641986 16.5552504 -20.88559801 17.36671622 -25.75 18.5625 C-31.48892965 19.97056452 -37.10724071 20.65753503 -43 21 C-43.40214229 14.83381819 -41.96818336 9.82254243 -40 4 C-39.34 4 -38.68 4 -38 4 C-38 4.66 -38 5.32 -38 6 C-34.94736336 6.98120464 -33.05263664 6.98120464 -30 6 C-30 6.99 -30 7.98 -30 9 C-29.34 9 -28.68 9 -28 9 C-28 7.68 -28 6.36 -28 5 C-27.34 5 -26.68 5 -26 5 C-25.67 5.66 -25.34 6.32 -25 7 C-23.68 6.67 -22.36 6.34 -21 6 C-21 7.32 -21 8.64 -21 10 C-20.34 10 -19.68 10 -19 10 C-18.855625 9.030625 -18.71125 8.06125 -18.5625 7.0625 C-18 4 -18 4 -17 3 C-15.33388095 2.957279 -13.66617115 2.95936168 -12 3 C-11.34 3 -10.68 3 -10 3 C-9.34 2.34 -8.68 1.68 -8 1 C-6 1.375 -6 1.375 -4 2 C-3.34 2 -2.68 2 -2 2 C-1.34 1.34 -0.68 0.68 0 0 Z " fill="#EF3551" transform="translate(207,85)"/>
<path d="M0 0 C-0.33 1.98 -0.66 3.96 -1 6 C-3.64 6.66 -6.28 7.32 -9 8 C-9.020625 9.258125 -9.04125 10.51625 -9.0625 11.8125 C-9.07410156 12.52019531 -9.08570313 13.22789063 -9.09765625 13.95703125 C-9.08263217 16.20305461 -9.08263217 16.20305461 -8 19 C-8.33 19.99 -8.66 20.98 -9 22 C-9.66 22 -10.32 22 -11 22 C-11.103125 22.556875 -11.20625 23.11375 -11.3125 23.6875 C-12.13133577 26.44176578 -13.45853781 28.58727657 -15 31 C-15.99 30.67 -16.98 30.34 -18 30 C-18.33 27.69 -18.66 25.38 -19 23 C-19.99 23 -20.98 23 -22 23 C-23.59516129 15.04153226 -23.59516129 15.04153226 -21.25 10.9375 C-19 9 -19 9 -16 9 C-16 9.66 -16 10.32 -16 11 C-16.99 11 -17.98 11 -19 11 C-19 11.99 -19 12.98 -19 14 C-17.02 13.67 -15.04 13.34 -13 13 C-13.12375 11.14375 -13.12375 11.14375 -13.25 9.25 C-13.2556929 6.03351368 -13.18154041 5.24414055 -11.1875 2.5625 C-7.46562388 -0.09598294 -4.44772667 -0.09883837 0 0 Z " fill="#171005" transform="translate(219,13)"/>
<path d="M0 0 C0.66 0 1.32 0 2 0 C1.48265505 7.80101731 0.514101 15.32855492 -1 23 C-4.3 23 -7.6 23 -11 23 C-10.46163691 18.02014144 -8.11143832 14.51449357 -5.5 10.375 C-2.32841426 5.39984196 -2.32841426 5.39984196 0 0 Z " fill="#131313" transform="translate(227,32)"/>
<path d="M0 0 C0.66 0 1.32 0 2 0 C2 0.66 2 1.32 2 2 C2.804375 2.268125 3.60875 2.53625 4.4375 2.8125 C5.7059375 3.4003125 5.7059375 3.4003125 7 4 C7.33 4.99 7.66 5.98 8 7 C8.33 5.68 8.66 4.36 9 3 C9.66 3 10.32 3 11 3 C9.14403212 13.21874082 9.14403212 13.21874082 6 16 C4.68 16 3.36 16 2 16 C2.33 14.68 2.66 13.36 3 12 C1.35 12 -0.3 12 -2 12 C-2.05422947 10.5629191 -2.09289723 9.12524538 -2.125 7.6875 C-2.14820312 6.88699219 -2.17140625 6.08648437 -2.1953125 5.26171875 C-2 3 -2 3 0 0 Z " fill="#F3677C" transform="translate(116,92)"/>
<path d="M0 0 C0.66 0 1.32 0 2 0 C2 0.66 2 1.32 2 2 C3.32 2.33 4.64 2.66 6 3 C5.8125 4.875 5.8125 4.875 5 7 C4.175 7.28875 3.35 7.5775 2.5 7.875 C1.675 8.24625 0.85 8.6175 0 9 C-0.89830839 12.05272465 -0.89830839 12.05272465 -1 15 C-1.33 15 -1.66 15 -2 15 C-2 13.02 -2 11.04 -2 9 C-5.19902639 8.91113816 -7.92677456 9.08941469 -11 10 C-10.75 7.125 -10.75 7.125 -10 4 C-8.0625 2.5625 -8.0625 2.5625 -6 2 C-5.34 2.33 -4.68 2.66 -4 3 C-3.66666667 4.33333333 -3.33333333 5.66666667 -3 7 C-2.34 7.33 -1.68 7.66 -1 8 C-0.67 5.36 -0.34 2.72 0 0 Z " fill="#F8AFB9" transform="translate(158,90)"/>
<path d="M0 0 C-0.33 1.98 -0.66 3.96 -1 6 C-3.64 6.66 -6.28 7.32 -9 8 C-9.020625 9.27875 -9.04125 10.5575 -9.0625 11.875 C-9.07410156 12.59429687 -9.08570313 13.31359375 -9.09765625 14.0546875 C-9.12649242 16.08185404 -9.12649242 16.08185404 -8 18 C-11.875 16.25 -11.875 16.25 -13 14 C-13.51571681 9.62063431 -13.83341277 6.14953485 -11.1875 2.5 C-7.4420607 -0.06830123 -4.42484826 -0.09832996 0 0 Z " fill="#BF4623" transform="translate(219,13)"/>
<path d="M0 0 C5 2 5 2 7 4 C7.4375 7.3125 7.4375 7.3125 7 11 C4.625 13.9375 4.625 13.9375 2 16 C1.34 16 0.68 16 0 16 C0 10.72 0 5.44 0 0 Z " fill="#DC8F17" transform="translate(242,57)"/>
<path d="M0 0 C4.03586066 2.17315574 4.03586066 2.17315574 5.4375 4.3125 C5.875 7.75 5.875 7.75 5.4375 11.3125 C3.4375 13.75 3.4375 13.75 1.4375 15.3125 C-0.5625 13.3125 -0.5625 13.3125 -0.7578125 10.7109375 C-0.73460937 9.71320313 -0.71140625 8.71546875 -0.6875 7.6875 C-0.66945313 6.68460937 -0.65140625 5.68171875 -0.6328125 4.6484375 C-0.60960937 3.87757812 -0.58640625 3.10671875 -0.5625 2.3125 C-3.5325 1.8175 -3.5325 1.8175 -6.5625 1.3125 C-3.99362178 -0.40008548 -3.04679832 -0.8174337 0 0 Z " fill="#252525" transform="translate(32.5625,61.6875)"/>
<path d="M0 0 C0.33 0 0.66 0 1 0 C1.02465392 4.53897705 1.04283789 9.07791543 1.05493164 13.61694336 C1.0599714 15.16219766 1.0668032 16.70744716 1.07543945 18.25268555 C1.08752076 20.46925029 1.09323173 22.68575218 1.09765625 24.90234375 C1.10281754 25.5971434 1.10797882 26.29194305 1.11329651 27.00779724 C1.11349277 28.6722933 1.06189129 30.33665499 1 32 C0.505 32.495 0.505 32.495 0 33 C-0.23363881 34.84891946 -0.41303635 36.70488031 -0.5625 38.5625 C-0.64628906 39.57441406 -0.73007812 40.58632812 -0.81640625 41.62890625 C-0.90728516 42.80259766 -0.90728516 42.80259766 -1 44 C-1.33 44 -1.66 44 -2 44 C-2.37416743 29.26196082 -1.22029198 14.68082656 0 0 Z " fill="#B6B6B6" transform="translate(299,25)"/>
<path d="M0 0 C1.09658936 3.28976808 0.79953138 4.71303767 0 8 C1.65 7.67 3.3 7.34 5 7 C5.66 4.69 6.32 2.38 7 0 C7.66 0 8.32 0 9 0 C8.01 5.28 7.02 10.56 6 16 C5.34 16 4.68 16 4 16 C4.33 13.69 4.66 11.38 5 9 C3.02 9.33 1.04 9.66 -1 10 C-1.33 12.64 -1.66 15.28 -2 18 C-2.66 18 -3.32 18 -4 18 C-3.40546697 5.33029613 -3.40546697 5.33029613 0 0 Z " fill="#F9B7C0" transform="translate(138,86)"/>
<path d="M0 0 C0.763125 0.0825 1.52625 0.165 2.3125 0.25 C1.08722971 4.30281712 -0.38630494 7.69360764 -2.6875 11.25 C-3.6775 10.92 -4.6675 10.59 -5.6875 10.25 C-5.90929212 6.99704886 -5.97351103 4.82202207 -4.5 1.875 C-2.6875 0.25 -2.6875 0.25 0 0 Z " fill="#7AB43C" transform="translate(206.6875,32.75)"/>
<path d="M0 0 C0.33 0 0.66 0 1 0 C1.19859939 3.52029806 1.38186528 7.04123805 1.5625 10.5625 C1.61857422 11.55314453 1.67464844 12.54378906 1.73242188 13.56445312 C1.99588562 18.85129231 2.18682437 23.81919184 1 29 C0.34 29.33 -0.32 29.66 -1 30 C-1.12847075 19.93645782 -0.79692838 10.03275911 0 0 Z " fill="#262625" transform="translate(240,43)"/>
<path d="M0 0 C0 0.66 0 1.32 0 2 C-0.99 2 -1.98 2 -3 2 C-3 2.99 -3 3.98 -3 5 C-1.68 4.67 -0.36 4.34 1 4 C1.33 5.65 1.66 7.3 2 9 C0.576875 8.9071875 0.576875 8.9071875 -0.875 8.8125 C-2.421875 8.9053125 -2.421875 8.9053125 -4 9 C-4.66 9.99 -5.32 10.98 -6 12 C-7.46385542 5.77861446 -7.46385542 5.77861446 -5.25 2.0625 C-3 0 -3 0 0 0 Z " fill="#CD8516" transform="translate(203,22)"/>
<path d="M0 0 C0.99 0.33 1.98 0.66 3 1 C4.1875 4.0625 4.1875 4.0625 5 7 C4.2575 7.144375 3.515 7.28875 2.75 7.4375 C0.47972261 7.90187492 -1.75759479 8.41863569 -4 9 C-3.38461538 3.46153846 -3.38461538 3.46153846 -1.4375 1.125 C-0.963125 0.75375 -0.48875 0.3825 0 0 Z " fill="#FAC3CB" transform="translate(99,97)"/>
<path d="M0 0 C0.66 0 1.32 0 2 0 C2 0.66 2 1.32 2 2 C2.99 2 3.98 2 5 2 C4.67 3.32 4.34 4.64 4 6 C4 5.34 4 4.68 4 4 C3.01 4 2.02 4 1 4 C1.33 5.65 1.66 7.3 2 9 C1.01 9.495 1.01 9.495 0 10 C-0.65555119 12.52733235 -0.65555119 12.52733235 -1 15 C-1.33 15 -1.66 15 -2 15 C-2.21755666 9.5610835 -2.10428384 5.12919186 0 0 Z " fill="#F9B7C0" transform="translate(167,89)"/>
<path d="M0 0 C-0.62390625 0.18304688 -1.2478125 0.36609375 -1.890625 0.5546875 C-4.34008964 1.91662203 -4.34008964 1.91662203 -5.046875 5.2578125 C-5.27890625 6.53398438 -5.5109375 7.81015625 -5.75 9.125 C-5.99234375 10.40632813 -6.2346875 11.68765625 -6.484375 13.0078125 C-6.65453125 13.99523437 -6.8246875 14.98265625 -7 16 C-7.66 16 -8.32 16 -9 16 C-8.58846263 11.02906176 -8.20399168 6.55491614 -6 2 C-7.32 1.67 -8.64 1.34 -10 1 C-6.52674819 -0.1577506 -3.63932552 -0.06866652 0 0 Z " fill="#F9BBC4" transform="translate(98,92)"/>
<path d="M0 0 C0.66 0 1.32 0 2 0 C2.08159574 4.16138263 1.98248524 7.9472484 1 12 C0.34 10.68 -0.32 9.36 -1 8 C-1.99 8.66 -2.98 9.32 -4 10 C-2.8905928 6.51329166 -1.73662334 3.22515763 0 0 Z " fill="#404040" transform="translate(78,36)"/>
<path d="M0 0 C0.99 0 1.98 0 3 0 C3 1.32 3 2.64 3 4 C1.68 3.67 0.36 3.34 -1 3 C-0.67 3.598125 -0.34 4.19625 0 4.8125 C1 7 1 7 1 10 C-0.32 9.67 -1.64 9.34 -3 9 C-3 5.26608454 -2.68204921 2.68204921 0 0 Z " fill="#F8B1BB" transform="translate(207,85)"/>
<path d="M0 0 C0.66 0 1.32 0 2 0 C2 0.66 2 1.32 2 2 C2.66 2 3.32 2 4 2 C4 2.66 4 3.32 4 4 C2.68 4 1.36 4 0 4 C-0.33 6.31 -0.66 8.62 -1 11 C0.32 10.67 1.64 10.34 3 10 C2.67 10.66 2.34 11.32 2 12 C0.68 12 -0.64 12 -2 12 C-2.05422947 10.5629191 -2.09289723 9.12524538 -2.125 7.6875 C-2.14820312 6.88699219 -2.17140625 6.08648437 -2.1953125 5.26171875 C-2 3 -2 3 0 0 Z " fill="#FAC1C9" transform="translate(116,92)"/>
<path d="M0 0 C1.32 0 2.64 0 4 0 C3.67 1.32 3.34 2.64 3 4 C2.01 4 1.02 4 0 4 C0 4.99 0 5.98 0 7 C1.32 6.67 2.64 6.34 4 6 C3.67 6.66 3.34 7.32 3 8 C1.35 7.67 -0.3 7.34 -2 7 C-1.125 1.125 -1.125 1.125 0 0 Z " fill="#F8ADB8" transform="translate(190,88)"/>
<path d="M0 0 C1.32 0.33 2.64 0.66 4 1 C4 2.32 4 3.64 4 5 C3.34 5.66 2.68 6.32 2 7 C-0.125 6.625 -0.125 6.625 -2 6 C-1.34 4.02 -0.68 2.04 0 0 Z " fill="#2A1E06" transform="translate(199,30)"/>
<path d="M0 0 C0.99 0 1.98 0 3 0 C3 1.32 3 2.64 3 4 C1.68 4 0.36 4 -1 4 C-1 4.66 -1 5.32 -1 6 C-0.34 6.33 0.32 6.66 1 7 C1 7.99 1 8.98 1 10 C-0.32 9.67 -1.64 9.34 -3 9 C-3 5.26608454 -2.68204921 2.68204921 0 0 Z " fill="#F9BFC7" transform="translate(109,95)"/>
<path d="M0 0 C1.32 0.33 2.64 0.66 4 1 C3.8125 2.875 3.8125 2.875 3 5 C0.4375 6.25 0.4375 6.25 -2 7 C-1.125 2.25 -1.125 2.25 0 0 Z " fill="#F691A0" transform="translate(160,92)"/>
<path d="M0 0 C0.598125 0.226875 1.19625 0.45375 1.8125 0.6875 C1.8125 1.3475 1.8125 2.0075 1.8125 2.6875 C0.4925 2.6875 -0.8275 2.6875 -2.1875 2.6875 C-2.0225 3.285625 -1.8575 3.88375 -1.6875 4.5 C-1.1875 6.6875 -1.1875 6.6875 -1.1875 9.6875 C-2.1775 9.3575 -3.1675 9.0275 -4.1875 8.6875 C-4.875 5.875 -4.875 5.875 -5.1875 2.6875 C-3.62441875 0.13720955 -3.00012909 -0.42858987 0 0 Z " fill="#F9BCC5" transform="translate(201.1875,86.3125)"/>
<path d="M0 0 C0.66 0.33 1.32 0.66 2 1 C2.59355614 3.64860427 2.74209269 6.29197322 3 9 C1.68 9.33 0.36 9.66 -1 10 C-0.67 6.7 -0.34 3.4 0 0 Z " fill="#333333" transform="translate(108,51)"/>
<path d="M0 0 C0.66 0 1.32 0 2 0 C2.33 0.66 2.66 1.32 3 2 C4.32 1.67 5.64 1.34 7 1 C7.33 2.65 7.66 4.3 8 6 C7.34 6 6.68 6 6 6 C6 5.01 6 4.02 6 3 C5.21625 3.495 4.4325 3.99 3.625 4.5 C1 6 1 6 -1 6 C-0.67 4.02 -0.34 2.04 0 0 Z " fill="#FAC7CE" transform="translate(179,90)"/>
<path d="M0 0 C0.99 0 1.98 0 3 0 C2.25 5.75 2.25 5.75 0 8 C-0.99 8 -1.98 8 -3 8 C-2.690625 7.236875 -2.38125 6.47375 -2.0625 5.6875 C-1.32106407 3.81210323 -0.63771783 1.91315348 0 0 Z " fill="#12160D" transform="translate(208,35)"/>
<path d="M0 0 C0.33 0 0.66 0 1 0 C1.33 4.29 1.66 8.58 2 13 C1.01 13.66 0.02 14.32 -1 15 C-0.67 10.05 -0.34 5.1 0 0 Z " fill="#393939" transform="translate(172,22)"/>
<path d="M0 0 C1.32 0 2.64 0 4 0 C4.66 1.65 5.32 3.3 6 5 C4.02 5.33 2.04 5.66 0 6 C0 4 0 2 0 0 Z " fill="#F03F5B" transform="translate(102,99)"/>
<path d="M0 0 C0.66 0 1.32 0 2 0 C1.67 3.96 1.34 7.92 1 12 C0.67 12 0.34 12 0 12 C-1.39130435 4.17391304 -1.39130435 4.17391304 0 0 Z " fill="#575757" transform="translate(227,32)"/>
<path d="M0 0 C2.64 0 5.28 0 8 0 C8 0.99 8 1.98 8 3 C8.99 3.33 9.98 3.66 11 4 C10.34 4.66 9.68 5.32 9 6 C8.01 5.67 7.02 5.34 6 5 C6.33 3.68 6.66 2.36 7 1 C4.36 1.33 1.72 1.66 -1 2 C-0.67 1.34 -0.34 0.68 0 0 Z " fill="#532618" transform="translate(212,12)"/>
<path d="M0 0 C0.625 1.8125 0.625 1.8125 1 4 C0.01 5.485 0.01 5.485 -1 7 C-1.99 7 -2.98 7 -4 7 C-3.43628586 3.73045798 -2.50037734 2.17424117 0 0 Z " fill="#F58797" transform="translate(99,99)"/>
<path d="M0 0 C0.99 0 1.98 0 3 0 C3.66 2.64 4.32 5.28 5 8 C3.0625 7.375 3.0625 7.375 1 6 C0.25 2.875 0.25 2.875 0 0 Z " fill="#A13B1E" transform="translate(206,23)"/>
</svg>
