<?xml version="1.0" encoding="UTF-8"?>
<svg version="1.1" xmlns="http://www.w3.org/2000/svg" width="300" height="170">
<path d="M0 0 C99 0 198 0 300 0 C300 56.1 300 112.2 300 170 C201 170 102 170 0 170 C0 113.9 0 57.8 0 0 Z " fill="#000000" transform="translate(0,0)"/>
<path d="M0 0 C1.08667969 0.19464844 2.17335937 0.38929687 3.29296875 0.58984375 C4.54013672 0.82380859 4.54013672 0.82380859 5.8125 1.0625 C6.0234375 5.7734375 6.0234375 5.7734375 4.125 8.375 C1.42133753 10.34794288 0.08284459 10.42587162 -3.1875 10.0625 C-2.6925 10.784375 -2.1975 11.50625 -1.6875 12.25 C-0.07891343 15.26609982 0.4290643 16.71543664 -0.1875 20.0625 C-1.9375 21.875 -1.9375 21.875 -4.1875 23.0625 C-5.5075 23.0625 -6.8275 23.0625 -8.1875 23.0625 C-8.41308594 23.78308594 -8.63867188 24.50367187 -8.87109375 25.24609375 C-10.45822139 28.64169918 -12.6027565 30.4777565 -15.25 33.125 C-23.69894904 42.63935468 -21.52407288 57.16821096 -21.1875 69.0625 C-20.57914307 69.05089844 -19.97078613 69.03929688 -19.34399414 69.02734375 C-18.54082764 69.01832031 -17.73766113 69.00929688 -16.91015625 69 C-16.11617432 68.98839844 -15.32219238 68.97679688 -14.50415039 68.96484375 C-11.48983149 69.09190957 -8.96521515 69.92292455 -6.1875 71.0625 C-6.6825 73.0425 -6.6825 73.0425 -7.1875 75.0625 C-12.98008293 76.83294646 -19.19390787 76.24699117 -25.1875 76.25 C-26.47140625 76.26224609 -27.7553125 76.27449219 -29.078125 76.28710938 C-30.31046875 76.28904297 -31.5428125 76.29097656 -32.8125 76.29296875 C-33.93914062 76.29707764 -35.06578125 76.30118652 -36.2265625 76.30541992 C-39.10565781 76.06921446 -40.75363237 75.56029324 -43.1875 74.0625 C-42.8575 73.0725 -42.5275 72.0825 -42.1875 71.0625 C-38.55611454 69.33759191 -35.42265393 68.96482025 -31.46875 69.01171875 C-30.2631543 69.02271606 -30.2631543 69.02271606 -29.03320312 69.03393555 C-28.42412109 69.04336182 -27.81503906 69.05278809 -27.1875 69.0625 C-26.41115339 53.46438884 -25.92878402 40.86764639 -36.61401367 28.68774414 C-38.09344975 27.10270714 -39.63396486 25.57498205 -41.1875 24.0625 C-41.5175 24.7225 -41.8475 25.3825 -42.1875 26.0625 C-43.8375 26.0625 -45.4875 26.0625 -47.1875 26.0625 C-47.1875 27.0525 -47.1875 28.0425 -47.1875 29.0625 C-48.8375 29.0625 -50.4875 29.0625 -52.1875 29.0625 C-54.2731447 24.63050502 -55.04466905 20.93930024 -53.6171875 16.1484375 C-52.86308345 14.09251173 -52.0401948 12.07937628 -51.1875 10.0625 C-50.93613281 9.41539063 -50.68476563 8.76828125 -50.42578125 8.1015625 C-47.97655436 1.95905696 -47.97655436 1.95905696 -45.1875 0.0625 C-43.8675 0.0625 -42.5475 0.0625 -41.1875 0.0625 C-41.85416667 2.72916667 -42.52083333 5.39583333 -43.1875 8.0625 C-42.07375 8.2171875 -42.07375 8.2171875 -40.9375 8.375 C-38.1875 9.0625 -38.1875 9.0625 -36.55078125 10.578125 C-33.0098387 12.80218809 -29.72304319 12.53804091 -25.625 12.5 C-24.85736328 12.51998047 -24.08972656 12.53996094 -23.29882812 12.56054688 C-18.82027139 12.59308953 -18.82027139 12.59308953 -15.22265625 10.1953125 C-14.13096738 8.01814863 -14.13096738 8.01814863 -13.1875 5.5 C-12.15560773 2.98476258 -11.29271467 1.74667174 -9.1875 0.0625 C-5.61369658 -1.12876781 -3.67866698 -0.6724445 0 0 Z " fill="#C88F8E" transform="translate(180.1875,27.9375)"/>
<path d="M0 0 C11.22 0 22.44 0 34 0 C33.67 1.65 33.34 3.3 33 5 C31.68 5 30.36 5 29 5 C29.495 9.455 29.495 9.455 30 14 C30.66 14 31.32 14 32 14 C32.66 15.32 33.32 16.64 34 18 C34.66 18 35.32 18 36 18 C36.66 16.68 37.32 15.36 38 14 C39.65 14 41.3 14 43 14 C43 16.97 43 19.94 43 23 C41.68 23 40.36 23 39 23 C38.505 22.01 38.505 22.01 38 21 C37.67 21.66 37.34 22.32 37 23 C35.68 23 34.36 23 33 23 C32.505 22.01 32.505 22.01 32 21 C31.67 21.66 31.34 22.32 31 23 C27.85418577 23.02888514 24.70840531 23.04675923 21.5625 23.0625 C20.66466797 23.07087891 19.76683594 23.07925781 18.84179688 23.08789062 C17.56079102 23.09272461 17.56079102 23.09272461 16.25390625 23.09765625 C15.06776733 23.10551147 15.06776733 23.10551147 13.85766602 23.11352539 C12 23 12 23 11 22 C8.5 21.83333333 8.5 21.83333333 6 22 C5.67 22.33 5.34 22.66 5 23 C2.46950598 23.07313567 -0.03304837 23.09247527 -2.5625 23.0625 C-3.27341797 23.05798828 -3.98433594 23.05347656 -4.71679688 23.04882812 C-6.47790013 23.03700864 -8.23896036 23.01907263 -10 23 C-10 20.03 -10 17.06 -10 14 C-6.7 14 -3.4 14 0 14 C0.66 15.65 1.32 17.3 2 19 C2.763125 18.195625 3.52625 17.39125 4.3125 16.5625 C7 14 7 14 10 13 C10 12.34 10 11.68 10 11 C6.7 11 3.4 11 0 11 C0 7.37 0 3.74 0 0 Z " fill="#181818" transform="translate(140,110)"/>
<path d="M0 0 C3.3125 0.1875 3.3125 0.1875 7 1 C8.6875 3.375 8.6875 3.375 10 6 C13.98945228 9.49077074 17.55583207 10.34785979 22.8671875 10.2890625 C26.5916407 9.78428313 28.93300515 8.14689639 32 6 C32.66 5.01 33.32 4.02 34 3 C33.113125 3.165 32.22625 3.33 31.3125 3.5 C23.59424719 4.60260754 15.64803447 4.44910127 8 3 C8 2.67 8 2.34 8 2 C9.12535156 2.02320313 10.25070313 2.04640625 11.41015625 2.0703125 C21.48179804 2.21139043 31.05502128 1.64282834 41 0 C41 1.65 41 3.3 41 5 C40.01 5 39.02 5 38 5 C37.61070312 6.04800781 37.22140625 7.09601562 36.8203125 8.17578125 C35.19049645 12.00326347 32.83962472 14.26176977 29.875 17.1875 C21.45085165 26.60070023 23.6662995 41.20721928 24 53 C24.60835693 52.98839844 25.21671387 52.97679687 25.84350586 52.96484375 C26.64667236 52.95582031 27.44983887 52.94679687 28.27734375 52.9375 C29.07132568 52.92589844 29.86530762 52.91429687 30.68334961 52.90234375 C33.69766851 53.02940957 36.22228485 53.86042455 39 55 C38.67 56.32 38.34 57.64 38 59 C34.48374216 60.08250433 31.22162829 60.12918238 27.5546875 60.1328125 C26.31332031 60.13410156 25.07195312 60.13539062 23.79296875 60.13671875 C21.85357422 60.13091797 21.85357422 60.13091797 19.875 60.125 C18.57433594 60.12886719 17.27367187 60.13273437 15.93359375 60.13671875 C14.07541016 60.13478516 14.07541016 60.13478516 12.1796875 60.1328125 C10.47401611 60.13112061 10.47401611 60.13112061 8.73388672 60.12939453 C6 60 6 60 4 59 C4 58.01 4 57.02 4 56 C6.70183055 54.64908472 9.11808206 54.66141942 12.125 54.4375 C13.22070312 54.35371094 14.31640625 54.26992187 15.4453125 54.18359375 C16.28835937 54.12300781 17.13140625 54.06242187 18 54 C20.2556945 33.79877903 20.2556945 33.79877903 13.04150391 15.59912109 C10.60377133 12.78246635 8.11110651 10.07137473 5.39868164 7.5168457 C4 6 4 6 3 3 C2.34 3 1.68 3 1 3 C1.33 4.98 1.66 6.96 2 9 C1.01 9 0.02 9 -1 9 C-1.33 8.34 -1.66 7.68 -2 7 C-2.33 8.65 -2.66 10.3 -3 12 C-3.99 12 -4.98 12 -6 12 C-5.1875 8.5625 -5.1875 8.5625 -4 5 C-3.01 4.67 -2.02 4.34 -1 4 C-0.26676204 1.98491642 -0.26676204 1.98491642 0 0 Z " fill="#AD1A1D" transform="translate(135,44)"/>
<path d="M0 0 C1.56853362 0.95730789 3.10776599 1.96330474 4.625 3 C10.24269683 6.59498602 15.45909389 7.19346094 22 6 C25.15559647 4.35477449 27.61242457 2.63889916 30 0 C30 0.99 30 1.98 30 3 C31.65 2.34 33.3 1.68 35 1 C35 2.32 35 3.64 35 5 C36.32 5.33 37.64 5.66 39 6 C38.67 6.99 38.34 7.98 38 9 C37.505 7.515 37.505 7.515 37 6 C29.575 7.485 29.575 7.485 22 9 C24.64 9 27.28 9 30 9 C28.78394407 12.78328512 26.45200716 14.4205139 22.99609375 16.23828125 C18.38717476 17.99706638 14.3484117 17.51861989 9.75 15.75 C7.05630245 14.03582883 5.01290349 12.47741968 3 10 C3 9.01 3 8.02 3 7 C0.69 6.67 -1.62 6.34 -4 6 C-4.33 7.65 -4.66 9.3 -5 11 C-5.99 11 -6.98 11 -8 11 C-8 12.98 -8 14.96 -8 17 C-8.66 16.67 -9.32 16.34 -10 16 C-11.75103102 10.61221226 -10.37532339 5.97039035 -8 1 C-4.99049825 -0.50475088 -3.39141132 -0.42392641 0 0 Z " fill="#F7CBC7" transform="translate(139,38)"/>
<path d="M0 0 C0 3.78482273 -1.38183987 4.53644307 -3.86206055 7.17749023 C-13.84464069 18.32957767 -12.50468703 31.77794932 -12 46 C-11.39164307 45.98839844 -10.78328613 45.97679687 -10.15649414 45.96484375 C-9.35332764 45.95582031 -8.55016113 45.94679687 -7.72265625 45.9375 C-6.92867432 45.92589844 -6.13469238 45.91429687 -5.31665039 45.90234375 C-2.30233149 46.02940957 0.22228485 46.86042455 3 48 C2.67 49.32 2.34 50.64 2 52 C-1.51625784 53.08250433 -4.77837171 53.12918238 -8.4453125 53.1328125 C-9.68667969 53.13410156 -10.92804688 53.13539062 -12.20703125 53.13671875 C-14.14642578 53.13091797 -14.14642578 53.13091797 -16.125 53.125 C-17.42566406 53.12886719 -18.72632813 53.13273437 -20.06640625 53.13671875 C-21.92458984 53.13478516 -21.92458984 53.13478516 -23.8203125 53.1328125 C-25.52598389 53.13112061 -25.52598389 53.13112061 -27.26611328 53.12939453 C-30 53 -30 53 -32 52 C-32 51.01 -32 50.02 -32 49 C-27.78362979 46.89181489 -22.69776176 47.39148015 -18 47 C-17.67 37.43 -17.34 27.86 -17 18 C-16.67 18 -16.34 18 -16 18 C-16 26.91 -16 35.82 -16 45 C-15.34 45 -14.68 45 -14 45 C-14.04189453 44.23445801 -14.08378906 43.46891602 -14.12695312 42.68017578 C-14.29474758 39.1623331 -14.39774965 35.64533345 -14.5 32.125 C-14.60054687 30.31902344 -14.60054687 30.31902344 -14.703125 28.4765625 C-14.8787101 20.3996478 -13.6249847 16.08836162 -8.07421875 10.14257812 C-7.38972656 9.43552734 -6.70523438 8.72847656 -6 8 C-4.81180319 6.47486539 -3.64124865 4.93557641 -2.5 3.375 C-2.0153125 2.72273438 -1.530625 2.07046875 -1.03125 1.3984375 C-0.6909375 0.93695313 -0.350625 0.47546875 0 0 Z " fill="#C35A5B" transform="translate(171,51)"/>
<path d="M0 0 C1.61648437 0.30550781 1.61648437 0.30550781 3.265625 0.6171875 C4.08546875 0.78476562 4.9053125 0.95234375 5.75 1.125 C5.9609375 5.8359375 5.9609375 5.8359375 4.0625 8.4375 C1.35883753 10.41044288 0.02034459 10.48837162 -3.25 10.125 C-2.755 10.846875 -2.26 11.56875 -1.75 12.3125 C-0.14141343 15.32859982 0.3665643 16.77793664 -0.25 20.125 C-2 21.9375 -2 21.9375 -4.25 23.125 C-5.57 23.125 -6.89 23.125 -8.25 23.125 C-7.4375 21.1875 -7.4375 21.1875 -6.25 19.125 C-5.26 18.795 -4.27 18.465 -3.25 18.125 C-3.25 17.465 -3.25 16.805 -3.25 16.125 C-4.24 15.795 -5.23 15.465 -6.25 15.125 C-6.58 14.135 -6.91 13.145 -7.25 12.125 C-8.57 12.455 -9.89 12.785 -11.25 13.125 C-12.4375 11.625 -12.4375 11.625 -13.25 9.125 C-12.51669695 5.45122435 -11.59357294 2.13419958 -8.5234375 -0.171875 C-5.41451173 -1.13339843 -3.17606329 -0.62140369 0 0 Z " fill="#B0646A" transform="translate(180.25,27.875)"/>
<path d="M0 0 C4.95 0 9.9 0 15 0 C15.89694794 3.58779175 16.08304117 6.34618837 16 10 C12.99686252 11.50156874 10.20932478 11.09281204 6.875 11.0625 C5.59367187 11.05347656 4.31234375 11.04445313 2.9921875 11.03515625 C1.51105469 11.01775391 1.51105469 11.01775391 0 11 C0 7.37 0 3.74 0 0 Z " fill="#ACACAC" transform="translate(102,110)"/>
<path d="M0 0 C2.10388569 -0.05402274 4.20816714 -0.09280256 6.3125 -0.125 C8.07013672 -0.15980469 8.07013672 -0.15980469 9.86328125 -0.1953125 C13 0 13 0 16 2 C16.41137202 5.03866799 16.13193156 7.92159703 16 11 C10.72 11 5.44 11 0 11 C0 7.37 0 3.74 0 0 Z " fill="#F3F5F4" transform="translate(140,110)"/>
<path d="M0 0 C3.3 0 6.6 0 10 0 C10.66 1.65 11.32 3.3 12 5 C12.7425 4.154375 13.485 3.30875 14.25 2.4375 C17 0 17 0 19.0625 -0.1875 C22.00208029 1.61417824 23.31278958 4.04738177 25 7 C25 7.66 25 8.32 25 9 C24.36191406 8.91621094 23.72382813 8.83242187 23.06640625 8.74609375 C22.24011719 8.64425781 21.41382813 8.54242188 20.5625 8.4375 C19.73878906 8.33308594 18.91507813 8.22867188 18.06640625 8.12109375 C17.04353516 8.06115234 17.04353516 8.06115234 16 8 C15.67 8.33 15.34 8.66 15 9 C12.46950598 9.07313567 9.96695163 9.09247527 7.4375 9.0625 C6.37112305 9.05573242 6.37112305 9.05573242 5.28320312 9.04882812 C3.52209987 9.03700864 1.76103964 9.01907263 0 9 C0 6.03 0 3.06 0 0 Z " fill="#C1C1C1" transform="translate(130,124)"/>
<path d="M0 0 C1.98 0 3.96 0 6 0 C6 3.63 6 7.26 6 11 C-0.4 11.36923077 -0.4 11.36923077 -3.4375 9.5 C-3.953125 9.005 -4.46875 8.51 -5 8 C-5 8.99 -5 9.98 -5 11 C-6.65 11 -8.3 11 -10 11 C-10 7.7 -10 4.4 -10 1 C-3.375 0.75 -3.375 0.75 0 3 C0 2.01 0 1.02 0 0 Z " fill="#E5E5E5" transform="translate(195,110)"/>
<path d="M0 0 C20.5 0 20.5 0 24 1 C22.625 2.5 22.625 2.5 21 4 C20.34 4 19.68 4 19 4 C19 5.32 19 6.64 19 8 C18.01 8 17.02 8 16 8 C15.71125 7.195625 15.4225 6.39125 15.125 5.5625 C14.26737432 2.8673532 14.26737432 2.8673532 12 2 C12.020625 2.969375 12.04125 3.93875 12.0625 4.9375 C12 8 12 8 11 9 C9.14712498 9.07226502 7.29166122 9.0838122 5.4375 9.0625 C4.42558594 9.05347656 3.41367188 9.04445312 2.37109375 9.03515625 C1.58863281 9.02355469 0.80617188 9.01195312 0 9 C0 6.03 0 3.06 0 0 Z " fill="#9D9D9D" transform="translate(102,124)"/>
<path d="M0 0 C3.3 0 6.6 0 10 0 C12.03435531 3.72965139 13 5.66905042 13 10 C9.37 9.67 5.74 9.34 2 9 C2 9.66 2 10.32 2 11 C0.02 11 -1.96 11 -4 11 C-3.39301257 6.87248551 -1.96189209 3.6678852 0 0 Z " fill="#E9E9E9" transform="translate(124,110)"/>
<path d="M0 0 C0.33 0 0.66 0 1 0 C1.33 2.31 1.66 4.62 2 7 C-0.97 6.505 -0.97 6.505 -4 6 C-4 6.66 -4 7.32 -4 8 C-3.01 8.33 -2.02 8.66 -1 9 C-1 9.33 -1 9.66 -1 10 C-6.61 10 -12.22 10 -18 10 C-18.33 9.01 -18.66 8.02 -19 7 C-19.33 6.34 -19.66 5.68 -20 5 C-22.31 5 -24.62 5 -27 5 C-27 4.67 -27 4.34 -27 4 C-26.35450195 3.97494385 -25.70900391 3.9498877 -25.04394531 3.92407227 C-22.11244106 3.80785567 -19.18123783 3.68524558 -16.25 3.5625 C-15.23421875 3.52318359 -14.2184375 3.48386719 -13.171875 3.44335938 C-12.1921875 3.40146484 -11.2125 3.35957031 -10.203125 3.31640625 C-9.30239258 3.27974854 -8.40166016 3.24309082 -7.47363281 3.20532227 C-5.17687019 3.01468099 -3.17615108 2.75810547 -1 2 C-0.67 1.34 -0.34 0.68 0 0 Z " fill="#11090B" transform="translate(174,100)"/>
<path d="M0 0 C4.62 0 9.24 0 14 0 C12.91273811 4.7114682 12.11103846 8.1810022 8 11 C5.5 11.1875 5.5 11.1875 3 10 C1.16401025 7.73099379 0.22043973 5.72251941 -1 3 C-0.67 2.01 -0.34 1.02 0 0 Z " fill="#C40608" transform="translate(149,56)"/>
<path d="M0 0 C2.875 1.875 2.875 1.875 5 4 C5 4.66 5 5.32 5 6 C5.66 6.33 6.32 6.66 7 7 C-0.42857143 7.14285714 -0.42857143 7.14285714 -4 6 C-4.33 7.65 -4.66 9.3 -5 11 C-5.99 11 -6.98 11 -8 11 C-8 12.98 -8 14.96 -8 17 C-8.66 16.67 -9.32 16.34 -10 16 C-11.75103102 10.61221226 -10.37532339 5.97039035 -8 1 C-5.14675563 -0.42662219 -3.16545451 -0.31033868 0 0 Z " fill="#FBEFED" transform="translate(139,38)"/>
<path d="M0 0 C1.65 0 3.3 0 5 0 C5.66 1.32 6.32 2.64 7 4 C7.66 4 8.32 4 9 4 C9.66 2.68 10.32 1.36 11 0 C12.65 0 14.3 0 16 0 C16 2.97 16 5.94 16 9 C14.68 9 13.36 9 12 9 C11.67 8.34 11.34 7.68 11 7 C10.67 7.66 10.34 8.32 10 9 C8.68 9 7.36 9 6 9 C5.67 8.34 5.34 7.68 5 7 C4.67 7.66 4.34 8.32 4 9 C2.68 9 1.36 9 0 9 C0 6.03 0 3.06 0 0 Z " fill="#C1C1C1" transform="translate(167,124)"/>
<path d="M0 0 C5.28 0 10.56 0 16 0 C16 1.32 16 2.64 16 4 C14.02 4 12.04 4 10 4 C10 5.98 10 7.96 10 10 C8.35 10 6.7 10 5 10 C5 8.02 5 6.04 5 4 C3.35 4 1.7 4 0 4 C0 2.68 0 1.36 0 0 Z " fill="#E4E5E5" transform="translate(158,110)"/>
<path d="M0 0 C0.33 0 0.66 0 1 0 C1 3.63 1 7.26 1 11 C4.3 11 7.6 11 11 11 C11 13 11 13 8.6875 15.5 C6 18 6 18 3 20 C2.731875 19.195625 2.46375 18.39125 2.1875 17.5625 C1.795625 16.716875 1.40375 15.87125 1 15 C0.01 14.67 -0.98 14.34 -2 14 C-2 13.01 -2 12.02 -2 11 C-5.63 10.67 -9.26 10.34 -13 10 C-13 9.67 -13 9.34 -13 9 C-9.37 9.33 -5.74 9.66 -2 10 C-1.34 6.7 -0.68 3.4 0 0 Z " fill="#1A1A1A" transform="translate(139,110)"/>
<path d="M0 0 C0 1.65 0 3.3 0 5 C-0.99 5 -1.98 5 -3 5 C-4.46090788 6.5354878 -4.46090788 6.5354878 -5.6875 8.5 C-6.12449219 9.1496875 -6.56148437 9.799375 -7.01171875 10.46875 C-7.33785156 10.9740625 -7.66398437 11.479375 -8 12 C-8.99 11.67 -9.98 11.34 -11 11 C-11.33 10.01 -11.66 9.02 -12 8 C-10.35 6.35 -8.7 4.7 -7 3 C-7.886875 3.165 -8.77375 3.33 -9.6875 3.5 C-17.40575281 4.60260754 -25.35196553 4.44910127 -33 3 C-33 2.67 -33 2.34 -33 2 C-31.83984375 2.02320313 -30.6796875 2.04640625 -29.484375 2.0703125 C-21.2399158 2.18345615 -13.40708401 2.08244739 -5.28515625 0.4375 C-3 0 -3 0 0 0 Z " fill="#B04445" transform="translate(176,44)"/>
<path d="M0 0 C2.375 0.3125 2.375 0.3125 5 1 C5.66 1.99 6.32 2.98 7 4 C7.33 2.68 7.66 1.36 8 0 C9.32 0 10.64 0 12 0 C12 2.97 12 5.94 12 9 C9.6875 9.25 9.6875 9.25 7 9 C5.1875 7 5.1875 7 4 5 C3.67 5.99 3.34 6.98 3 8 C2.01 8 1.02 8 0 8 C0 5.36 0 2.72 0 0 Z " fill="#D2D2D2" transform="translate(199,124)"/>
<path d="M0 0 C2.3828125 0.0234375 2.3828125 0.0234375 5.125 0.375 C6.03507813 0.48585938 6.94515625 0.59671875 7.8828125 0.7109375 C8.93082031 0.85402344 8.93082031 0.85402344 10 1 C10 2.65 10 4.3 10 6 C8.35 6 6.7 6 5 6 C5.33 7.98 5.66 9.96 6 12 C5.01 12 4.02 12 3 12 C2.67 9.69 2.34 7.38 2 5 C1.34 6.32 0.68 7.64 0 9 C-0.66 9 -1.32 9 -2 9 C-2.125 5.625 -2.125 5.625 -2 2 C-1.34 1.34 -0.68 0.68 0 0 Z " fill="#DCB0B0" transform="translate(172,30)"/>
<path d="M0 0 C3.3125 0.1875 3.3125 0.1875 7 1 C8.875 3.4375 8.875 3.4375 10 6 C10.33 6.66 10.66 7.32 11 8 C6.48279689 8.36625971 6.48279689 8.36625971 4.1875 6.625 C3 5 3 5 3 3 C2.34 3 1.68 3 1 3 C1.33 4.98 1.66 6.96 2 9 C1.01 9 0.02 9 -1 9 C-1.33 8.34 -1.66 7.68 -2 7 C-2.33 8.65 -2.66 10.3 -3 12 C-3.99 12 -4.98 12 -6 12 C-5.1875 8.5625 -5.1875 8.5625 -4 5 C-3.01 4.67 -2.02 4.34 -1 4 C-0.26676204 1.98491642 -0.26676204 1.98491642 0 0 Z " fill="#B0242B" transform="translate(135,44)"/>
<path d="M0 0 C1.32 0 2.64 0 4 0 C8 6.75 8 6.75 8 9 C7.01 9 6.02 9 5 9 C5 8.34 5 7.68 5 7 C3.02 7 1.04 7 -1 7 C-1 7.66 -1 8.32 -1 9 C-2.32 9 -3.64 9 -5 9 C-3.76250343 5.57308643 -2.5489363 2.64697231 0 0 Z " fill="#D7D7D7" transform="translate(189,124)"/>
<path d="M0 0 C1.98 0 3.96 0 6 0 C6 3.63 6 7.26 6 11 C4.02 11 2.04 11 0 11 C0 7.37 0 3.74 0 0 Z " fill="#DBDBDB" transform="translate(204,110)"/>
<path d="M0 0 C1.08667969 0.19464844 2.17335937 0.38929687 3.29296875 0.58984375 C4.54013672 0.82380859 4.54013672 0.82380859 5.8125 1.0625 C6.0234375 5.7734375 6.0234375 5.7734375 4.125 8.375 C1.42133753 10.34794288 0.08284459 10.42587162 -3.1875 10.0625 C-3.1875 9.4025 -3.1875 8.7425 -3.1875 8.0625 C-1.5375 8.0625 0.1125 8.0625 1.8125 8.0625 C1.8125 6.4125 1.8125 4.7625 1.8125 3.0625 C1.12542969 3.0625 0.43835938 3.0625 -0.26953125 3.0625 C-3.90885417 3.0625 -7.54817708 3.0625 -11.1875 3.0625 C-7.94902873 -1.7952069 -5.29023781 -0.96703272 0 0 Z " fill="#A97B7C" transform="translate(180.1875,27.9375)"/>
<path d="M0 0 C1.32 0 2.64 0 4 0 C4 0.66 4 1.32 4 2 C5.65 2 7.3 2 9 2 C9.33 3.65 9.66 5.3 10 7 C4.72 7 -0.56 7 -6 7 C-6 6.67 -6 6.34 -6 6 C-4.35 6 -2.7 6 -1 6 C-0.67 4.02 -0.34 2.04 0 0 Z " fill="#ACACAC" transform="translate(146,114)"/>
<path d="M0 0 C2.475 0.495 2.475 0.495 5 1 C5 10.57 5 20.14 5 30 C4.34 30 3.68 30 3 30 C2.98018066 29.19780029 2.96036133 28.39560059 2.93994141 27.5690918 C2.84480505 23.94155823 2.7350792 20.31460955 2.625 16.6875 C2.5940625 15.42486328 2.563125 14.16222656 2.53125 12.86132812 C2.49257812 11.65283203 2.45390625 10.44433594 2.4140625 9.19921875 C2.3826416 8.08377686 2.3512207 6.96833496 2.31884766 5.8190918 C2.194751 2.79631214 2.194751 2.79631214 0 0 Z " fill="#B00F12" transform="translate(152,66)"/>
<path d="M0 0 C3.3 0 6.6 0 10 0 C10 0.99 10 1.98 10 3 C8.35 2.67 6.7 2.34 5 2 C5 2.66 5 3.32 5 4 C6.65 4 8.3 4 10 4 C10 4.33 10 4.66 10 5 C8.02 5 6.04 5 4 5 C4 5.99 4 6.98 4 8 C5.32 8.33 6.64 8.66 8 9 C5.36 9 2.72 9 0 9 C0 6.03 0 3.06 0 0 Z " fill="#FBFBFB" transform="translate(103,111)"/>
<path d="M0 0 C3.3 0 6.6 0 10 0 C12.03435531 3.72965139 13 5.66905042 13 10 C10.69 9.67 8.38 9.34 6 9 C6 8.34 6 7.68 6 7 C5.34 7 4.68 7 4 7 C4 6.01 4 5.02 4 4 C4.639375 3.87625 5.27875 3.7525 5.9375 3.625 C6.9584375 3.315625 6.9584375 3.315625 8 3 C8.33 2.34 8.66 1.68 9 1 C6.03 1 3.06 1 0 1 C0 0.67 0 0.34 0 0 Z " fill="#D6D6D6" transform="translate(124,110)"/>
<path d="M0 0 C5.61 0.33 11.22 0.66 17 1 C17 1.66 17 2.32 17 3 C16.34 3 15.68 3 15 3 C15 3.66 15 4.32 15 5 C13.741875 5.020625 12.48375 5.04125 11.1875 5.0625 C10.47980469 5.07410156 9.77210938 5.08570313 9.04296875 5.09765625 C7 5 7 5 4 4 C3.01 4 2.02 4 1 4 C0.67 2.68 0.34 1.36 0 0 Z " fill="#FAFBFA" transform="translate(147,48)"/>
<path d="M0 0 C0.66 0.33 1.32 0.66 2 1 C4.78781084 1.27485459 7.57535455 1.44612738 10.37109375 1.62109375 C13 2 13 2 16 4 C12.25881444 5.72578232 9.36983981 6.23924962 5.26171875 6.1953125 C3.66166992 6.18564453 3.66166992 6.18564453 2.02929688 6.17578125 C0.37510742 6.15064453 0.37510742 6.15064453 -1.3125 6.125 C-2.43462891 6.11597656 -3.55675781 6.10695313 -4.71289062 6.09765625 C-7.47547909 6.07414486 -10.23762932 6.04128155 -13 6 C-13 5.67 -13 5.34 -13 5 C-6.4 5 0.2 5 7 5 C7 4.34 7 3.68 7 3 C5.02 3 3.04 3 1 3 C0.67 2.01 0.34 1.02 0 0 Z " fill="#A92021" transform="translate(157,97)"/>
<path d="M0 0 C2.49361571 1.20381448 4.68143083 2.45428722 7 4 C4.36 4.33 1.72 4.66 -1 5 C-1.144375 6.2375 -1.28875 7.475 -1.4375 8.75 C-1.93064811 12.68823915 -2.74427662 16.23282985 -4 20 C-4 19.34 -4 18.68 -4 18 C-4.66 18 -5.32 18 -6 18 C-6.38624638 12.85004829 -5.37097727 8.55706182 -3 4 C-2.34 3.67 -1.68 3.34 -1 3 C-0.67 2.01 -0.34 1.02 0 0 Z " fill="#AD646B" transform="translate(132,34)"/>
<path d="M0 0 C1.32 0 2.64 0 4 0 C4 2.31 4 4.62 4 7 C5.98 7 7.96 7 10 7 C10 7.66 10 8.32 10 9 C6.7 9 3.4 9 0 9 C0 6.03 0 3.06 0 0 Z " fill="#C7C7C7" transform="translate(156,124)"/>
<path d="M0 0 C3.3 0 6.6 0 10 0 C10.33 1.65 10.66 3.3 11 5 C10.34 5 9.68 5 9 5 C8.67 5.66 8.34 6.32 8 7 C6.35 7 4.7 7 3 7 C3.061875 6.21625 3.12375 5.4325 3.1875 4.625 C3.125625 3.75875 3.06375 2.8925 3 2 C2.01 1.34 1.02 0.68 0 0 Z " fill="#A4A4A4" transform="translate(130,124)"/>
<path d="M0 0 C6.27 0 12.54 0 19 0 C16 3 16 3 13.22265625 3.3984375 C12.17980469 3.39070313 11.13695312 3.38296875 10.0625 3.375 C9.02222656 3.38273437 7.98195312 3.39046875 6.91015625 3.3984375 C4 3 4 3 0 0 Z " fill="#A92627" transform="translate(145,42)"/>
<path d="M0 0 C2.10388569 -0.05402274 4.20816714 -0.09280256 6.3125 -0.125 C8.07013672 -0.15980469 8.07013672 -0.15980469 9.86328125 -0.1953125 C13 0 13 0 16 2 C16 3.32 16 4.64 16 6 C14.02 6 12.04 6 10 6 C10 5.34 10 4.68 10 4 C8.68 3.67 7.36 3.34 6 3 C7.32 3 8.64 3 10 3 C10 2.34 10 1.68 10 1 C6.7 1 3.4 1 0 1 C0 0.67 0 0.34 0 0 Z " fill="#D7D9D9" transform="translate(140,110)"/>
<path d="M0 0 C1.65 0 3.3 0 5 0 C5 2.97 5 5.94 5 9 C3.35 9 1.7 9 0 9 C0 6.03 0 3.06 0 0 Z " fill="#FDFDFD" transform="translate(176,111)"/>
<path d="M0 0 C2.31 0 4.62 0 7 0 C5.68 0.33 4.36 0.66 3 1 C3 2.65 3 4.3 3 6 C4.65 6 6.3 6 8 6 C8.33 5.01 8.66 4.02 9 3 C9.66 3.33 10.32 3.66 11 4 C11 4.99 11 5.98 11 7 C7.37 7 3.74 7 0 7 C0 4.69 0 2.38 0 0 Z " fill="#F7F7F7" transform="translate(130,125)"/>
<path d="M0 0 C2.0625 0.4375 2.0625 0.4375 4 1 C2.625 2.5 2.625 2.5 1 4 C0.34 4 -0.32 4 -1 4 C-1 5.32 -1 6.64 -1 8 C-1.99 8 -2.98 8 -4 8 C-4.309375 7.21625 -4.61875 6.4325 -4.9375 5.625 C-5.92875038 3.07669872 -5.92875038 3.07669872 -7 1 C-5.5459375 1.0309375 -5.5459375 1.0309375 -4.0625 1.0625 C-1.12534105 1.35618499 -1.12534105 1.35618499 0 0 Z " fill="#DEDEDE" transform="translate(122,124)"/>
<path d="M0 0 C1.32 0 2.64 0 4 0 C4.33 2.31 4.66 4.62 5 7 C1.37 7 -2.26 7 -6 7 C-5.67 6.01 -5.34 5.02 -5 4 C-4.67 4.66 -4.34 5.32 -4 6 C-2.35 6 -0.7 6 1 6 C0.67 4.02 0.34 2.04 0 0 Z " fill="#F4F4F4" transform="translate(109,125)"/>
<path d="M0 0 C0.66 0.33 1.32 0.66 2 1 C1.01 2.485 1.01 2.485 0 4 C-0.27648554 6.81154715 -0.27648554 6.81154715 -0.1953125 9.98046875 C-0.18886719 11.14384766 -0.18242187 12.30722656 -0.17578125 13.50585938 C-0.15902344 14.72080078 -0.14226562 15.93574219 -0.125 17.1875 C-0.11597656 18.41404297 -0.10695312 19.64058594 -0.09765625 20.90429688 C-0.07406017 23.93639295 -0.04113841 26.96809938 0 30 C-0.66 30 -1.32 30 -2 30 C-2.04939662 26.04903022 -2.08571755 22.0981797 -2.10986328 18.14697266 C-2.12488107 16.1408864 -2.15028981 14.13488676 -2.17578125 12.12890625 C-2.18544922 10.24365234 -2.18544922 10.24365234 -2.1953125 8.3203125 C-2.20578613 7.15773926 -2.21625977 5.99516602 -2.22705078 4.79736328 C-2 2 -2 2 0 0 Z " fill="#140B09" transform="translate(161,67)"/>
<path d="M0 0 C0.78375 0.04125 1.5675 0.0825 2.375 0.125 C2.375 0.785 2.375 1.445 2.375 2.125 C1.375 3.125 0.375 4.125 -0.625 5.125 C-1.80074711 7.22489652 -1.80074711 7.22489652 -2.625 9.125 C-3.285 9.125 -3.945 9.125 -4.625 9.125 C-4.75 5.75 -4.75 5.75 -4.625 2.125 C-2.625 0.125 -2.625 0.125 0 0 Z " fill="#FBE6DF" transform="translate(174.625,29.875)"/>
<path d="M0 0 C0.33 0 0.66 0 1 0 C1.33 2.97 1.66 5.94 2 9 C1.01 9 0.02 9 -1 9 C-1.33 8.34 -1.66 7.68 -2 7 C-2.33 8.65 -2.66 10.3 -3 12 C-3.99 12 -4.98 12 -6 12 C-5.1875 8.5625 -5.1875 8.5625 -4 5 C-3.01 4.67 -2.02 4.34 -1 4 C-0.26676204 1.98491642 -0.26676204 1.98491642 0 0 Z " fill="#AF6065" transform="translate(135,44)"/>
<path d="M0 0 C-0.66 1.32 -1.32 2.64 -2 4 C-2.99 4 -3.98 4 -5 4 C-5 3.34 -5 2.68 -5 2 C-8.3 2 -11.6 2 -15 2 C-15 1.67 -15 1.34 -15 1 C-9.92928099 0.28832014 -5.11791642 -0.10662326 0 0 Z " fill="#FBE1E0" transform="translate(169,47)"/>
<path d="M0 0 C0.66 0.33 1.32 0.66 2 1 C2.25 3.3125 2.25 3.3125 2 6 C0.25 7.8125 0.25 7.8125 -2 9 C-3.32 9 -4.64 9 -6 9 C-5.1875 7.0625 -5.1875 7.0625 -4 5 C-3.01 4.67 -2.02 4.34 -1 4 C-0.26676204 1.98491642 -0.26676204 1.98491642 0 0 Z " fill="#C28886" transform="translate(178,42)"/>
<path d="M0 0 C0.33 0.99 0.66 1.98 1 3 C2.65 2.34 4.3 1.68 6 1 C6 2.32 6 3.64 6 5 C7.32 5.33 8.64 5.66 10 6 C9.67 6.99 9.34 7.98 9 9 C8.67 8.01 8.34 7.02 8 6 C6.68 6 5.36 6 4 6 C4 5.34 4 4.68 4 4 C3.01 4.33 2.02 4.66 1 5 C0.34 4.67 -0.32 4.34 -1 4 C-0.67 2.68 -0.34 1.36 0 0 Z " fill="#F7CDCE" transform="translate(168,38)"/>
<path d="M0 0 C0.90105469 0.19464844 1.80210937 0.38929687 2.73046875 0.58984375 C3.41753906 0.74582031 4.10460937 0.90179687 4.8125 1.0625 C4.8125 1.3925 4.8125 1.7225 4.8125 2.0625 C2.87513299 2.23070551 0.93760094 2.39701095 -1 2.5625 C-2.61841797 2.70171875 -2.61841797 2.70171875 -4.26953125 2.84375 C-7.1875 3.0625 -7.1875 3.0625 -10.1875 3.0625 C-7.15540888 -1.48563668 -4.94038135 -1.09073354 0 0 Z " fill="#B3908F" transform="translate(179.1875,27.9375)"/>
<path d="M0 0 C0.33 0 0.66 0 1 0 C2.28238342 7.40932642 2.28238342 7.40932642 1 11 C0.67 11.99 0.34 12.98 0 14 C0 13.34 0 12.68 0 12 C-0.66 12 -1.32 12 -2 12 C-2.21278058 7.53160785 -1.59138085 4.17737474 0 0 Z " fill="#B38689" transform="translate(128,40)"/>
<path d="M0 0 C1.39864092 3.17872935 0.89282517 4.30111022 -0.3125 7.6875 C-2 11 -2 11 -4 12 C-4.33 11.01 -4.66 10.02 -5 9 C-4.04422943 7.63461347 -3.03647024 6.30518475 -2 5 C-1.28837557 3.35202764 -0.60968047 1.68834592 0 0 Z " fill="#B98288" transform="translate(168,31)"/>
<path d="M0 0 C1.32 0 2.64 0 4 0 C4.66 1.65 5.32 3.3 6 5 C4.35 5.33 2.7 5.66 1 6 C0.67 4.02 0.34 2.04 0 0 Z " fill="#BFBFBF" transform="translate(189,124)"/>
<path d="M0 0 C1.32 0 2.64 0 4 0 C4 0.99 4 1.98 4 3 C3.34 3 2.68 3 2 3 C2 4.32 2 5.64 2 7 C1.34 7 0.68 7 0 7 C0 4.69 0 2.38 0 0 Z " fill="#F9F9F9" transform="translate(168,125)"/>
<path d="M0 0 C1.32 0.33 2.64 0.66 4 1 C3.67 1.99 3.34 2.98 3 4 C3.495 4.66 3.99 5.32 4.5 6 C4.995 6.66 5.49 7.32 6 8 C5.67 8.99 5.34 9.98 5 11 C2.36620292 7.34666857 0.53115106 4.51478398 0 0 Z " fill="#B51316" transform="translate(146,55)"/>
<path d="M0 0 C1.98 0 3.96 0 6 0 C5.01 0.33 4.02 0.66 3 1 C3 2.98 3 4.96 3 7 C2.34 6.67 1.68 6.34 1 6 C0.375 2.9375 0.375 2.9375 0 0 Z " fill="#F5CAC9" transform="translate(128,48)"/>
<path d="M0 0 C0 1.65 0 3.3 0 5 C-1.65 4.01 -3.3 3.02 -5 2 C-5.33 3.32 -5.66 4.64 -6 6 C-6.66 5.67 -7.32 5.34 -8 5 C-7.1875 3.0625 -7.1875 3.0625 -6 1 C-3 0 -3 0 0 0 Z " fill="#AE3130" transform="translate(176,44)"/>
<path d="M0 0 C0.66 0 1.32 0 2 0 C2 2.31 2 4.62 2 7 C0.68 7 -0.64 7 -2 7 C-2 6.34 -2 5.68 -2 5 C-1.34 5 -0.68 5 0 5 C0 3.35 0 1.7 0 0 Z " fill="#FBFBFB" transform="translate(208,125)"/>
<path d="M0 0 C1.65 0 3.3 0 5 0 C4.67 1.65 4.34 3.3 4 5 C2.68 4.34 1.36 3.68 0 3 C0 2.01 0 1.02 0 0 Z " fill="#DDDDDD" transform="translate(113,111)"/>
<path d="M0 0 C0.33 0 0.66 0 1 0 C1.33 2.31 1.66 4.62 2 7 C-0.31 6.01 -2.62 5.02 -5 4 C-4.360625 3.71125 -3.72125 3.4225 -3.0625 3.125 C-0.84793921 2.17176549 -0.84793921 2.17176549 0 0 Z " fill="#2A1D1F" transform="translate(174,100)"/>
<path d="M0 0 C0.99 0 1.98 0 3 0 C3.33 1.32 3.66 2.64 4 4 C4.99 4 5.98 4 7 4 C7 4.66 7 5.32 7 6 C2.32307692 4.52307692 2.32307692 4.52307692 0.6875 1.875 C0.460625 1.25625 0.23375 0.6375 0 0 Z " fill="#F8CFC9" transform="translate(144,48)"/>
<path d="M0 0 C0.33 0.99 0.66 1.98 1 3 C-1.97 3 -4.94 3 -8 3 C-3.5 0 -3.5 0 0 0 Z " fill="#F9DDD4" transform="translate(166,43)"/>
</svg>
