<?xml version="1.0" encoding="UTF-8"?>
<svg version="1.1" xmlns="http://www.w3.org/2000/svg" width="225" height="225">
<path d="M0 0 C74.25 0 148.5 0 225 0 C225 74.25 225 148.5 225 225 C150.75 225 76.5 225 0 225 C0 150.75 0 76.5 0 0 Z " fill="#050507" transform="translate(0,0)"/>
<path d="M0 0 C1.89588867 -0.01836914 1.89588867 -0.01836914 3.83007812 -0.03710938 C14.05254079 -0.05314042 23.05658966 0.55632463 31.12890625 7.50390625 C34.96899585 12.24237527 33.56901868 18.1518174 33.1875 23.875 C32.62938664 34.73918482 32.62938664 34.73918482 37.6875 43.875 C39.24795006 45.33730855 40.82877257 46.77847667 42.4375 48.1875 C46.82232215 54.3639699 48.47299967 60.68614771 47.4375 68.1875 C44.20134382 77.24571286 37.16847563 83.1774839 28.73945618 87.326828 C24.75405702 88.81691782 20.89516568 88.67966133 16.6875 88.578125 C15.33942261 88.56963531 15.33942261 88.56963531 13.96411133 88.56097412 C11.12134292 88.53875919 8.27988105 88.48859249 5.4375 88.4375 C3.49871625 88.41741569 1.55991254 88.39916832 -0.37890625 88.3828125 C-5.10726669 88.33894346 -9.8346626 88.27002133 -14.5625 88.1875 C-14.58562255 76.8613837 -14.60341464 65.53527297 -14.61431217 54.20913792 C-14.61954119 48.95053336 -14.62663918 43.6919449 -14.63793945 38.43334961 C-14.64876766 33.36296873 -14.65477669 28.29260338 -14.65737724 23.22221184 C-14.65923161 21.28323052 -14.66285245 19.34425009 -14.66823006 17.40527534 C-14.6754396 14.6992824 -14.67649098 11.99335444 -14.67602539 9.28735352 C-14.67962067 8.47743454 -14.68321594 7.66751556 -14.68692017 6.83305359 C-14.6687793 -2.84539748 -8.26088865 0.00412426 0 0 Z " fill="#868687" transform="translate(100.5625,45.8125)"/>
<path d="M0 0 C8.58 0 17.16 0 26 0 C25.34 1.32 24.68 2.64 24 4 C23.63215869 5.3242287 23.28797019 6.65613912 23 8 C20.69 8 18.38 8 16 8 C16.020625 9.093125 16.04125 10.18625 16.0625 11.3125 C16 15 16 15 15 18 C14.19572314 28.37649004 15.26484881 34.39727321 21 43 C19.68 43 18.36 43 17 43 C17 54.88 17 66.76 17 79 C20.96 78.01 20.96 78.01 25 77 C26.34106405 74.3178719 26.21450419 72.11601968 26.31640625 69.1171875 C26.35830078 67.95058594 26.40019531 66.78398438 26.44335938 65.58203125 C26.48267578 64.35871094 26.52199219 63.13539062 26.5625 61.875 C26.60568359 60.64394531 26.64886719 59.41289063 26.69335938 58.14453125 C26.79968704 55.09647147 26.90171781 52.0483281 27 49 C30.69623814 51.93221126 33.68267185 54.4938396 36.25 58.5 C36.72953125 59.2321875 37.2090625 59.964375 37.703125 60.71875 C40.41060803 65.48131052 41.27531008 69.12005728 41.25 74.625 C41.25773437 76.31496094 41.25773437 76.31496094 41.265625 78.0390625 C41 81 41 81 39 84 C26.13 84 13.26 84 0 84 C0 56.28 0 28.56 0 0 Z " fill="#050507" transform="translate(89,48)"/>
<path d="M0 0 C1.02970259 1.31053056 2.02418241 2.64886795 3 4 C3.763125 4.763125 4.52625 5.52625 5.3125 6.3125 C7.39289003 8.39289003 9.37158833 10.48108627 11.3125 12.6875 C11.82425781 13.26886719 12.33601563 13.85023437 12.86328125 14.44921875 C14 16 14 16 14 18 C14.66 18 15.32 18 16 18 C16 18.66 16 19.32 16 20 C16.99 20.33 17.98 20.66 19 21 C26.59564534 29.14153361 32.35719664 37.31357562 32.30078125 48.671875 C31.81313723 52.44636638 30.12376833 54.88071526 28 58 C27.01 57.67 26.02 57.34 25 57 C24.97421875 56.29875 24.9484375 55.5975 24.921875 54.875 C24.48357239 47.54339265 23.34128164 41.34128164 18 36 C17.34 36.66 16.68 37.32 16 38 C14.35 36.02 12.7 34.04 11 32 C9.68 32.66 8.36 33.32 7 34 C7 32.68 7 31.36 7 30 C5.02 30.33 3.04 30.66 1 31 C1 31.66 1 32.32 1 33 C-3.95 31.515 -3.95 31.515 -9 30 C-7.68 29.67 -6.36 29.34 -5 29 C-5.185625 28.401875 -5.37125 27.80375 -5.5625 27.1875 C-6 25 -6 25 -5 22 C-5.94875 21.731875 -6.8975 21.46375 -7.875 21.1875 C-11 20 -11 20 -13 17 C-13.046875 14.7734375 -13.046875 14.7734375 -12.75 12.375 C-12.66234375 11.57835938 -12.5746875 10.78171875 -12.484375 9.9609375 C-12.32453125 9.31382813 -12.1646875 8.66671875 -12 8 C-11.34 7.67 -10.68 7.34 -10 7 C-9.67 7.66 -9.34 8.32 -9 9 C-8.34 8.67 -7.68 8.34 -7 8 C-3 14.75 -3 14.75 -3 17 C-2.34 17 -1.68 17 -1 17 C-0.54625 17.78375 -0.0925 18.5675 0.375 19.375 C2.07651113 22.1235949 3.04519084 22.87921032 6 24 C4.68 22.35 3.36 20.7 2 19 C2.66 17.35 3.32 15.7 4 14 C3.071875 13.5978125 3.071875 13.5978125 2.125 13.1875 C0 12 0 12 -2 9 C-2.99 9.495 -2.99 9.495 -4 10 C-5.60355101 6.49223216 -6.22036864 3.85645121 -6 0 C-3 -1 -3 -1 0 0 Z M5 13 C5.66 13.66 6.32 14.32 7 15 C7 14.34 7 13.68 7 13 C6.34 13 5.68 13 5 13 Z M-5 19 C-4 21 -4 21 -4 21 Z " fill="#AEAEAE" transform="translate(116,63)"/>
<path d="M0 0 C2.375 -0.1875 2.375 -0.1875 5 0 C7 3 7 3 6.625 6.1875 C6.41875 7.115625 6.2125 8.04375 6 9 C7.65 9.99 9.3 10.98 11 12 C11.33 11.34 11.66 10.68 12 10 C15.0625 9.375 15.0625 9.375 18 9 C18.33 10.32 18.66 11.64 19 13 C19.66 13 20.32 13 21 13 C21.33 12.34 21.66 11.68 22 11 C23.65 12.98 25.3 14.96 27 17 C27.66 16.34 28.32 15.68 29 15 C30.52311313 16.52311313 30.56274479 18.22528957 31 20.3125 C31.70323917 23.65733862 31.70323917 23.65733862 32.55859375 26.96484375 C33.09495085 29.43778223 33.09576261 31.72204157 33.0625 34.25 C33.05347656 35.14203125 33.04445312 36.0340625 33.03515625 36.953125 C33.02355469 37.62859375 33.01195312 38.3040625 33 39 C31.125 39.58203125 31.125 39.58203125 29 40 C25.60227538 37.77024322 24.57074481 35.05339016 23.25 31.375 C20.89194136 25.00161259 16.78977808 19.78977808 12 15 C11.9906543 15.73637695 11.98130859 16.47275391 11.97167969 17.23144531 C11.91795845 20.57164218 11.83431378 23.91044119 11.75 27.25 C11.72873047 28.98830078 11.72873047 28.98830078 11.70703125 30.76171875 C11.67480469 31.87675781 11.64257812 32.99179688 11.609375 34.140625 C11.58842773 35.16704102 11.56748047 36.19345703 11.54589844 37.25097656 C10.8501723 40.75449904 9.9184082 41.95967533 7 44 C5.02 44 3.04 44 1 44 C1 32.12 1 20.24 1 8 C1.99 7.67 2.98 7.34 4 7 C3.01 5.824375 3.01 5.824375 2 4.625 C0 2 0 2 0 0 Z " fill="#B1B1B2" transform="translate(105,83)"/>
<path d="M0 0 C0.33 0 0.66 0 1 0 C1 27.72 1 55.44 1 84 C13.87 84 26.74 84 40 84 C40.66 79.71 41.32 75.42 42 71 C42.33 71.66 42.66 72.32 43 73 C46.02934491 73.65772428 46.02934491 73.65772428 49 74 C49.20793544 68.15470363 49.01810409 63.54978626 47 58 C46.875 54.625 46.875 54.625 47 52 C51.76279651 56.28651686 53.15068759 60.24711809 53.625 66.5625 C53.69976562 67.49191406 53.77453125 68.42132813 53.8515625 69.37890625 C53.97638226 71.5829605 54 73.79241419 54 76 C52.2421875 77.81640625 52.2421875 77.81640625 49.875 79.5625 C49.10929687 80.14128906 48.34359375 80.72007812 47.5546875 81.31640625 C41.2566425 85.46695272 36.84181116 86.42523804 29.4453125 86.29296875 C28.09299026 86.28660149 28.09299026 86.28660149 26.71334839 86.28010559 C23.85025435 86.26339058 20.98787921 86.22575192 18.125 86.1875 C16.17709354 86.17244387 14.22917598 86.15875709 12.28125 86.14648438 C7.52033744 86.11606969 2.76096791 86.05733547 -2 86 C-2 76.1 -2 66.2 -2 56 C-1.34 56 -0.68 56 0 56 C0 37.52 0 19.04 0 0 Z " fill="#5F5F61" transform="translate(88,48)"/>
<path d="M0 0 C5.42441362 0.43395309 8.76058371 1.54931233 13 5 C14.93865309 8.06154849 15.23910339 10.39352228 15.1953125 13.984375 C15.18564453 15.38623047 15.18564453 15.38623047 15.17578125 16.81640625 C15.15902344 17.78449219 15.14226562 18.75257812 15.125 19.75 C15.11597656 20.73355469 15.10695312 21.71710938 15.09765625 22.73046875 C15.07412785 25.15389407 15.04125368 27.57682222 15 30 C12 30 12 30 10.3515625 28.6015625 C3.09717863 20.2967701 -0.6704519 13.49539445 -0.17578125 2.2734375 C-0.08876953 1.14808594 -0.08876953 1.14808594 0 0 Z " fill="#050506" transform="translate(117,49)"/>
<path d="M0 0 C6.550141 2.97733682 11.18428698 9.48884693 13.9375 16 C15.52779874 20.99950168 16.18913571 26.19961115 14.09765625 31.125 C13.14862846 32.80015225 12.08354274 34.4085466 11 36 C10.01 35.67 9.02 35.34 8 35 C7.96132812 33.948125 7.96132812 33.948125 7.921875 32.875 C7.43811081 24.7829444 6.07995714 19.01151365 0.1875 13.25 C-0.534375 12.5075 -1.25625 11.765 -2 11 C-1.85817944 8.51814024 -1.10376548 7.20753096 0 5 C-0.66 4.67 -1.32 4.34 -2 4 C-1.34 2.68 -0.68 1.36 0 0 Z " fill="#B3B3B3" transform="translate(133,85)"/>
<path d="M0 0 C0.99 0.33 1.98 0.66 3 1 C3.9140625 3.1796875 3.9140625 3.1796875 4.625 5.875 C4.86476563 6.75929688 5.10453125 7.64359375 5.3515625 8.5546875 C5.56554687 9.36164062 5.77953125 10.16859375 6 11 C6.33 11.99 6.66 12.98 7 14 C6.01 14 5.02 14 4 14 C3.34 12.68 2.68 11.36 2 10 C0.35 10 -1.3 10 -3 10 C-2.25184487 15.54828245 -2.25184487 15.54828245 1.125 19.5 C1.74375 19.665 2.3625 19.83 3 20 C3 20.66 3 21.32 3 22 C3.639375 22.12375 4.27875 22.2475 4.9375 22.375 C5.9584375 22.684375 5.9584375 22.684375 7 23 C7.33 23.66 7.66 24.32 8 25 C7.34 25 6.68 25 6 25 C6.55728913 28.34373475 7.35173889 31.03312999 9 34 C5.76509224 33.44225728 4.02144994 32.62788492 2 30 C2 29.01 2 28.02 2 27 C1.34 27 0.68 27 0 27 C-0.5775 25.88625 -1.155 24.7725 -1.75 23.625 C-3.42260202 20.66807857 -4.64982242 19.07684279 -8 18 C-8.66 19.32 -9.32 20.64 -10 22 C-10.21432579 15.35590042 -9.51233701 9.46794133 -8 3 C-5.69 3 -3.38 3 -1 3 C-0.67 2.01 -0.34 1.02 0 0 Z M8 23 C8.66 23 9.32 23 10 23 C9.67 23.66 9.34 24.32 9 25 C8.67 24.34 8.34 23.68 8 23 Z " fill="#959595" transform="translate(113,53)"/>
<path d="M0 0 C0.66 0.66 1.32 1.32 2 2 C2.66 1.67 3.32 1.34 4 1 C8 7.75 8 7.75 8 10 C8.66 10 9.32 10 10 10 C10.433125 10.78375 10.86625 11.5675 11.3125 12.375 C12.75364901 15.191704 12.75364901 15.191704 15.5 15.9375 C18 17 18 17 19.8125 19.9375 C21 23 21 23 21 26 C20.01 26.33 19.02 26.66 18 27 C18 25.68 18 24.36 18 23 C16.02 23.33 14.04 23.66 12 24 C12 24.66 12 25.32 12 26 C8.7 25.01 5.4 24.02 2 23 C3.32 22.67 4.64 22.34 6 22 C5.814375 21.401875 5.62875 20.80375 5.4375 20.1875 C5 18 5 18 6 15 C5.05125 14.731875 4.1025 14.46375 3.125 14.1875 C0 13 0 13 -2 10 C-2.01171875 7.7734375 -2.01171875 7.7734375 -1.6875 5.375 C-1.58824219 4.57835938 -1.48898438 3.78171875 -1.38671875 2.9609375 C-1 1 -1 1 0 0 Z M6 12 C7 14 7 14 7 14 Z " fill="#BABABA" transform="translate(105,70)"/>
<path d="M0 0 C2.97 0 5.94 0 9 0 C9.99 0.99 10.98 1.98 12 3 C11.625 6.125 11.625 6.125 11 9 C11.33 9.33 11.66 9.66 12 10 C12.25 12.375 12.25 12.375 12 15 C11.01 15.99 10.02 16.98 9 18 C6.03 18 3.06 18 0 18 C0 12.06 0 6.12 0 0 Z " fill="#828284" transform="translate(33,145)"/>
<path d="M0 0 C10.17458357 -1.06833127 10.17458357 -1.06833127 14.54296875 1.48828125 C20.65683178 6.86714435 20.65683178 6.86714435 21.30859375 10.91796875 C21.57905268 15.67968505 21.21867364 18.36267922 18.0625 22.0625 C16.41015625 23.78515625 16.41015625 23.78515625 15 25 C14.67 25 14.34 25 14 25 C13.90203125 24.13117188 13.8040625 23.26234375 13.703125 22.3671875 C12.70022423 13.42334061 12.70022423 13.42334061 8 6 C5.91934978 4.54513922 3.82079882 3.22742123 1.609375 1.98046875 C1.07828125 1.65691406 0.5471875 1.33335938 0 1 C0 0.67 0 0.34 0 0 Z " fill="#868686" transform="translate(126,42)"/>
<path d="M0 0 C5 1 5 1 6 2 C6.2541555 6.64015325 6.18522798 11.29121306 6.1875 15.9375 C6.19974609 17.25169922 6.21199219 18.56589844 6.22460938 19.91992188 C6.22654297 21.17224609 6.22847656 22.42457031 6.23046875 23.71484375 C6.23457764 24.87105225 6.23868652 26.02726074 6.24291992 27.21850586 C6 30 6 30 4 32 C2.68 32 1.36 32 0 32 C0 21.44 0 10.88 0 0 Z " fill="#030304" transform="translate(108,93)"/>
<path d="M0 0 C2.97 0 5.94 0 9 0 C9.99 0.99 10.98 1.98 12 3 C11.73066742 6.23199091 11.02471429 8.92585714 10 12 C11.37492804 15.1668838 11.37492804 15.1668838 13 18 C11.125 17.875 11.125 17.875 9 17 C7.75 13.9375 7.75 13.9375 7 11 C5.35 11 3.7 11 2 11 C2 13.31 2 15.62 2 18 C1.34 18 0.68 18 0 18 C0 12.06 0 6.12 0 0 Z " fill="#929293" transform="translate(54,145)"/>
<path d="M0 0 C2.375 -0.1875 2.375 -0.1875 5 0 C7 3 7 3 6.625 6.1875 C6.41875 7.115625 6.2125 8.04375 6 9 C5.01 9.33 4.02 9.66 3 10 C3 20.56 3 31.12 3 42 C4.65 41.34 6.3 40.68 8 40 C8.33 30.76 8.66 21.52 9 12 C9.33 12 9.66 12 10 12 C10.28380284 16.58189875 10.5212012 21.16505145 10.75 25.75 C10.83121094 27.05195312 10.91242188 28.35390625 10.99609375 29.6953125 C11.08310547 31.57089844 11.08310547 31.57089844 11.171875 33.484375 C11.2347168 34.63647461 11.29755859 35.78857422 11.36230469 36.97558594 C11 40 11 40 9.36425781 42.40722656 C7 44 7 44 1 44 C1 32.12 1 20.24 1 8 C1.99 7.67 2.98 7.34 4 7 C3.01 5.824375 3.01 5.824375 2 4.625 C0 2 0 2 0 0 Z " fill="#9D9D9D" transform="translate(105,83)"/>
<path d="M0 0 C4.76279651 4.28651686 6.15068759 8.24711809 6.625 14.5625 C6.69976562 15.49191406 6.77453125 16.42132813 6.8515625 17.37890625 C6.97638226 19.5829605 7 21.79241419 7 24 C5.171875 25.88671875 5.171875 25.88671875 2.75 27.6875 C1.96109375 28.28949219 1.1721875 28.89148438 0.359375 29.51171875 C-1.83944242 30.89872113 -3.46189539 31.56339944 -6 32 C-5.67 31.34 -5.34 30.68 -5 30 C-4.77532169 28.46331135 -4.59203195 26.92031946 -4.4375 25.375 C-4.35371094 24.55773437 -4.26992187 23.74046875 -4.18359375 22.8984375 C-4.12300781 22.27195312 -4.06242188 21.64546875 -4 21 C-2.02 21.33 -0.04 21.66 2 22 C2.20793544 16.15470363 2.01810409 11.54978626 0 6 C-0.125 2.625 -0.125 2.625 0 0 Z " fill="#9F9FA0" transform="translate(135,100)"/>
<path d="M0 0 C2.32749345 3.49124017 2.50299316 4.89222251 2 9 C0.3125 11.4375 0.3125 11.4375 -2 13 C-5.39154295 12.83849795 -6.58296757 12.41703243 -9 10 C-9.55427252 3.01616628 -9.55427252 3.01616628 -7.875 -0.0625 C-4.97366536 -1.51316732 -3.03659258 -0.90451694 0 0 Z " fill="#A3A3A4" transform="translate(117,174)"/>
<path d="M0 0 C0.99 0 1.98 0 3 0 C4.0063655 2.43504509 5.00526413 4.87270864 6 7.3125 C6.28617188 8.00279297 6.57234375 8.69308594 6.8671875 9.40429688 C8.08910744 12.41545674 9 14.71886984 9 18 C8.01 17.67 7.02 17.34 6 17 C5.67 16.01 5.34 15.02 5 14 C2.69 14 0.38 14 -2 14 C-2.66 15.32 -3.32 16.64 -4 18 C-4.66 18 -5.32 18 -6 18 C-5.41347648 13.51006131 -4.2356462 9.77456816 -2.4375 5.625 C-1.98246094 4.56539062 -1.52742187 3.50578125 -1.05859375 2.4140625 C-0.70925781 1.61742187 -0.35992187 0.82078125 0 0 Z " fill="#A9A9AA" transform="translate(138,145)"/>
<path d="M0 0 C0.66 0 1.32 0 2 0 C2.09796875 0.91523437 2.1959375 1.83046875 2.296875 2.7734375 C2.44640625 3.96195313 2.5959375 5.15046875 2.75 6.375 C2.88921875 7.55835937 3.0284375 8.74171875 3.171875 9.9609375 C3.67611298 13.1088608 3.67611298 13.1088608 6.078125 14.4140625 C6.71234375 14.60742188 7.3465625 14.80078125 8 15 C8 15.66 8 16.32 8 17 C8.639375 17.12375 9.27875 17.2475 9.9375 17.375 C10.618125 17.58125 11.29875 17.7875 12 18 C12.33 18.66 12.66 19.32 13 20 C12.34 20 11.68 20 11 20 C11.55728913 23.34373475 12.35173889 26.03312999 14 29 C10.76509224 28.44225728 9.02144994 27.62788492 7 25 C7 24.01 7 23.02 7 22 C6.34 22 5.68 22 5 22 C1.46105258 16.0637011 -0.1459278 12.25793502 -0.0625 5.25 C-0.05347656 4.26515625 -0.04445313 3.2803125 -0.03515625 2.265625 C-0.02355469 1.51796875 -0.01195313 0.7703125 0 0 Z M13 18 C13.66 18 14.32 18 15 18 C14.67 18.66 14.34 19.32 14 20 C13.67 19.34 13.34 18.68 13 18 Z " fill="#A7A7A7" transform="translate(108,58)"/>
<path d="M0 0 C0.99 0 1.98 0 3 0 C4.82421875 2.40625 4.82421875 2.40625 6.6875 5.5 C7.31011719 6.5209375 7.93273437 7.541875 8.57421875 8.59375 C9.04472656 9.3878125 9.51523438 10.181875 10 11 C10.33 7.37 10.66 3.74 11 0 C11.66 0 12.32 0 13 0 C13 5.94 13 11.88 13 18 C7.33251525 15.16625763 6.08828336 11.47468414 3 6 C2.67 9.96 2.34 13.92 2 18 C1.34 18 0.68 18 0 18 C0 12.06 0 6.12 0 0 Z " fill="#B4B4B4" transform="translate(155,145)"/>
<path d="M0 0 C1.02970259 1.31053056 2.02418241 2.64886795 3 4 C3.886875 4.845625 4.77375 5.69125 5.6875 6.5625 C8 9 8 9 8 12 C6.25 13.125 6.25 13.125 4 14 C0.68920881 12.92886167 -0.00884235 11.98673647 -2 9 C-2.99 9.495 -2.99 9.495 -4 10 C-5.60355101 6.49223216 -6.22036864 3.85645121 -6 0 C-3 -1 -3 -1 0 0 Z " fill="#A7A7A7" transform="translate(116,63)"/>
<path d="M0 0 C0.99 0 1.98 0 3 0 C4.32 2.97 5.64 5.94 7 9 C8.32 6.36 9.64 3.72 11 1 C11.99 1 12.98 1 14 1 C14 5.29 14 9.58 14 14 C13.34 14 12.68 14 12 14 C11.67 12.02 11.34 10.04 11 8 C9.515 10.475 9.515 10.475 8 13 C7.01 12.67 6.02 12.34 5 12 C3.8125 9.4375 3.8125 9.4375 3 7 C2.67 9.31 2.34 11.62 2 14 C1.34 14 0.68 14 0 14 C0 9.38 0 4.76 0 0 Z " fill="#989898" transform="translate(87,173)"/>
<path d="M0 0 C9 0 9 0 11 1 C11 1.99 11 2.98 11 4 C6.545 3.01 6.545 3.01 2 2 C2 3.98 2 5.96 2 8 C3.65 8 5.3 8 7 8 C7 8.33 7 8.66 7 9 C5.35 9 3.7 9 2 9 C2 11.31 2 13.62 2 16 C4.31 15.34 6.62 14.68 9 14 C8.67 12.02 8.34 10.04 8 8 C9.32 8.66 10.64 9.32 12 10 C12.1875 12.3125 12.1875 12.3125 12 15 C11.01 15.99 10.02 16.98 9 18 C6.03 18 3.06 18 0 18 C0 12.06 0 6.12 0 0 Z " fill="#B0B0B2" transform="translate(33,145)"/>
<path d="M0 0 C0.99 0 1.98 0 3 0 C3 4.95 3 9.9 3 15 C5.64 15 8.28 15 11 15 C11 15.99 11 16.98 11 18 C7.37 18 3.74 18 0 18 C0 12.06 0 6.12 0 0 Z " fill="#989899" transform="translate(85,145)"/>
<path d="M0 0 C4.62 0 9.24 0 14 0 C14 0.66 14 1.32 14 2 C12.35 2 10.7 2 9 2 C9 7.28 9 12.56 9 18 C8.01 18 7.02 18 6 18 C6 12.72 6 7.44 6 2 C4.02 2 2.04 2 0 2 C0 1.34 0 0.68 0 0 Z " fill="#A4A4A5" transform="translate(175,145)"/>
<path d="M0 0 C3.87743311 3.4896898 5.72179105 6.48528015 6.30078125 11.71875 C6.33973799 20.96448326 6.33973799 20.96448326 3 25 C2.00782686 22.02348058 1.95351792 20.27216683 2.0625 17.1875 C2.11708769 13.00850915 1.43421796 9.94409938 0 6 C-0.125 2.625 -0.125 2.625 0 0 Z " fill="#171717" transform="translate(135,100)"/>
<path d="M0 0 C0.99 0 1.98 0 3 0 C3 5.28 3 10.56 3 16 C5.64 16 8.28 16 11 16 C11 16.66 11 17.32 11 18 C7.37 18 3.74 18 0 18 C0 12.06 0 6.12 0 0 Z " fill="#9D9D9E" transform="translate(103,145)"/>
<path d="M0 0 C0.33 0 0.66 0 1 0 C1.28380284 4.58189875 1.5212012 9.16505145 1.75 13.75 C1.83121094 15.05195312 1.91242188 16.35390625 1.99609375 17.6953125 C2.08310547 19.57089844 2.08310547 19.57089844 2.171875 21.484375 C2.2347168 22.63647461 2.29755859 23.78857422 2.36230469 24.97558594 C2 28 2 28 0.36425781 30.40722656 C-2 32 -2 32 -8 32 C-8 27.71 -8 23.42 -8 19 C-5.32072659 23.01891012 -5.84398752 25.24161923 -6 30 C-4.35 29.34 -2.7 28.68 -1 28 C-0.67 18.76 -0.34 9.52 0 0 Z " fill="#6F6F70" transform="translate(114,95)"/>
<path d="M0 0 C0.66 0 1.32 0 2 0 C2 1.98 2 3.96 2 6 C2.66 6 3.32 6 4 6 C4.2475 5.38125 4.495 4.7625 4.75 4.125 C6.20628639 1.64931313 7.37812506 1.04874998 10 0 C8.79618552 2.49361571 7.54571278 4.68143083 6 7 C7.65 8.98 9.3 10.96 11 13 C8 13 8 13 6.3125 11.625 C5 10 5 10 5 8 C4.01 8.495 4.01 8.495 3 9 C2.34444881 11.52733235 2.34444881 11.52733235 2 14 C1.34 14 0.68 14 0 14 C0 9.38 0 4.76 0 0 Z " fill="#969697" transform="translate(125,173)"/>
<path d="M0 0 C4.70588235 0.70588235 4.70588235 0.70588235 6 2 C6.1875 4.9375 6.1875 4.9375 6 8 C5.34 8.66 4.68 9.32 4 10 C1.375 9.625 1.375 9.625 -1 9 C-1.09765625 2.84765625 -1.09765625 2.84765625 -1 1 C-0.67 0.67 -0.34 0.34 0 0 Z " fill="#09090B" transform="translate(111,175)"/>
<path d="M0 0 C2.97 0 5.94 0 9 0 C9.66 0.66 10.32 1.32 11 2 C10.625 4.125 10.625 4.125 10 6 C9.34 5.01 8.68 4.02 8 3 C4.93443402 2.26656572 4.93443402 2.26656572 2 2 C2 4.31 2 6.62 2 9 C3.32 9.33 4.64 9.66 6 10 C4.68 10 3.36 10 2 10 C2 12.64 2 15.28 2 18 C1.34 18 0.68 18 0 18 C0 12.06 0 6.12 0 0 Z " fill="#BCBCBD" transform="translate(54,145)"/>
<path d="M0 0 C0.33 0.99 0.66 1.98 1 3 C0.34 3 -0.32 3 -1 3 C-1 2.34 -1 1.68 -1 1 C-2.32 1.33 -3.64 1.66 -5 2 C-5 2.66 -5 3.32 -5 4 C-3.02 4.99 -1.04 5.98 1 7 C0.125 11.875 0.125 11.875 -1 13 C-2.66617115 13.04063832 -4.33388095 13.042721 -6 13 C-6.66 11.68 -7.32 10.36 -8 9 C-7.34 9 -6.68 9 -6 9 C-6 9.66 -6 10.32 -6 11 C-4.35 11 -2.7 11 -1 11 C-1.72268235 7.7014861 -1.72268235 7.7014861 -5.0625 6.3125 C-6.031875 5.879375 -7.00125 5.44625 -8 5 C-7.625 2.5625 -7.625 2.5625 -7 0 C-4.3333581 -1.33332095 -2.83319697 -0.67102033 0 0 Z " fill="#9B9B9C" transform="translate(80,174)"/>
<path d="M0 0 C2.97 0 5.94 0 9 0 C9 0.33 9 0.66 9 1 C6.69 1 4.38 1 2 1 C2 2.32 2 3.64 2 5 C3.98 5 5.96 5 8 5 C8 5.66 8 6.32 8 7 C6.02 7 4.04 7 2 7 C2 8.32 2 9.64 2 11 C4.31 11 6.62 11 9 11 C9 11.66 9 12.32 9 13 C6.03 13 3.06 13 0 13 C0 8.71 0 4.42 0 0 Z " fill="#9C9C9D" transform="translate(141,174)"/>
<path d="M0 0 C0.66 0 1.32 0 2 0 C2.8394882 2.10171867 3.67139656 4.20646625 4.5 6.3125 C5.19609375 8.07013672 5.19609375 8.07013672 5.90625 9.86328125 C7 13 7 13 7 16 C6.01 15.67 5.02 15.34 4 15 C3.67 13.02 3.34 11.04 3 9 C1.02 9 -0.96 9 -3 9 C-2.44271087 5.65626525 -1.64826111 2.96687001 0 0 Z " fill="#A3A3A4" transform="translate(140,147)"/>
<path d="M0 0 C2.0625 0.4375 2.0625 0.4375 4 1 C4 1.66 4 2.32 4 3 C4.66 3 5.32 3 6 3 C6.66 4.98 7.32 6.96 8 9 C6.25 9.75 6.25 9.75 4 10 C1.27849593 7.97831126 0.17165829 6.56779281 -0.8125 3.3125 C-0.9053125 2.1678125 -0.9053125 2.1678125 -1 1 C-0.67 0.67 -0.34 0.34 0 0 Z " fill="#AAAAAA" transform="translate(130,113)"/>
<path d="M0 0 C0.66 0 1.32 0 2 0 C2.12117188 0.89203125 2.24234375 1.7840625 2.3671875 2.703125 C2.53476563 3.87359375 2.70234375 5.0440625 2.875 6.25 C3.03742188 7.41015625 3.19984375 8.5703125 3.3671875 9.765625 C3.92463654 12.61480897 4.65197932 14.48369473 6 17 C6.125 19.75 6.125 19.75 6 22 C-0.13811859 15.0434656 -0.28540289 8.91091248 0 0 Z " fill="#0E0E0E" transform="translate(108,58)"/>
<path d="M0 0 C0.33 0 0.66 0 1 0 C1.38873828 1.95565258 1.76060833 3.91466504 2.125 5.875 C2.33382812 6.96554688 2.54265625 8.05609375 2.7578125 9.1796875 C2.83773437 10.11039063 2.91765625 11.04109375 3 12 C2.34 12.66 1.68 13.32 1 14 C0.34 13.34 -0.32 12.68 -1 12 C-1.66 13.32 -2.32 14.64 -3 16 C-3.02712066 14.56260487 -3.04645067 13.12506137 -3.0625 11.6875 C-3.07410156 10.88699219 -3.08570312 10.08648437 -3.09765625 9.26171875 C-3 7 -3 7 -2 4 C-1.34 4 -0.68 4 0 4 C0 2.68 0 1.36 0 0 Z " fill="#A9A9A9" transform="translate(106,59)"/>
<path d="M0 0 C0.6875 2.0625 0.6875 2.0625 1 4 C0.01 4.495 0.01 4.495 -1 5 C-1.66 4.67 -2.32 4.34 -3 4 C-3 4.66 -3 5.32 -3 6 C-2.34 6 -1.68 6 -1 6 C-1 6.66 -1 7.32 -1 8 C-1.66 8 -2.32 8 -3 8 C-3.33 8.66 -3.66 9.32 -4 10 C-5.60355101 6.49223216 -6.22036864 3.85645121 -6 0 C-3 -1 -3 -1 0 0 Z " fill="#9F9F9F" transform="translate(116,63)"/>
<path d="M0 0 C1.98 0 3.96 0 6 0 C6.38218767 1.65614657 6.71395102 3.32457024 7 5 C6 6 6 6 2.9375 6.0625 C1.4834375 6.0315625 1.4834375 6.0315625 0 6 C0 4.02 0 2.04 0 0 Z " fill="#070708" transform="translate(56,147)"/>
<path d="M0 0 C0.66 0.66 1.32 1.32 2 2 C2.66 1.67 3.32 1.34 4 1 C4.66 2.65 5.32 4.3 6 6 C2.04 7.98 2.04 7.98 -2 10 C-1.125 1.125 -1.125 1.125 0 0 Z " fill="#B2B2B2" transform="translate(105,70)"/>
<path d="M0 0 C0.99 0 1.98 0 3 0 C3 4.29 3 8.58 3 13 C2.34 13 1.68 13 1 13 C0.87625 12.030625 0.7525 11.06125 0.625 10.0625 C0.41875 9.051875 0.2125 8.04125 0 7 C-0.66 6.67 -1.32 6.34 -2 6 C-1.34 4.02 -0.68 2.04 0 0 Z " fill="#8C8C8C" transform="translate(98,174)"/>
<path d="M0 0 C0.33 0.66 0.66 1.32 1 2 C1.99 2.33 2.98 2.66 4 3 C3.67 3.66 3.34 4.32 3 5 C3.66 5.33 4.32 5.66 5 6 C3.63016497 9.16115776 3.0109362 9.9927092 0 12 C0 8.04 0 4.08 0 0 Z " fill="#8F8F90" transform="translate(140,55)"/>
<path d="M0 0 C1.98 0 3.96 0 6 0 C6.5625 1.9375 6.5625 1.9375 7 4 C6 5 6 5 2.9375 5.0625 C1.4834375 5.0315625 1.4834375 5.0315625 0 5 C0 3.35 0 1.7 0 0 Z " fill="#080808" transform="translate(36,155)"/>
<path d="M0 0 C2.375 -0.1875 2.375 -0.1875 5 0 C7 3 7 3 6.625 6.1875 C6.41875 7.115625 6.2125 8.04375 6 9 C2.91910327 6.22719294 1.31224548 3.93673644 0 0 Z " fill="#ABABAB" transform="translate(105,83)"/>
<path d="M0 0 C1.65 0 3.3 0 5 0 C5.33 1.65 5.66 3.3 6 5 C4.02 5 2.04 5 0 5 C0 3.35 0 1.7 0 0 Z " fill="#050506" transform="translate(36,147)"/>
<path d="M0 0 C0.99 0.33 1.98 0.66 3 1 C3 1.66 3 2.32 3 3 C3.66 3.33 4.32 3.66 5 4 C3.02 5.32 1.04 6.64 -1 8 C-1.66 7.67 -2.32 7.34 -3 7 C-2.01 4.69 -1.02 2.38 0 0 Z " fill="#929292" transform="translate(132,124)"/>
<path d="M0 0 C2.00720923 0.28674418 4.0085944 0.61866701 6 1 C6 1.99 6 2.98 6 4 C3.03 3.505 3.03 3.505 0 3 C-0.33 4.98 -0.66 6.96 -1 9 C-2.125 7.25 -2.125 7.25 -3 5 C-2.24307556 2.96212652 -1.53745581 1.53745581 0 0 Z " fill="#959596" transform="translate(111,173)"/>
<path d="M0 0 C3.7726764 0.53895377 5.68212991 1.99535358 8 5 C7.60546875 7.13671875 7.60546875 7.13671875 7 9 C5.83037314 7.69013727 4.66437056 6.3770374 3.5 5.0625 C2.8503125 4.33160156 2.200625 3.60070312 1.53125 2.84765625 C0 1 0 1 0 0 Z " fill="#171718" transform="translate(125,92)"/>
<path d="M0 0 C2.04119788 1.61594832 4.04072937 3.2856382 6 5 C6 5.66 6 6.32 6 7 C2.73045798 6.43628586 1.17424117 5.50037734 -1 3 C-0.67 2.01 -0.34 1.02 0 0 Z " fill="#0F0F0F" transform="translate(116,80)"/>
<path d="M0 0 C1.98 0 3.96 0 6 0 C5.34 0.66 4.68 1.32 4 2 C3.59952556 4.32275177 3.2602896 6.65739357 3 9 C2.01 8.34 1.02 7.68 0 7 C-0.1875 3.375 -0.1875 3.375 0 0 Z " fill="#767677" transform="translate(105,56)"/>
<path d="M0 0 C2.35953094 2.35953094 2.49141413 3.77895617 3 7 C1.35 7 -0.3 7 -2 7 C-1.125 2.25 -1.125 2.25 0 0 Z " fill="#0E0E0E" transform="translate(139,149)"/>
<path d="M0 0 C3 1 3 1 4.6875 4.0625 C5.120625 5.031875 5.55375 6.00125 6 7 C4.125 6.875 4.125 6.875 2 6 C0.75 2.9375 0.75 2.9375 0 0 Z " fill="#A4A4A5" transform="translate(61,156)"/>
<path d="M0 0 C0.99 0.33 1.98 0.66 3 1 C1.63016497 4.16115776 1.0109362 4.9927092 -2 7 C-1.125 1.125 -1.125 1.125 0 0 Z " fill="#909090" transform="translate(140,120)"/>
<path d="M0 0 C1.32 0.66 2.64 1.32 4 2 C3.67 2.99 3.34 3.98 3 5 C1.35 4.67 -0.3 4.34 -2 4 C-1.34 2.68 -0.68 1.36 0 0 Z " fill="#BBBBBC" transform="translate(133,85)"/>
<path d="M0 0 C0.99 0 1.98 0 3 0 C3 3.96 3 7.92 3 12 C2.67 12 2.34 12 2 12 C2 9.03 2 6.06 2 3 C1.34 3 0.68 3 0 3 C0 2.01 0 1.02 0 0 Z " fill="#B3B3B3" transform="translate(98,174)"/>
<path d="M0 0 C0.33 0 0.66 0 1 0 C1.33 2.64 1.66 5.28 2 8 C0.35 8.33 -1.3 8.66 -3 9 C-2.67 7.35 -2.34 5.7 -2 4 C-1.34 4 -0.68 4 0 4 C0 2.68 0 1.36 0 0 Z " fill="#919191" transform="translate(106,59)"/>
<path d="M0 0 C3.24299151 2.38957269 5.50902342 4.2047869 7 8 C3.64379729 6.61122646 1.92701272 5.08322035 0 2 C0 1.34 0 0.68 0 0 Z " fill="#9F9FA0" transform="translate(129,179)"/>
<path d="M0 0 C-0.33 1.32 -0.66 2.64 -1 4 C-1.66 3.01 -2.32 2.02 -3 1 C-6.06556598 0.26656572 -6.06556598 0.26656572 -9 0 C-9 -0.33 -9 -0.66 -9 -1 C-5.22102349 -2.0497157 -3.35080929 -2.10976881 0 0 Z " fill="#B5B5B6" transform="translate(65,147)"/>
</svg>
