<svg width="30" height="27" viewBox="0 0 30 27" fill="none" xmlns="http://www.w3.org/2000/svg">
<path d="M27.258 2.81861C25.6679 1.22442 23.5602 0.251418 21.3155 0.0753625C19.0708 -0.100693 16.8371 0.531806 15.018 1.85861C13.1095 0.439064 10.734 -0.204626 8.36987 0.0571635C6.00576 0.318953 3.82865 1.46677 2.27695 3.26948C0.725251 5.0722 -0.0857751 7.39589 0.00719311 9.77263C0.100161 12.1494 1.09022 14.4026 2.77799 16.0786L12.093 25.4086C12.873 26.1763 13.9236 26.6065 15.018 26.6065C16.1124 26.6065 17.163 26.1763 17.943 25.4086L27.258 16.0786C29.0094 14.3165 29.9924 11.933 29.9924 9.44861C29.9924 6.9642 29.0094 4.58071 27.258 2.81861ZM25.143 14.0086L15.828 23.3236C15.722 23.4306 15.5958 23.5156 15.4568 23.5736C15.3178 23.6316 15.1686 23.6614 15.018 23.6614C14.8674 23.6614 14.7182 23.6316 14.5792 23.5736C14.4401 23.5156 14.314 23.4306 14.208 23.3236L4.89299 13.9636C3.71663 12.7611 3.05791 11.1458 3.05791 9.46361C3.05791 7.78141 3.71663 6.16609 4.89299 4.96361C6.09172 3.78009 7.70845 3.11646 9.39299 3.11646C11.0775 3.11646 12.6943 3.78009 13.893 4.96361C14.0324 5.1042 14.1983 5.21579 14.3811 5.29194C14.5639 5.3681 14.76 5.4073 14.958 5.4073C15.156 5.4073 15.3521 5.3681 15.5349 5.29194C15.7176 5.21579 15.8835 5.1042 16.023 4.96361C17.2217 3.78009 18.8384 3.11646 20.523 3.11646C22.2075 3.11646 23.8243 3.78009 25.023 4.96361C26.2155 6.15033 26.8959 7.75689 26.9183 9.43914C26.9407 11.1214 26.3035 12.7455 25.143 13.9636V14.0086Z" fill="#1E7A7E"/>
</svg>
