<svg width="35" height="35" viewBox="0 0 35 35" fill="none" xmlns="http://www.w3.org/2000/svg">
<mask id="mask0_257_1884" style="mask-type:luminance" maskUnits="userSpaceOnUse" x="0" y="0" width="35" height="35">
<path d="M0 0H35V35H0V0Z" fill="white"/>
</mask>
<g mask="url(#mask0_257_1884)">
<path fill-rule="evenodd" clip-rule="evenodd" d="M12.0312 13.125C12.9015 13.125 13.7361 12.7793 14.3514 12.1639C14.9668 11.5486 15.3125 10.714 15.3125 9.84375C15.3125 8.97351 14.9668 8.13891 14.3514 7.52356C13.7361 6.9082 12.9015 6.5625 12.0312 6.5625C11.161 6.5625 10.3264 6.9082 9.71106 7.52356C9.0957 8.13891 8.75 8.97351 8.75 9.84375C8.75 10.714 9.0957 11.5486 9.71106 12.1639C10.3264 12.7793 11.161 13.125 12.0312 13.125ZM12.0312 16.4062C13.7717 16.4062 15.4409 15.7148 16.6716 14.4841C17.9023 13.2534 18.5938 11.5842 18.5938 9.84375C18.5938 8.10327 17.9023 6.43407 16.6716 5.20336C15.4409 3.97265 13.7717 3.28125 12.0312 3.28125C10.2908 3.28125 8.62157 3.97265 7.39086 5.20336C6.16015 6.43407 5.46875 8.10327 5.46875 9.84375C5.46875 11.5842 6.16015 13.2534 7.39086 14.4841C8.62157 15.7148 10.2908 16.4062 12.0312 16.4062ZM5.40531 22.7194C3.70562 23.9006 3.28125 25.0447 3.28125 25.5763C3.28125 26.5519 4.07313 27.3438 5.04875 27.3438H19.0138C19.4825 27.3438 19.9321 27.1575 20.2636 26.8261C20.595 26.4946 20.7812 26.045 20.7812 25.5763C20.7812 25.0425 20.3569 23.8984 18.6572 22.7194C17.045 21.6016 14.6978 20.7812 12.0312 20.7812C9.36687 20.7812 7.0175 21.6016 5.40531 22.7194ZM0 25.5763C0 21.5381 5.41406 17.5 12.0312 17.5C14.6125 17.5 17.0144 18.1147 18.9809 19.1056C20.8642 18.0411 22.993 17.4876 25.1562 17.5C30.5703 17.5 35 20.8644 35 24.2309C35 25.3466 34.5568 26.4165 33.7679 27.2054C32.979 27.9943 31.9091 28.4375 30.7934 28.4375H23.1744C22.2644 29.7587 20.7397 30.625 19.0138 30.625H5.04875C3.70974 30.625 2.42557 30.0931 1.47874 29.1463C0.53192 28.1994 0 26.9153 0 25.5763ZM24.0428 25.1562H30.7934C31.3053 25.1562 31.7188 24.7406 31.7188 24.2309C31.7188 24.0056 31.5088 23.1984 30.2138 22.2841C29.0019 21.4244 27.2059 20.7812 25.1562 20.7812C24.0253 20.7812 22.9709 20.9781 22.05 21.2975C23.2006 22.4656 23.9181 23.8044 24.0428 25.1562ZM27.3438 10.9375C27.3438 11.5177 27.1133 12.0741 26.703 12.4843C26.2928 12.8945 25.7364 13.125 25.1562 13.125C24.5761 13.125 24.0197 12.8945 23.6095 12.4843C23.1992 12.0741 22.9688 11.5177 22.9688 10.9375C22.9688 10.3573 23.1992 9.80094 23.6095 9.3907C24.0197 8.98047 24.5761 8.75 25.1562 8.75C25.7364 8.75 26.2928 8.98047 26.703 9.3907C27.1133 9.80094 27.3438 10.3573 27.3438 10.9375ZM30.625 10.9375C30.625 12.3879 30.0488 13.7789 29.0232 14.8045C27.9977 15.8301 26.6067 16.4062 25.1562 16.4062C23.7058 16.4062 22.3148 15.8301 21.2893 14.8045C20.2637 13.7789 19.6875 12.3879 19.6875 10.9375C19.6875 9.4871 20.2637 8.0961 21.2893 7.07051C22.3148 6.04492 23.7058 5.46875 25.1562 5.46875C26.6067 5.46875 27.9977 6.04492 29.0232 7.07051C30.0488 8.0961 30.625 9.4871 30.625 10.9375Z" fill="#1E7A7E"/>
</g>
</svg>
