<svg width="42" height="53" viewBox="0 0 42 53" fill="none" xmlns="http://www.w3.org/2000/svg">
<path d="M20.9999 15.0742L12.7681 1.15823C12.1356 0.0915724 10.8123 -0.293611 9.72255 0.259473L1.29618 4.536C0.138285 5.11871 -0.328766 6.54093 0.245317 7.71623L7.01755 21.4545C4.08876 24.8026 2.31786 29.2075 2.31786 34.0371C2.31786 44.5062 10.6858 53 20.9999 53C31.3139 53 39.6819 44.5062 39.6819 34.0371C39.6819 29.2075 37.9013 24.8026 34.9822 21.4545L41.7544 7.71623C42.3285 6.54093 41.8615 5.11871 40.7133 4.536L32.2772 0.249597C31.1874 -0.303487 29.8544 0.0915725 29.2316 1.14836L20.9999 15.0742ZM23.9968 29.1482C24.133 29.4248 24.386 29.6124 24.6779 29.6519L29.5527 30.3729C30.302 30.4816 30.5939 31.41 30.0587 31.9532L26.5266 35.4495C26.3126 35.6667 26.2153 35.963 26.2639 36.2692L27.1007 41.1976C27.2272 41.9482 26.4488 42.5309 25.7774 42.1754L21.4183 39.8445C21.1556 39.7062 20.8345 39.7062 20.5718 39.8445L16.2126 42.1754C15.5412 42.5309 14.7628 41.9581 14.8893 41.1976L15.7261 36.2692C15.7748 35.9729 15.6775 35.6667 15.4634 35.4495L11.9313 31.9532C11.3864 31.4198 11.6881 30.4914 12.4373 30.3729L17.3121 29.6519C17.604 29.6124 17.8668 29.4149 17.9932 29.1482L20.1728 24.6643C20.5036 23.973 21.4669 23.973 21.8075 24.6643L23.9871 29.1482H23.9968Z" fill="#1FB6B2"/>
</svg>
