<svg width="78" height="30" viewBox="0 0 78 30" fill="none" xmlns="http://www.w3.org/2000/svg">
<rect width="30" height="30" rx="15" fill="#D9D9D9"/>
<path d="M17.4335 4.52778C17.4335 3.13299 16.3424 2 14.9991 2C13.6558 2 12.5646 3.13299 12.5646 4.52778C12.5646 5.92257 13.6558 7.05556 14.9991 7.05556C16.3424 7.05556 17.4335 5.92257 17.4335 4.52778ZM18.4769 14.1288L20.4896 16.9455C20.9461 17.5865 21.8199 17.7219 22.4372 17.2434C23.0545 16.7649 23.1849 15.8622 22.7241 15.2212L19.6593 10.933C18.5638 9.40278 16.8379 8.5 14.9991 8.5C13.1602 8.5 11.4343 9.40278 10.3388 10.933L7.27402 15.2212C6.81756 15.8622 6.94362 16.7649 7.56093 17.2434C8.17824 17.7219 9.04769 17.5865 9.5085 16.9455L11.5213 14.1288V26.5556C11.5213 27.3545 12.1429 28 12.9124 28C13.6818 28 14.3035 27.3545 14.3035 26.5556V19.3333C14.3035 18.9361 14.6165 18.6111 14.9991 18.6111C15.3816 18.6111 15.6946 18.9361 15.6946 19.3333V26.5556C15.6946 27.3545 16.3163 28 17.0857 28C17.8552 28 18.4769 27.3545 18.4769 26.5556V14.1288Z" fill="black"/>
<rect x="24" width="30" height="30" rx="15" fill="#D9D9D9"/>
<path d="M41.4335 4.52778C41.4335 3.13299 40.3424 2 38.9991 2C37.6558 2 36.5646 3.13299 36.5646 4.52778C36.5646 5.92257 37.6558 7.05556 38.9991 7.05556C40.3424 7.05556 41.4335 5.92257 41.4335 4.52778ZM42.4769 14.1288L44.4896 16.9455C44.9461 17.5865 45.8199 17.7219 46.4372 17.2434C47.0545 16.7649 47.1849 15.8622 46.7241 15.2212L43.6593 10.933C42.5638 9.40278 40.8379 8.5 38.9991 8.5C37.1602 8.5 35.4343 9.40278 34.3388 10.933L31.274 15.2212C30.8176 15.8622 30.9436 16.7649 31.5609 17.2434C32.1782 17.7219 33.0477 17.5865 33.5085 16.9455L35.5213 14.1288V26.5556C35.5213 27.3545 36.1429 28 36.9124 28C37.6818 28 38.3035 27.3545 38.3035 26.5556V19.3333C38.3035 18.9361 38.6165 18.6111 38.9991 18.6111C39.3816 18.6111 39.6946 18.9361 39.6946 19.3333V26.5556C39.6946 27.3545 40.3163 28 41.0857 28C41.8552 28 42.4769 27.3545 42.4769 26.5556V14.1288Z" fill="black"/>
<rect x="48" width="30" height="30" rx="15" fill="#D9D9D9"/>
<path d="M65.4335 4.52778C65.4335 3.13299 64.3424 2 62.9991 2C61.6558 2 60.5646 3.13299 60.5646 4.52778C60.5646 5.92257 61.6558 7.05556 62.9991 7.05556C64.3424 7.05556 65.4335 5.92257 65.4335 4.52778ZM66.4769 14.1288L68.4896 16.9455C68.9461 17.5865 69.8199 17.7219 70.4372 17.2434C71.0545 16.7649 71.1849 15.8622 70.7241 15.2212L67.6593 10.933C66.5638 9.40278 64.8379 8.5 62.9991 8.5C61.1602 8.5 59.4343 9.40278 58.3388 10.933L55.274 15.2212C54.8176 15.8622 54.9436 16.7649 55.5609 17.2434C56.1782 17.7219 57.0477 17.5865 57.5085 16.9455L59.5213 14.1288V26.5556C59.5213 27.3545 60.1429 28 60.9124 28C61.6818 28 62.3035 27.3545 62.3035 26.5556V19.3333C62.3035 18.9361 62.6165 18.6111 62.9991 18.6111C63.3816 18.6111 63.6946 18.9361 63.6946 19.3333V26.5556C63.6946 27.3545 64.3163 28 65.0857 28C65.8552 28 66.4769 27.3545 66.4769 26.5556V14.1288Z" fill="black"/>
</svg>
