<svg width="78" height="30" viewBox="0 0 78 30" fill="none" xmlns="http://www.w3.org/2000/svg">
<rect width="30" height="30" rx="15" fill="#D9D9D9"/>
<path d="M17.6667 21V10.3333C17.6667 9.97971 17.5262 9.64057 17.2761 9.39052C17.0261 9.14048 16.687 9 16.3333 9H13.6667C13.313 9 12.9739 9.14048 12.7239 9.39052C12.4738 9.64057 12.3333 9.97971 12.3333 10.3333V21M9.66667 11.6667H20.3333C21.0697 11.6667 21.6667 12.2636 21.6667 13V19.6667C21.6667 20.403 21.0697 21 20.3333 21H9.66667C8.93029 21 8.33334 20.403 8.33334 19.6667V13C8.33334 12.2636 8.93029 11.6667 9.66667 11.6667Z" stroke="#1E1E1E" stroke-width="1.6" stroke-linecap="round" stroke-linejoin="round"/>
<rect x="24" width="30" height="30" rx="15" fill="#D9D9D9"/>
<path d="M41.6667 21V10.3333C41.6667 9.97971 41.5262 9.64057 41.2761 9.39052C41.0261 9.14048 40.687 9 40.3333 9H37.6667C37.313 9 36.9739 9.14048 36.7239 9.39052C36.4738 9.64057 36.3333 9.97971 36.3333 10.3333V21M33.6667 11.6667H44.3333C45.0697 11.6667 45.6667 12.2636 45.6667 13V19.6667C45.6667 20.403 45.0697 21 44.3333 21H33.6667C32.9303 21 32.3333 20.403 32.3333 19.6667V13C32.3333 12.2636 32.9303 11.6667 33.6667 11.6667Z" stroke="#1E1E1E" stroke-width="1.6" stroke-linecap="round" stroke-linejoin="round"/>
<rect x="48" width="30" height="30" rx="15" fill="#D9D9D9"/>
<path d="M65.6667 21V10.3333C65.6667 9.97971 65.5262 9.64057 65.2761 9.39052C65.0261 9.14048 64.687 9 64.3333 9H61.6667C61.313 9 60.9739 9.14048 60.7239 9.39052C60.4738 9.64057 60.3333 9.97971 60.3333 10.3333V21M57.6667 11.6667H68.3333C69.0697 11.6667 69.6667 12.2636 69.6667 13V19.6667C69.6667 20.403 69.0697 21 68.3333 21H57.6667C56.9303 21 56.3333 20.403 56.3333 19.6667V13C56.3333 12.2636 56.9303 11.6667 57.6667 11.6667Z" stroke="#1E1E1E" stroke-width="1.6" stroke-linecap="round" stroke-linejoin="round"/>
</svg>
