<svg width="92" height="80" viewBox="0 0 92 80" fill="none" xmlns="http://www.w3.org/2000/svg">
<path d="M87.5448 0H4.45523C1.99461 0 0 2.01033 0 4.49035V57.0274C0 59.5074 1.99461 61.5177 4.45523 61.5177H35.5302V71.6929H23.4381C21.1657 71.6929 19.317 73.5561 19.317 75.8464C19.317 78.1367 21.1657 80 23.4381 80H68.5619C70.8343 80 72.683 78.1367 72.683 75.8464C72.683 73.5561 70.8343 71.6929 68.5619 71.6929H56.4698V61.5177H87.5448C90.0054 61.5177 92 59.5074 92 57.0274V4.49035C92 2.01033 90.0054 0 87.5448 0ZM85.3172 54.7822H6.68284V6.73552H85.3172V54.7822Z" fill="white"/>
<path d="M29.9811 46.467C31.6659 46.467 33.0332 45.0894 33.0332 43.3914V28.7627C33.0332 27.0645 31.6657 25.6875 29.9811 25.6875C28.2962 25.6875 26.9304 27.0645 26.9304 28.7627V43.3911C26.9304 45.0894 28.2959 46.467 29.9811 46.467Z" fill="white"/>
<path d="M40.6605 46.4669C42.3455 46.4669 43.7112 45.0893 43.7112 43.3913V17.9986C43.7112 16.3003 42.3455 14.9238 40.6605 14.9238C38.9751 14.9238 37.6089 16.3003 37.6089 17.9986V43.3913C37.6089 45.0893 38.9751 46.4669 40.6605 46.4669Z" fill="white"/>
<path d="M51.3396 46.4675C53.025 46.4675 54.3912 45.0898 54.3912 43.3918V24.4576C54.3912 22.7593 53.025 21.3828 51.3396 21.3828C49.6551 21.3828 48.2893 22.7593 48.2893 24.4576V43.3918C48.2884 45.0898 49.6542 46.4675 51.3396 46.4675Z" fill="white"/>
<path d="M62.0189 46.4672C63.7034 46.4672 65.0689 45.0896 65.0689 43.3915V21.2285C65.0689 19.5303 63.7029 18.1533 62.0189 18.1533C60.3339 18.1533 58.9668 19.5303 58.9668 21.2285V43.3915C58.9668 45.0896 60.3339 46.4672 62.0189 46.4672Z" fill="white"/>
</svg>
