<svg width="30" height="30" viewBox="0 0 30 30" fill="none" xmlns="http://www.w3.org/2000/svg">
<rect width="30" height="30" rx="15" fill="#D9D9D9"/>
<path d="M17.4335 4.52778C17.4335 3.13299 16.3424 2 14.9991 2C13.6558 2 12.5646 3.13299 12.5646 4.52778C12.5646 5.92257 13.6558 7.05556 14.9991 7.05556C16.3424 7.05556 17.4335 5.92257 17.4335 4.52778ZM18.4769 14.1288L20.4896 16.9455C20.9461 17.5865 21.8199 17.7219 22.4372 17.2434C23.0545 16.7649 23.1849 15.8622 22.7241 15.2212L19.6593 10.933C18.5638 9.40278 16.8379 8.5 14.9991 8.5C13.1602 8.5 11.4343 9.40278 10.3388 10.933L7.27402 15.2212C6.81756 15.8622 6.94362 16.7649 7.56093 17.2434C8.17824 17.7219 9.04769 17.5865 9.5085 16.9455L11.5213 14.1288V26.5556C11.5213 27.3545 12.1429 28 12.9124 28C13.6818 28 14.3035 27.3545 14.3035 26.5556V19.3333C14.3035 18.9361 14.6165 18.6111 14.9991 18.6111C15.3816 18.6111 15.6946 18.9361 15.6946 19.3333V26.5556C15.6946 27.3545 16.3163 28 17.0857 28C17.8552 28 18.4769 27.3545 18.4769 26.5556V14.1288Z" fill="black"/>
</svg>
