<svg width="30" height="30" viewBox="0 0 30 30" fill="none" xmlns="http://www.w3.org/2000/svg">
<rect width="30" height="30" rx="15" fill="#D9D9D9"/>
<path d="M17.6667 21V10.3333C17.6667 9.97971 17.5262 9.64057 17.2761 9.39052C17.0261 9.14048 16.687 9 16.3333 9H13.6667C13.313 9 12.9739 9.14048 12.7239 9.39052C12.4738 9.64057 12.3333 9.97971 12.3333 10.3333V21M9.66667 11.6667H20.3333C21.0697 11.6667 21.6667 12.2636 21.6667 13V19.6667C21.6667 20.403 21.0697 21 20.3333 21H9.66667C8.93029 21 8.33334 20.403 8.33334 19.6667V13C8.33334 12.2636 8.93029 11.6667 9.66667 11.6667Z" stroke="#1E1E1E" stroke-width="1.6" stroke-linecap="round" stroke-linejoin="round"/>
</svg>
