<svg width="70" height="70" viewBox="0 0 70 70" fill="none" xmlns="http://www.w3.org/2000/svg">
<rect x="1" y="1" width="68" height="68" rx="24" stroke="#1FB6B2" stroke-width="2"/>
<path d="M52.2712 39.5857L55.5 45.279C55.1164 46.0305 54.6877 46.7686 54.2131 47.4898C53.7384 48.2109 53.2304 48.8966 52.6923 49.546L46.3407 48.8363C44.6417 50.2332 42.6809 51.3221 40.5432 52.018L37.5737 57.8594C36.7364 57.9522 35.8853 58 35.0233 58C34.1613 58 33.3102 57.9522 32.4729 57.8594L29.4959 52.0154C27.357 51.3182 25.3954 50.2273 23.6962 48.8284L17.3079 49.5449C16.7696 48.8956 16.2615 48.2099 15.787 47.4887C15.3125 46.7676 14.8837 46.0295 14.5 45.2779L17.7473 39.5525C17.369 38.103 17.1705 36.5689 17.1705 35.0005C17.1705 33.4025 17.3796 31.8536 17.7718 30.3796L14.501 24.6142C14.8847 23.8627 15.3134 23.1246 15.788 22.4034C16.2625 21.6823 16.7706 20.9967 17.3088 20.3472L23.825 21.0806C25.5041 19.7197 27.413 18.6619 29.5139 17.9796M29.5041 17.9799L32.4724 12.1404C33.3097 12.0476 34.1608 12 35.0228 12C35.8848 12 36.7357 12.0476 37.5732 12.1404L40.5414 17.9799C42.6439 18.6627 44.5585 19.7117 46.2385 21.0742L52.6907 20.348C53.2289 20.9974 53.7369 21.6831 54.2115 22.4043C54.6859 23.1254 55.1149 23.8635 55.4985 24.615L52.2615 30.3226M52.262 30.3315C52.6624 31.8199 52.8761 33.3851 52.8761 35.0005C52.8761 36.5883 52.6698 38.1277 52.2822 39.5934M42.6745 35.0005C42.6745 39.2346 39.2491 42.6672 35.0233 42.6672C30.7975 42.6672 27.3721 39.2346 27.3721 35.0005C27.3721 30.7662 30.7975 27.3337 35.0233 27.3337C39.2491 27.3337 42.6745 30.7662 42.6745 35.0005Z" stroke="#1FB6B2" stroke-width="3" stroke-linecap="round" stroke-linejoin="round"/>
</svg>
