<svg width="35" height="35" viewBox="0 0 35 35" fill="none" xmlns="http://www.w3.org/2000/svg">
<rect width="35" height="35" rx="10" fill="#179A96" fill-opacity="0.2"/>
<path d="M25.3633 22.829C27.2681 23.8449 28.9013 25.475 30.0934 27.5133C30.3294 27.9171 30.4474 28.1189 30.4882 28.3983C30.5712 28.9664 30.2052 29.6646 29.707 29.8894C29.4617 30 29.1859 30 28.6342 30M22.7465 16.8503C24.6853 15.8276 26.0174 13.704 26.0174 11.25C26.0174 8.79603 24.6853 6.67238 22.7465 5.64967M20.1298 11.25C20.1298 14.7018 17.4939 17.5 14.2422 17.5C10.9906 17.5 8.3546 14.7018 8.3546 11.25C8.3546 7.79822 10.9906 5 14.2422 5C17.4939 5 20.1298 7.79822 20.1298 11.25ZM5.16119 27.1365C7.24711 23.8119 10.5387 21.6667 14.2422 21.6667C17.9458 21.6667 21.2373 23.8119 23.3233 27.1365C23.7803 27.865 24.0087 28.2292 23.9824 28.6943C23.9619 29.0565 23.7383 29.5 23.4656 29.7189C23.1155 30 22.6339 30 21.6707 30H6.81381C5.85062 30 5.36901 30 5.01886 29.7189C4.74621 29.5 4.52252 29.0565 4.50204 28.6943C4.47574 28.2292 4.70422 27.865 5.16119 27.1365Z" stroke="#179A96" stroke-width="2" stroke-linecap="round" stroke-linejoin="round"/>
</svg>
