<svg width="30" height="29" viewBox="0 0 30 29" fill="none" xmlns="http://www.w3.org/2000/svg">
<path d="M17.2842 6.68429C18.7237 6.9551 20.0465 7.63393 21.0835 8.63389C22.1205 9.63385 22.8245 10.9095 23.1053 12.2975M17.2842 1.00008C20.2748 1.32045 23.0634 2.6118 25.1924 4.66215C27.3213 6.71249 28.6641 9.39994 29 12.2832M23.8421 28.0001C11.2268 28.0001 1 18.1385 1 5.97377C1 5.42493 1.02082 4.88078 1.06173 4.34202C1.10868 3.7237 1.13216 3.41455 1.30019 3.13313C1.43936 2.90005 1.686 2.679 1.93723 2.56218C2.24056 2.42114 2.59435 2.42114 3.30191 2.42114H7.45373C8.04875 2.42114 8.34626 2.42114 8.60129 2.51557C8.82657 2.59898 9.02717 2.73446 9.18546 2.91012C9.36465 3.10897 9.46632 3.37858 9.66967 3.9178L11.3881 8.47489C11.6247 9.10226 11.743 9.41594 11.723 9.71355C11.7053 9.97598 11.6123 10.2285 11.4546 10.4431C11.2758 10.6864 10.979 10.8581 10.3854 11.2016L8.36842 12.3685C10.1396 16.1327 13.3054 19.1894 17.2105 20.8948L18.4207 18.95C18.7769 18.3774 18.9549 18.0912 19.2072 17.9189C19.4297 17.7668 19.6916 17.6771 19.9638 17.6601C20.2724 17.6408 20.5978 17.7549 21.2484 17.9829L25.9742 19.64C26.5333 19.8361 26.8131 19.9342 27.0192 20.107C27.2014 20.2596 27.342 20.453 27.4283 20.6703C27.5263 20.9161 27.5263 21.2031 27.5263 21.7769V25.7804C27.5263 26.4626 27.5263 26.8038 27.38 27.0963C27.2588 27.3386 27.0297 27.5765 26.788 27.7106C26.4961 27.8726 26.1755 27.8952 25.5343 27.9405C24.9755 27.98 24.4112 28.0001 23.8421 28.0001Z" stroke="#179A96" stroke-width="2" stroke-linecap="round" stroke-linejoin="round"/>
</svg>
