<svg width="25" height="28" viewBox="0 0 25 28" fill="none" xmlns="http://www.w3.org/2000/svg">
<path fill-rule="evenodd" clip-rule="evenodd" d="M12.5 0L25 22.5149L24.4419 23.0708C17.8444 29.6431 7.15551 29.6431 0.558052 23.0708L0 22.5149L12.5 0ZM3.40002 20.6108L2.55637 22.1304C8.19784 27.195 16.8022 27.195 22.4435 22.1304L21.6824 20.7595C16.3407 25.0863 8.68892 25.0367 3.40002 20.6108ZM4.42041 18.773L8.80559 10.8743C9.32942 11.8241 10.3305 12.466 11.4793 12.466C13.1704 12.466 14.5412 11.075 14.5412 9.35921C14.5412 7.64337 13.1704 6.2524 11.4793 6.2524C11.4429 6.2524 11.4066 6.25304 11.3705 6.25432L12.5 4.21997L17.1012 12.5076C15.6489 12.7506 14.5412 14.0304 14.5412 15.5728C14.5412 17.2886 15.9121 18.6796 17.603 18.6796C18.5324 18.6796 19.3649 18.2596 19.9264 17.5965L20.6653 18.9273C15.9728 22.9372 9.0558 22.8857 4.42041 18.773ZM12.4999 9.35921C12.4999 9.93115 12.0431 10.3948 11.4793 10.3948C10.9156 10.3948 10.4586 9.93115 10.4586 9.35921C10.4586 8.78725 10.9156 8.3236 11.4793 8.3236C12.0431 8.3236 12.4999 8.78725 12.4999 9.35921ZM17.603 16.6084C18.1668 16.6084 18.6237 16.1447 18.6237 15.5728C18.6237 15.0009 18.1668 14.5372 17.603 14.5372C17.0394 14.5372 16.5824 15.0009 16.5824 15.5728C16.5824 16.1447 17.0394 16.6084 17.603 16.6084ZM10.4586 17.644C11.0224 17.644 11.4793 17.1803 11.4793 16.6084C11.4793 16.0365 11.0224 15.5728 10.4586 15.5728C9.89498 15.5728 9.43807 16.0365 9.43807 16.6084C9.43807 17.1803 9.89498 17.644 10.4586 17.644ZM10.4586 19.7152C12.1498 19.7152 13.5205 18.3242 13.5205 16.6084C13.5205 14.8926 12.1498 13.5016 10.4586 13.5016C8.76767 13.5016 7.39681 14.8926 7.39681 16.6084C7.39681 18.3242 8.76767 19.7152 10.4586 19.7152Z" fill="black"/>
</svg>
