<?xml version="1.0" standalone="no"?>
<!DOCTYPE svg PUBLIC "-//W3C//DTD SVG 20010904//EN"
 "http://www.w3.org/TR/2001/REC-SVG-20010904/DTD/svg10.dtd">
<svg version="1.0" xmlns="http://www.w3.org/2000/svg"
 width="1280.000000pt" height="639.000000pt" viewBox="0 0 1280.000000 639.000000"
 preserveAspectRatio="xMidYMid meet">

<g transform="translate(0.000000,639.000000) scale(0.100000,-0.100000)"
fill="#000000" stroke="none">
<path d="M1626 6125 c-3 -8 -3 -29 1 -45 5 -28 9 -30 48 -30 41 0 43 2 48 33
2 17 2 38 0 45 -7 18 -89 16 -97 -3z m41 -17 c-3 -8 -6 -5 -6 6 -1 11 2 17 5
13 3 -3 4 -12 1 -19z m20 0 c-3 -8 -6 -5 -6 6 -1 11 2 17 5 13 3 -3 4 -12 1
-19z m-37 2 c0 -5 -4 -10 -10 -10 -5 0 -10 5 -10 10 0 6 5 10 10 10 6 0 10 -4
10 -10z m60 -35 c0 -10 -11 -15 -35 -15 -24 0 -35 5 -35 15 0 10 11 15 35 15
24 0 35 -5 35 -15z"/>
<path d="M4040 6106 c0 -8 -6 -17 -12 -19 -8 -3 -6 -6 5 -6 11 -1 17 6 17 19
0 11 -2 20 -5 20 -3 0 -5 -6 -5 -14z"/>
<path d="M4145 6109 c-4 -6 -5 -12 -2 -15 2 -3 7 2 10 11 7 17 1 20 -8 4z"/>
<path d="M4508 6093 c7 -3 16 -2 19 1 4 3 -2 6 -13 5 -11 0 -14 -3 -6 -6z"/>
<path d="M1798 6083 c7 -3 16 -2 19 1 4 3 -2 6 -13 5 -11 0 -14 -3 -6 -6z"/>
<path d="M3917 6079 c7 -7 15 -10 18 -7 3 3 -2 9 -12 12 -14 6 -15 5 -6 -5z"/>
<path d="M4150 6080 c-9 -6 -10 -10 -3 -10 6 0 15 5 18 10 8 12 4 12 -15 0z"/>
<path d="M4398 6083 c7 -3 16 -2 19 1 4 3 -2 6 -13 5 -11 0 -14 -3 -6 -6z"/>
<path d="M12268 6083 c7 -3 16 -2 19 1 4 3 -2 6 -13 5 -11 0 -14 -3 -6 -6z"/>
<path d="M3878 6073 c7 -3 16 -2 19 1 4 3 -2 6 -13 5 -11 0 -14 -3 -6 -6z"/>
<path d="M4468 6073 c7 -3 16 -2 19 1 4 3 -2 6 -13 5 -11 0 -14 -3 -6 -6z"/>
<path d="M11871 5814 c0 -11 3 -14 6 -6 3 7 2 16 -1 19 -3 4 -6 -2 -5 -13z"/>
<path d="M12135 5810 c-16 -17 -16 -20 -3 -15 9 4 19 13 22 21 7 19 2 18 -19
-6z"/>
<path d="M12261 5814 c0 -11 3 -14 6 -6 3 7 2 16 -1 19 -3 4 -6 -2 -5 -13z"/>
<path d="M11151 5804 c0 -11 3 -14 6 -6 3 7 2 16 -1 19 -3 4 -6 -2 -5 -13z"/>
<path d="M530 5798 c0 -20 25 -24 36 -6 5 7 3 8 -6 3 -7 -4 -16 -2 -21 6 -7
11 -9 10 -9 -3z"/>
<path d="M11485 5800 c-3 -5 -1 -10 4 -10 6 0 11 5 11 10 0 6 -2 10 -4 10 -3
0 -8 -4 -11 -10z"/>
<path d="M12230 5800 c0 -5 5 -10 11 -10 5 0 7 5 4 10 -3 6 -8 10 -11 10 -2 0
-4 -4 -4 -10z"/>
<path d="M265 5790 c-16 -7 -17 -9 -3 -9 9 -1 20 4 23 9 7 11 7 11 -20 0z"/>
<path d="M304 5789 c-3 -6 -1 -16 5 -22 9 -9 10 -7 5 7 -6 15 -4 17 6 11 9 -5
11 -4 6 3 -9 15 -13 15 -22 1z"/>
<path d="M411 5784 c0 -11 3 -14 6 -6 3 7 2 16 -1 19 -3 4 -6 -2 -5 -13z"/>
<path d="M431 5784 c0 -11 3 -14 6 -6 3 7 2 16 -1 19 -3 4 -6 -2 -5 -13z"/>
<path d="M451 5784 c0 -11 3 -14 6 -6 3 7 2 16 -1 19 -3 4 -6 -2 -5 -13z"/>
<path d="M474 5789 c-3 -6 -1 -16 6 -22 10 -9 11 -9 6 1 -4 6 -2 12 3 12 6 0
11 5 11 10 0 13 -17 13 -26 -1z"/>
<path d="M584 5789 c-3 -6 -1 -16 6 -22 10 -9 11 -9 6 1 -4 6 -2 12 3 12 6 0
11 5 11 10 0 13 -17 13 -26 -1z"/>
<path d="M661 5784 c0 -11 3 -14 6 -6 3 7 2 16 -1 19 -3 4 -6 -2 -5 -13z"/>
<path d="M695 5790 c-3 -5 1 -10 10 -10 9 0 13 5 10 10 -3 6 -8 10 -10 10 -2
0 -7 -4 -10 -10z"/>
<path d="M750 5786 c0 -8 -6 -17 -12 -19 -8 -3 -6 -6 5 -6 11 -1 17 6 17 19 0
11 -2 20 -5 20 -3 0 -5 -6 -5 -14z"/>
<path d="M797 5786 c-6 -16 1 -26 17 -26 6 0 4 5 -4 10 -10 6 -11 10 -2 10 6
0 12 5 12 10 0 15 -17 12 -23 -4z"/>
<path d="M881 5784 c0 -11 3 -14 6 -6 3 7 2 16 -1 19 -3 4 -6 -2 -5 -13z"/>
<path d="M11545 5790 c-3 -5 -1 -10 4 -10 6 0 11 5 11 10 0 6 -2 10 -4 10 -3
0 -8 -4 -11 -10z"/>
<path d="M12046 5780 c-10 -10 -16 -25 -13 -32 3 -8 6 -6 6 6 1 10 6 16 14 13
8 -3 14 3 14 14 2 23 3 23 -21 -1z"/>
<path d="M1550 5746 c0 -42 2 -46 24 -46 32 0 36 8 27 50 -5 26 -13 36 -29 38
-20 3 -22 -1 -22 -42z m40 13 c0 -5 -7 -9 -15 -9 -15 0 -20 12 -9 23 8 8 24
-1 24 -14z m0 -34 c0 -8 -7 -15 -15 -15 -8 0 -15 7 -15 15 0 8 7 15 15 15 8 0
15 -7 15 -15z"/>
<path d="M2040 5776 c0 -7 -9 -16 -20 -19 -14 -3 -20 -14 -20 -31 0 -21 5 -26
25 -26 23 0 25 4 25 45 0 25 -2 45 -5 45 -3 0 -5 -6 -5 -14z m0 -46 c0 -11 -7
-20 -15 -20 -8 0 -15 9 -15 20 0 11 7 20 15 20 8 0 15 -9 15 -20z"/>
<path d="M11590 5786 c0 -2 7 -7 16 -10 8 -3 12 -2 9 4 -6 10 -25 14 -25 6z"/>
<path d="M12440 5780 c0 -6 7 -10 15 -10 8 0 15 2 15 4 0 2 -7 6 -15 10 -8 3
-15 1 -15 -4z"/>
<path d="M11883 5769 c9 -6 15 -14 13 -18 -3 -4 1 -8 8 -8 11 0 12 4 3 19 -7
10 -19 18 -27 18 -12 -1 -11 -3 3 -11z"/>
<path d="M12390 5776 c0 -2 7 -6 15 -10 8 -3 15 -1 15 4 0 6 -7 10 -15 10 -8
0 -15 -2 -15 -4z"/>
<path d="M2243 5756 c4 -10 7 -26 7 -37 0 -10 3 -19 8 -19 13 0 6 64 -8 68 -9
3 -11 -1 -7 -12z"/>
<path d="M1630 5751 c0 -6 7 -8 15 -5 10 4 15 0 15 -15 0 -23 -15 -29 -23 -8
-3 7 -6 5 -6 -5 -1 -13 7 -18 25 -18 22 0 25 4 22 28 -2 19 -9 28 -25 30 -13
2 -23 -1 -23 -7z"/>
<path d="M1700 5746 c0 -8 8 -17 18 -21 16 -7 15 -8 -3 -15 -19 -8 -19 -9 3
-9 26 -1 29 16 5 36 -17 14 -17 14 0 9 9 -3 17 -1 17 4 0 6 -9 10 -20 10 -11
0 -20 -6 -20 -14z"/>
<path d="M1762 5730 c0 -19 2 -27 5 -17 2 9 2 25 0 35 -3 9 -5 1 -5 -18z"/>
<path d="M1802 5743 c-13 -25 -4 -43 21 -42 17 1 18 2 5 6 -10 2 -18 13 -18
24 0 16 4 19 21 14 15 -5 19 -4 15 4 -11 17 -34 13 -44 -6z"/>
<path d="M1902 5730 c0 -19 2 -27 5 -17 2 9 2 25 0 35 -3 9 -5 1 -5 -18z"/>
<path d="M1931 5728 c2 -30 2 -31 6 -5 5 34 30 36 36 2 4 -23 4 -23 3 2 -1 21
-7 29 -23 31 -20 3 -23 -1 -22 -30z"/>
<path d="M2070 5730 c0 -16 5 -30 10 -30 6 0 10 14 10 30 0 17 -4 30 -10 30
-5 0 -10 -13 -10 -30z"/>
<path d="M2106 5745 c-9 -24 4 -45 28 -44 16 1 17 2 4 6 -10 2 -18 13 -18 24
0 16 4 19 21 14 15 -5 19 -4 15 4 -10 16 -43 13 -50 -4z"/>
<path d="M2180 5750 c0 -5 6 -7 13 -4 7 2 13 -4 14 -16 1 -11 -2 -20 -8 -20
-5 0 -9 5 -9 10 0 6 -4 10 -10 10 -5 0 -10 -7 -10 -15 0 -9 9 -15 25 -15 21 0
25 5 25 30 0 23 -4 30 -20 30 -11 0 -20 -4 -20 -10z"/>
<path d="M2284 5746 c-10 -26 4 -48 28 -44 17 2 23 10 23 28 0 18 -6 26 -23
28 -13 2 -25 -3 -28 -12z m41 -16 c0 -7 -6 -15 -12 -17 -8 -3 -13 4 -13 17 0
13 5 20 13 18 6 -3 12 -11 12 -18z"/>
<path d="M2361 5728 c2 -28 2 -29 6 -8 3 14 10 28 17 32 7 5 5 8 -6 8 -14 0
-18 -8 -17 -32z"/>
<path d="M2405 5749 c-4 -6 -4 -13 0 -17 3 -3 10 0 14 7 5 8 14 10 21 6 9 -5
11 -4 6 3 -9 15 -33 15 -41 1z"/>
<path d="M11327 5741 c-4 -17 -3 -21 5 -13 5 5 8 16 6 23 -3 8 -7 3 -11 -10z"/>
<path d="M12541 5744 c0 -11 3 -14 6 -6 3 7 2 16 -1 19 -3 4 -6 -2 -5 -13z"/>
<path d="M2435 5721 c3 -5 -3 -12 -12 -14 -14 -4 -13 -5 5 -6 13 -1 22 5 22
14 0 8 -5 15 -11 15 -5 0 -8 -4 -4 -9z"/>
<path d="M11616 5713 c-6 -14 -5 -15 5 -6 7 7 10 15 7 18 -3 3 -9 -2 -12 -12z"/>
<path d="M11910 5720 c0 -5 5 -10 11 -10 5 0 7 5 4 10 -3 6 -8 10 -11 10 -2 0
-4 -4 -4 -10z"/>
<path d="M12303 5705 c0 -14 3 -28 8 -31 5 -3 6 3 2 12 -5 13 -3 15 8 9 12 -7
12 -6 -1 11 -8 10 -15 20 -16 22 -1 2 -1 -9 -1 -23z"/>
<path d="M11540 5702 c0 -10 23 -22 41 -22 5 0 9 5 9 11 0 5 -5 7 -10 4 -6 -4
-17 -1 -25 5 -9 7 -15 8 -15 2z"/>
<path d="M12353 5695 c-3 -9 -3 -18 -1 -21 3 -3 8 4 11 16 6 23 -1 27 -10 5z"/>
<path d="M12462 5690 c0 -14 2 -19 5 -12 2 6 2 18 0 25 -3 6 -5 1 -5 -13z"/>
<path d="M12095 5689 c-11 -16 -1 -19 13 -3 7 8 8 14 3 14 -5 0 -13 -5 -16
-11z"/>
<path d="M250 5681 c0 -6 4 -13 10 -16 6 -3 7 1 4 9 -7 18 -14 21 -14 7z"/>
<path d="M350 5679 c0 -5 5 -7 10 -4 6 3 10 8 10 11 0 2 -4 4 -10 4 -5 0 -10
-5 -10 -11z"/>
<path d="M431 5674 c0 -11 3 -14 6 -6 3 7 2 16 -1 19 -3 4 -6 -2 -5 -13z"/>
<path d="M12256 5682 c-2 -4 4 -8 14 -8 10 0 16 4 14 8 -3 4 -9 8 -14 8 -5 0
-11 -4 -14 -8z"/>
<path d="M11788 5653 c7 -3 16 -2 19 1 4 3 -2 6 -13 5 -11 0 -14 -3 -6 -6z"/>
<path d="M11978 5653 c7 -3 16 -2 19 1 4 3 -2 6 -13 5 -11 0 -14 -3 -6 -6z"/>
<path d="M12538 5653 c7 -3 16 -2 19 1 4 3 -2 6 -13 5 -11 0 -14 -3 -6 -6z"/>
<path d="M458 5453 c7 -3 16 -2 19 1 4 3 -2 6 -13 5 -11 0 -14 -3 -6 -6z"/>
<path d="M5651 5418 c2 -32 2 -32 6 -5 3 20 9 27 19 23 9 -3 12 -1 9 4 -14 23
-35 9 -34 -22z"/>
<path d="M7167 5443 c-11 -10 -8 -45 3 -38 5 3 7 12 4 19 -3 8 2 16 13 19 14
4 14 5 2 6 -9 0 -19 -2 -22 -6z"/>
<path d="M7320 5420 l0 -31 22 21 c12 11 18 23 15 27 -4 3 -7 1 -7 -5 0 -7 -5
-12 -11 -12 -6 0 -9 7 -5 15 3 8 1 15 -4 15 -6 0 -10 -14 -10 -30z"/>
<path d="M9000 5420 c0 -16 2 -30 4 -30 2 0 6 14 8 30 3 17 1 30 -4 30 -4 0
-8 -13 -8 -30z"/>
<path d="M10958 5443 c7 -3 16 -2 19 1 4 3 -2 6 -13 5 -11 0 -14 -3 -6 -6z"/>
<path d="M3552 5420 c0 -14 2 -19 5 -12 2 6 2 18 0 25 -3 6 -5 1 -5 -13z"/>
<path d="M7612 5420 c0 -14 2 -19 5 -12 2 6 2 18 0 25 -3 6 -5 1 -5 -13z"/>
<path d="M5562 5405 c0 -16 2 -22 5 -12 2 9 2 23 0 30 -3 6 -5 -1 -5 -18z"/>
<path d="M7371 5414 c0 -11 3 -14 6 -6 3 7 2 16 -1 19 -3 4 -6 -2 -5 -13z"/>
<path d="M7991 5414 c0 -11 3 -14 6 -6 3 7 2 16 -1 19 -3 4 -6 -2 -5 -13z"/>
<path d="M7521 5404 c0 -11 3 -14 6 -6 3 7 2 16 -1 19 -3 4 -6 -2 -5 -13z"/>
<path d="M7691 5404 c0 -11 3 -14 6 -6 3 7 2 16 -1 19 -3 4 -6 -2 -5 -13z"/>
<path d="M10908 5403 c6 -2 18 -2 25 0 6 3 1 5 -13 5 -14 0 -19 -2 -12 -5z"/>
<path d="M1839 5268 c4 -28 6 -29 9 -9 2 13 0 27 -5 32 -6 6 -7 -3 -4 -23z"/>
<path d="M1875 5289 c-4 -6 -5 -12 -2 -15 2 -3 7 2 10 11 7 17 1 20 -8 4z"/>
<path d="M1967 5293 c-15 -14 -6 -33 16 -32 16 1 18 2 5 6 -10 2 -18 8 -18 13
0 5 8 11 18 13 14 4 14 5 1 6 -9 0 -19 -2 -22 -6z"/>
<path d="M11027 5293 c-13 -12 -7 -33 8 -33 18 0 20 -26 3 -33 -10 -4 -10 -6
0 -6 22 -2 27 31 6 46 -16 12 -17 15 -4 23 8 5 10 10 4 10 -6 0 -14 -3 -17 -7z"/>
<path d="M1643 5255 c0 -22 2 -30 4 -17 2 12 2 30 0 40 -3 9 -5 -1 -4 -23z"/>
<path d="M1781 5274 c0 -11 3 -14 6 -6 3 7 2 16 -1 19 -3 4 -6 -2 -5 -13z"/>
<path d="M1812 5270 c0 -14 2 -19 5 -12 2 6 2 18 0 25 -3 6 -5 1 -5 -13z"/>
<path d="M3511 5274 c0 -11 3 -14 6 -6 3 7 2 16 -1 19 -3 4 -6 -2 -5 -13z"/>
<path d="M5448 5255 c2 -19 6 -35 8 -35 2 0 4 16 4 35 0 19 -4 35 -8 35 -4 0
-6 -16 -4 -35z"/>
<path d="M5509 5273 c-8 -10 -9 -14 -2 -10 7 5 13 -2 16 -20 3 -23 4 -21 6 10
1 42 -1 44 -20 20z"/>
<path d="M5732 5270 c0 -14 2 -19 5 -12 2 6 2 18 0 25 -3 6 -5 1 -5 -13z"/>
<path d="M7164 5266 c-8 -35 4 -66 26 -66 23 0 38 45 23 69 -17 26 -42 25 -49
-3z m41 -22 c0 -19 -5 -29 -15 -29 -16 0 -25 28 -16 51 10 25 31 10 31 -22z"/>
<path d="M9146 5282 c-2 -4 4 -8 14 -8 10 0 16 4 14 8 -3 4 -9 8 -14 8 -5 0
-11 -4 -14 -8z"/>
<path d="M9216 5281 c-3 -5 2 -8 11 -7 12 1 20 -9 24 -29 5 -22 7 -24 8 -8 2
43 -26 72 -43 44z"/>
<path d="M9317 5283 c-3 -5 5 -8 18 -8 13 0 21 3 18 8 -2 4 -10 7 -18 7 -8 0
-16 -3 -18 -7z"/>
<path d="M9402 5260 c-20 -32 -21 -35 -4 -39 9 -2 20 -8 23 -13 10 -16 15 14
9 52 l-6 35 -22 -35z m14 -27 c-11 -11 -17 4 -9 23 7 18 8 18 11 1 2 -10 1
-21 -2 -24z"/>
<path d="M10986 5273 c-6 -14 -5 -15 5 -6 7 7 10 15 7 18 -3 3 -9 -2 -12 -12z"/>
<path d="M2020 5265 c0 -9 6 -12 15 -9 8 4 15 7 15 9 0 2 -7 5 -15 9 -9 3 -15
0 -15 -9z"/>
<path d="M5377 5259 c4 -13 8 -18 11 -10 2 7 -1 18 -6 23 -8 8 -9 4 -5 -13z"/>
<path d="M11142 5260 c0 -14 2 -19 5 -12 2 6 2 18 0 25 -3 6 -5 1 -5 -13z"/>
<path d="M11194 5269 c-3 -6 -2 -15 3 -20 5 -5 9 -1 9 11 0 23 -2 24 -12 9z"/>
<path d="M1722 5245 c0 -16 2 -22 5 -12 2 9 2 23 0 30 -3 6 -5 -1 -5 -18z"/>
<path d="M5350 5252 c0 -11 4 -23 9 -27 6 -3 8 4 6 16 -6 30 -15 37 -15 11z"/>
<path d="M5568 5263 c7 -3 16 -2 19 1 4 3 -2 6 -13 5 -11 0 -14 -3 -6 -6z"/>
<path d="M10932 5245 c0 -16 2 -22 5 -12 2 9 2 23 0 30 -3 6 -5 -1 -5 -18z"/>
<path d="M11101 5254 c0 -11 3 -14 6 -6 3 7 2 16 -1 19 -3 4 -6 -2 -5 -13z"/>
<path d="M1871 5244 c0 -11 3 -14 6 -6 3 7 2 16 -1 19 -3 4 -6 -2 -5 -13z"/>
<path d="M9048 5253 c6 -2 18 -2 25 0 6 3 1 5 -13 5 -14 0 -19 -2 -12 -5z"/>
<path d="M9158 5235 c-23 -31 -23 -35 5 -34 18 1 18 2 4 6 -18 5 -18 6 -1 24
9 10 15 21 13 23 -2 2 -12 -6 -21 -19z"/>
<path d="M9332 5229 l-24 -29 29 1 c18 1 22 3 10 6 -18 5 -18 6 -1 24 9 10 15
21 13 23 -2 2 -14 -10 -27 -25z"/>
<path d="M10870 5247 c0 -9 4 -18 9 -21 5 -4 8 1 7 9 -3 21 -16 31 -16 12z"/>
<path d="M1668 5243 c7 -3 16 -2 19 1 4 3 -2 6 -13 5 -11 0 -14 -3 -6 -6z"/>
<path d="M2042 5234 c-7 -8 -8 -14 -3 -14 10 0 25 19 20 25 -2 1 -10 -3 -17
-11z"/>
<path d="M5700 5241 c0 -10 19 -25 25 -20 1 2 -3 10 -11 17 -8 7 -14 8 -14 3z"/>
<path d="M9205 5237 c3 -10 5 -23 5 -28 0 -5 10 -8 23 -8 14 1 16 3 6 6 -9 2
-22 14 -28 26 -7 14 -10 15 -6 4z"/>
<path d="M10990 5242 c0 -6 -8 -13 -17 -15 -16 -4 -16 -5 -1 -6 18 -1 34 16
24 26 -3 4 -6 1 -6 -5z"/>
<path d="M5645 5230 c-3 -5 -1 -10 4 -10 6 0 11 5 11 10 0 6 -2 10 -4 10 -3 0
-8 -4 -11 -10z"/>
<path d="M9001 5224 c0 -11 3 -14 6 -6 3 7 2 16 -1 19 -3 4 -6 -2 -5 -13z"/>
<path d="M9034 5224 c3 -9 6 -18 6 -20 0 -2 10 -4 23 -3 21 0 21 1 -3 11 l-25
11 30 7 30 8 -34 1 c-26 1 -32 -2 -27 -15z"/>
<path d="M287 5213 c-3 -5 6 -9 19 -9 13 -1 21 2 18 7 -6 11 -31 12 -37 2z"/>
<path d="M555 5189 c-4 -6 -4 -13 -1 -16 3 -4 6 -1 6 6 0 7 5 9 12 5 7 -4 8
-3 4 4 -9 15 -13 15 -21 1z"/>
<path d="M1318 5173 c7 -3 16 -2 19 1 4 3 -2 6 -13 5 -11 0 -14 -3 -6 -6z"/>
<path d="M270 4968 c0 -5 17 -8 37 -8 20 0 33 3 30 7 -10 9 -67 10 -67 1z"/>
<path d="M525 4940 c-3 -5 1 -10 9 -10 9 0 16 5 16 10 0 6 -4 10 -9 10 -6 0
-13 -4 -16 -10z"/>
<path d="M700 4940 c0 -5 5 -10 10 -10 6 0 10 5 10 10 0 6 -4 10 -10 10 -5 0
-10 -4 -10 -10z"/>
<path d="M458 4933 c7 -3 16 -2 19 1 4 3 -2 6 -13 5 -11 0 -14 -3 -6 -6z"/>
<path d="M638 4933 c7 -3 16 -2 19 1 4 3 -2 6 -13 5 -11 0 -14 -3 -6 -6z"/>
<path d="M290 4700 c0 -5 5 -10 10 -10 6 0 10 5 10 10 0 6 -4 10 -10 10 -5 0
-10 -4 -10 -10z"/>
<path d="M283 4653 c9 -2 23 -2 30 0 6 3 -1 5 -18 5 -16 0 -22 -2 -12 -5z"/>
<path d="M260 4462 c0 -5 7 -9 15 -9 8 0 15 4 15 9 0 4 -7 8 -15 8 -8 0 -15
-4 -15 -8z"/>
<path d="M300 4460 c0 -13 11 -13 30 0 12 8 11 10 -7 10 -13 0 -23 -4 -23 -10z"/>
<path d="M328 4213 c-2 -5 -1 -24 3 -43 l6 -35 2 43 c1 39 -3 52 -11 35z"/>
<path d="M292 4165 c0 -16 2 -22 5 -12 2 9 2 23 0 30 -3 6 -5 -1 -5 -18z"/>
<path d="M255 4150 c3 -5 8 -10 11 -10 2 0 4 5 4 10 0 6 -5 10 -11 10 -5 0 -7
-4 -4 -10z"/>
<path d="M728 3673 c7 -3 16 -2 19 1 4 3 -2 6 -13 5 -11 0 -14 -3 -6 -6z"/>
<path d="M557 3419 c4 -13 8 -18 11 -10 2 7 -1 18 -6 23 -8 8 -9 4 -5 -13z"/>
<path d="M700 3180 c-13 -8 -12 -10 3 -10 9 0 17 5 17 10 0 12 -1 12 -20 0z"/>
<path d="M805 3180 c-3 -5 1 -10 10 -10 9 0 13 5 10 10 -3 6 -8 10 -10 10 -2
0 -7 -4 -10 -10z"/>
<path d="M2558 3113 c7 -3 16 -2 19 1 4 3 -2 6 -13 5 -11 0 -14 -3 -6 -6z"/>
<path d="M690 2930 c0 -5 5 -10 11 -10 5 0 7 5 4 10 -3 6 -8 10 -11 10 -2 0
-4 -4 -4 -10z"/>
<path d="M720 2923 c0 -10 4 -14 8 -8 4 6 11 13 16 18 5 4 2 7 -7 7 -10 0 -17
-8 -17 -17z"/>
<path d="M910 2929 c0 -5 5 -7 10 -4 6 3 10 8 10 11 0 2 -4 4 -10 4 -5 0 -10
-5 -10 -11z"/>
<path d="M950 2929 c0 -5 5 -7 10 -4 6 3 10 8 10 11 0 2 -4 4 -10 4 -5 0 -10
-5 -10 -11z"/>
<path d="M1060 2930 c-13 -8 -12 -10 3 -10 9 0 17 5 17 10 0 12 -1 12 -20 0z"/>
<path d="M488 2923 c7 -3 16 -2 19 1 4 3 -2 6 -13 5 -11 0 -14 -3 -6 -6z"/>
<path d="M1018 2923 c7 -3 16 -2 19 1 4 3 -2 6 -13 5 -11 0 -14 -3 -6 -6z"/>
<path d="M688 2903 c7 -3 16 -2 19 1 4 3 -2 6 -13 5 -11 0 -14 -3 -6 -6z"/>
<path d="M1098 2903 c7 -3 16 -2 19 1 4 3 -2 6 -13 5 -11 0 -14 -3 -6 -6z"/>
<path d="M7390 2375 c0 -14 4 -25 9 -25 4 0 6 11 3 25 -2 14 -6 25 -8 25 -2 0
-4 -11 -4 -25z"/>
<path d="M735 2380 c-3 -5 1 -10 9 -10 9 0 16 5 16 10 0 6 -4 10 -9 10 -6 0
-13 -4 -16 -10z"/>
<path d="M800 2379 c0 -5 5 -7 10 -4 6 3 10 8 10 11 0 2 -4 4 -10 4 -5 0 -10
-5 -10 -11z"/>
<path d="M930 2383 c0 -5 5 -15 10 -23 8 -12 10 -11 10 8 0 12 -4 22 -10 22
-5 0 -10 -3 -10 -7z"/>
<path d="M1045 2380 c3 -5 8 -10 11 -10 2 0 4 5 4 10 0 6 -5 10 -11 10 -5 0
-7 -4 -4 -10z"/>
<path d="M2045 2380 c-3 -5 -1 -10 4 -10 6 0 11 5 11 10 0 6 -2 10 -4 10 -3 0
-8 -4 -11 -10z"/>
<path d="M2440 2379 c0 -5 9 -9 20 -9 11 0 20 2 20 4 0 2 -9 6 -20 9 -11 3
-20 1 -20 -4z"/>
<path d="M7280 2380 c0 -6 7 -10 15 -10 8 0 15 2 15 4 0 2 -7 6 -15 10 -8 3
-15 1 -15 -4z"/>
<path d="M7570 2376 c0 -8 -6 -17 -12 -19 -8 -3 -6 -6 5 -6 11 -1 17 6 17 19
0 11 -2 20 -5 20 -3 0 -5 -6 -5 -14z"/>
<path d="M7692 2365 c0 -16 2 -22 5 -12 2 9 2 23 0 30 -3 6 -5 -1 -5 -18z"/>
<path d="M628 2373 c7 -3 16 -2 19 1 4 3 -2 6 -13 5 -11 0 -14 -3 -6 -6z"/>
<path d="M688 2373 c7 -3 16 -2 19 1 4 3 -2 6 -13 5 -11 0 -14 -3 -6 -6z"/>
<path d="M1758 2373 c6 -2 18 -2 25 0 6 3 1 5 -13 5 -14 0 -19 -2 -12 -5z"/>
<path d="M2188 2373 c6 -2 18 -2 25 0 6 3 1 5 -13 5 -14 0 -19 -2 -12 -5z"/>
<path d="M7628 2373 c7 -3 16 -2 19 1 4 3 -2 6 -13 5 -11 0 -14 -3 -6 -6z"/>
<path d="M7710 2371 c0 -10 19 -25 25 -20 1 2 -3 10 -11 17 -8 7 -14 8 -14 3z"/>
<path d="M578 2363 c7 -3 16 -2 19 1 4 3 -2 6 -13 5 -11 0 -14 -3 -6 -6z"/>
<path d="M1660 2360 c-9 -6 -10 -10 -3 -10 6 0 15 5 18 10 8 12 4 12 -15 0z"/>
<path d="M7445 2360 c3 -5 8 -10 11 -10 2 0 4 5 4 10 0 6 -5 10 -11 10 -5 0
-7 -4 -4 -10z"/>
<path d="M1698 2353 c7 -3 16 -2 19 1 4 3 -2 6 -13 5 -11 0 -14 -3 -6 -6z"/>
<path d="M1878 2353 c7 -3 16 -2 19 1 4 3 -2 6 -13 5 -11 0 -14 -3 -6 -6z"/>
<path d="M1978 2353 c7 -3 16 -2 19 1 4 3 -2 6 -13 5 -11 0 -14 -3 -6 -6z"/>
<path d="M2038 2353 c7 -3 16 -2 19 1 4 3 -2 6 -13 5 -11 0 -14 -3 -6 -6z"/>
<path d="M4175 2183 c-134 -16 -288 -73 -392 -144 -164 -112 -308 -318 -352
-504 -34 -145 -28 -333 14 -460 105 -312 342 -522 667 -590 249 -52 540 34
739 217 107 99 221 288 243 405 2 10 10 38 16 63 18 64 16 251 -4 335 -42 179
-122 322 -247 442 -72 69 -93 84 -169 126 -120 66 -220 98 -347 112 -54 6 -62
5 -65 -11 -1 -9 -2 -162 0 -340 l3 -322 34 -6 c43 -8 103 -59 121 -103 62
-147 -84 -305 -230 -249 -107 41 -154 149 -107 251 23 51 71 92 116 101 l35 6
0 339 0 339 -22 -1 c-13 -1 -36 -4 -53 -6z m176 -1345 c17 -26 1 -33 -79 -34
-69 -1 -81 2 -85 17 -3 9 0 22 5 27 14 14 149 6 159 -10z"/>
<path d="M9800 1852 l0 -339 40 -12 c85 -25 140 -109 126 -193 -4 -24 -8 -52
-9 -62 -2 -15 61 -63 273 -208 311 -213 276 -204 336 -86 54 107 75 196 81
344 4 102 2 149 -11 207 -60 267 -229 483 -471 602 -101 49 -233 85 -312 85
l-53 0 0 -338z m430 -243 c0 16 42 13 68 -5 25 -17 21 -34 -9 -34 -11 0 -17 5
-14 10 3 6 2 10 -4 10 -5 0 -13 -4 -16 -10 -3 -5 -21 -10 -38 -10 -22 0 -28 3
-18 9 9 6 10 11 2 15 -6 4 -9 12 -5 17 4 6 11 6 20 -2 10 -8 14 -8 14 0z"/>
<path d="M535 2110 c3 -5 8 -10 11 -10 2 0 4 5 4 10 0 6 -5 10 -11 10 -5 0 -7
-4 -4 -10z"/>
<path d="M9164 1917 c-44 -46 -94 -108 -112 -139 -40 -67 -90 -188 -94 -225
-3 -26 -1 -27 102 -49 58 -13 204 -46 325 -73 196 -45 221 -48 230 -34 6 9 20
28 32 42 l22 27 -56 70 c-30 38 -123 156 -206 262 -82 106 -153 195 -157 197
-4 3 -43 -33 -86 -78z m242 -275 c16 -22 9 -32 -22 -32 -14 0 -22 4 -19 10 3
6 2 10 -4 10 -5 0 -12 -6 -14 -12 -4 -10 -8 -9 -16 2 -7 10 -11 11 -11 3 0
-18 -17 -16 -24 3 -9 24 -2 29 50 31 35 1 51 -3 60 -15z"/>
<path d="M333 1870 c0 -25 2 -35 4 -22 2 12 2 32 0 45 -2 12 -4 2 -4 -23z"/>
<path d="M292 1855 c0 -16 2 -22 5 -12 2 9 2 23 0 30 -3 6 -5 -1 -5 -18z"/>
<path d="M250 1840 c0 -5 5 -10 10 -10 6 0 10 5 10 10 0 6 -4 10 -10 10 -5 0
-10 -4 -10 -10z"/>
<path d="M9500 1160 c-9 -6 -10 -10 -3 -10 6 0 15 5 18 10 8 12 4 12 -15 0z"/>
<path d="M9435 1130 c-3 -6 1 -7 9 -4 18 7 21 14 7 14 -6 0 -13 -4 -16 -10z"/>
<path d="M9400 1110 c0 -5 5 -10 10 -10 6 0 10 5 10 10 0 6 -4 10 -10 10 -5 0
-10 -4 -10 -10z"/>
<path d="M9365 1090 c-16 -7 -17 -9 -3 -9 9 -1 20 4 23 9 7 11 7 11 -20 0z"/>
<path d="M9320 1070 c-9 -6 -10 -10 -3 -10 6 0 15 5 18 10 8 12 4 12 -15 0z"/>
<path d="M9702 1040 c0 -14 2 -19 5 -12 2 6 2 18 0 25 -3 6 -5 1 -5 -13z"/>
<path d="M9180 1000 c-9 -6 -10 -10 -3 -10 6 0 15 5 18 10 8 12 4 12 -15 0z"/>
<path d="M9195 980 c-3 -5 -1 -10 4 -10 6 0 11 5 11 10 0 6 -2 10 -4 10 -3 0
-8 -4 -11 -10z"/>
<path d="M9695 960 c2 -14 5 -34 6 -45 0 -11 5 -2 10 19 5 21 7 41 4 44 -3 3
-5 -3 -6 -14 0 -18 -1 -18 -10 1 -8 17 -9 17 -4 -5z"/>
<path d="M9368 933 c7 -3 16 -2 19 1 4 3 -2 6 -13 5 -11 0 -14 -3 -6 -6z"/>
<path d="M9370 910 c0 -5 5 -10 11 -10 5 0 7 5 4 10 -3 6 -8 10 -11 10 -2 0
-4 -4 -4 -10z"/>
<path d="M9097 903 c-4 -3 -7 -11 -7 -17 0 -6 5 -5 12 2 6 6 9 14 7 17 -3 3
-9 2 -12 -2z"/>
<path d="M9408 893 c7 -3 16 -2 19 1 4 3 -2 6 -13 5 -11 0 -14 -3 -6 -6z"/>
<path d="M9490 884 c0 -8 5 -12 10 -9 6 4 8 11 5 16 -9 14 -15 11 -15 -7z"/>
<path d="M9079 853 c12 -18 24 -33 27 -33 9 0 -15 37 -33 51 -12 10 -11 5 6
-18z"/>
<path d="M9302 626 c2 -1 14 -9 28 -18 24 -14 26 -14 26 1 0 11 -10 16 -28 17
-16 1 -27 0 -26 0z"/>
<path d="M9652 600 c0 -14 2 -19 5 -12 2 6 2 18 0 25 -3 6 -5 1 -5 -13z"/>
<path d="M9387 579 c7 -7 15 -10 18 -7 3 3 -2 9 -12 12 -14 6 -15 5 -6 -5z"/>
<path d="M9460 544 c0 -7 52 -25 57 -20 2 2 -10 8 -26 14 -17 6 -31 9 -31 6z"/>
<path d="M9578 503 c7 -3 16 -2 19 1 4 3 -2 6 -13 5 -11 0 -14 -3 -6 -6z"/>
</g>
</svg>
