<svg width="31" height="30" viewBox="0 0 31 30" fill="none" xmlns="http://www.w3.org/2000/svg">
<path d="M7.4071 26.9324C8.18619 28.0453 9.52176 28.8244 11.0799 28.8244H16.6448H19.9837C22.4323 28.8244 24.4356 26.8211 24.4356 24.3726V12.1301" stroke="#111111" stroke-width="2" stroke-miterlimit="10" stroke-linecap="round" stroke-linejoin="round"/>
<path d="M27.2177 24.3727C25.6596 24.3727 24.4353 23.1484 24.4353 21.5903V16.0255C24.4353 14.4674 25.6596 13.2432 27.2177 13.2432C28.7759 13.2432 30.0002 14.4674 30.0002 16.0255V21.5903C30.0002 23.1484 28.7759 24.3727 27.2177 24.3727Z" stroke="#111111" stroke-width="2" stroke-miterlimit="10" stroke-linecap="round" stroke-linejoin="round"/>
<path d="M12.1932 17.6945V24.3722" stroke="#111111" stroke-width="2" stroke-miterlimit="10" stroke-linecap="round" stroke-linejoin="round"/>
<path d="M18.8708 17.6945V24.3722" stroke="#111111" stroke-width="2" stroke-miterlimit="10" stroke-linecap="round" stroke-linejoin="round"/>
<path d="M24.2135 3.78275C22.8779 3.00368 21.765 3.11498 20.652 3.44886C20.3181 3.11498 19.9842 2.78109 19.6503 2.4472C19.6503 2.4472 19.6503 2.4472 19.539 2.4472C19.4277 2.33591 19.2051 2.22461 18.9825 2.11332L18.8712 2.00202C18.7599 1.89073 18.5373 1.77943 18.426 1.77943C18.3147 1.77943 18.3147 1.66814 18.2034 1.66814C18.0921 1.55684 17.8695 1.55684 17.7582 1.44555C17.6469 1.44555 17.6469 1.33425 17.5356 1.33425C17.4243 1.33425 17.2018 1.22296 17.0905 1.22296C16.9792 1.22296 16.9792 1.22296 16.8679 1.11166C16.7566 1.11166 16.534 1.00037 16.4227 1.00037C16.3114 1.00037 16.3114 1.00037 16.2001 1.00037C15.9775 1.00037 15.7549 1.00037 15.421 1.00037C15.0871 1.00037 14.8645 1.00037 14.6419 1.11166C14.5306 1.11166 14.5306 1.11166 14.4193 1.11166C14.1967 1.11166 13.9741 1.22296 13.8628 1.22296C13.7515 1.22296 13.7515 1.22296 13.6402 1.22296C13.0837 1.33425 12.6386 1.55684 12.1934 1.89073C12.1934 1.89073 12.1934 1.89073 12.0821 1.89073C11.1917 2.4472 10.4126 3.11498 9.85611 4.00534C8.85443 3.33757 7.63016 3.00368 6.29459 3.22627C4.29123 3.67145 2.51047 5.34088 2.28787 7.45549C1.95398 9.4588 2.95566 11.3508 4.40253 12.3525V17.3608C4.40253 19.4754 3.62344 21.59 2.06528 23.0368C1.17489 23.8159 0.729704 25.1514 1.17489 26.487C1.62009 27.9338 2.95566 28.7129 4.51382 28.7129H4.62512C6.29459 28.8242 7.74146 27.3773 7.74146 25.7079V14.4671C7.74146 13.7993 8.18665 13.1315 8.85443 12.909C9.85611 12.5751 10.8578 12.6864 11.7482 13.2428C11.9708 13.4654 12.3047 13.5767 12.5273 13.688C12.5273 13.688 12.6386 13.688 12.6386 13.7993C13.195 14.0219 13.7515 14.2445 14.308 14.3558C14.4193 14.3558 14.4193 14.3558 14.5306 14.3558C14.8645 14.3558 15.0871 14.4671 15.421 14.4671C15.6436 14.4671 15.8662 14.4671 16.2001 14.4671C16.3114 14.4671 16.3114 14.4671 16.4227 14.4671C16.534 14.4671 16.7566 14.4671 16.8679 14.3558C16.9792 14.3558 16.9792 14.3558 17.0905 14.2445C17.2018 14.2445 17.4243 14.1332 17.5356 14.1332C17.6469 14.1332 17.6469 14.0219 17.7582 14.0219C17.8695 13.9106 18.0921 13.9106 18.2034 13.7993C18.3147 13.7993 18.3147 13.688 18.426 13.688C18.5373 13.5767 18.7599 13.5767 18.8712 13.4654L18.9825 13.3541C19.2051 13.2428 19.3164 13.1315 19.539 13.0203C19.539 13.0203 19.539 13.0203 19.6503 13.0203C19.9842 12.6864 20.3181 12.3525 20.652 12.0186C21.0972 12.1299 21.6537 12.2412 22.0989 12.2412C24.6587 12.2412 26.6621 10.1266 26.5508 7.56678C26.5508 5.89736 25.5491 4.56181 24.2135 3.78275Z" stroke="#111111" stroke-width="2" stroke-miterlimit="10" stroke-linecap="round" stroke-linejoin="round"/>
</svg>
