<svg width="205" height="155" viewBox="0 0 205 155" fill="none" xmlns="http://www.w3.org/2000/svg">
<circle cx="2.5" cy="2.5" r="2.5" fill="white"/>
<circle cx="12.5" cy="2.5" r="2.5" fill="white"/>
<circle cx="22.5" cy="2.5" r="2.5" fill="white"/>
<circle cx="32.5" cy="2.5" r="2.5" fill="white"/>
<circle cx="42.5" cy="2.5" r="2.5" fill="white"/>
<circle cx="52.5" cy="2.5" r="2.5" fill="white"/>
<circle cx="62.5" cy="2.5" r="2.5" fill="white"/>
<circle cx="72.5" cy="2.5" r="2.5" fill="white"/>
<circle cx="82.5" cy="2.5" r="2.5" fill="white"/>
<circle cx="92.5" cy="2.5" r="2.5" fill="white"/>
<circle cx="102.5" cy="2.5" r="2.5" fill="white"/>
<circle cx="112.5" cy="2.5" r="2.5" fill="white"/>
<circle cx="122.5" cy="2.5" r="2.5" fill="white"/>
<circle cx="132.5" cy="2.5" r="2.5" fill="white"/>
<circle cx="142.5" cy="2.5" r="2.5" fill="white"/>
<circle cx="152.5" cy="2.5" r="2.5" fill="white"/>
<circle cx="162.5" cy="2.5" r="2.5" fill="white"/>
<circle cx="172.5" cy="2.5" r="2.5" fill="white"/>
<circle cx="182.5" cy="2.5" r="2.5" fill="white"/>
<circle cx="192.5" cy="2.5" r="2.5" fill="white"/>
<circle cx="202.5" cy="2.5" r="2.5" fill="white"/>
<circle cx="2.5" cy="12.5" r="2.5" fill="white"/>
<circle cx="12.5" cy="12.5" r="2.5" fill="white"/>
<circle cx="22.5" cy="12.5" r="2.5" fill="white"/>
<circle cx="32.5" cy="12.5" r="2.5" fill="white"/>
<circle cx="42.5" cy="12.5" r="2.5" fill="white"/>
<circle cx="52.5" cy="12.5" r="2.5" fill="white"/>
<circle cx="62.5" cy="12.5" r="2.5" fill="white"/>
<circle cx="72.5" cy="12.5" r="2.5" fill="white"/>
<circle cx="82.5" cy="12.5" r="2.5" fill="white"/>
<circle cx="92.5" cy="12.5" r="2.5" fill="white"/>
<circle cx="102.5" cy="12.5" r="2.5" fill="white"/>
<circle cx="112.5" cy="12.5" r="2.5" fill="white"/>
<circle cx="122.5" cy="12.5" r="2.5" fill="white"/>
<circle cx="132.5" cy="12.5" r="2.5" fill="white"/>
<circle cx="142.5" cy="12.5" r="2.5" fill="white"/>
<circle cx="152.5" cy="12.5" r="2.5" fill="white"/>
<circle cx="162.5" cy="12.5" r="2.5" fill="white"/>
<circle cx="172.5" cy="12.5" r="2.5" fill="white"/>
<circle cx="182.5" cy="12.5" r="2.5" fill="white"/>
<circle cx="192.5" cy="12.5" r="2.5" fill="white"/>
<circle cx="202.5" cy="12.5" r="2.5" fill="white"/>
<circle cx="2.5" cy="22.5" r="2.5" fill="white"/>
<circle cx="12.5" cy="22.5" r="2.5" fill="white"/>
<circle cx="22.5" cy="22.5" r="2.5" fill="white"/>
<circle cx="32.5" cy="22.5" r="2.5" fill="white"/>
<circle cx="42.5" cy="22.5" r="2.5" fill="white"/>
<circle cx="52.5" cy="22.5" r="2.5" fill="white"/>
<circle cx="62.5" cy="22.5" r="2.5" fill="white"/>
<circle cx="72.5" cy="22.5" r="2.5" fill="white"/>
<circle cx="82.5" cy="22.5" r="2.5" fill="white"/>
<circle cx="92.5" cy="22.5" r="2.5" fill="white"/>
<circle cx="102.5" cy="22.5" r="2.5" fill="white"/>
<circle cx="112.5" cy="22.5" r="2.5" fill="white"/>
<circle cx="122.5" cy="22.5" r="2.5" fill="white"/>
<circle cx="132.5" cy="22.5" r="2.5" fill="white"/>
<circle cx="142.5" cy="22.5" r="2.5" fill="white"/>
<circle cx="152.5" cy="22.5" r="2.5" fill="white"/>
<circle cx="162.5" cy="22.5" r="2.5" fill="white"/>
<circle cx="172.5" cy="22.5" r="2.5" fill="white"/>
<circle cx="182.5" cy="22.5" r="2.5" fill="white"/>
<circle cx="192.5" cy="22.5" r="2.5" fill="white"/>
<circle cx="202.5" cy="22.5" r="2.5" fill="white"/>
<circle cx="2.5" cy="32.5" r="2.5" fill="white"/>
<circle cx="12.5" cy="32.5" r="2.5" fill="white"/>
<circle cx="22.5" cy="32.5" r="2.5" fill="white"/>
<circle cx="32.5" cy="32.5" r="2.5" fill="white"/>
<circle cx="42.5" cy="32.5" r="2.5" fill="white"/>
<circle cx="52.5" cy="32.5" r="2.5" fill="white"/>
<circle cx="62.5" cy="32.5" r="2.5" fill="white"/>
<circle cx="72.5" cy="32.5" r="2.5" fill="white"/>
<circle cx="82.5" cy="32.5" r="2.5" fill="white"/>
<circle cx="92.5" cy="32.5" r="2.5" fill="white"/>
<circle cx="102.5" cy="32.5" r="2.5" fill="white"/>
<circle cx="112.5" cy="32.5" r="2.5" fill="white"/>
<circle cx="122.5" cy="32.5" r="2.5" fill="white"/>
<circle cx="132.5" cy="32.5" r="2.5" fill="white"/>
<circle cx="142.5" cy="32.5" r="2.5" fill="white"/>
<circle cx="152.5" cy="32.5" r="2.5" fill="white"/>
<circle cx="162.5" cy="32.5" r="2.5" fill="white"/>
<circle cx="172.5" cy="32.5" r="2.5" fill="white"/>
<circle cx="182.5" cy="32.5" r="2.5" fill="white"/>
<circle cx="192.5" cy="32.5" r="2.5" fill="white"/>
<circle cx="202.5" cy="32.5" r="2.5" fill="white"/>
<circle cx="2.5" cy="42.5" r="2.5" fill="white"/>
<circle cx="12.5" cy="42.5" r="2.5" fill="white"/>
<circle cx="22.5" cy="42.5" r="2.5" fill="white"/>
<circle cx="32.5" cy="42.5" r="2.5" fill="white"/>
<circle cx="42.5" cy="42.5" r="2.5" fill="white"/>
<circle cx="52.5" cy="42.5" r="2.5" fill="white"/>
<circle cx="62.5" cy="42.5" r="2.5" fill="white"/>
<circle cx="72.5" cy="42.5" r="2.5" fill="white"/>
<circle cx="82.5" cy="42.5" r="2.5" fill="white"/>
<circle cx="92.5" cy="42.5" r="2.5" fill="white"/>
<circle cx="102.5" cy="42.5" r="2.5" fill="white"/>
<circle cx="112.5" cy="42.5" r="2.5" fill="white"/>
<circle cx="122.5" cy="42.5" r="2.5" fill="white"/>
<circle cx="132.5" cy="42.5" r="2.5" fill="white"/>
<circle cx="142.5" cy="42.5" r="2.5" fill="white"/>
<circle cx="152.5" cy="42.5" r="2.5" fill="white"/>
<circle cx="162.5" cy="42.5" r="2.5" fill="white"/>
<circle cx="172.5" cy="42.5" r="2.5" fill="white"/>
<circle cx="182.5" cy="42.5" r="2.5" fill="white"/>
<circle cx="192.5" cy="42.5" r="2.5" fill="white"/>
<circle cx="202.5" cy="42.5" r="2.5" fill="white"/>
<circle cx="2.5" cy="52.5" r="2.5" fill="white"/>
<circle cx="12.5" cy="52.5" r="2.5" fill="white"/>
<circle cx="22.5" cy="52.5" r="2.5" fill="white"/>
<circle cx="32.5" cy="52.5" r="2.5" fill="white"/>
<circle cx="42.5" cy="52.5" r="2.5" fill="white"/>
<circle cx="52.5" cy="52.5" r="2.5" fill="white"/>
<circle cx="62.5" cy="52.5" r="2.5" fill="white"/>
<circle cx="72.5" cy="52.5" r="2.5" fill="white"/>
<circle cx="82.5" cy="52.5" r="2.5" fill="white"/>
<circle cx="92.5" cy="52.5" r="2.5" fill="white"/>
<circle cx="102.5" cy="52.5" r="2.5" fill="white"/>
<circle cx="112.5" cy="52.5" r="2.5" fill="white"/>
<circle cx="122.5" cy="52.5" r="2.5" fill="white"/>
<circle cx="132.5" cy="52.5" r="2.5" fill="white"/>
<circle cx="142.5" cy="52.5" r="2.5" fill="white"/>
<circle cx="152.5" cy="52.5" r="2.5" fill="white"/>
<circle cx="162.5" cy="52.5" r="2.5" fill="white"/>
<circle cx="172.5" cy="52.5" r="2.5" fill="white"/>
<circle cx="182.5" cy="52.5" r="2.5" fill="white"/>
<circle cx="192.5" cy="52.5" r="2.5" fill="white"/>
<circle cx="202.5" cy="52.5" r="2.5" fill="white"/>
<circle cx="2.5" cy="62.5" r="2.5" fill="white"/>
<circle cx="12.5" cy="62.5" r="2.5" fill="white"/>
<circle cx="22.5" cy="62.5" r="2.5" fill="white"/>
<circle cx="32.5" cy="62.5" r="2.5" fill="white"/>
<circle cx="42.5" cy="62.5" r="2.5" fill="white"/>
<circle cx="52.5" cy="62.5" r="2.5" fill="white"/>
<circle cx="62.5" cy="62.5" r="2.5" fill="white"/>
<circle cx="72.5" cy="62.5" r="2.5" fill="white"/>
<circle cx="82.5" cy="62.5" r="2.5" fill="white"/>
<circle cx="92.5" cy="62.5" r="2.5" fill="white"/>
<circle cx="102.5" cy="62.5" r="2.5" fill="white"/>
<circle cx="112.5" cy="62.5" r="2.5" fill="white"/>
<circle cx="122.5" cy="62.5" r="2.5" fill="white"/>
<circle cx="132.5" cy="62.5" r="2.5" fill="white"/>
<circle cx="142.5" cy="62.5" r="2.5" fill="white"/>
<circle cx="152.5" cy="62.5" r="2.5" fill="white"/>
<circle cx="162.5" cy="62.5" r="2.5" fill="white"/>
<circle cx="172.5" cy="62.5" r="2.5" fill="white"/>
<circle cx="182.5" cy="62.5" r="2.5" fill="white"/>
<circle cx="192.5" cy="62.5" r="2.5" fill="white"/>
<circle cx="202.5" cy="62.5" r="2.5" fill="white"/>
<circle cx="2.5" cy="72.5" r="2.5" fill="white"/>
<circle cx="12.5" cy="72.5" r="2.5" fill="white"/>
<circle cx="22.5" cy="72.5" r="2.5" fill="white"/>
<circle cx="32.5" cy="72.5" r="2.5" fill="white"/>
<circle cx="42.5" cy="72.5" r="2.5" fill="white"/>
<circle cx="52.5" cy="72.5" r="2.5" fill="white"/>
<circle cx="62.5" cy="72.5" r="2.5" fill="white"/>
<circle cx="72.5" cy="72.5" r="2.5" fill="white"/>
<circle cx="82.5" cy="72.5" r="2.5" fill="white"/>
<circle cx="92.5" cy="72.5" r="2.5" fill="white"/>
<circle cx="102.5" cy="72.5" r="2.5" fill="white"/>
<circle cx="112.5" cy="72.5" r="2.5" fill="white"/>
<circle cx="122.5" cy="72.5" r="2.5" fill="white"/>
<circle cx="132.5" cy="72.5" r="2.5" fill="white"/>
<circle cx="142.5" cy="72.5" r="2.5" fill="white"/>
<circle cx="152.5" cy="72.5" r="2.5" fill="white"/>
<circle cx="162.5" cy="72.5" r="2.5" fill="white"/>
<circle cx="172.5" cy="72.5" r="2.5" fill="white"/>
<circle cx="182.5" cy="72.5" r="2.5" fill="white"/>
<circle cx="192.5" cy="72.5" r="2.5" fill="white"/>
<circle cx="202.5" cy="72.5" r="2.5" fill="white"/>
<circle cx="2.5" cy="82.5" r="2.5" fill="white"/>
<circle cx="12.5" cy="82.5" r="2.5" fill="white"/>
<circle cx="22.5" cy="82.5" r="2.5" fill="white"/>
<circle cx="32.5" cy="82.5" r="2.5" fill="white"/>
<circle cx="42.5" cy="82.5" r="2.5" fill="white"/>
<circle cx="52.5" cy="82.5" r="2.5" fill="white"/>
<circle cx="62.5" cy="82.5" r="2.5" fill="white"/>
<circle cx="72.5" cy="82.5" r="2.5" fill="white"/>
<circle cx="82.5" cy="82.5" r="2.5" fill="white"/>
<circle cx="92.5" cy="82.5" r="2.5" fill="white"/>
<circle cx="102.5" cy="82.5" r="2.5" fill="white"/>
<circle cx="112.5" cy="82.5" r="2.5" fill="white"/>
<circle cx="122.5" cy="82.5" r="2.5" fill="white"/>
<circle cx="132.5" cy="82.5" r="2.5" fill="white"/>
<circle cx="142.5" cy="82.5" r="2.5" fill="white"/>
<circle cx="152.5" cy="82.5" r="2.5" fill="white"/>
<circle cx="162.5" cy="82.5" r="2.5" fill="white"/>
<circle cx="172.5" cy="82.5" r="2.5" fill="white"/>
<circle cx="182.5" cy="82.5" r="2.5" fill="white"/>
<circle cx="192.5" cy="82.5" r="2.5" fill="white"/>
<circle cx="202.5" cy="82.5" r="2.5" fill="white"/>
<circle cx="2.5" cy="92.5" r="2.5" fill="white"/>
<circle cx="12.5" cy="92.5" r="2.5" fill="white"/>
<circle cx="22.5" cy="92.5" r="2.5" fill="white"/>
<circle cx="32.5" cy="92.5" r="2.5" fill="white"/>
<circle cx="42.5" cy="92.5" r="2.5" fill="white"/>
<circle cx="52.5" cy="92.5" r="2.5" fill="white"/>
<circle cx="62.5" cy="92.5" r="2.5" fill="white"/>
<circle cx="72.5" cy="92.5" r="2.5" fill="white"/>
<circle cx="82.5" cy="92.5" r="2.5" fill="white"/>
<circle cx="92.5" cy="92.5" r="2.5" fill="white"/>
<circle cx="102.5" cy="92.5" r="2.5" fill="white"/>
<circle cx="112.5" cy="92.5" r="2.5" fill="white"/>
<circle cx="122.5" cy="92.5" r="2.5" fill="white"/>
<circle cx="132.5" cy="92.5" r="2.5" fill="white"/>
<circle cx="142.5" cy="92.5" r="2.5" fill="white"/>
<circle cx="152.5" cy="92.5" r="2.5" fill="white"/>
<circle cx="162.5" cy="92.5" r="2.5" fill="white"/>
<circle cx="172.5" cy="92.5" r="2.5" fill="white"/>
<circle cx="182.5" cy="92.5" r="2.5" fill="white"/>
<circle cx="192.5" cy="92.5" r="2.5" fill="white"/>
<circle cx="202.5" cy="92.5" r="2.5" fill="white"/>
<circle cx="2.5" cy="102.5" r="2.5" fill="white"/>
<circle cx="12.5" cy="102.5" r="2.5" fill="white"/>
<circle cx="22.5" cy="102.5" r="2.5" fill="white"/>
<circle cx="32.5" cy="102.5" r="2.5" fill="white"/>
<circle cx="42.5" cy="102.5" r="2.5" fill="white"/>
<circle cx="52.5" cy="102.5" r="2.5" fill="white"/>
<circle cx="62.5" cy="102.5" r="2.5" fill="white"/>
<circle cx="72.5" cy="102.5" r="2.5" fill="white"/>
<circle cx="82.5" cy="102.5" r="2.5" fill="white"/>
<circle cx="92.5" cy="102.5" r="2.5" fill="white"/>
<circle cx="102.5" cy="102.5" r="2.5" fill="white"/>
<circle cx="112.5" cy="102.5" r="2.5" fill="white"/>
<circle cx="122.5" cy="102.5" r="2.5" fill="white"/>
<circle cx="132.5" cy="102.5" r="2.5" fill="white"/>
<circle cx="142.5" cy="102.5" r="2.5" fill="white"/>
<circle cx="152.5" cy="102.5" r="2.5" fill="white"/>
<circle cx="162.5" cy="102.5" r="2.5" fill="white"/>
<circle cx="172.5" cy="102.5" r="2.5" fill="white"/>
<circle cx="182.5" cy="102.5" r="2.5" fill="white"/>
<circle cx="192.5" cy="102.5" r="2.5" fill="white"/>
<circle cx="202.5" cy="102.5" r="2.5" fill="white"/>
<circle cx="2.5" cy="112.5" r="2.5" fill="white"/>
<circle cx="12.5" cy="112.5" r="2.5" fill="white"/>
<circle cx="22.5" cy="112.5" r="2.5" fill="white"/>
<circle cx="32.5" cy="112.5" r="2.5" fill="white"/>
<circle cx="42.5" cy="112.5" r="2.5" fill="white"/>
<circle cx="52.5" cy="112.5" r="2.5" fill="white"/>
<circle cx="62.5" cy="112.5" r="2.5" fill="white"/>
<circle cx="72.5" cy="112.5" r="2.5" fill="white"/>
<circle cx="82.5" cy="112.5" r="2.5" fill="white"/>
<circle cx="92.5" cy="112.5" r="2.5" fill="white"/>
<circle cx="102.5" cy="112.5" r="2.5" fill="white"/>
<circle cx="112.5" cy="112.5" r="2.5" fill="white"/>
<circle cx="122.5" cy="112.5" r="2.5" fill="white"/>
<circle cx="132.5" cy="112.5" r="2.5" fill="white"/>
<circle cx="142.5" cy="112.5" r="2.5" fill="white"/>
<circle cx="152.5" cy="112.5" r="2.5" fill="white"/>
<circle cx="162.5" cy="112.5" r="2.5" fill="white"/>
<circle cx="172.5" cy="112.5" r="2.5" fill="white"/>
<circle cx="182.5" cy="112.5" r="2.5" fill="white"/>
<circle cx="192.5" cy="112.5" r="2.5" fill="white"/>
<circle cx="202.5" cy="112.5" r="2.5" fill="white"/>
<circle cx="2.5" cy="122.5" r="2.5" fill="white"/>
<circle cx="12.5" cy="122.5" r="2.5" fill="white"/>
<circle cx="22.5" cy="122.5" r="2.5" fill="white"/>
<circle cx="32.5" cy="122.5" r="2.5" fill="white"/>
<circle cx="42.5" cy="122.5" r="2.5" fill="white"/>
<circle cx="52.5" cy="122.5" r="2.5" fill="white"/>
<circle cx="62.5" cy="122.5" r="2.5" fill="white"/>
<circle cx="72.5" cy="122.5" r="2.5" fill="white"/>
<circle cx="82.5" cy="122.5" r="2.5" fill="white"/>
<circle cx="92.5" cy="122.5" r="2.5" fill="white"/>
<circle cx="102.5" cy="122.5" r="2.5" fill="white"/>
<circle cx="112.5" cy="122.5" r="2.5" fill="white"/>
<circle cx="122.5" cy="122.5" r="2.5" fill="white"/>
<circle cx="132.5" cy="122.5" r="2.5" fill="white"/>
<circle cx="142.5" cy="122.5" r="2.5" fill="white"/>
<circle cx="152.5" cy="122.5" r="2.5" fill="white"/>
<circle cx="162.5" cy="122.5" r="2.5" fill="white"/>
<circle cx="172.5" cy="122.5" r="2.5" fill="white"/>
<circle cx="182.5" cy="122.5" r="2.5" fill="white"/>
<circle cx="192.5" cy="122.5" r="2.5" fill="white"/>
<circle cx="202.5" cy="122.5" r="2.5" fill="white"/>
<circle cx="2.5" cy="132.5" r="2.5" fill="white"/>
<circle cx="12.5" cy="132.5" r="2.5" fill="white"/>
<circle cx="22.5" cy="132.5" r="2.5" fill="white"/>
<circle cx="32.5" cy="132.5" r="2.5" fill="white"/>
<circle cx="42.5" cy="132.5" r="2.5" fill="white"/>
<circle cx="52.5" cy="132.5" r="2.5" fill="white"/>
<circle cx="62.5" cy="132.5" r="2.5" fill="white"/>
<circle cx="72.5" cy="132.5" r="2.5" fill="white"/>
<circle cx="82.5" cy="132.5" r="2.5" fill="white"/>
<circle cx="92.5" cy="132.5" r="2.5" fill="white"/>
<circle cx="102.5" cy="132.5" r="2.5" fill="white"/>
<circle cx="112.5" cy="132.5" r="2.5" fill="white"/>
<circle cx="122.5" cy="132.5" r="2.5" fill="white"/>
<circle cx="132.5" cy="132.5" r="2.5" fill="white"/>
<circle cx="142.5" cy="132.5" r="2.5" fill="white"/>
<circle cx="152.5" cy="132.5" r="2.5" fill="white"/>
<circle cx="162.5" cy="132.5" r="2.5" fill="white"/>
<circle cx="172.5" cy="132.5" r="2.5" fill="white"/>
<circle cx="182.5" cy="132.5" r="2.5" fill="white"/>
<circle cx="192.5" cy="132.5" r="2.5" fill="white"/>
<circle cx="202.5" cy="132.5" r="2.5" fill="white"/>
<circle cx="2.5" cy="142.5" r="2.5" fill="white"/>
<circle cx="12.5" cy="142.5" r="2.5" fill="white"/>
<circle cx="22.5" cy="142.5" r="2.5" fill="white"/>
<circle cx="32.5" cy="142.5" r="2.5" fill="white"/>
<circle cx="42.5" cy="142.5" r="2.5" fill="white"/>
<circle cx="52.5" cy="142.5" r="2.5" fill="white"/>
<circle cx="62.5" cy="142.5" r="2.5" fill="white"/>
<circle cx="72.5" cy="142.5" r="2.5" fill="white"/>
<circle cx="82.5" cy="142.5" r="2.5" fill="white"/>
<circle cx="92.5" cy="142.5" r="2.5" fill="white"/>
<circle cx="102.5" cy="142.5" r="2.5" fill="white"/>
<circle cx="112.5" cy="142.5" r="2.5" fill="white"/>
<circle cx="122.5" cy="142.5" r="2.5" fill="white"/>
<circle cx="132.5" cy="142.5" r="2.5" fill="white"/>
<circle cx="142.5" cy="142.5" r="2.5" fill="white"/>
<circle cx="152.5" cy="142.5" r="2.5" fill="white"/>
<circle cx="162.5" cy="142.5" r="2.5" fill="white"/>
<circle cx="172.5" cy="142.5" r="2.5" fill="white"/>
<circle cx="182.5" cy="142.5" r="2.5" fill="white"/>
<circle cx="192.5" cy="142.5" r="2.5" fill="white"/>
<circle cx="202.5" cy="142.5" r="2.5" fill="white"/>
<circle cx="2.5" cy="152.5" r="2.5" fill="white"/>
<circle cx="12.5" cy="152.5" r="2.5" fill="white"/>
<circle cx="22.5" cy="152.5" r="2.5" fill="white"/>
<circle cx="32.5" cy="152.5" r="2.5" fill="white"/>
<circle cx="42.5" cy="152.5" r="2.5" fill="white"/>
<circle cx="52.5" cy="152.5" r="2.5" fill="white"/>
<circle cx="62.5" cy="152.5" r="2.5" fill="white"/>
<circle cx="72.5" cy="152.5" r="2.5" fill="white"/>
<circle cx="82.5" cy="152.5" r="2.5" fill="white"/>
<circle cx="92.5" cy="152.5" r="2.5" fill="white"/>
<circle cx="102.5" cy="152.5" r="2.5" fill="white"/>
<circle cx="112.5" cy="152.5" r="2.5" fill="white"/>
<circle cx="122.5" cy="152.5" r="2.5" fill="white"/>
<circle cx="132.5" cy="152.5" r="2.5" fill="white"/>
<circle cx="142.5" cy="152.5" r="2.5" fill="white"/>
<circle cx="152.5" cy="152.5" r="2.5" fill="white"/>
<circle cx="162.5" cy="152.5" r="2.5" fill="white"/>
<circle cx="172.5" cy="152.5" r="2.5" fill="white"/>
<circle cx="182.5" cy="152.5" r="2.5" fill="white"/>
<circle cx="192.5" cy="152.5" r="2.5" fill="white"/>
<circle cx="202.5" cy="152.5" r="2.5" fill="white"/>
</svg>
