<svg width="17" height="19" viewBox="0 0 17 19" fill="none" xmlns="http://www.w3.org/2000/svg">
<path d="M5.68777 9.52128L7.56277 11.4293L11.3128 7.61324M16.0003 9.52128C16.0003 13.7772 10.8815 16.8612 9.10159 17.805C8.90912 17.9071 8.81284 17.9581 8.67934 17.9845C8.57527 18.0052 8.42527 18.0052 8.32121 17.9845C8.18771 17.9581 8.09143 17.9071 7.89896 17.805C6.11899 16.8612 1.00027 13.7772 1.00027 9.52128V5.9128C1.00027 5.15005 1.00027 4.76868 1.12286 4.44085C1.23115 4.15124 1.40713 3.89284 1.63558 3.68796C1.89418 3.45605 2.24509 3.32215 2.9469 3.05433L7.97359 1.13611C8.16849 1.06174 8.2659 1.02455 8.36621 1.0098C8.45509 0.996732 8.54546 0.996732 8.63434 1.0098C8.73465 1.02455 8.83206 1.06174 9.02696 1.13611L14.0536 3.05433C14.7555 3.32215 15.1064 3.45605 15.3649 3.68796C15.5934 3.89284 15.7694 4.15124 15.8776 4.44085C16.0003 4.76868 16.0003 5.15005 16.0003 5.9128V9.52128Z" stroke="white" stroke-width="2" stroke-linecap="round" stroke-linejoin="round"/>
</svg>
