<svg width="79" height="75" viewBox="0 0 79 75" fill="none" xmlns="http://www.w3.org/2000/svg">
<g filter="url(#filter0_i_19_123)">
<rect width="78.3457" height="75" rx="37.5" fill="#D9D9D9" fill-opacity="0.15"/>
<path d="M20.6729 48.5C18.1979 48.5 18.1729 48.525 18.1729 51L18.1729 55.5C18.1729 57.975 18.1979 58.5 20.6729 58.5H25.1729C27.6479 58.5 28.1729 57.975 28.1729 55.5V51C28.1729 48.525 27.6479 48.5 25.1729 48.5H20.6729ZM25.1729 55.5H21.1729V53.5V51H25.1729V55.5Z" fill="#1FB6B2"/>
<path d="M36.4229 36.5C33.9479 36.5 33.1729 37.275 33.1729 39.75V55.5C33.1729 57.975 33.9479 58.5 36.4229 58.5H40.9229C43.3979 58.5 44.1729 57.975 44.1729 55.5V39.75C44.1729 37.275 43.3979 36.5 40.9229 36.5L36.4229 36.5ZM41.1729 55.5H36.1729V39.5H41.1729V55.5Z" fill="#1FB6B2"/>
<path d="M60.1729 19.5C60.1729 17.025 59.1479 16.5 56.6729 16.5H52.1729C49.6979 16.5 49.1729 17.025 49.1729 19.5V55.5C49.1729 57.975 49.6979 58 52.1729 58H56.6729C59.1479 58 60.1729 57.975 60.1729 55.5V19.5ZM57.1729 55H52.1729V19.5H57.1729V55Z" fill="#1FB6B2"/>
</g>
<defs>
<filter id="filter0_i_19_123" x="0" y="-3" width="78.3457" height="78" filterUnits="userSpaceOnUse" color-interpolation-filters="sRGB">
<feFlood flood-opacity="0" result="BackgroundImageFix"/>
<feBlend mode="normal" in="SourceGraphic" in2="BackgroundImageFix" result="shape"/>
<feColorMatrix in="SourceAlpha" type="matrix" values="0 0 0 0 0 0 0 0 0 0 0 0 0 0 0 0 0 0 127 0" result="hardAlpha"/>
<feOffset dy="-3"/>
<feGaussianBlur stdDeviation="2"/>
<feComposite in2="hardAlpha" operator="arithmetic" k2="-1" k3="1"/>
<feColorMatrix type="matrix" values="0 0 0 0 0 0 0 0 0 0 0 0 0 0 0 0 0 0 0.25 0"/>
<feBlend mode="normal" in2="shape" result="effect1_innerShadow_19_123"/>
</filter>
</defs>
</svg>
