<svg width="23" height="15" viewBox="0 0 23 15" fill="none" xmlns="http://www.w3.org/2000/svg">
<path d="M14.7857 0V1.66667H20.1956L13.1429 8.82158L9.61646 5.24417C9.54022 5.16675 9.44969 5.10534 9.35004 5.06344C9.25039 5.02154 9.14358 4.99997 9.03571 4.99997C8.92785 4.99997 8.82103 5.02154 8.72139 5.06344C8.62174 5.10534 8.53121 5.16675 8.45496 5.24417L0 13.8216L1.16158 15L9.03571 7.01175L12.5621 10.5892C12.6383 10.6666 12.7289 10.728 12.8285 10.7699C12.9282 10.8118 13.035 10.8334 13.1429 10.8334C13.2507 10.8334 13.3575 10.8118 13.4572 10.7699C13.5568 10.728 13.6474 10.6666 13.7236 10.5892L21.3571 2.84508V8.33333H23V0H14.7857Z" fill="white"/>
</svg>
