<svg width="24" height="29" viewBox="0 0 24 29" fill="none" xmlns="http://www.w3.org/2000/svg">
<path d="M7.28284 8.70947C6.96943 9.37439 6.72065 10.1562 6.62561 11.0474H6.10608C6.26217 10.1498 6.68143 9.34288 7.28284 8.70947Z" fill="#EAEAEA" stroke="#111111" stroke-width="1.5625"/>
<path d="M21.25 23.2168L18.9932 27.4092L16.5947 26.083L16.9189 25.4824L18.5605 22.4316L18.6436 22.2773L18.8516 21.8906L21.25 23.2168Z" fill="#EAEAEA" stroke="#111111" stroke-width="1.5625"/>
<path d="M11.8801 0.78125C12.2021 0.78125 12.4639 1.0423 12.4641 1.36426C12.4641 1.68591 12.2024 1.94824 11.8801 1.94824C11.558 1.94802 11.2971 1.68577 11.2971 1.36426C11.2973 1.04246 11.5583 0.781473 11.8801 0.78125Z" fill="#EAEAEA" stroke="#111111" stroke-width="1.5625"/>
<path d="M21.2705 13.8114L21.2725 13.8466H22.333C22.6891 13.8466 22.9804 14.1379 22.9805 14.494C22.9802 14.85 22.689 15.1405 22.333 15.1405H1.42871C1.07257 15.1405 0.7815 14.8499 0.78125 14.494C0.78125 14.138 1.07246 13.8466 1.42871 13.8466H2.49023L2.49219 13.8114H21.2705Z" fill="#EAEAEA" stroke="#111111" stroke-width="1.5625"/>
</svg>
