<svg width="30" height="30" viewBox="0 0 30 30" fill="none" xmlns="http://www.w3.org/2000/svg">
<path d="M5 17.5H27.5" stroke="white" stroke-width="1.5" stroke-linecap="round" stroke-linejoin="round"/>
<path d="M6.25 27.5L7.4132 26.3368C8.07416 25.6759 8.40464 25.3454 8.82105 25.1575C9.23746 24.9695 9.70392 24.9404 10.6368 24.8821L14.7024 24.628C16.7005 24.5031 17.6996 24.4406 18.5787 24.0185C19.458 23.5962 20.1314 22.8555 21.478 21.3741L25 17.5H20.625L18.3839 19.7411C18.2349 19.8901 18.1602 19.9648 18.0827 20.0305C17.684 20.3693 17.189 20.5743 16.6676 20.6168C16.5661 20.625 16.4607 20.625 16.25 20.625M16.25 20.625C16.25 20.0441 16.25 19.7538 16.202 19.5123C16.0048 18.5205 15.2295 17.7452 14.2377 17.548C13.9962 17.5 13.7059 17.5 13.125 17.5H12.1481C10.8418 17.5 10.1887 17.5 9.57619 17.6575C9.11999 17.7748 8.68265 17.9559 8.27714 18.1955C7.73271 18.5173 7.27086 18.9791 6.34718 19.9029L2.5 23.75M16.25 20.625H11.875" stroke="white" stroke-width="1.5" stroke-linecap="round" stroke-linejoin="round"/>
<path d="M6.25 14.375C6.25 8.85214 10.7271 4.375 16.25 4.375M16.25 4.375C21.7729 4.375 26.25 8.85214 26.25 14.375M16.25 4.375V2.5" stroke="white" stroke-width="1.5" stroke-linecap="round" stroke-linejoin="round"/>
</svg>
