<svg width="60" height="56" viewBox="0 0 60 56" fill="none" xmlns="http://www.w3.org/2000/svg">
<path d="M11 23.3235H13.375C15.5611 23.3235 17.3333 25.0682 17.3333 27.2206V38.1324C17.3333 40.2848 15.5611 42.0294 13.375 42.0294H11C5.75331 42.0294 1.5 37.8421 1.5 32.6765C1.5 27.5108 5.75331 23.3235 11 23.3235ZM11 23.3235V20.2059C11 9.8749 19.5066 1.5 30 1.5C40.4934 1.5 49 9.8749 49 20.2059V23.3235M49 23.3235H46.625C44.4387 23.3235 42.6667 25.0682 42.6667 27.2206V38.1324C42.6667 40.2848 44.4387 42.0294 46.625 42.0294H49M49 23.3235C54.2469 23.3235 58.5 27.5108 58.5 32.6765C58.5 37.8421 54.2469 42.0294 49 42.0294M49 42.0294L47.0326 49.7771C46.3277 52.5527 43.7946 54.5 40.8883 54.5H33.1667" stroke="#1FB6B2" stroke-width="3" stroke-linecap="round" stroke-linejoin="round"/>
</svg>
