<svg width="35" height="35" viewBox="0 0 35 35" fill="none" xmlns="http://www.w3.org/2000/svg">
<rect width="35" height="35" rx="10" fill="#179A96" fill-opacity="0.2"/>
<path d="M16.4258 6.35062C16.7661 5.58073 16.9364 5.19578 17.1733 5.07724C17.3792 4.97425 17.6209 4.97425 17.8267 5.07724C18.0637 5.19578 18.2339 5.58073 18.5743 6.35062L21.2852 12.4829C21.3859 12.7105 21.4362 12.8243 21.5141 12.9114C21.5829 12.9885 21.6672 13.0502 21.7611 13.0924C21.8674 13.1401 21.9903 13.1532 22.2361 13.1794L28.8582 13.8841C29.6896 13.9725 30.1052 14.0168 30.2903 14.2074C30.451 14.373 30.5256 14.6048 30.4921 14.834C30.4536 15.0979 30.1431 15.38 29.5221 15.9443L24.5755 20.439C24.392 20.6057 24.3001 20.6892 24.242 20.7907C24.1906 20.8807 24.1584 20.9805 24.1476 21.0836C24.1354 21.2003 24.161 21.3221 24.2123 21.566L25.594 28.1337C25.7675 28.9583 25.8542 29.3705 25.7316 29.6068C25.625 29.8123 25.4295 29.9555 25.2029 29.9942C24.9421 30.0386 24.58 29.8281 23.8558 29.407L18.0876 26.0525C17.8736 25.928 17.7666 25.8659 17.6528 25.8414C17.5521 25.8199 17.448 25.8199 17.3473 25.8414C17.2335 25.8659 17.1264 25.928 16.9124 26.0525L11.1442 29.407C10.4201 29.8281 10.058 30.0386 9.79716 29.9942C9.57059 29.9555 9.375 29.8123 9.2685 29.6068C9.14591 29.3705 9.23263 28.9583 9.4061 28.1337L10.7877 21.566C10.839 21.3221 10.8646 21.2003 10.8524 21.0836C10.8417 20.9805 10.8095 20.8807 10.7581 20.7907C10.6999 20.6892 10.6081 20.6057 10.4245 20.439L5.478 15.9443C4.85699 15.38 4.54648 15.0979 4.50787 14.834C4.47435 14.6048 4.54905 14.373 4.7098 14.2074C4.89486 14.0168 5.31055 13.9725 6.14193 13.8841L12.764 13.1794C13.0097 13.1532 13.1326 13.1401 13.2389 13.0924C13.3329 13.0502 13.4171 12.9885 13.486 12.9114C13.5638 12.8243 13.6141 12.7105 13.7148 12.4829L16.4258 6.35062Z" stroke="#179A96" stroke-width="2" stroke-linecap="round" stroke-linejoin="round"/>
</svg>
