<svg width="92" height="88" viewBox="0 0 92 88" fill="none" xmlns="http://www.w3.org/2000/svg">
<path d="M42.5294 8.32197C43.629 5.85833 44.179 4.62651 44.9447 4.24718C45.6096 3.91761 46.3905 3.91761 47.0554 4.24718C47.8211 4.62651 48.3711 5.85833 49.4707 8.32197L58.2292 27.9452C58.5546 28.6735 58.717 29.0377 58.9688 29.3165C59.1911 29.5633 59.4632 29.7606 59.7667 29.8957C60.1101 30.0485 60.5072 30.0903 61.3014 30.174L82.6957 32.4291C85.3817 32.7121 86.7244 32.8537 87.3224 33.4637C87.8416 33.9934 88.0829 34.7353 87.9746 35.4688C87.8501 36.3132 86.847 37.2158 84.8407 39.0217L68.8592 53.4047C68.2664 53.9383 67.9696 54.2054 67.7819 54.5303C67.6157 54.8182 67.5117 55.1375 67.477 55.4676C67.4376 55.8409 67.5202 56.2308 67.686 57.0111L72.1498 78.0278C72.7103 80.6666 72.9905 81.9857 72.5944 82.7418C72.25 83.3993 71.6183 83.8575 70.8864 83.9813C70.0438 84.1236 68.8739 83.45 66.5342 82.1024L47.8985 71.368C47.207 70.9696 46.8612 70.7708 46.4935 70.6926C46.1682 70.6238 45.8319 70.6238 45.5065 70.6926C45.1389 70.7708 44.7931 70.9696 44.1016 71.368L25.466 82.1024C23.1264 83.45 21.9566 84.1236 21.1139 83.9813C20.3819 83.8575 19.75 83.3993 19.4059 82.7418C19.0099 81.9857 19.29 80.6666 19.8505 78.0278L24.3141 57.0111C24.4798 56.2308 24.5626 55.8409 24.5233 55.4676C24.4885 55.1375 24.3846 54.8182 24.2183 54.5303C24.0305 54.2054 23.7339 53.9383 23.1408 53.4047L7.1597 39.0217C5.15335 37.2158 4.15016 36.3132 4.02543 35.4688C3.91714 34.7353 4.15847 33.9934 4.67781 33.4637C5.27571 32.8537 6.6187 32.7121 9.30468 32.4291L30.699 30.174C31.493 30.0903 31.89 30.0485 32.2333 29.8957C32.5371 29.7606 32.809 29.5633 33.0316 29.3165C33.2831 29.0377 33.4456 28.6735 33.7708 27.9452L42.5294 8.32197Z" stroke="white" stroke-width="8" stroke-linecap="round" stroke-linejoin="round"/>
</svg>
