<svg width="75" height="75" viewBox="0 0 75 75" fill="none" xmlns="http://www.w3.org/2000/svg">
<g filter="url(#filter0_i_19_131)">
<rect width="75" height="75" rx="37.5" fill="#D9D9D9" fill-opacity="0.15"/>
<path d="M60 33C59.9165 30.0501 59.6357 28.1694 58.6899 26.5644C57.3447 24.2818 54.9223 23.0115 50.0772 20.4709L45.5737 18.1094C41.6205 16.0365 39.6439 15 37.5176 15C35.3912 15 33.4146 16.0365 29.4614 18.1094L24.9579 20.4709C20.1129 23.0115 17.6904 24.2818 16.3452 26.5644C15 28.8471 15 31.6875 15 37.3684V37.6316C15 43.3124 15 46.1531 16.3452 48.4357C17.6904 50.7183 20.1129 51.9884 24.9579 54.5291L29.4614 56.8905C33.4146 58.9634 35.3912 60 37.5176 60C39.6439 60 41.6205 58.9634 45.5737 56.8905L50.0772 54.5291C54.9223 51.9884 57.3447 50.7183 58.6899 48.4357C59.6357 46.8305 59.9165 44.95 60 42" stroke="#179A96" stroke-width="3" stroke-linecap="round"/>
<path d="M57.7834 27.375L48.7764 31.875M48.7764 31.875C48.7764 31.875 48.0903 32.2178 47.6505 32.4375C43.6932 34.4146 37.5176 37.5 37.5176 37.5M48.7764 31.875V39.75M48.7764 31.875L27.3847 20.625M37.5176 37.5L17.2518 27.375M37.5176 37.5V58.875" stroke="#179A96" stroke-width="3" stroke-linecap="round"/>
</g>
<defs>
<filter id="filter0_i_19_131" x="0" y="-3" width="75" height="78" filterUnits="userSpaceOnUse" color-interpolation-filters="sRGB">
<feFlood flood-opacity="0" result="BackgroundImageFix"/>
<feBlend mode="normal" in="SourceGraphic" in2="BackgroundImageFix" result="shape"/>
<feColorMatrix in="SourceAlpha" type="matrix" values="0 0 0 0 0 0 0 0 0 0 0 0 0 0 0 0 0 0 127 0" result="hardAlpha"/>
<feOffset dy="-3"/>
<feGaussianBlur stdDeviation="2"/>
<feComposite in2="hardAlpha" operator="arithmetic" k2="-1" k3="1"/>
<feColorMatrix type="matrix" values="0 0 0 0 0 0 0 0 0 0 0 0 0 0 0 0 0 0 0.25 0"/>
<feBlend mode="normal" in2="shape" result="effect1_innerShadow_19_131"/>
</filter>
</defs>
</svg>
