<svg width="70" height="70" viewBox="0 0 70 70" fill="none" xmlns="http://www.w3.org/2000/svg">
<rect x="1" y="1" width="68" height="68" rx="24" stroke="#1FB6B2" stroke-width="2"/>
<path d="M18.6667 30.9412H20.7083C22.5876 30.9412 24.1111 32.4554 24.1111 34.3235V43.7941C24.1111 45.6623 22.5876 47.1765 20.7083 47.1765H18.6667C14.1564 47.1765 10.5 43.5422 10.5 39.0588C10.5 34.5754 14.1564 30.9412 18.6667 30.9412ZM18.6667 30.9412V28.2353C18.6667 19.2688 25.9793 12 35 12C44.0206 12 51.3333 19.2688 51.3333 28.2353V30.9412M51.3333 30.9412H49.2917C47.4122 30.9412 45.8889 32.4554 45.8889 34.3235V43.7941C45.8889 45.6623 47.4122 47.1765 49.2917 47.1765H51.3333M51.3333 30.9412C55.8438 30.9412 59.5 34.5754 59.5 39.0588C59.5 43.5422 55.8438 47.1765 51.3333 47.1765M51.3333 47.1765L49.642 53.9009C49.0361 56.3099 46.8585 58 44.3601 58H37.7222" stroke="#1FB6B2" stroke-width="3" stroke-linecap="round" stroke-linejoin="round"/>
</svg>
