<svg width="15" height="15" viewBox="0 0 15 15" fill="none" xmlns="http://www.w3.org/2000/svg">
<path d="M9.93619 7.44305C8.54372 7.44303 7.25857 7.82814 6.30422 8.5995C5.34987 9.37087 4.74973 10.5426 4.74976 11.9816V11.9827V11.9839C4.74989 12.0053 4.75208 13.2742 4.75208 13.2742L4.74976 14.9998H14.9866L14.9952 13.2742C14.9952 13.2742 14.9969 12.6507 14.9975 12.4113C14.9981 12.172 15.0003 11.9731 14.9998 11.9907V11.9861V11.9814C14.9998 10.3983 14.2766 9.21757 13.2856 8.48708C12.2945 7.7566 11.0561 7.44288 9.93706 7.44287L9.93619 7.44305ZM9.93619 8.31379C10.8908 8.3138 11.9685 8.59649 12.774 9.1902C13.5795 9.78392 14.135 10.6555 14.135 11.9816C14.1339 12.0444 14.1333 12.1733 14.1327 12.4079C14.1321 12.6474 14.1316 12.96 14.1304 13.2718C14.1293 13.582 14.1276 13.8907 14.1258 14.129H5.61901C5.61786 13.8908 5.61611 13.5816 5.61553 13.2718C5.6138 12.6498 5.61382 12.0497 5.61325 11.9816C5.61322 10.7783 6.07721 9.89822 6.84377 9.27864C7.61033 8.65906 8.70262 8.31377 9.93619 8.31379Z" fill="white"/>
<path d="M9.93668 0C8.11778 0 6.63428 1.49282 6.63428 3.32424C6.63428 5.15567 8.11778 6.64962 9.93668 6.64962C11.7556 6.64962 13.2402 5.15567 13.2402 3.32424C13.2402 1.49282 11.7556 0 9.93668 0ZM9.93668 0.870744C11.2895 0.870744 12.3764 1.96425 12.3764 3.32424C12.3764 4.68425 11.2895 5.77888 9.93668 5.77888C8.58381 5.77888 7.49812 4.68425 7.49812 3.32424C7.49812 1.96425 8.58381 0.870744 9.93668 0.870744Z" fill="white"/>
<path d="M4.51943 7.78906C3.22153 7.78902 2.08759 8.1524 1.27439 8.88543C0.461194 9.61846 -0.000166964 10.7119 4.53264e-08 12.0373V12.0385V12.0397C0.000115224 12.0628 0.00231994 13.3016 0.00231994 13.3016L0.0110019 15H3.54669H4.02582V14.1292H3.54669H0.868553C0.867401 13.8972 0.866844 13.6003 0.866268 13.3004C0.865116 12.6891 0.864524 12.0927 0.863948 12.0351C0.864357 10.9079 1.22943 10.0949 1.85039 9.53516C2.47138 8.9754 3.37993 8.6603 4.51728 8.65988C4.6458 8.66104 5.02674 8.69864 5.02674 8.69864C5.02674 8.69864 5.46639 8.16961 5.6657 7.91381L5.2394 7.84692C5.00216 7.80971 4.76199 7.79049 4.52178 7.7891H4.52062L4.51943 7.78906Z" fill="white"/>
<path d="M4.47634 1.12312C2.83562 1.11151 1.48544 2.4498 1.47444 4.10156C1.46326 5.75332 2.79537 7.10989 4.43609 7.12068C5.14588 7.12474 5.83059 6.87323 6.36986 6.41731C6.43539 6.36199 6.49814 6.30392 6.5589 6.24285L6.77823 6.0207L6.25464 5.319L6.02304 5.56102C5.98059 5.60537 5.86156 5.71117 5.8153 5.75026C5.43236 6.07402 4.94515 6.25303 4.4408 6.24997C3.266 6.24225 2.3303 5.28751 2.33828 4.10745C2.34617 2.92738 3.29458 1.98552 4.46938 1.99383C4.82755 1.99615 5.18007 2.08968 5.49224 2.26611L5.86876 2.47958C5.86876 2.47958 6.13884 1.76822 6.17685 1.6583L5.91467 1.50708C5.47522 1.25871 4.98028 1.12677 4.47634 1.12312Z" fill="white"/>
</svg>
